<svg width="144" height="117" viewBox="0 0 144 117" fill="none" xmlns="http://www.w3.org/2000/svg">
<circle cx="85.5" cy="58.5" r="58.5" fill="#E0F9FF"/>
<path d="M80.0056 63.7169C80.9243 69.1519 86.075 72.813 91.51 71.8944C96.945 70.9758 100.606 65.825 99.6876 60.39C98.7689 54.9551 93.6182 51.2939 88.1832 52.2125C83.9949 52.9205 80.7136 56.2018 80.0056 60.39L68.1274 60.3907C67.797 56.7214 66.3617 53.2388 64.0109 50.4023L85.037 30.878C89.8998 33.5785 96.031 31.8257 98.7315 26.963C101.432 22.1002 99.6792 15.969 94.8165 13.2685C89.9537 10.568 83.8226 12.3208 81.122 17.1835C79.0423 20.9285 79.559 25.5792 82.4101 28.7763L61.6609 48.0434C58.8096 45.6435 55.2909 44.1763 51.5792 43.8401V31.9607C57.0142 31.0412 60.6745 25.8898 59.7551 20.4551C58.8356 15.0201 53.6842 11.3597 48.2495 12.2792C42.8145 13.1986 39.1541 18.35 40.0736 23.7848C40.7822 27.9731 44.0639 31.2539 48.2524 31.9613V43.8401C44.5396 44.1759 41.0194 45.6431 38.1675 48.0436L17.4181 28.7765C21.0514 24.6801 20.6761 18.4141 16.5798 14.7807C12.4834 11.1474 6.21733 11.523 2.58403 15.6193C-1.04928 19.7155 -0.673766 25.9815 3.42239 29.6148C6.56249 32.4 11.1161 32.9059 14.791 30.878L35.8171 50.4023C33.4663 53.2388 32.0308 56.7216 31.7006 60.3909H19.8226C18.9042 54.9559 13.7538 51.2945 8.31905 52.2129C2.88406 53.1313 -0.777313 58.2817 0.141098 63.7164C1.05951 69.1514 6.20985 72.8128 11.6446 71.8944C15.8329 71.1866 19.1142 67.9058 19.8224 63.7177H31.7008C32.0753 67.8078 33.8206 71.6513 36.6538 74.6249L16.6854 94.5933C12.6198 90.9486 6.36933 91.29 2.72458 95.3556C-0.920158 99.4212 -0.578743 105.672 3.48684 109.316C7.55243 112.961 13.8029 112.62 17.4476 108.554C20.243 105.436 20.7705 100.895 18.7642 97.2188L39.1589 76.8241C41.821 78.7766 44.9646 79.9667 48.2522 80.267V92.145C42.8172 93.0628 39.1552 98.2129 40.0732 103.648C40.991 109.083 46.1411 112.745 51.5761 111.827C57.0111 110.909 60.6731 105.759 59.7551 100.324C59.0477 96.1357 55.767 92.854 51.579 92.1454V80.2668C55.2905 79.9303 58.8094 78.4632 61.6607 76.0635L82.4099 95.3306C78.7766 99.427 79.1519 105.693 83.2483 109.326C87.3446 112.96 93.6107 112.584 97.244 108.488C100.877 104.392 100.502 98.1256 96.4056 94.4923C93.2655 91.7071 88.7119 91.2012 85.037 93.2291L64.0109 73.7048C66.3615 70.8687 67.7966 67.3866 68.1272 63.7179L80.0056 63.7169ZM89.836 55.3998C93.5107 55.3998 96.4896 58.3788 96.4896 62.0535C96.4896 65.7281 93.5107 68.7071 89.836 68.7071C86.1613 68.7071 83.1824 65.7281 83.1824 62.0535C83.1863 58.3804 86.1628 55.4038 89.836 55.3998ZM89.836 15.4779C93.5107 15.4779 96.4896 18.4569 96.4896 22.1316C96.4896 25.8063 93.5107 28.7852 89.836 28.7852C86.1613 28.7852 83.1824 25.8063 83.1824 22.1316C83.1863 18.4586 86.1628 15.4819 89.836 15.4779ZM9.99224 28.7852C6.31922 28.7813 3.34254 25.8046 3.33859 22.1316C3.33859 18.4569 6.31755 15.4779 9.99224 15.4779C13.6669 15.4779 16.6459 18.4569 16.6459 22.1316C16.6459 25.8063 13.6669 28.7852 9.99224 28.7852ZM9.99224 68.7071C6.31755 68.7071 3.33859 65.7281 3.33859 62.0535C3.33859 58.3788 6.31755 55.3998 9.99224 55.3998C13.6669 55.3998 16.6459 58.3788 16.6459 62.0535C16.6419 65.7265 13.6653 68.7031 9.99224 68.7071ZM9.99224 108.629C6.31755 108.629 3.33859 105.65 3.33859 101.975C3.33859 98.3006 6.31755 95.3217 9.99224 95.3217C13.6669 95.3217 16.6459 98.3006 16.6459 101.975C16.6419 105.648 13.6653 108.625 9.99224 108.629ZM89.836 95.3217C93.509 95.3256 96.4857 98.3023 96.4896 101.975C96.4896 105.65 93.5107 108.629 89.836 108.629C86.1613 108.629 83.1824 105.65 83.1824 101.975C83.1824 98.3006 86.1613 95.3217 89.836 95.3217ZM43.2605 22.1316C43.2601 18.4569 46.2386 15.4775 49.9133 15.4771C53.588 15.4767 56.5673 18.4552 56.5678 22.1299C56.5682 25.8046 53.5896 28.784 49.915 28.7844C49.9147 28.7844 49.9143 28.7844 49.9141 28.7844C46.2413 28.7804 43.2648 25.8044 43.2605 22.1316ZM56.5678 101.975C56.5678 105.65 53.5888 108.629 49.9141 108.629C46.2394 108.629 43.2605 105.65 43.2605 101.975C43.2605 98.3006 46.2394 95.3217 49.9141 95.3217C53.5871 95.3256 56.5638 98.3023 56.5678 101.975ZM49.9141 77.0241C41.6459 77.0241 34.9434 70.3214 34.9434 62.0535C34.9528 53.7892 41.6499 47.0921 49.9141 47.0827C58.1823 47.0827 64.8848 53.7853 64.8848 62.0535C64.8848 70.3214 58.1821 77.0241 49.9141 77.0241Z" fill="black"/>
</svg>
