<svg width="113" height="77" viewBox="0 0 113 77" fill="none" xmlns="http://www.w3.org/2000/svg">
<circle cx="75.5" cy="39.498" r="37.5" fill="#D2F7FF"/>
<path d="M29.5913 53.5568C29.308 53.5568 29.0226 53.4593 28.7898 53.261L20.7773 46.4384C20.501 46.2028 20.342 45.8587 20.342 45.4953C20.342 45.1325 20.5017 44.7884 20.7773 44.5528L28.7898 37.7302C29.3101 37.2866 30.0915 37.3495 30.5351 37.8698C30.9781 38.3908 30.9159 39.1723 30.3949 39.6152L23.4901 45.4953L30.3949 51.3754C30.9159 51.819 30.9781 52.6005 30.5351 53.1208C30.2899 53.4089 29.9416 53.5568 29.5913 53.5568Z" fill="#3D3D3D"/>
<path d="M45.4087 53.5568C45.0584 53.5568 44.7102 53.4089 44.4656 53.1208C44.022 52.6005 44.0849 51.819 44.6051 51.3754L51.51 45.4953L44.6051 39.6152C44.0849 39.1723 44.022 38.3908 44.4656 37.8698C44.9085 37.3495 45.6907 37.2866 46.2103 37.7302L54.2227 44.5528C54.4991 44.7884 54.658 45.1325 54.658 45.4953C54.658 45.8587 54.4991 46.2028 54.2227 46.4384L46.2103 53.261C45.9774 53.4593 45.692 53.5568 45.4087 53.5568Z" fill="#3D3D3D"/>
<path d="M34.6638 58.6743C34.5788 58.6743 34.4931 58.6653 34.4067 58.6474C33.7379 58.5064 33.3095 57.8493 33.4504 57.1804L38.444 33.4714C38.585 32.8026 39.2414 32.3742 39.9109 32.5151C40.5798 32.6561 41.0082 33.3125 40.8672 33.982L35.8736 57.6911C35.7506 58.2742 35.2366 58.6743 34.6638 58.6743Z" fill="#3D3D3D"/>
<path d="M66.6863 71.5913H8.31368C3.72982 71.5913 0 67.8621 0 63.2776V13.7341C0 9.15023 3.72982 5.42041 8.31368 5.42041H66.6863C71.2702 5.42041 75 9.15023 75 13.7341V63.2776C75 67.8621 71.2702 71.5913 66.6863 71.5913ZM8.31368 7.89683C5.09517 7.89683 2.47642 10.5156 2.47642 13.7341V63.2776C2.47642 66.4961 5.09517 69.1149 8.31368 69.1149H66.6863C69.9048 69.1149 72.5236 66.4961 72.5236 63.2776V13.7341C72.5236 10.5156 69.9048 7.89683 66.6863 7.89683H8.31368Z" fill="#3D3D3D"/>
<path d="M73.7618 25.2479H1.23821C0.554153 25.2479 0 24.6937 0 24.0097C0 23.3263 0.554153 22.7715 1.23821 22.7715H73.7618C74.4458 22.7715 75 23.3263 75 24.0097C75 24.6937 74.4458 25.2479 73.7618 25.2479Z" fill="#3D3D3D"/>
<path d="M21.156 19.3223C18.9961 19.3223 17.2375 17.5638 17.2375 15.4038C17.2375 13.2432 18.9961 11.4854 21.156 11.4854C23.3167 11.4854 25.0745 13.2432 25.0745 15.4038C25.0745 17.5638 23.3167 19.3223 21.156 19.3223ZM21.156 13.9618C20.3614 13.9618 19.714 14.6085 19.714 15.4038C19.714 16.1991 20.3614 16.8458 21.156 16.8458C21.9513 16.8458 22.598 16.1991 22.598 15.4038C22.598 14.6085 21.9513 13.9618 21.156 13.9618Z" fill="#3D3D3D"/>
<path d="M9.11645 19.2842C6.95581 19.2842 5.198 17.5264 5.198 15.3657C5.198 13.2051 6.95581 11.4473 9.11645 11.4473C11.2771 11.4473 13.0349 13.2051 13.0349 15.3657C13.0349 17.5264 11.2771 19.2842 9.11645 19.2842ZM9.11645 13.9237C8.32185 13.9237 7.67441 14.5711 7.67441 15.3657C7.67441 16.161 8.32185 16.8078 9.11645 16.8078C9.91175 16.8078 10.5585 16.161 10.5585 15.3657C10.5585 14.5711 9.91175 13.9237 9.11645 13.9237Z" fill="#3D3D3D"/>
<path d="M33.1954 19.3597C31.0354 19.3597 29.2776 17.6018 29.2776 15.4412C29.2776 13.2812 31.0354 11.5234 33.1954 11.5234C35.356 11.5234 37.1138 13.2812 37.1138 15.4412C37.1138 17.6018 35.356 19.3597 33.1954 19.3597ZM33.1954 13.9992C32.4007 13.9992 31.754 14.6459 31.754 15.4412C31.754 16.2365 32.4007 16.8832 33.1954 16.8832C33.9907 16.8832 34.6374 16.2365 34.6374 15.4412C34.6374 14.6459 33.9907 13.9992 33.1954 13.9992Z" fill="#3D3D3D"/>
</svg>
