<svg width="102" height="77" viewBox="0 0 102 77" fill="none" xmlns="http://www.w3.org/2000/svg">
<circle cx="64.5" cy="39.5" r="37.5" fill="#D2F7FF"/>
<path d="M72.952 10.887C72.8916 10.6785 72.7762 10.4901 72.6179 10.3415C72.4596 10.193 72.2643 10.0898 72.0524 10.0427L64.6305 8.36599L62.9538 0.944155C62.9062 0.732799 62.8026 0.538107 62.6541 0.380404C62.5055 0.222701 62.3173 0.107768 62.1092 0.0476027C61.9011 -0.0125625 61.6806 -0.0157541 61.4708 0.0383613C61.261 0.0924767 61.0696 0.201915 60.9165 0.355252L52.3805 8.89261C45.1573 4.5339 36.5884 2.96982 28.2911 4.49552C19.9937 6.02123 12.5418 10.5312 7.34153 17.1743C2.14128 23.8174 -0.4476 32.1342 0.063469 40.5552C0.574538 48.9762 4.1502 56.9188 10.1157 62.8843C16.0812 68.8498 24.0238 72.4255 32.4448 72.9365C40.8657 73.4476 49.1825 70.8587 55.8257 65.6585C62.4688 60.4582 66.9788 53.0062 68.5045 44.7089C70.0302 36.4115 68.4661 27.8427 64.1074 20.6194L72.6468 12.08C72.7997 11.9266 72.9086 11.735 72.9623 11.5252C73.0159 11.3153 73.0124 11.095 72.952 10.887ZM66.6505 38.4671C66.6496 45.5372 64.3155 52.4093 60.0103 58.0175C55.7052 63.6256 49.6696 67.6563 42.84 69.4843C36.0103 71.3123 28.7683 70.8353 22.2374 68.1275C15.7064 65.4196 10.2517 60.6322 6.71918 54.5079C3.18671 48.3835 1.77403 41.2647 2.70027 34.2555C3.62651 27.2464 6.83991 20.7389 11.842 15.7424C16.844 10.7459 23.3552 7.53973 30.3653 6.6213C37.3755 5.70287 44.4928 7.12348 50.6131 10.6628L46.6929 14.583C46.6592 14.6214 46.628 14.6618 46.5995 14.7041C40.939 11.8223 34.4361 11.054 28.2599 12.5373C22.0836 14.0206 16.6389 17.6582 12.9045 22.7964C9.17006 27.9345 7.39075 34.2361 7.88641 40.5687C8.38206 46.9012 11.1202 52.8492 15.6086 57.3438C20.097 61.8383 26.0413 64.5845 32.3732 65.0887C38.705 65.593 45.0091 63.8223 50.1523 60.0948C55.2955 56.3674 58.9405 50.9277 60.4322 44.7534C61.9239 38.5792 61.1645 32.0753 58.2903 26.4109C58.3348 26.3795 58.3772 26.345 58.417 26.3078L62.3372 22.3875C65.1682 27.2731 66.6563 32.8206 66.6505 38.4671ZM55.4164 26.2088C58.3905 31.2859 59.4125 37.2727 58.2912 43.0489C57.1699 48.825 53.9821 53.9946 49.3244 57.5902C44.6668 61.1857 38.8585 62.9607 32.9867 62.583C27.1148 62.2053 21.5818 59.7008 17.4232 55.5382C13.2646 51.3756 10.7654 45.8402 10.3933 39.9679C10.0213 34.0957 11.8019 28.2892 15.4019 23.635C19.0019 18.9808 24.1746 15.798 29.9518 14.6822C35.7291 13.5665 41.7149 14.5943 46.7891 17.5732L48.0645 23.2228L46.841 24.4463C43.1924 21.2424 38.4409 19.5829 33.591 19.8188C28.7411 20.0547 24.173 22.1674 20.8526 25.7102C17.5322 29.2531 15.7197 33.9484 15.7983 38.8034C15.877 43.6584 17.8406 48.2925 21.2741 51.7259C24.7075 55.1594 29.3416 57.123 34.1966 57.2017C39.0516 57.2803 43.7469 55.4678 47.2898 52.1474C50.8326 48.827 52.9453 44.2589 53.1812 39.409C53.4171 34.5591 51.7576 29.8076 48.5537 26.159L49.7772 24.9355L55.4164 26.2088ZM39.7403 38.4671C39.7445 39.6248 39.3643 40.7511 38.6594 41.6694C37.9544 42.5877 36.9645 43.2459 35.845 43.5408C34.7255 43.8357 33.5398 43.7506 32.4739 43.2988C31.408 42.8471 30.5222 42.0542 29.9556 41.0447C29.389 40.0352 29.1736 38.8661 29.3431 37.7209C29.5127 36.5757 30.0576 35.5192 30.8925 34.7172C31.7273 33.9152 32.8048 33.413 33.9559 33.2895C35.107 33.166 36.2665 33.4282 37.2525 34.0348L33.6761 37.6111C33.5605 37.7229 33.4683 37.8565 33.4048 38.0043C33.3414 38.152 33.308 38.3109 33.3067 38.4717C33.3053 38.6325 33.336 38.792 33.3969 38.9408C33.4578 39.0896 33.5478 39.2248 33.6615 39.3385C33.7752 39.4522 33.9104 39.5421 34.0593 39.603C34.2081 39.6638 34.3676 39.6944 34.5284 39.693C34.6892 39.6916 34.8481 39.6581 34.9958 39.5946C35.1436 39.5311 35.2772 39.4388 35.3889 39.3232L38.9652 35.7468C39.4715 36.5639 39.7399 37.5059 39.7403 38.4671ZM38.9956 32.2916C37.4354 31.1615 35.5066 30.6607 33.5936 30.8891C31.6806 31.1175 29.9239 32.0584 28.6736 33.5241C27.4233 34.9899 26.7712 36.8729 26.8472 38.798C26.9233 40.7231 27.7219 42.5488 29.0839 43.9114C30.4459 45.274 32.2713 46.0733 34.1964 46.1501C36.1214 46.227 38.0047 45.5756 39.471 44.3259C40.9373 43.0762 41.8788 41.3199 42.108 39.407C42.3372 37.4941 41.8372 35.5651 40.7077 34.0044L46.8375 27.8745C49.5841 31.0654 50.9868 35.1967 50.7509 39.4003C50.5149 43.6038 48.6587 47.5522 45.5723 50.4157C42.4859 53.2792 38.4097 54.8347 34.2003 54.7555C29.9909 54.6762 25.9761 52.9683 22.9997 49.9907C20.0232 47.0131 18.3169 42.9976 18.2394 38.7882C18.1618 34.5787 19.7191 30.5031 22.5838 27.4179C25.4485 24.3326 29.3977 22.478 33.6013 22.2438C37.805 22.0095 41.9357 23.4139 45.1255 26.1618L38.9956 32.2916ZM61.7241 19.5752L57.179 24.1196L56.4973 23.966L56.471 23.9598L50.4055 22.5945L48.8769 15.8245L61.0784 3.62086L62.4396 9.64552C62.4901 9.86887 62.6028 10.0733 62.7647 10.2353C62.9267 10.3972 63.1311 10.5099 63.3545 10.5604L69.3791 11.9215L61.7241 19.5752Z" fill="#3D3D3D"/>
</svg>
