<svg width="134" height="85" viewBox="0 0 134 85" fill="none" xmlns="http://www.w3.org/2000/svg">
<circle cx="96.5" cy="37.5" r="37.5" fill="#D2F7FF"/>
<rect x="29" y="3" width="75" height="61" rx="6" stroke="#3D3D3D" stroke-width="2"/>
<path d="M29 51H104V58C104 61.3137 101.314 64 98 64H35C31.6863 64 29 61.3137 29 58V51Z" stroke="#3D3D3D" stroke-width="2"/>
<path d="M29 9C29 5.68629 31.6863 3 35 3H98C101.314 3 104 5.68629 104 9V15H29V9Z" stroke="#3D3D3D" stroke-width="2"/>
<path d="M55.9476 32.9111C55.9476 31.7884 55.7265 30.6767 55.2969 29.6395C54.8672 28.6023 54.2375 27.6599 53.4437 26.866C52.6498 26.0722 51.7074 25.4424 50.6702 25.0128C49.633 24.5832 48.5213 24.3621 47.3986 24.3621V32.9111H55.9476Z" fill="#3D3D3D"/>
<path d="M41.7367 40.7366C42.9928 41.718 44.4984 42.3287 46.0832 42.4996C47.6681 42.6706 49.2692 42.395 50.7057 41.704C52.1422 41.013 53.357 39.9342 54.2127 38.5893C55.0684 37.2444 55.5311 35.687 55.5485 34.0931L47 33.9999L41.7367 40.7366Z" fill="#3D3D3D"/>
<mask id="path-7-inside-1" fill="white">
<path d="M45.9123 24.3621C44.1473 24.3621 42.4256 24.9084 40.9834 25.926C39.5413 26.9436 38.4495 28.3826 37.8579 30.0454C37.2662 31.7083 37.2038 33.5136 37.6791 35.2134C38.1544 36.9132 39.1442 38.4242 40.5126 39.539L45.9123 32.9111V24.3621Z"/>
</mask>
<path d="M45.9123 24.3621C44.1473 24.3621 42.4256 24.9084 40.9834 25.926C39.5413 26.9436 38.4495 28.3826 37.8579 30.0454C37.2662 31.7083 37.2038 33.5136 37.6791 35.2134C38.1544 36.9132 39.1442 38.4242 40.5126 39.539L45.9123 32.9111V24.3621Z" stroke="#3D3D3D" stroke-width="1.48678" mask="url(#path-7-inside-1)"/>
<rect x="67" y="28" width="4" height="18" rx="2" fill="#3D3D3D"/>
<rect x="75" y="20" width="4" height="26" rx="2" fill="#3D3D3D"/>
<rect x="83" y="36" width="4" height="10" rx="2" fill="#3D3D3D"/>
<rect x="91" y="29" width="4" height="17" rx="2" fill="#3D3D3D"/>
<path d="M58 64L56 72" stroke="#3D3D3D" stroke-width="2"/>
<path d="M72 64L75 72" stroke="#3D3D3D" stroke-width="2"/>
<rect x="47" y="72" width="36" height="5" rx="2.5" stroke="#3D3D3D" stroke-width="2"/>
<path d="M27 39H32.9783L38.9565 40.56L39.5 65H27V39Z" fill="white"/>
<path d="M34.3125 49.75H28.2307C27.713 49.75 27.2932 50.1697 27.2932 50.6875C27.2932 51.2053 27.713 51.625 28.2307 51.625H33.375V70.375H14.625V51.625H19.7932C20.3108 51.625 20.7307 51.2053 20.7307 50.6875C20.7307 50.1697 20.3108 49.75 19.7932 49.75H13.6875C13.1698 49.75 12.75 50.1697 12.75 50.6875V71.3125C12.75 71.8302 13.1698 72.25 13.6875 72.25H34.3125C34.8302 72.25 35.25 71.8302 35.25 71.3125V50.6875C35.25 50.1697 34.8302 49.75 34.3125 49.75Z" fill="#3D3D3D"/>
<path d="M16.875 54.8125V58.9375C16.875 59.4553 17.2948 59.875 17.8125 59.875H21.9375C22.4552 59.875 22.875 59.4553 22.875 58.9375V54.8125C22.875 54.2947 22.4552 53.875 21.9375 53.875H17.8125C17.2948 53.875 16.875 54.2947 16.875 54.8125ZM18.75 55.75H21V58H18.75V55.75Z" fill="#3D3D3D"/>
<path d="M26.0625 55.75H30.1875C30.7052 55.75 31.125 55.3303 31.125 54.8125C31.125 54.2947 30.7052 53.875 30.1875 53.875H26.0625C25.5448 53.875 25.125 54.2947 25.125 54.8125C25.125 55.3303 25.5448 55.75 26.0625 55.75Z" fill="#3D3D3D"/>
<path d="M26.0625 59.875H30.1875C30.7052 59.875 31.125 59.4553 31.125 58.9375C31.125 58.4197 30.7052 58 30.1875 58H26.0625C25.5448 58 25.125 58.4197 25.125 58.9375C25.125 59.4553 25.5448 59.875 26.0625 59.875Z" fill="#3D3D3D"/>
<path d="M26.0625 68.125H30.1875C30.7052 68.125 31.125 67.7052 31.125 67.1875V63.0625C31.125 62.5448 30.7052 62.125 30.1875 62.125C29.6698 62.125 29.25 62.5448 29.25 63.0625V66.25H26.0625C25.5448 66.25 25.125 66.6698 25.125 67.1875C25.125 67.7052 25.5448 68.125 26.0625 68.125Z" fill="#3D3D3D"/>
<path d="M26.0625 64C26.3091 64 26.5509 63.8997 26.7252 63.7252C26.8997 63.5509 27 63.3091 27 63.0625C27 62.8159 26.8997 62.5741 26.7252 62.3997C26.5509 62.2253 26.3091 62.125 26.0625 62.125C25.8159 62.125 25.5741 62.2252 25.3997 62.3997C25.2253 62.5742 25.125 62.8159 25.125 63.0625C25.125 63.3091 25.2252 63.5509 25.3997 63.7252C25.5741 63.8997 25.8159 64 26.0625 64Z" fill="#3D3D3D"/>
<path d="M21.9375 66.25H17.8125C17.2948 66.25 16.875 66.6698 16.875 67.1875C16.875 67.7052 17.2948 68.125 17.8125 68.125H21.9375C22.4552 68.125 22.875 67.7052 22.875 67.1875C22.875 66.6698 22.4552 66.25 21.9375 66.25Z" fill="#3D3D3D"/>
<path d="M21.9375 62.125H17.8125C17.2948 62.125 16.875 62.5448 16.875 63.0625C16.875 63.5802 17.2948 64 17.8125 64H21.9375C22.4552 64 22.875 63.5802 22.875 63.0625C22.875 62.5448 22.4552 62.125 21.9375 62.125Z" fill="#3D3D3D"/>
<path d="M47.0625 61.9375C47.5802 61.9375 48 61.5177 48 61C48 60.4822 47.5802 60.0625 47.0625 60.0625H39.75V56.6875H43.3125C43.8302 56.6875 44.25 56.2678 44.25 55.75C44.25 55.2322 43.8302 54.8125 43.3125 54.8125H39.75V51.4375H47.0625C47.5802 51.4375 48 51.0178 48 50.5C48 49.9822 47.5802 49.5625 47.0625 49.5625H39.6941C39.3671 47.3702 37.6297 45.6329 35.4375 45.3059V37.9375C35.4375 37.4197 35.0177 37 34.5 37C33.9823 37 33.5625 37.4197 33.5625 37.9375V45.25H30.1875V41.6875C30.1875 41.1697 29.7677 40.75 29.25 40.75C28.7323 40.75 28.3125 41.1697 28.3125 41.6875V45.25H24.9375V37.9375C24.9375 37.4197 24.5177 37 24 37C23.4823 37 23.0625 37.4197 23.0625 37.9375V45.25H19.6875V41.6875C19.6875 41.1697 19.2677 40.75 18.75 40.75C18.2323 40.75 17.8125 41.1697 17.8125 41.6875V45.25H14.4375V37.9375C14.4375 37.4197 14.0177 37 13.5 37C12.9823 37 12.5625 37.4197 12.5625 37.9375V45.3059C10.3702 45.6329 8.63288 47.3702 8.30587 49.5625H0.9375C0.419813 49.5625 0 49.9822 0 50.5C0 51.0178 0.419813 51.4375 0.9375 51.4375H8.25V54.8125H4.6875C4.16981 54.8125 3.75 55.2322 3.75 55.75C3.75 56.2678 4.16981 56.6875 4.6875 56.6875H8.25V60.0625H0.9375C0.419813 60.0625 0 60.4822 0 61C0 61.5177 0.419813 61.9375 0.9375 61.9375H8.25V65.3125H4.6875C4.16981 65.3125 3.75 65.7323 3.75 66.25C3.75 66.7677 4.16981 67.1875 4.6875 67.1875H8.25V70.5625H0.9375C0.419813 70.5625 0 70.9823 0 71.5C0 72.0177 0.419813 72.4375 0.9375 72.4375H8.30587C8.63288 74.6297 10.3702 76.3671 12.5625 76.6941V84.0625C12.5625 84.5802 12.9823 85 13.5 85C14.0177 85 14.4375 84.5802 14.4375 84.0625V76.75H17.8125V80.3125C17.8125 80.8302 18.2323 81.25 18.75 81.25C19.2677 81.25 19.6875 80.8302 19.6875 80.3125V76.75H23.0625V84.0625C23.0625 84.5802 23.4823 85 24 85C24.5177 85 24.9375 84.5802 24.9375 84.0625V76.75H28.3125V80.3125C28.3125 80.8302 28.7323 81.25 29.25 81.25C29.7677 81.25 30.1875 80.8302 30.1875 80.3125V76.75H33.5625V84.0625C33.5625 84.5802 33.9823 85 34.5 85C35.0177 85 35.4375 84.5802 35.4375 84.0625V76.6941C37.6297 76.3671 39.3671 74.6297 39.6941 72.4375H47.0625C47.5802 72.4375 48 72.0177 48 71.5C48 70.9823 47.5802 70.5625 47.0625 70.5625H39.75V67.1875H43.3125C43.8302 67.1875 44.25 66.7677 44.25 66.25C44.25 65.7323 43.8302 65.3125 43.3125 65.3125H39.75V61.9375H47.0625ZM37.875 71.6875C37.875 73.4451 36.4451 74.875 34.6875 74.875H13.3125C11.5549 74.875 10.125 73.4451 10.125 71.6875V50.3125C10.125 48.5549 11.5549 47.125 13.3125 47.125H34.6875C36.4451 47.125 37.875 48.5549 37.875 50.3125V71.6875Z" fill="#3D3D3D"/>
<path d="M24.0117 51.625C24.2583 51.625 24.5002 51.5247 24.6745 51.3503C24.8488 51.1759 24.9492 50.9341 24.9492 50.6875C24.9492 50.4409 24.8489 50.1991 24.6745 50.0247C24.5002 49.8503 24.2583 49.75 24.0117 49.75C23.7642 49.75 23.5233 49.8503 23.3489 50.0247C23.1736 50.1991 23.0742 50.4409 23.0742 50.6875C23.0742 50.9341 23.1736 51.1759 23.3489 51.3503C23.5233 51.5247 23.7642 51.625 24.0117 51.625Z" fill="#3D3D3D"/>
</svg>
