<svg width="112" height="94" viewBox="0 0 112 94" fill="none" xmlns="http://www.w3.org/2000/svg">
<circle cx="74" cy="56.377" r="37.5" fill="#D2F7FF"/>
<g clip-path="url(#clip0_2909:1521)">
<path d="M51.125 90.877H39.875C37.25 90.877 34.25 88.627 34.25 84.127V76.252C34.25 72.502 32.375 69.127 29.375 66.502C22.625 61.252 19.25 53.752 19.25 45.502C19.625 31.252 31.25 20.002 45.125 19.627C52.25 19.627 59 22.252 63.875 27.127C68.75 32.002 71.75 38.752 71.75 45.877C71.75 53.752 68.375 61.252 62 66.127C58.625 68.752 56.75 72.877 56.75 76.627V85.252C56.75 88.252 54.125 90.877 51.125 90.877ZM45.5 23.377C33.5 23.377 23.375 33.502 23 45.502C23 52.627 26 59.377 31.625 63.502C35.75 66.877 38 71.377 38 76.252V84.127C38 84.877 38 87.127 39.875 87.127H51.125C52.25 87.127 53 86.377 53 85.252V76.627C53 71.752 55.625 66.502 59.75 63.127C65 59.002 68 52.627 68 45.877C68 39.877 65.75 34.252 61.25 29.752C57.125 25.627 51.5 23.377 45.5 23.377Z" fill="#3D3D3D"/>
<path d="M54.875 79.627H36.125C35 79.627 34.25 78.877 34.25 77.752C34.25 76.627 35 75.877 36.125 75.877H54.875C56 75.877 56.75 76.627 56.75 77.752C56.75 78.877 56 79.627 54.875 79.627Z" fill="#3D3D3D"/>
<path d="M45.5 12.127C44.375 12.127 43.625 11.377 43.625 10.252V2.75195C43.625 1.62695 44.375 0.876953 45.5 0.876953C46.625 0.876953 47.375 1.62695 47.375 2.75195V10.252C47.375 11.377 46.625 12.127 45.5 12.127Z" fill="#3D3D3D"/>
<path d="M70.625 22.627C70.25 22.627 69.5 22.627 69.125 22.252C68.375 21.502 68.375 20.377 69.125 19.627L74.375 14.377C75.125 13.627 76.25 13.627 77 14.377C77.75 15.127 77.75 16.252 77 17.002L71.75 22.252C71.75 22.252 71 22.627 70.625 22.627Z" fill="#3D3D3D"/>
<path d="M88.625 47.7519H81.125C80 47.7519 79.25 47.002 79.25 45.877C79.25 44.752 80 44.002 81.125 44.002H88.625C89.75 44.002 90.5 44.752 90.5 45.877C90.5 47.002 89.75 47.7519 88.625 47.7519Z" fill="#3D3D3D"/>
<path d="M75.875 78.127C75.5 78.127 74.75 78.127 74.375 77.752L69.125 72.502C68.375 71.752 68.375 70.627 69.125 69.877C69.875 69.127 71 69.127 71.75 69.877L77 75.1269C77.75 75.8769 77.75 77.002 77 77.752C77 78.127 76.625 78.127 75.875 78.127Z" fill="#3D3D3D"/>
<path d="M15.125 78.127C14.75 78.127 14 78.127 13.625 77.752C12.875 77.002 12.875 75.8769 13.625 75.1269L18.875 69.877C19.625 69.127 20.75 69.127 21.5 69.877C22.25 70.627 22.25 71.752 21.5 72.502L16.25 77.752C15.875 78.127 15.5 78.127 15.125 78.127Z" fill="#3D3D3D"/>
<path d="M9.875 47.7519H2.375C1.25 47.7519 0.5 47.002 0.5 45.877C0.5 44.752 1.25 44.002 2.375 44.002H9.875C11 44.002 11.75 44.752 11.75 45.877C11.75 47.002 11 47.7519 9.875 47.7519Z" fill="#3D3D3D"/>
<path d="M20.375 22.627C20 22.627 19.25 22.627 18.875 22.252L13.625 16.627C12.875 15.877 12.875 14.752 13.625 14.002C14.375 13.252 15.5 13.252 16.25 14.002L21.5 19.252C22.25 20.002 22.25 21.127 21.5 21.877C21.125 22.252 20.75 22.627 20.375 22.627Z" fill="#3D3D3D"/>
<path d="M60.5 47.7519C59.375 47.7519 58.625 47.0019 58.625 45.8769C58.625 38.7519 52.625 32.752 45.5 32.752C44.375 32.752 43.625 32.002 43.625 30.877C43.625 29.752 44.375 29.002 45.5 29.002C54.875 29.002 62.375 36.502 62.375 45.8769C62.375 47.0019 61.625 47.7519 60.5 47.7519Z" fill="#3D3D3D"/>
</g>
<defs>
<clipPath id="clip0_2909:1521">
<rect width="90" height="90" fill="white" transform="translate(0.5 0.876953)"/>
</clipPath>
</defs>
</svg>
