<svg width="162" height="158" viewBox="0 0 162 158" fill="none" xmlns="http://www.w3.org/2000/svg">
<circle cx="103.5" cy="58.5" r="58.5" fill="#E0F9FF"/>
<path d="M29.1591 117.313C26.1083 115.299 22.0863 115.409 19.1515 117.588C18.2306 118.272 18.0382 119.572 18.7218 120.493C19.1293 121.042 19.7559 121.332 20.3907 121.332C20.821 121.332 21.2548 121.199 21.6267 120.922C23.1647 119.781 25.2722 119.723 26.8708 120.779C27.8276 121.411 29.1159 121.147 29.7477 120.19C30.3795 119.233 30.1162 117.945 29.1591 117.313Z" fill="#3D3D3D"/>
<path d="M34.4976 110.208C28.346 105.864 20.1172 105.916 14.0212 110.339C13.0929 111.013 12.8866 112.311 13.56 113.239C13.9661 113.799 14.5996 114.097 15.2425 114.097C15.6652 114.097 16.0919 113.968 16.4601 113.701C21.1165 110.322 27.4021 110.282 32.1016 113.601C33.0386 114.262 34.3343 114.039 34.9957 113.102C35.6574 112.166 35.4343 110.87 34.4976 110.208Z" fill="#3D3D3D"/>
<path d="M39.5769 102.926C30.3913 96.4596 18.083 96.5095 8.94976 103.05C8.01728 103.717 7.80271 105.014 8.47051 105.947C8.87584 106.513 9.51346 106.814 10.1605 106.814C10.5791 106.814 11.0016 106.688 11.3676 106.426C19.067 100.912 29.4425 100.871 37.1861 106.322C38.1239 106.982 39.4193 106.757 40.0794 105.819C40.7397 104.881 40.5146 103.586 39.5769 102.926Z" fill="#3D3D3D"/>
<path d="M42.0254 73.7041H6.5152C2.92259 73.7041 0 76.627 0 80.2193V151.24C0 154.832 2.92287 157.755 6.5152 157.755H42.0254C45.618 157.755 48.5406 154.832 48.5406 151.24V80.2196C48.5406 76.627 45.618 73.7041 42.0254 73.7041ZM44.3876 151.24C44.3876 152.543 43.3278 153.602 42.0254 153.602H6.5152C5.21254 153.602 4.15298 152.542 4.15298 151.24V80.2196C4.15298 78.9169 5.21282 77.8574 6.5152 77.8574H42.0254C43.328 77.8574 44.3876 78.9172 44.3876 80.2196V151.24Z" fill="#3D3D3D"/>
<path d="M37.5862 140.286H10.9534C9.80667 140.286 8.87695 141.215 8.87695 142.362C8.87695 143.509 9.80667 144.439 10.9534 144.439H37.5862C38.733 144.439 39.6627 143.509 39.6627 142.362C39.6627 141.215 38.733 140.286 37.5862 140.286Z" fill="#3D3D3D"/>
<path d="M26.4898 146.944H22.0511C20.9043 146.944 19.9746 147.874 19.9746 149.02C19.9746 150.167 20.9043 151.097 22.0511 151.097H26.4898C27.6366 151.097 28.5663 150.167 28.5663 149.02C28.5663 147.874 27.6366 146.944 26.4898 146.944Z" fill="#3D3D3D"/>
<path d="M119.705 82.5817H119.562V24.7345C119.562 19.9182 115.644 16 110.827 16H26.4904C21.6741 16 17.7559 19.9182 17.7559 24.7345V66.9031C17.7559 68.0499 18.6856 68.9796 19.8323 68.9796C20.9791 68.9796 21.9088 68.0499 21.9088 66.9031V24.7345C21.9088 22.2082 23.964 20.153 26.4904 20.153H110.827C113.354 20.153 115.409 22.2082 115.409 24.7345V82.5817H55.3425C54.1958 82.5817 53.2661 83.5114 53.2661 84.6582C53.2661 85.8049 54.1958 86.7347 55.3425 86.7347H62.1509C62.1476 86.782 62.1437 86.8294 62.1437 86.8775C62.1437 88.0243 63.0735 88.954 64.2202 88.954H73.0976C74.2444 88.954 75.1741 88.0243 75.1741 86.8775C75.1741 86.8294 75.1703 86.782 75.1669 86.7347H119.705C119.784 86.7347 119.848 86.7986 119.848 86.8775V91.3162C119.848 91.3951 119.784 91.4591 119.705 91.4591H55.3425C54.1958 91.4591 53.2661 92.3888 53.2661 93.5356C53.2661 94.6824 54.1958 95.6121 55.3425 95.6121H119.705C122.074 95.6121 124.001 93.6851 124.001 91.3162V86.8775C124.001 84.5087 122.073 82.5817 119.705 82.5817Z" fill="#3D3D3D"/>
<path d="M108.607 24.8774H28.7093C27.5625 24.8774 26.6328 25.8072 26.6328 26.9539V66.9031C26.6328 68.0499 27.5625 68.9796 28.7093 68.9796C29.8561 68.9796 30.7858 68.0499 30.7858 66.9031V29.0304H106.531V73.704H55.3421C54.1953 73.704 53.2656 74.6337 53.2656 75.7805C53.2656 76.9273 54.1953 77.857 55.3421 77.857H108.607C109.754 77.857 110.684 76.9273 110.684 75.7805V26.9539C110.684 25.8072 109.754 24.8774 108.607 24.8774Z" fill="#3D3D3D"/>
</svg>
