<svg width="118" height="91" viewBox="0 0 118 91" fill="none" xmlns="http://www.w3.org/2000/svg">
<circle cx="80.5" cy="42.498" r="37.5" fill="#D2F7FF"/>
<path d="M61.5762 45.8398C62.9648 30.4414 57.5859 14.7441 46.3008 3.45898C45.6152 2.77344 44.4023 2.77344 43.7168 3.45898C32.4316 14.7441 27.0527 30.4238 28.4414 45.8398C24.5391 50.041 22.3945 55.4551 22.3945 61.2207C22.3945 67.0391 24.6094 72.5762 28.6348 76.7949C29.6191 77.832 32.1328 77.3574 31.7285 75.0723C31.5176 73.8769 31.2539 72.7168 31.2539 71.5742C31.2539 68.7266 32.1152 66.0195 33.7148 63.7344C33.9785 63.875 34.2773 63.9629 34.5938 63.9629H55.4238C55.7402 63.9629 56.0391 63.875 56.3027 63.7344C57.9023 66.0195 58.7637 68.7266 58.7637 71.5742C58.7637 72.7168 58.4648 73.8594 58.2891 75.0723C57.9199 77.6035 60.5566 77.6914 61.3828 76.7949C65.3906 72.5586 67.6231 67.0391 67.6231 61.2207C67.6055 55.4551 65.4785 50.0234 61.5762 45.8398ZM45 7.39648C48.2695 10.9121 50.9414 14.8672 53.0156 19.0684H37.002C39.0586 14.8496 41.7305 10.9121 45 7.39648ZM27.7734 69.0957C26.6484 66.6523 26.0684 63.9805 26.0684 61.2207C26.0684 57.4941 27.1406 53.9258 29.1445 50.8672C29.1621 51.0078 31.0781 58.3379 31.8164 60.2187C29.6191 62.75 28.2305 65.8086 27.7734 69.0957ZM54.2109 60.2891H35.7891C30.6211 48.1601 30.6738 34.6074 35.3672 22.707H54.6328C59.3262 34.6074 59.3789 48.1601 54.2109 60.2891ZM58.2012 60.2187C59.2207 57.5996 60.8555 50.9727 60.873 50.8672C62.877 53.9082 63.9492 57.4766 63.9492 61.2207C63.9492 63.9805 63.3516 66.6523 62.2441 69.0957C61.7695 65.8086 60.3809 62.75 58.2012 60.2187Z" fill="#3D3D3D"/>
<path d="M37.5996 67.0215C36.5801 67.0215 35.7715 67.8477 35.7715 68.8496V78.043C35.7715 79.0625 36.5977 79.8711 37.5996 79.8711C38.6016 79.8711 39.4277 79.0449 39.4277 78.043V68.8496C39.4277 67.8301 38.6016 67.0215 37.5996 67.0215Z" fill="#3D3D3D"/>
<path d="M45 67.0215C44.4902 67.0215 44.0332 67.2324 43.6992 67.5664C43.6992 67.5664 43.6992 67.5664 43.6816 67.584C43.4707 67.7949 43.3125 68.0762 43.2246 68.3926C43.1895 68.5508 43.1543 68.709 43.1543 68.8848V87.2539C43.1543 87.3945 43.1719 87.5352 43.207 87.6758C43.4004 88.4844 44.1211 89.082 44.9824 89.082C45.8437 89.082 46.5645 88.4844 46.7578 87.6758C46.793 87.5352 46.8105 87.3945 46.8105 87.2539V68.8496C46.8105 68.6738 46.793 68.5156 46.7402 68.3574C46.5469 67.584 45.8437 67.0215 45 67.0215Z" fill="#3D3D3D"/>
<path d="M52.4004 67.0215C51.3809 67.0215 50.5723 67.8477 50.5723 68.8496V78.043C50.5723 79.0625 51.3984 79.8711 52.4004 79.8711C53.4023 79.8711 54.2285 79.0449 54.2285 78.043V68.8496C54.2461 67.8301 53.4199 67.0215 52.4004 67.0215Z" fill="#3D3D3D"/>
</svg>
