<svg width="154" height="117" viewBox="0 0 154 117" fill="none" xmlns="http://www.w3.org/2000/svg">
<circle cx="95.5" cy="58.5" r="58.5" fill="#E0F9FF"/>
<path d="M18.3596 100C18.7514 99.9939 19.1327 99.8731 19.4567 99.6528C19.7807 99.4325 20.0331 99.1223 20.1831 98.7604C20.333 98.3984 20.3738 98.0005 20.3004 97.6156C20.2271 97.2308 20.0428 96.8758 19.7703 96.5943C-1.12931 76.5417 -1.12871 40.4593 19.7703 20.4071C20.1417 20.0323 20.3496 19.5256 20.3484 18.998C20.3471 18.4703 20.1369 17.9646 19.7638 17.5915C19.3906 17.2185 18.8848 17.0084 18.3572 17.0073C17.8295 17.0062 17.3229 17.2142 16.9482 17.5858C11.575 22.9587 7.31268 29.3374 4.4047 36.3576C1.49672 43.3778 0 50.9021 0 58.5008C0 66.0995 1.49672 73.6238 4.4047 80.644C7.31268 87.6642 11.575 94.0429 16.9482 99.4158C17.1333 99.6015 17.3533 99.7486 17.5956 99.8489C17.8378 99.9492 18.0975 100.001 18.3596 100Z" fill="black"/>
<path d="M95.9573 17.5852C95.5832 17.9593 95.373 18.4668 95.373 18.9959C95.373 19.525 95.5832 20.0325 95.9573 20.4067C116.857 40.4593 116.856 76.5413 95.9573 96.5939C95.5859 96.9687 95.3781 97.4754 95.3793 98.003C95.3805 98.5307 95.5907 99.0364 95.9639 99.4095C96.3371 99.7825 96.8428 99.9926 97.3705 99.9937C97.8982 99.9948 98.4048 99.7868 98.7795 99.4152C121.227 77.8783 121.226 39.1219 98.7795 17.5854C98.5943 17.3998 98.3744 17.2526 98.1322 17.1522C97.8901 17.0517 97.6306 17 97.3684 17C97.1063 17 96.8468 17.0517 96.6046 17.1521C96.3625 17.2525 96.1425 17.3996 95.9573 17.5852Z" fill="black"/>
<path d="M28.2348 28.8723C28.5996 28.4962 28.8018 27.9917 28.7978 27.4678C28.7938 26.9439 28.5839 26.4426 28.2134 26.0721C27.8429 25.7017 27.3416 25.4918 26.8177 25.4879C26.2938 25.4839 25.7893 25.6861 25.4133 26.051C7.60954 43.1318 7.60974 73.8698 25.4133 90.9502C25.7901 91.3114 26.2933 91.5105 26.8152 91.5049C27.3371 91.4994 27.836 91.2895 28.205 90.9204C28.574 90.5513 28.7837 90.0524 28.7891 89.5305C28.7945 89.0086 28.5953 88.5054 28.234 88.1287C11.9794 72.5325 11.9798 44.468 28.2348 28.8723Z" fill="black"/>
<path d="M88.9034 91.535C89.1654 91.5353 89.425 91.4838 89.667 91.3835C89.9091 91.2831 90.129 91.1359 90.314 90.9504C108.118 73.8707 108.118 43.1312 90.314 26.0509C89.9373 25.6898 89.434 25.4906 88.9121 25.4962C88.3902 25.5018 87.8913 25.7116 87.5223 26.0807C87.1533 26.4498 86.9436 26.9488 86.9382 27.4707C86.9328 27.9925 87.1321 28.4958 87.4933 28.8724C103.749 44.469 103.748 72.5327 87.4933 88.1288C87.2208 88.4103 87.0366 88.7653 86.9633 89.1501C86.8899 89.5349 86.9307 89.9327 87.0805 90.2947C87.2303 90.6566 87.4827 90.9669 87.8066 91.1872C88.1305 91.4076 88.5117 91.5285 88.9034 91.535Z" fill="black"/>
<path d="M35.2903 83.0692C35.6821 83.0629 36.0634 82.9421 36.3875 82.7218C36.7115 82.5015 36.964 82.1912 37.1139 81.8292C37.2638 81.4672 37.3046 81.0693 37.2313 80.6844C37.1579 80.2995 36.9735 79.9445 36.701 79.663C31.1223 74.0323 27.9927 66.4265 27.9927 58.5002C27.9927 50.5739 31.1223 42.9682 36.701 37.3374C37.0611 36.9605 37.2594 36.4575 37.2534 35.9362C37.2474 35.4149 37.0376 34.9166 36.6688 34.548C36.3001 34.1794 35.8018 33.9698 35.2805 33.964C34.7592 33.9582 34.2563 34.1566 33.8794 34.5169C27.5568 40.8983 24.0098 49.5181 24.0098 58.5012C24.0098 67.4844 27.5568 76.1042 33.8794 82.4856C34.0645 82.671 34.2844 82.8181 34.5266 82.9183C34.7687 83.0184 35.0283 83.0697 35.2903 83.0692Z" fill="black"/>
<path d="M80.437 83.0696C80.6991 83.0698 80.9586 83.0183 81.2007 82.918C81.4428 82.8177 81.6627 82.6705 81.8477 82.4849C88.1703 76.1036 91.7175 67.4838 91.7175 58.5006C91.7175 49.5174 88.1703 40.8976 81.8477 34.5163C81.4711 34.154 80.9675 33.954 80.445 33.9591C79.9225 33.9642 79.4229 34.174 79.0535 34.5435C78.684 34.9131 78.4743 35.4127 78.4693 35.9352C78.4643 36.4577 78.6645 36.9613 79.0268 37.3378C84.6054 42.9686 87.7351 50.5743 87.7351 58.5006C87.7351 66.4269 84.6054 74.0326 79.0268 79.6634C78.7542 79.9448 78.5699 80.2998 78.4965 80.6847C78.4231 81.0695 78.4639 81.4675 78.6137 81.8294C78.7636 82.1914 79.0161 82.5017 79.34 82.722C79.664 82.9424 80.0453 83.0632 80.437 83.0696Z" fill="black"/>
<path d="M43.7542 74.605C44.146 74.5988 44.5274 74.4781 44.8515 74.2578C45.1756 74.0375 45.4282 73.7272 45.5781 73.3652C45.728 73.0031 45.7688 72.6051 45.6954 72.2202C45.622 71.8353 45.4375 71.4803 45.1649 71.1988C41.8025 67.8281 39.9142 63.2614 39.9142 58.5003C39.9142 53.7393 41.8025 49.1726 45.1649 45.8018C45.5283 45.4255 45.7294 44.9215 45.7249 44.3984C45.7203 43.8752 45.5105 43.3748 45.1406 43.0048C44.7706 42.6349 44.2702 42.425 43.747 42.4205C43.2239 42.4159 42.7198 42.6171 42.3435 42.9805C38.2338 47.1 35.9258 52.6815 35.9258 58.5004C35.9258 64.3194 38.2338 69.9008 42.3435 74.0204C42.5286 74.2059 42.7484 74.3531 42.9905 74.4534C43.2326 74.5538 43.4921 74.6053 43.7542 74.605Z" fill="black"/>
<path d="M73.3836 42.9805C73.0075 42.6158 72.5031 42.4135 71.9791 42.4175C71.4552 42.4215 70.9539 42.6315 70.5835 43.0019C70.213 43.3724 70.0031 43.8738 69.9992 44.3977C69.9952 44.9216 70.1975 45.426 70.5623 45.8021C73.9247 49.1728 75.8129 53.7395 75.8129 58.5006C75.8129 63.2616 73.9247 67.8283 70.5623 71.1991C70.3717 71.3831 70.2197 71.6033 70.1151 71.8467C70.0105 72.0902 69.9555 72.352 69.9532 72.6169C69.9509 72.8819 70.0014 73.1446 70.1017 73.3898C70.202 73.635 70.3502 73.8578 70.5375 74.0451C70.7249 74.2325 70.9477 74.3806 71.1929 74.481C71.4381 74.5813 71.7008 74.6318 71.9657 74.6295C72.2307 74.6272 72.4925 74.5721 72.7359 74.4676C72.9794 74.363 73.1995 74.211 73.3836 74.0204C77.4933 69.9009 79.8013 64.3195 79.8013 58.5005C79.8013 52.6815 77.4933 47.1001 73.3836 42.9805Z" fill="black"/>
<path d="M67.8396 58.5003C67.4206 45.3161 48.3043 45.3191 47.8867 58.5003C48.3057 71.6846 67.422 71.6816 67.8396 58.5003ZM51.8773 58.5003C51.8773 56.9128 52.5079 55.3903 53.6305 54.2677C54.7531 53.1451 56.2756 52.5145 57.8631 52.5145C59.4507 52.5145 60.9732 53.1451 62.0958 54.2677C63.2184 55.3903 63.849 56.9128 63.849 58.5003C63.849 60.0879 63.2184 61.6104 62.0958 62.733C60.9732 63.8556 59.4507 64.4862 57.8631 64.4862C56.2756 64.4862 54.7531 63.8556 53.6305 62.733C52.5079 61.6104 51.8773 60.0879 51.8773 58.5003Z" fill="black"/>
</svg>
