<svg width="121" height="41" viewBox="0 0 121 41"
                                                                        fill="none" xmlns="http://www.w3.org/2000/svg">
                                                                        <g clip-path="url(#clip0_5730_20583)">
                                                                            <path
                                                                                d="M110.697 0.40638H10.0972C9.73048 0.40638 9.36818 0.40638 9.00245 0.40838C8.6963 0.41038 8.39259 0.41619 8.0835 0.42108C7.41201 0.428982 6.74211 0.488056 6.0796 0.59779C5.41802 0.709913 4.77717 0.921296 4.17872 1.22479C3.581 1.53085 3.03485 1.92855 2.56007 2.40345C2.0828 2.87702 1.68496 3.4244 1.38185 4.02454C1.0779 4.62349 0.867141 5.26532 0.75685 5.92786C0.645511 6.58957 0.585598 7.2589 0.57765 7.92986C0.56837 8.23646 0.56739 8.54408 0.5625 8.85072V31.965C0.56739 32.2755 0.56837 32.5763 0.57765 32.8869C0.585601 33.5578 0.645513 34.2271 0.75685 34.8888C0.866836 35.5517 1.07761 36.1939 1.38185 36.7931C1.68483 37.3913 2.08272 37.9364 2.56007 38.4074C3.03304 38.8844 3.57955 39.2824 4.17872 39.5861C4.77717 39.8904 5.41795 40.103 6.0796 40.2169C6.74222 40.3257 7.41206 40.3848 8.0835 40.3937C8.39259 40.4005 8.6963 40.4044 9.00245 40.4044C9.36817 40.4064 9.7305 40.4064 10.0972 40.4064H110.697C111.057 40.4064 111.422 40.4064 111.781 40.4044C112.086 40.4044 112.398 40.4005 112.703 40.3937C113.373 40.3853 114.042 40.3262 114.703 40.2169C115.367 40.1022 116.01 39.8896 116.611 39.5861C117.21 39.2822 117.756 38.8842 118.229 38.4074C118.705 37.9346 119.103 37.3898 119.41 36.7931C119.712 36.1935 119.921 35.5513 120.029 34.8888C120.141 34.227 120.203 33.5579 120.215 32.8869C120.219 32.5763 120.219 32.2755 120.219 31.965C120.227 31.6017 120.227 31.2404 120.227 30.8712V9.94251C120.227 9.5763 120.227 9.21302 120.219 8.85072C120.219 8.54408 120.219 8.23646 120.215 7.92982C120.203 7.2588 120.141 6.58962 120.029 5.92782C119.921 5.26566 119.712 4.62388 119.41 4.0245C118.793 2.82158 117.814 1.84241 116.611 1.2247C116.01 0.921947 115.367 0.71062 114.703 0.5977C114.042 0.487483 113.373 0.428388 112.703 0.42094C112.398 0.41606 112.086 0.4102 111.781 0.40825C111.422 0.40625 111.057 0.40625 110.697 0.40625V0.40638Z"
                                                                                fill="#A6A6A6" />
                                                                            <path
                                                                                d="M9.00541 39.5312C8.70073 39.5312 8.40341 39.5274 8.10112 39.5205C7.47491 39.5124 6.85015 39.4579 6.23198 39.3574C5.65557 39.2582 5.09719 39.0735 4.57524 38.8096C4.05809 38.5478 3.5864 38.2045 3.17824 37.7929C2.76418 37.3862 2.41946 36.9145 2.15773 36.3965C1.89312 35.875 1.71 35.3162 1.61473 34.7393C1.51186 34.1194 1.4562 33.4926 1.44823 32.8643C1.44189 32.6534 1.43359 31.9512 1.43359 31.9512V8.85059C1.43359 8.85059 1.44243 8.15918 1.44828 7.95605C1.45591 7.32873 1.51125 6.7029 1.61381 6.08398C1.70925 5.5055 1.89252 4.945 2.15727 4.42188C2.41804 3.90419 2.76085 3.43211 3.17241 3.02393C3.58352 2.61187 4.05672 2.26685 4.57475 2.00146C5.0955 1.73834 5.65283 1.55498 6.22807 1.45752C6.84827 1.35609 7.47519 1.30125 8.10358 1.29346L9.0059 1.28125H111.774L112.688 1.29395C113.31 1.30135 113.931 1.3557 114.546 1.45654C115.127 1.55523 115.69 1.73987 116.217 2.00439C117.255 2.53924 118.099 3.38541 118.632 4.42432C118.892 4.94383 119.073 5.49976 119.167 6.07324C119.271 6.69724 119.329 7.32799 119.341 7.96045C119.344 8.24365 119.344 8.54785 119.344 8.85059C119.352 9.22559 119.352 9.58252 119.352 9.94238V30.871C119.352 31.2344 119.352 31.5889 119.344 31.9463C119.344 32.2715 119.344 32.5693 119.34 32.8759C119.328 33.4971 119.271 34.1166 119.169 34.7295C119.076 35.3105 118.894 35.8738 118.629 36.3994C118.365 36.9119 118.023 37.3795 117.613 37.7851C117.205 38.1989 116.732 38.5442 116.214 38.8077C115.689 39.0736 115.126 39.259 114.546 39.3574C113.928 39.4584 113.303 39.5129 112.677 39.5205C112.384 39.5274 112.077 39.5312 111.779 39.5312L110.695 39.5332L9.00541 39.5312Z"
                                                                                fill="black" />
                                                                            <path
                                                                                d="M25.3325 20.7076C25.3432 19.8729 25.5649 19.0545 25.977 18.3286C26.389 17.6026 26.9779 16.9927 27.689 16.5555C27.2373 15.9103 26.6413 15.3794 25.9485 15.0048C25.2557 14.6303 24.4851 14.4224 23.6979 14.3978C22.0186 14.2216 20.3907 15.4026 19.535 15.4026C18.6627 15.4026 17.3452 14.4153 15.9265 14.4445C15.0088 14.4742 14.1144 14.741 13.3306 15.2191C12.5467 15.6971 11.9 16.3701 11.4535 17.1724C9.51955 20.5208 10.9621 25.4418 12.8147 28.1485C13.7416 29.4738 14.8249 30.9543 16.2424 30.9018C17.6294 30.8442 18.1475 30.0173 19.8218 30.0173C21.4805 30.0173 21.9666 30.9018 23.4128 30.8684C24.9012 30.8442 25.8389 29.5371 26.7333 28.1992C27.3993 27.2549 27.9117 26.2112 28.2517 25.1067C27.387 24.741 26.6491 24.1288 26.13 23.3465C25.6108 22.5642 25.3335 21.6464 25.3325 20.7076Z"
                                                                                fill="white" />
                                                                            <path
                                                                                d="M22.602 12.6176C23.4136 11.6434 23.8134 10.3912 23.7165 9.12695C22.4767 9.25717 21.3315 9.84973 20.509 10.7866C20.1068 11.2442 19.7988 11.7767 19.6026 12.3534C19.4063 12.9302 19.3257 13.54 19.3653 14.148C19.9854 14.1543 20.5989 14.0199 21.1596 13.7548C21.7202 13.4898 22.2134 13.1009 22.602 12.6176Z"
                                                                                fill="white" />
                                                                            <path
                                                                                d="M42.8672 27.5459H38.1338L36.9971 30.9024H34.9922L39.4756 18.4844H41.5586L46.042 30.9024H44.0029L42.8672 27.5459ZM38.624 25.9971H42.376L40.5264 20.5498H40.4746L38.624 25.9971Z"
                                                                                fill="white" />
                                                                            <path
                                                                                d="M55.7237 26.3757C55.7237 29.1892 54.2178 30.9968 51.9453 30.9968C51.3697 31.0269 50.7972 30.8943 50.2934 30.6142C49.7896 30.334 49.3749 29.9177 49.0967 29.4128H49.0537V33.8972H47.1953V21.8484H48.9942V23.3542H49.0284C49.3193 22.8517 49.741 22.4376 50.2487 22.1557C50.7563 21.8739 51.3308 21.7349 51.9112 21.7536C54.209 21.7536 55.7237 23.57 55.7237 26.3757ZM53.8135 26.3757C53.8135 24.5427 52.8662 23.3376 51.4209 23.3376C50.001 23.3376 49.0459 24.5681 49.0459 26.3757C49.0459 28.1999 50.001 29.4216 51.4209 29.4216C52.8662 29.4216 53.8135 28.2253 53.8135 26.3757Z"
                                                                                fill="white" />
                                                                            <path
                                                                                d="M65.6885 26.3757C65.6885 29.1892 64.1826 30.9968 61.9102 30.9968C61.3345 31.0269 60.762 30.8943 60.2582 30.6142C59.7544 30.334 59.3397 29.9177 59.0616 29.4128H59.0186V33.8972H57.1602V21.8483H58.959V23.3542H58.9932C59.2841 22.8517 59.7058 22.4375 60.2135 22.1557C60.7211 21.8739 61.2957 21.7349 61.876 21.7536C64.1739 21.7536 65.6885 23.57 65.6885 26.3757ZM63.7783 26.3757C63.7783 24.5427 62.8311 23.3376 61.3858 23.3376C59.9658 23.3376 59.0108 24.5681 59.0108 26.3757C59.0108 28.1999 59.9658 29.4216 61.3858 29.4216C62.8311 29.4216 63.7784 28.2253 63.7784 26.3757H63.7783Z"
                                                                                fill="white" />
                                                                            <path
                                                                                d="M72.2735 27.4424C72.4112 28.6739 73.6075 29.4824 75.2422 29.4824C76.8086 29.4824 77.9356 28.6738 77.9356 27.5635C77.9356 26.5996 77.2559 26.0225 75.6465 25.627L74.0371 25.2393C71.7569 24.6885 70.6983 23.6221 70.6983 21.8916C70.6983 19.749 72.5655 18.2773 75.2168 18.2773C77.8408 18.2773 79.6397 19.749 79.7002 21.8916H77.8242C77.7119 20.6523 76.6875 19.9043 75.1904 19.9043C73.6934 19.9043 72.669 20.6611 72.669 21.7627C72.669 22.6406 73.3233 23.1572 74.9238 23.5527L76.292 23.8886C78.8398 24.4912 79.8984 25.5146 79.8984 27.331C79.8984 29.6543 78.0479 31.1093 75.1045 31.1093C72.3506 31.1093 70.4912 29.6884 70.3711 27.4423L72.2735 27.4424Z"
                                                                                fill="white" />
                                                                            <path
                                                                                d="M83.9101 19.7061V21.8486H85.6318V23.3203H83.9101V28.3115C83.9101 29.0869 84.2549 29.4482 85.0117 29.4482C85.2161 29.4447 85.4202 29.4303 85.623 29.4052V30.8681C85.2828 30.9317 84.9369 30.9605 84.5908 30.9541C82.7578 30.9541 82.043 30.2656 82.043 28.5097V23.3203H80.7266V21.8486H82.0429V19.7061H83.9101Z"
                                                                                fill="white" />
                                                                            <path
                                                                                d="M86.6289 26.376C86.6289 23.5273 88.3066 21.7373 90.9229 21.7373C93.5479 21.7373 95.2178 23.5273 95.2178 26.376C95.2178 29.2324 93.5566 31.0146 90.9229 31.0146C88.29 31.0146 86.6289 29.2324 86.6289 26.376ZM93.3242 26.376C93.3242 24.4219 92.4287 23.2686 90.9228 23.2686C89.417 23.2686 88.5225 24.4307 88.5225 26.376C88.5225 28.3379 89.417 29.4824 90.9228 29.4824C92.4287 29.4824 93.3242 28.3379 93.3242 26.376H93.3242Z"
                                                                                fill="white" />
                                                                            <path
                                                                                d="M96.75 21.8483H98.5225V23.3893H98.5655C98.6854 22.908 98.9673 22.4826 99.3639 22.1848C99.7605 21.8869 100.248 21.7346 100.743 21.7535C100.957 21.7528 101.171 21.776 101.38 21.8229V23.5611C101.11 23.4785 100.828 23.4406 100.545 23.4488C100.275 23.4379 100.006 23.4855 99.756 23.5884C99.5061 23.6913 99.2815 23.847 99.0975 24.0449C98.9135 24.2428 98.7746 24.4781 98.6901 24.7348C98.6057 24.9915 98.5778 25.2634 98.6084 25.5318V30.902H96.75L96.75 21.8483Z"
                                                                                fill="white" />
                                                                            <path
                                                                                d="M109.948 28.2432C109.698 29.8867 108.098 31.0146 106.05 31.0146C103.416 31.0146 101.781 29.25 101.781 26.4189C101.781 23.5791 103.425 21.7373 105.972 21.7373C108.477 21.7373 110.052 23.458 110.052 26.2031V26.8398H103.657V26.9521C103.628 27.2853 103.669 27.621 103.78 27.9369C103.89 28.2527 104.066 28.5415 104.296 28.784C104.527 29.0266 104.806 29.2173 105.116 29.3436C105.425 29.4699 105.759 29.5289 106.093 29.5166C106.532 29.5577 106.973 29.456 107.349 29.2266C107.726 28.9972 108.019 28.6522 108.184 28.2432L109.948 28.2432ZM103.666 25.541H108.192C108.209 25.2414 108.164 24.9416 108.059 24.6604C107.954 24.3792 107.793 24.1227 107.584 23.9069C107.376 23.6911 107.125 23.5208 106.847 23.4066C106.57 23.2923 106.272 23.2367 105.972 23.2432C105.669 23.2414 105.369 23.2995 105.089 23.4142C104.809 23.529 104.554 23.6981 104.34 23.9117C104.126 24.1253 103.956 24.3793 103.84 24.6589C103.724 24.9386 103.665 25.2384 103.666 25.541V25.541Z"
                                                                                fill="white" />
                                                                            <path
                                                                                d="M38.3896 9.13763C38.7793 9.10967 39.1702 9.16853 39.5343 9.30996C39.8984 9.4514 40.2266 9.67188 40.4952 9.9555C40.7638 10.2391 40.9661 10.5788 41.0875 10.9501C41.2089 11.3214 41.2464 11.715 41.1973 12.1025C41.1973 14.0087 40.167 15.1045 38.3896 15.1045H36.2344V9.13763H38.3896ZM37.1611 14.2606H38.2861C38.5645 14.2773 38.8431 14.2316 39.1017 14.127C39.3602 14.0224 39.5922 13.8614 39.7807 13.6559C39.9692 13.4503 40.1094 13.2053 40.1913 12.9387C40.2732 12.6721 40.2946 12.3906 40.2539 12.1146C40.2916 11.8398 40.2681 11.56 40.1849 11.2954C40.1018 11.0307 39.9612 10.7877 39.7731 10.5838C39.5851 10.3798 39.3542 10.22 39.0971 10.1158C38.8401 10.0116 38.5631 9.96547 38.2861 9.98084H37.1611V14.2606Z"
                                                                                fill="white" />
                                                                            <path
                                                                                d="M42.2444 12.851C42.2161 12.5551 42.25 12.2565 42.3438 11.9745C42.4376 11.6924 42.5894 11.4331 42.7893 11.2131C42.9893 10.9931 43.233 10.8173 43.5048 10.6971C43.7767 10.5768 44.0707 10.5146 44.368 10.5146C44.6652 10.5146 44.9592 10.5768 45.2311 10.6971C45.5029 10.8173 45.7466 10.9931 45.9466 11.2131C46.1465 11.4331 46.2983 11.6924 46.3921 11.9745C46.486 12.2565 46.5198 12.5551 46.4915 12.851C46.5203 13.1472 46.4869 13.4462 46.3933 13.7288C46.2997 14.0113 46.148 14.2711 45.948 14.4915C45.7481 14.7119 45.5042 14.8881 45.232 15.0086C44.9599 15.1291 44.6656 15.1914 44.368 15.1914C44.0703 15.1914 43.776 15.1291 43.5039 15.0086C43.2318 14.8881 42.9879 14.7119 42.7879 14.4915C42.5879 14.2711 42.4362 14.0113 42.3426 13.7288C42.249 13.4462 42.2156 13.1472 42.2444 12.851ZM45.5774 12.851C45.5774 11.875 45.1389 11.3042 44.3694 11.3042C43.597 11.3042 43.1624 11.875 43.1624 12.851C43.1624 13.8349 43.597 14.4013 44.3694 14.4013C45.139 14.4013 45.5774 13.831 45.5774 12.851H45.5774Z"
                                                                                fill="white" />
                                                                            <path
                                                                                d="M52.1367 15.1045H51.2148L50.2842 11.7881H50.2139L49.2871 15.1045H48.374L47.1328 10.6016H48.0342L48.8408 14.0376H48.9072L49.833 10.6016H50.6856L51.6113 14.0376H51.6816L52.4844 10.6016H53.373L52.1367 15.1045Z"
                                                                                fill="white" />
                                                                            <path
                                                                                d="M54.418 10.6011H55.2734V11.3164H55.3398C55.4525 11.0595 55.6425 10.8442 55.8834 10.7003C56.1242 10.5565 56.404 10.4915 56.6836 10.5142C56.9027 10.4977 57.1227 10.5308 57.3273 10.6109C57.5319 10.691 57.7158 10.8161 57.8655 10.9769C58.0152 11.1377 58.1268 11.3302 58.192 11.54C58.2572 11.7498 58.2743 11.9716 58.2422 12.189V15.104H57.3535V12.4122C57.3535 11.6885 57.0391 11.3287 56.3818 11.3287C56.2331 11.3217 56.0846 11.347 55.9465 11.4029C55.8085 11.4587 55.6841 11.5437 55.582 11.6521C55.4799 11.7605 55.4024 11.8897 55.3549 12.0308C55.3073 12.1719 55.2909 12.3217 55.3066 12.4698V15.104H54.418L54.418 10.6011Z"
                                                                                fill="white" />
                                                                            <path
                                                                                d="M59.6562 8.84375H60.5449V15.1045H59.6562V8.84375Z"
                                                                                fill="white" />
                                                                            <path
                                                                                d="M61.7796 12.8511C61.7513 12.5552 61.7851 12.2566 61.879 11.9745C61.9729 11.6924 62.1246 11.4331 62.3246 11.2131C62.5246 10.9931 62.7683 10.8173 63.0402 10.6971C63.312 10.5768 63.606 10.5146 63.9033 10.5146C64.2006 10.5146 64.4946 10.5768 64.7665 10.6971C65.0384 10.8173 65.2821 10.9931 65.4821 11.2131C65.682 11.4331 65.8338 11.6924 65.9277 11.9745C66.0215 12.2566 66.0554 12.5552 66.0271 12.8511C66.0559 13.1473 66.0224 13.4463 65.9288 13.7289C65.8352 14.0114 65.6835 14.2712 65.4835 14.4916C65.2835 14.712 65.0396 14.8881 64.7674 15.0087C64.4953 15.1292 64.201 15.1915 63.9033 15.1915C63.6057 15.1915 63.3114 15.1292 63.0392 15.0087C62.7671 14.8881 62.5232 14.712 62.3232 14.4916C62.1232 14.2712 61.9715 14.0114 61.8778 13.7289C61.7842 13.4463 61.7507 13.1473 61.7796 12.8511ZM65.1126 12.8511C65.1126 11.875 64.6741 11.3042 63.9046 11.3042C63.1321 11.3042 62.6976 11.875 62.6976 12.8511C62.6976 13.835 63.1321 14.4014 63.9046 14.4014C64.6741 14.4014 65.1126 13.8311 65.1126 12.8511H65.1126Z"
                                                                                fill="white" />
                                                                            <path
                                                                                d="M66.9648 13.831C66.9648 13.0205 67.5684 12.5532 68.6396 12.4868L69.8594 12.4165V12.0278C69.8594 11.5522 69.5449 11.2837 68.9375 11.2837C68.4414 11.2837 68.0977 11.4658 67.999 11.7842H67.1387C67.2295 11.0107 67.957 10.5146 68.9785 10.5146C70.1074 10.5146 70.7441 11.0766 70.7441 12.0278V15.1045H69.8887V14.4717H69.8184C69.6756 14.6987 69.4752 14.8837 69.2376 15.0079C69 15.1321 68.7337 15.1911 68.4658 15.1787C68.2768 15.1983 68.0857 15.1782 67.905 15.1195C67.7242 15.0608 67.5578 14.9649 67.4163 14.8379C67.2749 14.7109 67.1617 14.5557 67.0839 14.3823C67.0062 14.2089 66.9656 14.0211 66.9648 13.831ZM69.8594 13.4463V13.0698L68.7598 13.1401C68.1396 13.1816 67.8584 13.3926 67.8584 13.7895C67.8584 14.1948 68.2099 14.4306 68.6934 14.4306C68.835 14.445 68.9781 14.4307 69.1141 14.3886C69.2501 14.3465 69.3763 14.2775 69.4851 14.1856C69.5938 14.0938 69.683 13.981 69.7474 13.854C69.8117 13.727 69.8498 13.5883 69.8594 13.4463Z"
                                                                                fill="white" />
                                                                            <path
                                                                                d="M71.9102 12.8511C71.9102 11.4282 72.6416 10.5269 73.7793 10.5269C74.0607 10.5139 74.34 10.5813 74.5845 10.7212C74.8291 10.8611 75.0287 11.0677 75.1602 11.3169H75.2266V8.84375H76.1152V15.1045H75.2637V14.3931H75.1934C75.0518 14.6406 74.8451 14.8446 74.5959 14.9831C74.3466 15.1216 74.0642 15.1892 73.7793 15.1787C72.6338 15.1787 71.9102 14.2774 71.9102 12.8511ZM72.8282 12.8511C72.8282 13.8062 73.2784 14.3809 74.0313 14.3809C74.7803 14.3809 75.2432 13.7979 75.2432 12.855C75.2432 11.9165 74.7754 11.3252 74.0313 11.3252C73.2832 11.3252 72.8281 11.9038 72.8281 12.8511H72.8282Z"
                                                                                fill="white" />
                                                                            <path
                                                                                d="M79.7952 12.851C79.7669 12.5551 79.8007 12.2565 79.8946 11.9745C79.9884 11.6924 80.1402 11.4331 80.3401 11.2131C80.5401 10.9931 80.7838 10.8173 81.0556 10.6971C81.3275 10.5768 81.6215 10.5146 81.9187 10.5146C82.216 10.5146 82.51 10.5768 82.7818 10.6971C83.0537 10.8173 83.2974 10.9931 83.4973 11.2131C83.6973 11.4331 83.849 11.6924 83.9429 11.9745C84.0367 12.2565 84.0706 12.5551 84.0423 12.851C84.0711 13.1472 84.0377 13.4462 83.9441 13.7288C83.8505 14.0113 83.6988 14.2711 83.4988 14.4915C83.2988 14.7119 83.0549 14.8881 82.7828 15.0086C82.5107 15.1291 82.2164 15.1914 81.9187 15.1914C81.6211 15.1914 81.3268 15.1291 81.0547 15.0086C80.7825 14.8881 80.5386 14.7119 80.3386 14.4915C80.1387 14.2711 79.987 14.0113 79.8934 13.7288C79.7998 13.4462 79.7664 13.1472 79.7952 12.851ZM83.1282 12.851C83.1282 11.875 82.6897 11.3042 81.9202 11.3042C81.1477 11.3042 80.7132 11.875 80.7132 12.851C80.7132 13.8349 81.1478 14.4013 81.9202 14.4013C82.6897 14.4013 83.1282 13.831 83.1282 12.851Z"
                                                                                fill="white" />
                                                                            <path
                                                                                d="M85.2344 10.6011H86.0898V11.3164H86.1563C86.2689 11.0595 86.4589 10.8442 86.6998 10.7003C86.9407 10.5565 87.2204 10.4915 87.5 10.5142C87.7191 10.4977 87.9391 10.5308 88.1437 10.6109C88.3483 10.691 88.5323 10.8161 88.6819 10.9769C88.8316 11.1377 88.9432 11.3302 89.0084 11.54C89.0736 11.7498 89.0908 11.9716 89.0586 12.189V15.104H88.1699V12.4122C88.1699 11.6885 87.8555 11.3287 87.1982 11.3287C87.0495 11.3217 86.901 11.347 86.7629 11.4029C86.6249 11.4587 86.5005 11.5437 86.3984 11.6521C86.2963 11.7605 86.2188 11.8897 86.1713 12.0308C86.1237 12.1719 86.1073 12.3217 86.123 12.4698V15.104H85.2344V10.6011Z"
                                                                                fill="white" />
                                                                            <path
                                                                                d="M94.0771 9.48047V10.6221H95.0527V11.3706H94.0771V13.686C94.0771 14.1577 94.2715 14.3643 94.7139 14.3643C94.8271 14.3639 94.9403 14.357 95.0527 14.3437V15.084C94.8932 15.1125 94.7315 15.1277 94.5693 15.1294C93.5811 15.1294 93.1875 14.7817 93.1875 13.9136V11.3706H92.4727V10.622H93.1875V9.48047H94.0771Z"
                                                                                fill="white" />
                                                                            <path
                                                                                d="M96.2695 8.84375H97.1504V11.3252H97.2207C97.3388 11.0659 97.5341 10.8493 97.7797 10.7049C98.0254 10.5606 98.3097 10.4955 98.5937 10.5186C98.8117 10.5067 99.0295 10.5431 99.2318 10.6251C99.4341 10.7072 99.6158 10.8328 99.7639 10.9932C99.912 11.1535 100.023 11.3446 100.089 11.5527C100.155 11.7608 100.174 11.9809 100.144 12.1973V15.1045H99.2549V12.4165C99.2549 11.6973 98.9199 11.333 98.292 11.333C98.1393 11.3205 97.9857 11.3415 97.8419 11.3945C97.6981 11.4476 97.5677 11.5314 97.4597 11.6401C97.3517 11.7489 97.2687 11.8799 97.2167 12.024C97.1646 12.1682 97.1447 12.3219 97.1582 12.4746V15.1045H96.2696L96.2695 8.84375Z"
                                                                                fill="white" />
                                                                            <path
                                                                                d="M105.324 13.8887C105.203 14.3003 104.942 14.6563 104.585 14.8944C104.228 15.1326 103.799 15.2377 103.373 15.1915C103.076 15.1993 102.781 15.1425 102.509 15.025C102.236 14.9074 101.993 14.732 101.795 14.5109C101.597 14.2897 101.449 14.0282 101.363 13.7444C101.276 13.4605 101.252 13.1612 101.293 12.8673C101.253 12.5724 101.277 12.2724 101.364 11.9878C101.45 11.7031 101.597 11.4403 101.794 11.2173C101.991 10.9942 102.233 10.816 102.505 10.6948C102.777 10.5736 103.071 10.5122 103.369 10.5147C104.622 10.5147 105.378 11.3707 105.378 12.7847V13.0948H102.198V13.1446C102.184 13.3099 102.205 13.4762 102.259 13.6329C102.313 13.7897 102.399 13.9334 102.512 14.0549C102.625 14.1763 102.762 14.2728 102.915 14.3382C103.067 14.4036 103.231 14.4365 103.397 14.4346C103.61 14.4601 103.825 14.4219 104.016 14.3246C104.207 14.2274 104.364 14.0757 104.468 13.8887L105.324 13.8887ZM102.198 12.4376H104.472C104.484 12.2864 104.463 12.1346 104.412 11.9919C104.361 11.8492 104.281 11.7187 104.176 11.6089C104.072 11.499 103.946 11.4122 103.806 11.354C103.666 11.2959 103.515 11.2676 103.364 11.2711C103.21 11.2691 103.058 11.298 102.915 11.3559C102.773 11.4139 102.644 11.4997 102.535 11.6085C102.426 11.7172 102.34 11.8465 102.283 11.9889C102.225 12.1313 102.196 12.2839 102.198 12.4376H102.198Z"
                                                                                fill="white" />
                                                                        </g>
                                                                        <defs>
                                                                            <clipPath id="clip0_5730_20583">
                                                                                <rect width="119.664" height="40"
                                                                                    fill="white"
                                                                                    transform="translate(0.5625 0.40625)" />
                                                                            </clipPath>
                                                                        </defs>
                                                                    </svg>