<svg width="24" height="25" viewBox="0 0 24 25" fill="none" xmlns="http://www.w3.org/2000/svg">
<rect y="0.5" width="24" height="24" rx="3" fill="#D9FAFF"/>
<path d="M9.42969 3L12.0013 1.5L14.5728 3" stroke="black" stroke-width="3" stroke-linecap="round" stroke-linejoin="round"/>
<path d="M12 1.5V5.25" stroke="black" stroke-width="3" stroke-miterlimit="10" stroke-linecap="round"/>
<path d="M14.5728 21L12.0013 22.5L9.42969 21" stroke="black" stroke-width="3" stroke-linecap="round" stroke-linejoin="round"/>
<path d="M12 22.5V18.75" stroke="black" stroke-width="3" stroke-miterlimit="10" stroke-linecap="round"/>
<path d="M3 9.7275V6.75047L5.49141 5.27344" stroke="black" stroke-width="3" stroke-linecap="round" stroke-linejoin="round"/>
<path d="M3 6.75L6.15422 8.625" stroke="black" stroke-width="3" stroke-miterlimit="10" stroke-linecap="round"/>
<path d="M20.9992 14.2734V17.2505L18.5078 18.7275" stroke="black" stroke-width="3" stroke-linecap="round" stroke-linejoin="round"/>
<path d="M21.0019 17.25L17.8477 15.375" stroke="black" stroke-width="3" stroke-miterlimit="10" stroke-linecap="round"/>
<path d="M5.49141 18.7505L3 17.2505V14.2734" stroke="black" stroke-width="3" stroke-linecap="round" stroke-linejoin="round"/>
<path d="M3 17.25L6.12375 15.375" stroke="black" stroke-width="3" stroke-miterlimit="10" stroke-linecap="round"/>
<path d="M18.5078 5.27344L20.9992 6.75047V9.7275" stroke="black" stroke-width="3" stroke-linecap="round" stroke-linejoin="round"/>
<path d="M21.0013 6.75L17.847 8.625M12.0013 15V12M12.0013 12L14.5728 10.5M12.0013 12L9.42969 10.5" stroke="black" stroke-width="3" stroke-miterlimit="10" stroke-linecap="round"/>
</svg>
