<svg width="110" height="95" viewBox="0 0 110 95" fill="none" xmlns="http://www.w3.org/2000/svg">
<circle cx="67.6188" cy="42.3334" r="41.6813" fill="#D2F7FF"/>
<path d="M79.4928 19.3421C78.0248 19.3421 76.6902 19.9204 75.7025 20.8594C74.3561 20.1428 72.7568 20.0066 71.2776 20.5314C68.409 21.549 66.9111 24.6942 67.9294 27.5628C72.6525 40.8724 72.3897 40.0807 72.4071 40.292L71.0044 41.9046C70.7028 40.8654 70.1189 39.9277 69.2966 39.1812C66.9125 37.0181 63.2925 37.1356 61.055 39.4495L48.0117 52.9328C46.2872 54.7164 45.337 57.0651 45.337 59.5458V70.8855H44.384C43.6799 70.8855 43.0307 71.1156 42.5003 71.4999C41.97 71.1156 41.3201 70.8855 40.616 70.8855H39.663V59.5458C39.663 57.0651 38.7135 54.7157 36.9883 52.9328L23.9457 39.4495C21.7075 37.1356 18.0875 37.0181 15.7034 39.1812C14.8811 39.927 14.2979 40.8654 13.9956 41.9046L12.5929 40.2927C12.6005 40.1988 12.62 40.1064 12.6513 40.0181L17.0706 27.5635C18.7569 22.8112 13.6911 18.5205 9.29747 20.8594C5.80605 17.5418 0 20.0184 0 24.8499V37.4949C0 40.6305 1.03359 43.7417 2.8992 46.2405L12.7229 59.7565C15.1153 63.0484 16.6411 66.87 17.1832 70.8855H16.7537C14.9791 70.8855 13.5354 72.3292 13.5354 74.1044V90.888C13.5354 92.6625 14.9791 94.1062 16.7537 94.1062H40.6167C41.3201 94.1062 41.97 93.8768 42.5003 93.4918C43.0307 93.8768 43.6799 94.1062 44.384 94.1062H68.247C70.0216 94.1062 71.4653 92.6625 71.4653 90.888V89.1211C71.4653 88.3836 70.8682 87.7865 70.1307 87.7865C69.3932 87.7865 68.7962 88.3836 68.7962 89.1211V90.888C68.7962 91.1903 68.5494 91.4371 68.247 91.4371H44.384C44.081 91.4371 43.8342 91.1903 43.8342 90.888V80.5764H68.7955V82.8924C68.7955 83.6299 69.3932 84.2277 70.1307 84.2277C70.8675 84.2277 71.4653 83.6299 71.4653 82.8924C71.4653 81.0754 71.4653 75.9228 71.4653 74.1044C71.4653 72.3292 70.0216 70.8855 68.2463 70.8855H67.8168C68.3589 66.87 69.8847 63.0477 72.2771 59.7565L82.0911 46.2544C83.9664 43.7417 85 40.6305 85 37.4949V24.8499C85 21.8124 82.529 19.3421 79.4928 19.3421ZM14.5551 26.6704L11.0143 36.6476V24.8492C11.0143 24.2605 10.9177 23.6711 10.7377 23.1233C12.9835 22.1335 15.3927 24.3092 14.5551 26.6704ZM14.8818 58.187L5.04772 44.6571C3.51366 42.6024 2.66913 40.0584 2.66913 37.4949V24.8492C2.66913 23.2846 3.94253 22.0112 5.50717 22.0112C7.07459 22.0112 8.3452 23.2895 8.3452 24.8492V38.0649C8.3452 39.0054 8.70526 39.8909 9.27245 40.5436C18.2585 50.8705 12.6679 44.7099 22.8996 55.7743C23.4001 56.3158 24.2446 56.3485 24.7854 55.848C25.3269 55.3475 25.3602 54.503 24.8598 53.9622C17.4397 45.9381 19.0044 47.6613 16.869 45.2076C16.1225 43.93 16.3192 42.2271 17.4967 41.158C18.8069 39.9694 20.797 40.0341 22.0266 41.3054L35.0692 54.7887C36.3106 56.0718 36.9939 57.7609 36.9939 59.5458V70.8855H19.8774C19.3206 66.3014 17.6058 61.9349 14.8818 58.187ZM41.1651 90.8873C41.1651 91.1903 40.919 91.4371 40.616 91.4371H16.7537C16.4506 91.4371 16.2045 91.1903 16.2045 90.8873V80.5764H41.1651V90.8873ZM41.1651 77.9072H16.2045V74.1037C16.2045 73.8014 16.4506 73.5546 16.7537 73.5546H40.616C40.919 73.5546 41.1651 73.8014 41.1651 74.1037V77.9072ZM70.4449 26.6704C69.9201 25.1926 70.6923 23.5717 72.1708 23.0469C72.8575 22.8036 73.6027 22.8328 74.2623 23.124C74.0816 23.6731 73.985 24.2654 73.985 24.8499V36.6476L70.4449 26.6704ZM68.2463 73.5546C68.5494 73.5546 68.7955 73.8014 68.7955 74.1037V77.9072H43.8342V74.1037C43.8342 73.8014 44.081 73.5546 44.384 73.5546H68.2463ZM82.3309 37.4949C82.3309 40.0584 81.4856 42.6024 79.9419 44.671L70.1182 58.187C67.3942 61.9342 65.6794 66.3014 65.1226 70.8855H48.0061V59.5458C48.0061 57.7616 48.6894 56.0718 49.9301 54.7887L62.9734 41.3054C64.203 40.0334 66.1931 39.9687 67.5026 41.158C68.6829 42.2285 68.8761 43.9321 68.131 45.2069C65.9936 47.6634 67.5603 45.9375 60.1402 53.9622C59.6398 54.503 59.6731 55.3475 60.2139 55.848C60.7547 56.3485 61.5992 56.3158 62.1004 55.7743C72.462 44.5681 67.2065 50.336 75.4641 40.8459C75.7672 40.4977 76.6548 39.617 76.6548 38.0649V24.8492C76.6548 23.2846 77.9296 22.0112 79.4928 22.0112C81.0575 22.0112 82.3302 23.2846 82.3302 24.8492V37.4949H82.3309Z" fill="#3D3D3D"/>
<path d="M45.4695 33.1341C44.7327 33.1341 44.1349 33.7311 44.1349 34.4686C44.1349 35.2061 44.7327 35.8032 45.4695 35.8032H62.6256C63.9122 35.8032 64.959 34.7564 64.959 33.4698V26.8296C64.959 23.4279 63.019 20.4717 60.1886 19.0051C61.2104 17.9749 61.8429 16.5584 61.8429 14.9965C61.8429 11.8575 59.2892 9.30374 56.1495 9.30374C53.0105 9.30374 50.4567 11.8575 50.4567 14.9965C50.4567 16.5584 51.0893 17.9742 52.1103 19.0044C51.9831 19.0704 51.8566 19.1392 51.7322 19.2115C50.6409 17.2896 48.9679 15.7402 46.9528 14.8046C48.3562 13.5674 49.2445 11.7588 49.2445 9.74512C49.2445 6.02571 46.2188 3 42.4987 3C38.7793 3 35.7536 6.02571 35.7536 9.74512C35.7536 11.7588 36.6412 13.5674 38.0446 14.8046C36.0295 15.7402 34.3571 17.2896 33.2652 19.2115C33.1407 19.1392 33.0149 19.0697 32.887 19.0044C33.9088 17.9742 34.5413 16.5584 34.5413 14.9965C34.5413 11.8575 31.9869 9.30374 28.8479 9.30374C25.7089 9.30374 23.1544 11.8575 23.1544 14.9965C23.1544 16.5584 23.7877 17.9749 24.8094 19.0051C21.979 20.4717 20.0391 23.4279 20.0391 26.8296V33.4698C20.0391 34.7564 21.0859 35.8032 22.3725 35.8032H39.2415C39.9783 35.8032 40.5761 35.2054 40.5761 34.4686C40.5761 33.7311 39.9783 33.1341 39.2415 33.1341H34.5545V24.4344C34.5545 20.0783 38.0953 16.4902 42.4987 16.4902C46.8875 16.4902 50.4435 20.0637 50.4435 24.4344V33.1341H45.4695ZM56.1495 11.9729C57.817 11.9729 59.1738 13.329 59.1738 14.9965C59.1738 16.664 57.817 18.0208 56.1495 18.0208C54.4827 18.0208 53.1259 16.664 53.1259 14.9965C53.1259 13.329 54.4827 11.9729 56.1495 11.9729ZM62.2899 26.8296V33.1341H53.1127V24.4351C53.1127 23.487 52.982 22.5486 52.7595 21.7124C56.8348 19.0078 62.2899 21.9522 62.2899 26.8296ZM28.8479 11.9729C30.5154 11.9729 31.8715 13.329 31.8715 14.9965C31.8715 16.664 30.5154 18.0208 28.8479 18.0208C27.1804 18.0208 25.8243 16.664 25.8243 14.9965C25.8243 13.329 27.1804 11.9729 28.8479 11.9729ZM31.8854 24.4351V33.1341H22.7082V26.8296C22.7082 21.9536 28.1625 19.0078 32.2385 21.7124C32.0175 22.5423 31.8854 23.487 31.8854 24.4351ZM42.4987 13.8218C40.2515 13.8218 38.4227 11.993 38.4227 9.74581C38.4227 7.4979 40.2515 5.66913 42.4987 5.66913C44.7466 5.66913 46.5747 7.4979 46.5747 9.74512C46.5747 11.993 44.7466 13.8218 42.4987 13.8218Z" fill="#3D3D3D"/>
</svg>
