<svg width="108" height="96" viewBox="0 0 108 96" fill="none" xmlns="http://www.w3.org/2000/svg">
<circle cx="65.6188" cy="42.3334" r="41.6813" fill="#D2F7FF"/>
<path d="M32.5833 87.5H18.4167C17.6343 87.5 17 88.1343 17 88.9167C17 89.6991 17.6343 90.3333 18.4167 90.3333H32.5833C33.3657 90.3333 34 89.6991 34 88.9167C34 88.1343 33.3657 87.5 32.5833 87.5Z" fill="#3D3D3D"/>
<path d="M45.3327 40.75V26.5833C45.3327 25.0185 44.0642 23.75 42.4994 23.75H8.49935C6.93454 23.75 5.66602 25.0185 5.66602 26.5833V40.75C5.66602 42.3148 6.93454 43.5833 8.49935 43.5833H42.4994C44.0642 43.5833 45.3327 42.3148 45.3327 40.75ZM36.4984 26.5833L8.49935 40.5828V26.5833H36.4984ZM14.5003 40.75L42.4994 26.7505V40.75H14.5003Z" fill="#3D3D3D"/>
<path d="M9.91667 49.2501H17C17.7824 49.2501 18.4167 48.6158 18.4167 47.8334C18.4167 47.051 17.7824 46.4167 17 46.4167H9.91667C9.13426 46.4167 8.5 47.051 8.5 47.8334C8.5 48.6158 9.13426 49.2501 9.91667 49.2501Z" fill="#3D3D3D"/>
<path d="M41.0833 46.4167H22.6667C21.8843 46.4167 21.25 47.051 21.25 47.8334C21.25 48.6158 21.8843 49.2501 22.6667 49.2501H41.0833C41.8657 49.2501 42.5 48.6158 42.5 47.8334C42.5 47.051 41.8657 46.4167 41.0833 46.4167Z" fill="#3D3D3D"/>
<path d="M9.91667 59.1666H26.9167C27.6991 59.1666 28.3333 58.5323 28.3333 57.7499C28.3333 56.9675 27.6991 56.3333 26.9167 56.3333H9.91667C9.13426 56.3333 8.5 56.9675 8.5 57.7499C8.5 58.5323 9.13426 59.1666 9.91667 59.1666Z" fill="#3D3D3D"/>
<path d="M41.0827 56.3333H32.5827C31.8003 56.3333 31.166 56.9675 31.166 57.7499C31.166 58.5323 31.8003 59.1666 32.5827 59.1666H41.0827C41.8651 59.1666 42.4993 58.5323 42.4993 57.7499C42.4993 56.9675 41.8651 56.3333 41.0827 56.3333Z" fill="#3D3D3D"/>
<path d="M41.0833 62H9.91667C9.13426 62 8.5 62.6343 8.5 63.4167C8.5 64.1991 9.13426 64.8333 9.91667 64.8333H41.0833C41.8657 64.8333 42.5 64.1991 42.5 63.4167C42.5 62.6343 41.8657 62 41.0833 62Z" fill="#3D3D3D"/>
<path d="M9.91667 70.5001H26.9167C27.6991 70.5001 28.3333 69.8658 28.3333 69.0834C28.3333 68.301 27.6991 67.6667 26.9167 67.6667H9.91667C9.13426 67.6667 8.5 68.301 8.5 69.0834C8.5 69.8658 9.13426 70.5001 9.91667 70.5001Z" fill="#3D3D3D"/>
<path d="M41.0827 67.6667H32.5827C31.8003 67.6667 31.166 68.301 31.166 69.0834C31.166 69.8658 31.8003 70.5001 32.5827 70.5001H41.0827C41.8651 70.5001 42.4993 69.8658 42.4993 69.0834C42.4993 68.301 41.8651 67.6667 41.0827 67.6667Z" fill="#3D3D3D"/>
<path d="M41.0833 73.3333H9.91667C9.13426 73.3333 8.5 73.9675 8.5 74.7499C8.5 75.5323 9.13426 76.1666 9.91667 76.1666H41.0833C41.8657 76.1666 42.5 75.5323 42.5 74.7499C42.5 73.9675 41.8657 73.3333 41.0833 73.3333Z" fill="#3D3D3D"/>
<path d="M80.75 18.0833H51C50.9953 14.1733 47.8267 11.0047 43.9167 11H7.08333C3.17326 11.0047 0.00468367 14.1733 0 18.0833V88.9167C0.00468367 92.8267 3.17326 95.9953 7.08333 96H80.75C83.0972 96 85 94.0972 85 91.75V22.3333C85 19.9861 83.0972 18.0833 80.75 18.0833ZM80.75 20.9167C81.5324 20.9167 82.1667 21.5509 82.1667 22.3333V29.4167H51V20.9167H80.75ZM76.5 37.9167V52.0833H54.2583L75.5083 37.9167H76.5ZM51 50.8537V37.9167H70.4083L51 50.8537ZM38.25 13.8333V15.25C38.25 16.0324 37.6157 16.6667 36.8333 16.6667H14.1667C13.3843 16.6667 12.75 16.0324 12.75 15.25V13.8333H38.25ZM41.0833 93.1667H7.08333C4.73612 93.1667 2.83333 91.2639 2.83333 88.9167V18.0833C2.83333 15.7361 4.73612 13.8333 7.08333 13.8333H9.91667V15.25C9.91667 17.5972 11.8195 19.5 14.1667 19.5H36.8333C39.1805 19.5 41.0833 17.5972 41.0833 15.25V13.8333H43.9167C46.2639 13.8333 48.1667 15.7361 48.1667 18.0833V88.9167C48.1667 91.2639 46.2639 93.1667 43.9167 93.1667H41.0833ZM80.75 93.1667H49.5465C50.1905 92.3326 50.6384 91.3642 50.8569 90.3333H68C68.7824 90.3333 69.4167 89.6991 69.4167 88.9167C69.4167 88.1343 68.7824 87.5 68 87.5H51V54.9167H76.5C78.0648 54.9167 79.3333 53.6481 79.3333 52.0833V37.9167C79.3333 36.3519 78.0648 35.0833 76.5 35.0833H51V32.25H82.1667V91.75C82.1667 92.5324 81.5324 93.1667 80.75 93.1667Z" fill="#3D3D3D"/>
<path d="M77.9167 26.5833C78.6991 26.5833 79.3333 25.9491 79.3333 25.1667C79.3333 24.3843 78.6991 23.75 77.9167 23.75C77.1343 23.75 76.5 24.3843 76.5 25.1667C76.5 25.9491 77.1343 26.5833 77.9167 26.5833Z" fill="#3D3D3D"/>
<path d="M72.2507 26.5833C73.0331 26.5833 73.6673 25.9491 73.6673 25.1667C73.6673 24.3843 73.0331 23.75 72.2507 23.75C71.4682 23.75 70.834 24.3843 70.834 25.1667C70.834 25.9491 71.4682 26.5833 72.2507 26.5833Z" fill="#3D3D3D"/>
<path d="M66.5827 26.5833C67.3651 26.5833 67.9993 25.9491 67.9993 25.1667C67.9993 24.3843 67.3651 23.75 66.5827 23.75C65.8003 23.75 65.166 24.3843 65.166 25.1667C65.166 25.9491 65.8003 26.5833 66.5827 26.5833Z" fill="#3D3D3D"/>
<path d="M76.5 57.75H62.3333C60.7685 57.75 59.5 59.0185 59.5 60.5833V74.75C59.5 76.3148 60.7685 77.5833 62.3333 77.5833H76.5C78.0648 77.5833 79.3333 76.3148 79.3333 74.75V60.5833C79.3333 59.0185 78.0648 57.75 76.5 57.75ZM75.7038 60.5833L62.3333 71.7254V60.5833H75.7038ZM63.1295 74.75L76.5 63.6079V74.75H63.1295Z" fill="#3D3D3D"/>
<path d="M77.9167 87.5H73.6667C72.8843 87.5 72.25 88.1343 72.25 88.9167C72.25 89.6991 72.8843 90.3333 73.6667 90.3333H77.9167C78.6991 90.3333 79.3333 89.6991 79.3333 88.9167C79.3333 88.1343 78.6991 87.5 77.9167 87.5Z" fill="#3D3D3D"/>
</svg>
