<svg width="24" height="24" viewBox="0 0 24 24" fill="none" xmlns="http://www.w3.org/2000/svg">
<rect width="24" height="24" rx="3" fill="#D9FAFF"/>
<path d="M17.4116 15.2813C17.7896 15.2813 18.1082 15.42 18.3675 15.6975C18.6268 15.975 18.7543 16.2988 18.7499 16.6688L13.456 18.75L8.84114 17.3625V11.1188H10.1267L14.9196 12.9849C15.2624 13.1283 15.4338 13.3873 15.4338 13.7619C15.4338 13.9793 15.3591 14.1689 15.2096 14.3308C15.0602 14.4927 14.8712 14.5783 14.6427 14.5875H12.7967L11.643 14.1227L11.4255 14.7748L12.7967 15.2813H17.4116ZM14.7745 5.72831C15.2404 5.15944 15.8337 4.875 16.5545 4.875C17.1523 4.875 17.6577 5.10625 18.0708 5.56875C18.484 6.03125 18.7037 6.56312 18.7301 7.16438C18.7301 7.64075 18.5104 8.20963 18.0708 8.871C17.6313 9.53238 17.1984 10.0851 16.7721 10.5291C16.3458 10.9731 15.6799 11.6321 14.7745 12.5063C13.8603 11.6321 13.1879 10.9731 12.7572 10.5291C12.3265 10.0851 11.8935 9.53238 11.4584 8.871C11.0233 8.20963 10.8101 7.64075 10.8189 7.16438C10.8189 6.53538 11.0321 6.0035 11.4584 5.56875C11.8847 5.134 12.399 4.90275 13.0011 4.875C13.7043 4.875 14.2955 5.15944 14.7745 5.72831ZM4.875 11.1188H7.52261V18.75H4.875V11.1188Z" fill="#003262"/>
</svg>
