<svg width="45" height="46" viewBox="0 0 45 46" fill="none" xmlns="http://www.w3.org/2000/svg">
<g clip-path="url(#clip0_6473_5307)">
<path d="M2.49999 2.625C2.57165 2.625 2.63207 2.65 2.68124 2.7C2.7304 2.75 2.75457 2.80833 2.75374 2.875L1.74999 3.25L0.874986 3V1.875H1.11874L2.02749 2.21125C2.09249 2.23708 2.12499 2.28375 2.12499 2.35125C2.12499 2.39042 2.11082 2.42458 2.08249 2.45375C2.05415 2.48292 2.01832 2.49833 1.97499 2.5H1.62499L1.40624 2.41625L1.36499 2.53375L1.62499 2.625H2.49999ZM1.99999 0.90375C2.08832 0.80125 2.20082 0.75 2.33749 0.75C2.45082 0.75 2.54665 0.791667 2.62499 0.875C2.70332 0.958333 2.74499 1.05417 2.74999 1.1625C2.74999 1.24833 2.70832 1.35083 2.62499 1.47C2.54165 1.58917 2.45957 1.68875 2.37874 1.76875C2.2979 1.84875 2.17165 1.9675 1.99999 2.125C1.82665 1.9675 1.69915 1.84875 1.61749 1.76875C1.53582 1.68875 1.45374 1.58917 1.37124 1.47C1.28874 1.35083 1.24832 1.24833 1.24999 1.1625C1.24999 1.04917 1.2904 0.953333 1.37124 0.875C1.45207 0.796667 1.54957 0.755 1.66374 0.75C1.79707 0.75 1.90915 0.80125 1.99999 0.90375ZM0.122986 1.875H0.624986V3.25H0.122986V1.875Z" fill="white"/>
</g>
<path d="M25 21.75C25.7167 21.75 26.3208 22 26.8125 22.5C27.3042 23 27.5458 23.5833 27.5375 24.25L17.5 28L8.75001 25.5V14.25H11.1875L20.275 17.6125C20.925 17.8708 21.25 18.3375 21.25 19.0125C21.25 19.4042 21.1083 19.7458 20.825 20.0375C20.5417 20.3292 20.1833 20.4833 19.75 20.5H16.25L14.0625 19.6625L13.65 20.8375L16.25 21.75H25ZM20 4.5375C20.8833 3.5125 22.0083 3 23.375 3C24.5083 3 25.4667 3.41667 26.25 4.25C27.0333 5.08333 27.45 6.04167 27.5 7.125C27.5 7.98333 27.0833 9.00833 26.25 10.2C25.4167 11.3917 24.5958 12.3875 23.7875 13.1875C22.9792 13.9875 21.7167 15.175 20 16.75C18.2667 15.175 16.9917 13.9875 16.175 13.1875C15.3583 12.3875 14.5375 11.3917 13.7125 10.2C12.8875 9.00833 12.4833 7.98333 12.5 7.125C12.5 5.99167 12.9042 5.03333 13.7125 4.25C14.5208 3.46667 15.4958 3.05 16.6375 3C17.9708 3 19.0917 3.5125 20 4.5375ZM1.23001 14.25H6.25001V28H1.23001V14.25Z" fill="white"/>
<rect y="0.5" width="45" height="45" rx="7.5" fill="#003262"/>
<path d="M32 29.75C32.7167 29.75 33.3208 30 33.8125 30.5C34.3042 31 34.5458 31.5833 34.5375 32.25L24.5 36L15.75 33.5V22.25H18.1875L27.275 25.6125C27.925 25.8708 28.25 26.3375 28.25 27.0125C28.25 27.4042 28.1083 27.7458 27.825 28.0375C27.5417 28.3292 27.1833 28.4833 26.75 28.5H23.25L21.0625 27.6625L20.65 28.8375L23.25 29.75H32ZM27 12.5375C27.8833 11.5125 29.0083 11 30.375 11C31.5083 11 32.4667 11.4167 33.25 12.25C34.0333 13.0833 34.45 14.0417 34.5 15.125C34.5 15.9833 34.0833 17.0083 33.25 18.2C32.4167 19.3917 31.5958 20.3875 30.7875 21.1875C29.9792 21.9875 28.7167 23.175 27 24.75C25.2667 23.175 23.9917 21.9875 23.175 21.1875C22.3583 20.3875 21.5375 19.3917 20.7125 18.2C19.8875 17.0083 19.4833 15.9833 19.5 15.125C19.5 13.9917 19.9042 13.0333 20.7125 12.25C21.5208 11.4667 22.4958 11.05 23.6375 11C24.9708 11 26.0917 11.5125 27 12.5375ZM8.23001 22.25H13.25V36H8.23001V22.25Z" fill="white"/>
<defs>
<clipPath id="clip0_6473_5307">
<rect width="3" height="3" fill="white" transform="translate(0 0.5)"/>
</clipPath>
</defs>
</svg>
