<svg width="45" height="46" viewBox="0 0 45 46" fill="none" xmlns="http://www.w3.org/2000/svg">
<rect y="0.5" width="45" height="45" rx="7.5" fill="#003262"/>
<g clip-path="url(#clip0_6473_5273)">
<path fill-rule="evenodd" clip-rule="evenodd" d="M24.6563 32.9645C24.3788 33.1695 24.0775 33.3395 23.7463 33.427C22.8138 33.677 21.795 33.3045 20.905 33.0545C14.9388 31.3757 10.9425 28.747 9.79625 24.8245C8.88125 21.692 9.76125 18.5545 11.6963 16.6045C13.4888 14.7982 16.1463 14.0657 18.8725 15.2395C20.6475 12.8595 23.3163 12.1645 25.7713 12.8332C28.4213 13.5545 30.7513 15.832 31.525 19.002C31.6775 19.6232 31.7525 20.257 31.7537 20.9007C32.0725 21.0632 32.375 21.2657 32.6538 21.5007C34.1 22.7245 34.8725 24.8032 34.4412 26.9645C33.8912 29.722 31.335 31.6582 27.6787 33.0407C27.0525 33.2782 26.3675 33.572 25.6838 33.452C25.3038 33.3845 24.9638 33.1895 24.6563 32.9645ZM12.1963 24.1232C11.5275 21.832 12.2 19.647 13.4713 18.3657C14.6913 17.1357 16.5 16.6782 18.5 17.8482C19.1988 18.257 20.1 18.0145 20.5 17.3132C21.6475 15.2995 23.4425 14.7907 25.1138 15.2457C26.8563 15.7207 28.5312 17.2757 29.0963 19.5945C29.165 19.8732 29.2113 20.1582 29.2338 20.4507C28.7757 20.509 28.3291 20.6359 27.9088 20.827C26.5662 19.5182 24.7888 19.2607 23.2213 19.8382C21.4438 20.492 20.0063 22.182 19.6713 24.3607C19.33 26.592 20.3838 28.767 22.345 30.8582C22.0975 30.7957 21.8413 30.7207 21.5825 30.6482C15.7938 29.0195 12.9575 26.7295 12.1963 24.1232ZM22.1438 24.7395C22.3438 23.427 23.1925 22.5132 24.085 22.1832C24.91 21.8807 25.8263 22.0395 26.5225 23.0457C26.6263 23.1956 26.7588 23.3235 26.9123 23.4219C27.0659 23.5203 27.2374 23.5874 27.417 23.6191C27.5965 23.6508 27.7806 23.6466 27.9586 23.6068C28.1365 23.567 28.3048 23.4922 28.4538 23.387C29.4538 22.6782 30.3688 22.8432 31.0387 23.4095C31.7663 24.0245 32.2487 25.1745 31.9887 26.4757C31.7075 27.8882 30.2788 29.3857 26.795 30.702C26.5738 30.7857 26.3538 30.8757 26.1263 30.942C25.935 30.8007 25.7588 30.642 25.5788 30.4882C22.7563 28.0595 21.925 26.1632 22.1438 24.7382V24.7395Z" fill="white"/>
</g>
<defs>
<clipPath id="clip0_6473_5273">
<rect width="30" height="30" fill="white" transform="translate(7 8)"/>
</clipPath>
</defs>
</svg>
