<svg width="85" height="58" viewBox="0 0 85 58" fill="none" xmlns="http://www.w3.org/2000/svg">
<circle cx="56.875" cy="29.6265" r="28.125" fill="#D2F7FF"/>
<g clip-path="url(#clip0_4295_3022)">
<path d="M22.4447 40.1707C22.2323 40.1707 22.0183 40.0977 21.8436 39.9489L15.8343 34.832C15.627 34.6553 15.5078 34.3972 15.5078 34.1246C15.5078 33.8526 15.6275 33.5945 15.8343 33.4178L21.8436 28.3008C22.2338 27.9681 22.8199 28.0153 23.1526 28.4055C23.4848 28.7963 23.4382 29.3824 23.0474 29.7146L17.8688 34.1246L23.0474 38.5347C23.4382 38.8674 23.4848 39.4535 23.1526 39.8437C22.9687 40.0598 22.7075 40.1707 22.4447 40.1707Z" fill="#3D3D3D"/>
<path d="M34.308 40.1707C34.0453 40.1707 33.7841 40.0598 33.6006 39.8437C33.2679 39.4535 33.3151 38.8674 33.7053 38.5347L38.8839 34.1246L33.7053 29.7146C33.3151 29.3824 33.2679 28.7963 33.6006 28.4055C33.9328 28.0153 34.5195 27.9681 34.9092 28.3008L40.9185 33.4178C41.1258 33.5945 41.245 33.8526 41.245 34.1246C41.245 34.3972 41.1258 34.6553 40.9185 34.832L34.9092 39.9489C34.7345 40.0977 34.5205 40.1707 34.308 40.1707Z" fill="#3D3D3D"/>
<path d="M26.2465 44.0087C26.1828 44.0087 26.1185 44.0019 26.0538 43.9885C25.5521 43.8827 25.2308 43.3899 25.3365 42.8883L29.0817 25.1065C29.1874 24.6048 29.6798 24.2835 30.1819 24.3893C30.6836 24.495 31.0049 24.9873 30.8991 25.4895L27.1539 43.2712C27.0617 43.7086 26.6761 44.0087 26.2465 44.0087Z" fill="#3D3D3D"/>
<path d="M50.2647 53.696H6.48526C3.04737 53.696 0.25 50.8992 0.25 47.4608V10.3031C0.25 6.86524 3.04737 4.06787 6.48526 4.06787H50.2647C53.7026 4.06787 56.5 6.86524 56.5 10.3031V47.4608C56.5 50.8992 53.7026 53.696 50.2647 53.696ZM6.48526 5.92518C4.07138 5.92518 2.10731 7.88925 2.10731 10.3031V47.4608C2.10731 49.8746 4.07138 51.8387 6.48526 51.8387H50.2647C52.6786 51.8387 54.6427 49.8746 54.6427 47.4608V10.3031C54.6427 7.88925 52.6786 5.92518 50.2647 5.92518H6.48526Z" fill="#3D3D3D"/>
<path d="M55.5713 18.9389H1.17866C0.665615 18.9389 0.25 18.5232 0.25 18.0102C0.25 17.4977 0.665615 17.0815 1.17866 17.0815H55.5713C56.0844 17.0815 56.5 17.4977 56.5 18.0102C56.5 18.5232 56.0844 18.9389 55.5713 18.9389Z" fill="#3D3D3D"/>
<path d="M16.1185 14.4949C14.4986 14.4949 13.1797 13.176 13.1797 11.556C13.1797 9.93555 14.4986 8.61719 16.1185 8.61719C17.739 8.61719 19.0574 9.93555 19.0574 11.556C19.0574 13.176 17.739 14.4949 16.1185 14.4949ZM16.1185 10.4745C15.5226 10.4745 15.037 10.9596 15.037 11.556C15.037 12.1525 15.5226 12.6376 16.1185 12.6376C16.715 12.6376 17.2001 12.1525 17.2001 11.556C17.2001 10.9596 16.715 10.4745 16.1185 10.4745Z" fill="#3D3D3D"/>
<path d="M7.08728 14.4661C5.4668 14.4661 4.14844 13.1477 4.14844 11.5272C4.14844 9.90674 5.4668 8.58838 7.08728 8.58838C8.70776 8.58838 10.0261 9.90674 10.0261 11.5272C10.0261 13.1477 8.70776 14.4661 7.08728 14.4661ZM7.08728 10.4457C6.49132 10.4457 6.00575 10.9313 6.00575 11.5272C6.00575 12.1237 6.49132 12.6088 7.08728 12.6088C7.68375 12.6088 8.16881 12.1237 8.16881 11.5272C8.16881 10.9313 7.68375 10.4457 7.08728 10.4457Z" fill="#3D3D3D"/>
<path d="M25.1454 14.5227C23.5254 14.5227 22.207 13.2043 22.207 11.5838C22.207 9.96387 23.5254 8.64551 25.1454 8.64551C26.7658 8.64551 28.0842 9.96387 28.0842 11.5838C28.0842 13.2043 26.7658 14.5227 25.1454 14.5227ZM25.1454 10.5023C24.5494 10.5023 24.0643 10.9874 24.0643 11.5838C24.0643 12.1803 24.5494 12.6654 25.1454 12.6654C25.7418 12.6654 26.2269 12.1803 26.2269 11.5838C26.2269 10.9874 25.7418 10.5023 25.1454 10.5023Z" fill="#3D3D3D"/>
</g>
<defs>
<clipPath id="clip0_4295_3022">
<rect width="56.25" height="56.25" fill="white" transform="translate(0.25 0.751465)"/>
</clipPath>
</defs>
</svg>
