<svg width="46" height="30" viewBox="0 0 46 30" fill="none" xmlns="http://www.w3.org/2000/svg">
<path d="M22.0781 11.6075H24.1784C26.2918 11.6075 27.9721 12.9071 27.9721 15.0993C27.9721 17.4883 26.5281 18.7091 24.1784 18.7091H22.0781V11.6075ZM23.0889 17.8165H24.1522C25.898 17.8165 26.8694 16.9764 26.8694 15.1386C26.8694 13.4847 25.7405 12.5002 24.2703 12.5002H23.0757V17.8165H23.0889ZM30.3349 12.3558H29.2585V11.2793H30.3349V12.3558ZM29.311 13.524H30.2693V18.7223H29.311V13.524ZM32.0545 11.6075H34.1548C36.2682 11.6075 37.9484 12.9071 37.9484 15.0993C37.9484 17.4883 36.5045 18.7091 34.1548 18.7091H32.0545V11.6075ZM33.0784 17.8165H34.1417C35.8875 17.8165 36.8589 16.9764 36.8589 15.1386C36.8589 13.4847 35.73 12.5002 34.2598 12.5002H33.0653V17.8165H33.0784ZM40.3113 12.3558H39.2348V11.2793H40.3113V12.3558ZM39.3005 13.524H40.2588V18.7223H39.3005V13.524Z" fill="#646464"/>
<path fill-rule="evenodd" clip-rule="evenodd" d="M12.6263 18.1302C14.9891 18.0515 16.8531 16.1743 16.8794 13.8509V11.8425H19.4784V14.061C19.4259 17.6708 16.2887 20.5062 12.6263 20.585C8.89824 20.5587 5.73471 17.6971 5.69531 14.061V10.0835C5.69531 9.67666 5.95787 9.41406 6.35169 9.41406H16.8794V11.8425H8.62259C8.41257 11.8425 8.28125 11.9738 8.28125 12.1839V13.8115C8.30754 16.1612 10.211 18.1041 12.6263 18.1302Z" fill="#FC9153"/>
</svg>
