<svg width="46" height="45" viewBox="0 0 46 45" fill="none" xmlns="http://www.w3.org/2000/svg">
<g clip-path="url(#clip0_6505_1305)">
<path d="M45.5 0H0.5V45H45.5V0Z" fill="#1A1D29"/>
<path d="M31.2582 25.6956C30.7054 25.8223 29.2504 25.8952 29.2504 25.8952L29.0661 26.471C29.0661 26.471 29.7917 26.4096 30.3215 26.4633C30.3215 26.4633 30.4942 26.4442 30.5134 26.6591C30.5211 26.8588 30.4981 27.0737 30.4981 27.0737C30.4981 27.0737 30.4865 27.2043 30.3023 27.235C30.1026 27.2695 28.736 27.3194 28.736 27.3194L28.5133 28.068C28.5133 28.068 28.4327 28.2408 28.617 28.1909C28.7897 28.1448 30.2217 27.8761 30.4098 27.9145C30.6094 27.9644 30.832 28.2292 30.7668 28.4749C30.69 28.7744 29.2619 29.688 28.3905 29.6228C28.3905 29.6228 27.9337 29.6535 27.5459 29.0354C27.1851 28.4481 27.6841 27.3309 27.6841 27.3309C27.6841 27.3309 27.4576 26.8089 27.6227 26.6361C27.6227 26.6361 27.7225 26.5478 28.0066 26.5248L28.3559 25.7992C28.3559 25.7992 27.9567 25.8261 27.7187 25.5343C27.496 25.2541 27.4807 25.1274 27.6496 25.0506C27.83 24.9623 29.4923 24.6591 30.6363 24.6974C30.6363 24.6974 31.0355 24.6591 31.3772 25.3501C31.3733 25.3501 31.5422 25.6303 31.2582 25.6956ZM26.9547 28.4826C26.8089 28.8281 26.4211 29.1967 25.9413 28.9663C25.4652 28.736 24.709 27.1889 24.709 27.1889C24.709 27.1889 24.4211 26.6131 24.3673 26.6246C24.3673 26.6246 24.3059 26.5133 24.2675 27.1428C24.2291 27.7724 24.2752 28.997 24.0257 29.189C23.7876 29.3809 23.4997 29.3041 23.35 29.0776C23.2156 28.855 23.1581 28.3252 23.231 27.3962C23.3193 26.4672 23.5343 25.4767 23.8107 25.1658C24.0871 24.8587 24.3097 25.0813 24.3942 25.162C24.3942 25.162 24.7627 25.4959 25.3731 26.4787L25.4806 26.6591C25.4806 26.6591 26.0334 27.5882 26.091 27.5843C26.091 27.5843 26.1371 27.6265 26.1754 27.5958C26.233 27.5805 26.21 27.281 26.21 27.281C26.21 27.281 26.0948 26.2714 25.5919 24.5592C25.5919 24.5592 25.5151 24.3443 25.5689 24.1446C25.6188 23.9412 25.8223 24.0372 25.8223 24.0372C25.8223 24.0372 26.6054 24.4287 26.9816 25.7032C27.354 26.9893 27.1006 28.1371 26.9547 28.4826ZM23.1082 25.208C23.0429 25.3385 23.0045 25.5267 22.6744 25.5766C22.6744 25.5766 19.5149 25.7915 19.3652 26.0142C19.3652 26.0142 19.2539 26.1447 19.4266 26.1831C19.5994 26.2177 20.3134 26.3136 20.6589 26.3328C21.0275 26.3367 22.2713 26.3482 22.7166 26.9048C22.7166 26.9048 22.9815 27.1697 22.9699 27.7686C22.9584 28.3828 22.8509 28.5978 22.6129 28.8204C22.3634 29.0277 20.2213 29.9875 18.8393 28.5133C18.8393 28.5133 18.202 27.8031 19.0581 27.2657C19.0581 27.2657 19.6762 26.8933 21.2463 27.3309C21.2463 27.3309 21.7223 27.5037 21.6993 27.6764C21.6724 27.8607 21.3077 28.0565 20.7779 28.045C20.2635 28.0296 19.8873 27.7839 19.9602 27.8223C20.0293 27.8492 19.4074 27.5229 19.2155 27.7455C19.0235 27.949 19.0696 28.0757 19.2577 28.2024C19.7376 28.4749 21.5918 28.379 22.1446 27.7647C22.1446 27.7647 22.3634 27.5152 22.0294 27.3117C21.6954 27.1198 20.7395 27.0046 20.3672 26.9854C20.0101 26.9662 18.6819 26.9893 18.4899 26.6361C18.4899 26.6361 18.298 26.3981 18.5091 25.7224C18.7318 25.0161 20.2789 24.7435 20.9468 24.6821C20.9468 24.6821 22.7857 24.6168 23.1235 24.993C23.1197 24.993 23.1657 25.0813 23.1082 25.208ZM17.8872 29.3502C17.6646 29.5153 17.1924 29.4423 17.058 29.2581C16.9237 29.093 16.8776 28.4365 16.9045 27.4077C16.9313 26.3674 16.9544 25.0775 17.177 24.874C17.415 24.6667 17.5609 24.8472 17.6531 24.9892C17.7529 25.1274 17.8719 25.281 17.8987 25.6073C17.9218 25.9336 17.9986 27.6457 17.9986 27.6457C17.9986 27.6457 18.0984 29.189 17.8872 29.3502ZM18.3671 23.8299C17.7183 24.0448 17.273 23.9719 16.8968 23.8107C16.7317 24.0986 16.6357 24.1869 16.5091 24.2061C16.3248 24.2253 16.1597 23.9297 16.129 23.8337C16.0983 23.7608 16.01 23.6379 16.1175 23.3462C15.749 23.016 15.7221 22.5707 15.7835 22.2713C15.8756 21.9258 16.4975 20.6128 18.3901 20.4593C18.3901 20.4593 19.3153 20.3902 19.4727 20.8854H19.4996C19.4996 20.8854 20.3979 20.8892 20.3787 21.6877C20.3672 22.4901 19.3806 23.4882 18.3671 23.8299ZM16.6012 22.0524C16.4092 22.3596 16.4016 22.5438 16.4899 22.6705C16.7087 22.3365 17.1079 21.8106 17.6953 21.4113C17.2423 21.4497 16.8622 21.6455 16.6012 22.0524ZM19.2155 21.538C18.6205 21.6263 17.6991 22.4248 17.2615 23.0774C17.9333 23.2003 19.1195 23.1542 19.6455 22.0831C19.6416 22.0831 19.895 21.419 19.2155 21.538ZM35.3696 27.7225C35.0126 28.3444 34.0107 29.642 32.6747 29.3387C32.2332 30.4097 31.8647 31.4885 31.6536 33.1085C31.6536 33.1085 31.6075 33.4233 31.3465 33.312C31.0892 33.2198 30.6593 32.7899 30.5748 32.1948C30.4827 31.4117 30.832 30.0873 31.5422 28.5709C31.3349 28.2331 31.1929 27.7494 31.3157 27.0622C31.3157 27.0622 31.4962 25.7877 32.7745 24.636C32.7745 24.636 32.9281 24.5017 33.0164 24.5439C33.1162 24.5861 33.0701 25.0007 32.9895 25.2003C32.9089 25.4 32.3369 26.3904 32.3369 26.3904C32.3369 26.3904 31.9799 27.0584 32.0797 27.5843C32.7515 26.5516 34.2794 24.4671 35.2276 25.1236C35.5462 25.3501 35.6921 25.8453 35.6921 26.3789C35.6883 26.8511 35.5769 27.3501 35.3696 27.7225ZM35.0932 26.0871C35.0932 26.0871 35.0395 25.6764 34.6402 26.1294C34.2947 26.5094 33.6728 27.2273 33.1699 28.1985C33.6959 28.141 34.2026 27.853 34.3562 27.7072C34.6057 27.4845 35.1854 26.8856 35.0932 26.0871ZM16.4553 26.6092C16.3824 27.5382 16.0254 29.1007 13.4955 29.8723C11.8256 30.3752 10.2478 30.1333 9.38788 29.9145C9.36868 30.2562 9.3303 30.4021 9.27655 30.4597C9.20361 30.5326 8.65849 30.8474 8.35905 30.4021C8.22469 30.1909 8.15559 29.807 8.1172 29.4654C6.18239 28.5748 5.29176 27.2926 5.25721 27.235C5.21498 27.1927 4.77351 26.7321 5.21498 26.1678C5.62959 25.6572 6.98472 25.1466 8.20549 24.9393C8.24772 23.8951 8.37057 23.1081 8.51645 22.7473C8.69304 22.3288 8.91569 22.7051 9.10764 22.9891C9.26887 23.2003 9.36485 24.1101 9.37252 24.8356C10.171 24.7973 10.6432 24.8548 11.5338 25.0161C12.6932 25.2272 13.4686 25.8184 13.3995 26.4902C13.3496 27.1505 12.7431 27.4231 12.5128 27.4423C12.2709 27.4615 11.8947 27.2887 11.8947 27.2887C11.6375 27.1659 11.8755 27.0584 12.1864 26.924C12.5243 26.7589 12.4475 26.59 12.4475 26.59C12.3208 26.2215 10.816 25.9643 9.31878 25.9643C9.3111 26.7897 9.35333 28.1601 9.37252 28.9586C10.4205 29.1583 11.2037 29.1199 11.2037 29.1199C11.2037 29.1199 15.0272 29.0124 15.1424 26.5708C15.2614 24.1255 11.3304 21.7799 8.42431 21.0351C5.5221 20.275 3.87904 20.8048 3.737 20.8777C3.58345 20.9545 3.72549 20.9775 3.72549 20.9775C3.72549 20.9775 3.88288 21.0006 4.15544 21.0927C4.44336 21.1848 4.2207 21.3346 4.2207 21.3346C3.72549 21.492 3.16884 21.3921 3.06135 21.1656C2.95386 20.9392 3.13429 20.7357 3.34159 20.4439C3.5489 20.1368 3.77539 20.1483 3.77539 20.1483C7.36477 18.9045 11.7373 21.1541 11.7373 21.1541C15.8334 23.231 16.5321 25.6649 16.4553 26.6092ZM5.62191 26.4825C5.21498 26.6822 5.49522 26.9701 5.49522 26.9701C6.25917 27.7916 7.1997 28.306 8.09417 28.6247C8.19782 27.2081 8.18246 26.709 8.19398 25.995C6.79661 26.091 5.99044 26.3136 5.62191 26.4825Z" fill="white"/>
<path d="M42.9711 26.1907V26.6974C42.9711 26.8087 42.8828 26.897 42.7715 26.897H40.3568C40.3568 27.0237 40.3607 27.135 40.3607 27.2387C40.3607 27.9873 40.33 28.5977 40.257 29.2848C40.2455 29.3885 40.161 29.4653 40.0612 29.4653H39.5391C39.4854 29.4653 39.4355 29.4422 39.4009 29.4038C39.3664 29.3655 39.3472 29.3117 39.3549 29.258C39.4278 28.5746 39.4624 27.9719 39.4624 27.2387C39.4624 27.1312 39.4624 27.0199 39.4585 26.897H37.0707C36.9594 26.897 36.8711 26.8087 36.8711 26.6974V26.1907C36.8711 26.0793 36.9594 25.9911 37.0707 25.9911H39.424C39.3741 25.1657 39.2743 24.371 39.113 23.5649C39.1053 23.515 39.1169 23.465 39.1476 23.4267C39.1783 23.3883 39.2243 23.3652 39.2743 23.3652H39.8386C39.9269 23.3652 39.9998 23.4267 40.019 23.515C40.1764 24.348 40.2762 25.158 40.3261 25.9911H42.7715C42.879 25.9911 42.9711 26.0832 42.9711 26.1907Z" fill="white"/>
<path d="M39.6844 22.1712C38.4368 19.1039 36.3292 16.4896 33.5882 14.6086C30.782 12.6853 27.492 11.668 24.0754 11.668C18.4245 11.668 13.1806 14.4742 10.0519 19.1769C10.0173 19.2268 10.0096 19.292 10.0288 19.3496C10.048 19.4111 10.0941 19.4533 10.1517 19.4725L10.5893 19.6222C10.6162 19.6299 10.6431 19.6337 10.6661 19.6337C10.7467 19.6337 10.8235 19.5915 10.8696 19.5262C12.3053 17.4148 14.2478 15.6604 16.4897 14.4473C18.8046 13.1959 21.4266 12.5317 24.0716 12.5317C27.2694 12.5317 30.352 13.4761 32.9932 15.2574C35.5691 16.9964 37.5692 19.4264 38.7784 22.2787C38.813 22.3632 38.8975 22.4208 38.9896 22.4208H39.5117C39.5731 22.4208 39.6307 22.3901 39.6614 22.3401C39.6998 22.2902 39.7075 22.2288 39.6844 22.1712ZM38.8821 22.3517C38.8936 22.3593 38.9051 22.367 38.9167 22.3709C38.9051 22.3632 38.8936 22.3593 38.8821 22.3517Z" fill="url(#paint0_radial_6505_1305)"/>
</g>
<defs>
<radialGradient id="paint0_radial_6505_1305" cx="0" cy="0" r="1" gradientUnits="userSpaceOnUse" gradientTransform="translate(39.1938 22.4014) scale(29.1805 29.1805)">
<stop stop-color="white"/>
<stop offset="0.01" stop-color="white"/>
<stop offset="0.03" stop-color="#CBFFFF"/>
<stop offset="0.06" stop-color="#96FFFF"/>
<stop offset="0.08" stop-color="#68FFFF"/>
<stop offset="0.11" stop-color="#43FFFF"/>
<stop offset="0.14" stop-color="#25FFFF"/>
<stop offset="0.16" stop-color="#11FFFF"/>
<stop offset="0.19" stop-color="#04FFFF"/>
<stop offset="0.22" stop-color="#00FFFF"/>
<stop offset="1" stop-color="#0000FF" stop-opacity="0"/>
</radialGradient>
<clipPath id="clip0_6505_1305">
<rect width="45" height="45" fill="white" transform="translate(0.5)"/>
</clipPath>
</defs>
</svg>
