<svg width="34" height="35" viewBox="0 0 34 35" fill="none" xmlns="http://www.w3.org/2000/svg">
<path d="M24.9071 11.9546C24.8679 11.9774 24.8352 12.0077 24.8099 12.0455C22.6756 14.9392 20.542 17.8332 18.408 20.7273C18.3023 20.8532 18.1056 20.815 18.0046 20.7029C16.8456 19.6925 15.6567 18.7158 14.5019 17.7007C14.2961 17.526 13.9822 17.6408 13.8538 17.8543C11.9048 20.5023 9.94587 23.1438 8.02212 25.8109C7.95321 25.9225 7.83351 26.0254 7.84792 26.169C7.88185 26.3375 8.03935 26.4467 8.19052 26.5045C8.42237 26.5831 8.67075 26.5678 8.91192 26.5692C11.1609 26.5687 13.4096 26.5692 15.6586 26.5687C17.1424 26.5606 18.6057 26.1589 19.9352 25.5128C21.3917 24.8105 22.6751 23.768 23.6918 22.5132C24.7488 21.2285 25.528 19.7064 25.8869 18.0783C26.1575 16.839 26.2633 15.5412 26.0019 14.2909C25.8372 13.527 25.6219 12.7644 25.258 12.0688C25.2021 11.9393 25.0288 11.888 24.9071 11.9546ZM10.5017 8.46393C10.3031 8.63971 10.2589 8.91533 10.2189 9.16336C9.43663 14.2795 8.65212 19.3947 7.86989 24.5103C7.86515 24.5827 7.83105 24.6597 7.86462 24.7305C7.94495 24.768 8.00876 24.685 8.03882 24.6228C9.68888 21.3559 11.3217 18.0807 12.9827 14.8195C13.086 14.6212 13.1655 14.3704 13.3949 14.2847C13.6007 14.2053 13.8013 14.3378 13.9472 14.4728C14.995 15.3422 16.0439 16.2101 17.0945 17.0754C17.2009 17.1496 17.3282 17.2799 17.4676 17.208C17.5704 17.1243 17.6043 16.9874 17.6681 16.8759C18.9691 14.2953 20.275 11.7171 21.578 9.13752C20.4469 8.56447 19.1783 8.28164 17.9121 8.27285C15.693 8.25809 13.4738 8.26828 11.2542 8.26969C10.997 8.28445 10.7056 8.28199 10.5017 8.46393ZM3.76417 0.603516H30.2813C31.1774 0.662402 32.053 1.02961 32.702 1.65381C33.4201 2.3267 33.8523 3.28418 33.8973 4.26592V30.7839C33.8379 31.6686 33.48 32.5335 32.8695 33.1793C32.1956 33.9113 31.2277 34.353 30.2349 34.3985H3.77278C2.86804 34.3577 1.98105 33.9926 1.32099 33.3707C0.5704 32.6771 0.119522 31.6739 0.102295 30.6519V4.27172C0.144834 3.31055 0.55792 2.37135 1.24927 1.70021C1.9146 1.04016 2.82884 0.647109 3.76417 0.603516Z" fill="#00FFA8"/>
<path d="M24.9071 11.9553C25.0287 11.8886 25.2021 11.94 25.2579 12.0695C25.6218 12.7651 25.8371 13.5276 26.0019 14.2916C26.2632 15.5419 26.1574 16.8397 25.8869 18.079C25.5279 19.707 24.7487 21.2291 23.6917 22.5139C22.675 23.7686 21.3916 24.8112 19.9351 25.5134C18.6057 26.1596 17.1423 26.5613 15.6585 26.5694C13.4096 26.5699 11.1608 26.5694 8.91188 26.5699C8.6707 26.5685 8.42233 26.5838 8.19047 26.5052C8.0393 26.4474 7.8818 26.3382 7.84787 26.1696C7.83346 26.026 7.95316 25.9232 8.02207 25.8116C9.94582 23.1444 11.9047 20.503 13.8538 17.855C13.9821 17.6414 14.2961 17.5267 14.5019 17.7014C15.6566 18.7165 16.8456 19.6932 18.0045 20.7035C18.1056 20.8157 18.3023 20.8538 18.4079 20.728C20.5419 17.8339 22.6755 14.9399 24.8099 12.0461C24.8352 12.0083 24.8679 11.9781 24.9071 11.9553ZM10.5016 8.4646C10.7055 8.28267 10.997 8.28513 11.2542 8.27036C13.4738 8.26895 15.693 8.25876 17.9121 8.27353C19.1782 8.28231 20.4468 8.56515 21.578 9.13819C20.2749 11.7178 18.969 14.296 17.6681 16.8766C17.6043 16.9881 17.5703 17.125 17.4675 17.2087C17.3281 17.2806 17.2008 17.1503 17.0945 17.0761C16.0438 16.2108 14.995 15.3429 13.9471 14.4735C13.8012 14.3385 13.6007 14.206 13.3948 14.2854C13.1654 14.371 13.086 14.6219 12.9826 14.8201C11.3217 18.0814 9.68883 21.3566 8.03877 24.6235C8.00871 24.6857 7.9449 24.7687 7.86457 24.7312C7.831 24.6604 7.8651 24.5834 7.86984 24.511C8.65207 19.3954 9.43658 14.2801 10.2188 9.16403C10.2589 8.91601 10.303 8.64038 10.5016 8.4646Z" fill="black"/>
</svg>
