<svg width="46" height="45" viewBox="0 0 46 45" fill="none" xmlns="http://www.w3.org/2000/svg">
<g clip-path="url(#clip0_6493_5190)">
<path d="M45.5 22.5C45.5 10.0736 35.4264 0 23 0C10.5736 0 0.5 10.0736 0.5 22.5C0.5 33.7304 8.72793 43.0387 19.4844 44.7267V29.0039H13.7715V22.5H19.4844V17.543C19.4844 11.9039 22.8435 8.78906 27.983 8.78906C30.4446 8.78906 33.0195 9.22852 33.0195 9.22852V14.7656H30.1823C27.3873 14.7656 26.5156 16.5 26.5156 18.2794V22.5H32.7559L31.7583 29.0039H26.5156V44.7267C37.2721 43.0387 45.5 33.7304 45.5 22.5Z" fill="#1877F2"/>
<path d="M31.7583 29.0039L32.7559 22.5H26.5156V18.2794C26.5156 16.5 27.3873 14.7656 30.1823 14.7656H33.0195V9.22852C33.0195 9.22852 30.4446 8.78906 27.983 8.78906C22.8435 8.78906 19.4844 11.9039 19.4844 17.543V22.5H13.7715V29.0039H19.4844V44.7267C20.6299 44.9064 21.804 45 23 45C24.196 45 25.3701 44.9064 26.5156 44.7267V29.0039H31.7583Z" fill="white"/>
</g>
<defs>
<clipPath id="clip0_6493_5190">
<rect width="45" height="45" fill="white" transform="translate(0.5)"/>
</clipPath>
</defs>
</svg>
