<svg width="24" height="24" viewBox="0 0 24 24" fill="none" xmlns="http://www.w3.org/2000/svg">
<rect width="24" height="24" rx="3" fill="#D9FAFF"/>
<g clip-path="url(#clip0_5583_2153)">
<path d="M12 19.875C16.3492 19.875 19.875 16.3492 19.875 12C19.875 7.65076 16.3492 4.125 12 4.125C7.65076 4.125 4.125 7.65076 4.125 12C4.125 16.3492 7.65076 19.875 12 19.875Z" stroke="#003262" stroke-width="1.5" stroke-miterlimit="10"/>
<path d="M12 19.875C16.3492 19.875 19.875 16.3492 19.875 12C19.875 7.65076 16.3492 4.125 12 4.125C7.65076 4.125 4.125 7.65076 4.125 12C4.125 16.3492 7.65076 19.875 12 19.875Z" stroke="#003262" stroke-width="1.5" stroke-miterlimit="10"/>
<path d="M4.125 11.8574C5.52053 13.1984 7.25955 14.1276 9.15 14.5424C10.0846 14.7583 11.0408 14.8665 12 14.8649C12.9671 14.8677 13.9312 14.757 14.8725 14.5349C16.7549 14.1206 18.4862 13.194 19.875 11.8574" stroke="#003262" stroke-width="1.5" stroke-miterlimit="10"/>
<path d="M5.92578 6.99023C6.81078 11.3402 9.06828 10.8377 9.15078 14.5427C9.15465 14.6177 9.15465 14.6928 9.15078 14.7677C9.14993 15.4753 8.92113 16.1638 8.49831 16.7312C8.07548 17.2986 7.48111 17.7146 6.80328 17.9177" stroke="#003262" stroke-width="1.5" stroke-miterlimit="10"/>
<path d="M18.0961 7.01953C17.1961 11.332 14.9536 10.8445 14.8711 14.5195C14.8711 14.587 14.8711 14.677 14.8711 14.752C14.8726 15.4564 15.0999 16.1418 15.5198 16.7074C15.9396 17.2731 16.5298 17.6891 17.2036 17.8945" stroke="#003262" stroke-width="1.5" stroke-miterlimit="10"/>
<path d="M12 4.125V19.875" stroke="#003262" stroke-width="1.5" stroke-miterlimit="10"/>
</g>
<defs>
<clipPath id="clip0_5583_2153">
<rect width="18" height="18" fill="white" transform="translate(3 3)"/>
</clipPath>
</defs>
</svg>
