<svg width="45" height="45" viewBox="0 0 45 45" fill="none" xmlns="http://www.w3.org/2000/svg">
<rect width="45" height="45" rx="7.5" fill="#003262"/>
<path d="M27 26H17H9V9H35V26H31" stroke="white" stroke-width="1.125" stroke-miterlimit="10"/>
<path d="M18 21H22C22.4685 20.9968 22.6698 20.3296 23 20C23.3302 19.6704 24 19.4644 24 19C24 18.5367 23.3305 18.3276 23 18C22.6695 17.6724 22.4674 17 22 17H21C20.5326 17 20.3305 17.3276 20 17C19.6695 16.6724 19 16.4633 19 16C19 15.5367 19.6695 15.3276 20 15C20.3305 14.6724 20.5326 14 21 14H25" stroke="white" stroke-width="1.125" stroke-miterlimit="10"/>
<path d="M22 11V13" stroke="white" stroke-width="1.125" stroke-miterlimit="10"/>
<path d="M22 21V23" stroke="white" stroke-width="1.125" stroke-miterlimit="10"/>
<path d="M29 35C30.4938 33.4924 30.9998 31.1565 31 29.0243V24.0446C30.9936 23.4243 30.4369 23.485 30 23.0487C29.5631 22.6123 29.6146 22.0527 29 22.0527C28.6931 22.0511 28.2838 21.9349 28 22.0527C27.7162 22.1705 27.217 22.8296 27 23.0487C26.783 23.2677 27.1167 22.7622 27 23.0487C26.8833 23.3351 25.9984 23.7349 26 24.0446V28.0284V28.0284C25.3723 28.3462 25.3689 28.4212 25 29.0243C24.6311 29.6275 24.0002 30.3074 24 31.0162" stroke="white" stroke-width="1.125" stroke-miterlimit="10"/>
<path d="M17 26V30C17.0002 32.2722 17.7196 34.3934 19 36" stroke="white" stroke-width="1.125" stroke-miterlimit="10"/>
</svg>
