<svg width="24" height="24" viewBox="0 0 24 24" fill="none" xmlns="http://www.w3.org/2000/svg">
<rect width="24" height="24" rx="3" fill="#D9FAFF"/>
<path d="M19.875 7.26953H4.125V18.722H19.875V7.26953Z" stroke="#003262" stroke-width="1.5" stroke-miterlimit="10" stroke-linecap="square"/>
<path d="M6.99063 15.1442H8.77563C8.9171 15.1452 9.05737 15.1181 9.18836 15.0647C9.31935 15.0112 9.43846 14.9324 9.53885 14.8327C9.63924 14.733 9.71891 14.6145 9.77327 14.4838C9.82764 14.3532 9.85563 14.2131 9.85563 14.0717C9.85563 13.9302 9.82764 13.7901 9.77327 13.6595C9.71891 13.5289 9.63924 13.4103 9.53885 13.3106C9.43846 13.2109 9.31935 13.1321 9.18836 13.0786C9.05737 13.0252 8.9171 12.9982 8.77563 12.9992H8.02563C7.88478 12.9992 7.74532 12.9714 7.6152 12.9175C7.48508 12.8636 7.36684 12.7846 7.26725 12.685C7.16766 12.5855 7.08866 12.4672 7.03476 12.3371C6.98087 12.207 6.95313 12.0675 6.95313 11.9267C6.95304 11.7826 6.98197 11.64 7.0382 11.5074C7.09443 11.3748 7.1768 11.2548 7.28039 11.1547C7.38399 11.0546 7.50669 10.9764 7.64117 10.9248C7.77565 10.8732 7.91916 10.8491 8.06313 10.8542H9.85563" stroke="#003262" stroke-width="1.5" stroke-miterlimit="10" stroke-linecap="square"/>
<path d="M8.42188 9.42188V10.8544" stroke="#003262" stroke-width="1.5" stroke-miterlimit="10" stroke-linecap="square"/>
<path d="M8.42188 16.577V15.1445" stroke="#003262" stroke-width="1.5" stroke-miterlimit="10" stroke-linecap="square"/>
<path d="M12.7109 10.1348H17.0084" stroke="#003262" stroke-width="1.5" stroke-miterlimit="10" stroke-linecap="square"/>
<path d="M12.7109 13H17.0084" stroke="#003262" stroke-width="1.5" stroke-miterlimit="10" stroke-linecap="square"/>
<path d="M12.7109 15.8643H17.0084" stroke="#003262" stroke-width="1.5" stroke-miterlimit="10" stroke-linecap="square"/>
</svg>
