<svg width="24" height="24" viewBox="0 0 24 24" fill="none" xmlns="http://www.w3.org/2000/svg">
<rect width="24" height="24" rx="3" fill="#D9FAFF"/>
<path d="M9.855 16.5777C9.855 16.5777 9 13.8777 10.5675 12.2502C11.2348 11.6951 11.9678 11.224 12.75 10.8477C12.7489 10.1651 12.9428 9.49631 13.3088 8.92007C13.6749 8.34382 14.1978 7.88406 14.8161 7.59484C15.4345 7.30562 16.1226 7.19897 16.7995 7.28742C17.4764 7.37587 18.114 7.65575 18.6373 8.09416C19.1606 8.53256 19.5478 9.11126 19.7535 9.7622C19.9591 10.4131 19.9746 11.1093 19.7982 11.7687C19.6218 12.4282 19.2607 13.0236 18.7575 13.4849C18.2543 13.9462 17.6298 14.2542 16.9575 14.3727C15.585 16.4502 12.585 20.1552 8.46 20.1552C6.27 20.1552 4.125 13.7502 4.125 10.8477V7.36024C4.12631 6.92716 4.29333 6.51101 4.5918 6.1972C4.89027 5.88339 5.29753 5.69573 5.73 5.67274C7.0275 5.60524 8.73 5.67274 9.135 6.55024C9.75 7.83274 8.4225 10.1352 6.99 10.1352C6.99 11.2602 8.3625 13.7052 9.6075 15.0552" stroke="#003262" stroke-width="1.5" stroke-miterlimit="10"/>
</svg>
