<svg width="24" height="24" viewBox="0 0 24 24" fill="none" xmlns="http://www.w3.org/2000/svg">
<rect width="24" height="24" rx="3" fill="#D9FAFF"/>
<path d="M12.7999 3.2002C12.6938 3.20022 12.5921 3.24237 12.5171 3.31738L4.11711 11.7174C4.04212 11.7924 4 11.8941 4 12.0002C4 12.1063 4.04212 12.208 4.11711 12.283L6.51711 14.683C6.59213 14.758 6.69385 14.8001 6.79992 14.8001C6.90599 14.8001 7.00772 14.758 7.08274 14.683L17.8827 3.88301C17.9386 3.82706 17.9767 3.75579 17.9921 3.67822C18.0076 3.60064 17.9996 3.52023 17.9694 3.44715C17.9391 3.37408 17.8878 3.31162 17.8221 3.26766C17.7563 3.2237 17.679 3.20023 17.5999 3.2002H12.7999ZM12.9655 4.0002H16.6343L6.79992 13.8346L4.96555 12.0002L12.9655 4.0002ZM13.1999 10.8002C13.0938 10.8002 12.9921 10.8424 12.9171 10.9174L8.11711 15.7174C8.04212 15.7924 8 15.8941 8 16.0002C8 16.1063 8.04212 16.208 8.11711 16.283L10.5171 18.683L12.9171 21.083C12.9921 21.158 13.0938 21.2002 13.1999 21.2002H17.9999C18.079 21.2002 18.1563 21.1767 18.2221 21.1327C18.2878 21.0888 18.3391 21.0263 18.3694 20.9532C18.3996 20.8802 18.4076 20.7998 18.3921 20.7222C18.3767 20.6446 18.3386 20.5733 18.2827 20.5174L13.7655 16.0002L18.2827 11.483C18.3386 11.4271 18.3767 11.3558 18.3921 11.2782C18.4076 11.2006 18.3996 11.1202 18.3694 11.0472C18.3391 10.9741 18.2878 10.9116 18.2221 10.8677C18.1563 10.8237 18.079 10.8002 17.9999 10.8002H13.1999ZM13.3655 11.6002H17.0343L10.7999 17.8346L8.96555 16.0002L13.3655 11.6002ZM13.1999 16.5658L17.0343 20.4002H13.3655L11.3655 18.4002L13.1999 16.5658Z" fill="#003262"/>
</svg>
