<svg width="24" height="24" viewBox="0 0 24 24" fill="none" xmlns="http://www.w3.org/2000/svg">
<rect width="24" height="24" rx="3" fill="#D9FAFF"/>
<g clip-path="url(#clip0_5583_2157)">
<path d="M4.00078 2.7998C3.34297 2.7998 2.80078 3.34199 2.80078 3.9998V15.9998C2.80078 16.6576 3.34297 17.1998 4.00078 17.1998H9.60078V17.9998H6.00078C5.98828 17.9998 5.97578 17.9998 5.96328 17.9998C5.85547 18.0107 5.75547 18.0639 5.68828 18.1498L3.68828 20.5498C3.59141 20.6701 3.57266 20.8342 3.63984 20.9732C3.70703 21.1123 3.84766 21.1998 4.00078 21.1998H20.0008C20.1539 21.1998 20.2945 21.1123 20.3617 20.9732C20.4289 20.8342 20.4102 20.6701 20.3133 20.5498L18.3133 18.1498C18.2367 18.0545 18.1227 17.9998 18.0008 17.9998H14.4008V17.1998H20.0008C20.6586 17.1998 21.2008 16.6576 21.2008 15.9998V3.9998C21.2008 3.34199 20.6586 2.7998 20.0008 2.7998H4.00078ZM4.00078 3.5998H20.0008C20.2227 3.5998 20.4008 3.77793 20.4008 3.9998V15.9998C20.4008 16.2217 20.2227 16.3998 20.0008 16.3998H4.00078C3.77891 16.3998 3.60078 16.2217 3.60078 15.9998V3.9998C3.60078 3.77793 3.77891 3.5998 4.00078 3.5998ZM4.40078 4.3998V15.5998H19.6008V4.3998H4.40078ZM5.20078 5.1998H18.8008V14.7998H5.20078V5.1998ZM9.71328 6.5123L6.51328 9.7123L6.23828 9.9998L6.51328 10.2873L9.71328 13.4873L10.2883 12.9123L7.37578 9.9998L10.2883 7.0873L9.71328 6.5123ZM14.2883 6.5123L13.7133 7.0873L16.6258 9.9998L13.7133 12.9123L14.2883 13.4873L17.4883 10.2873L17.7633 9.9998L17.4883 9.7123L14.2883 6.5123ZM10.4008 17.1998H13.6008V18.7998H10.4008V17.1998ZM6.18828 18.7998H9.60078V19.5998H14.4008V18.7998H17.8133L19.1508 20.3998H4.85078L6.18828 18.7998Z" fill="#003262"/>
</g>
<defs>
<clipPath id="clip0_5583_2157">
<rect width="20" height="20" fill="white" transform="translate(2 2)"/>
</clipPath>
</defs>
</svg>
