<svg width="115" height="30" viewBox="0 0 115 30" fill="none" xmlns="http://www.w3.org/2000/svg">
<path fill-rule="evenodd" clip-rule="evenodd" d="M10.2242 14.1554C10.6316 11.6045 12.3287 10.0989 14.8067 10.2029C14.9242 10.1912 15.042 10.1817 15.1599 10.1722C15.4146 10.1517 15.6693 10.1312 15.92 10.0887C18.6124 9.63362 20.4149 7.1804 20.0926 4.42235C19.7951 1.87622 17.4161 -0.135383 14.871 0.00713118C12.1268 0.160809 10.0457 2.33483 10.0263 5.06803C10.0057 7.98044 8.00138 9.96127 5.0624 9.9736C2.757 9.98331 0.807459 11.4811 0.180422 13.7242C-0.422762 15.8814 0.525516 18.2459 2.44173 19.4026C3.28843 19.9137 4.20357 20.1293 5.18499 20.1399C7.71191 20.1675 9.28498 21.3953 9.87487 23.8291C9.97168 24.2284 9.99009 24.6491 10.0083 25.0655C10.0113 25.1344 10.0143 25.2031 10.0177 25.2716C10.1464 27.9047 12.3985 30.0143 15.0767 29.9999C17.7706 29.9856 20.03 27.8172 20.1033 25.1759C20.1882 22.1185 17.9389 19.8647 14.8464 19.8482C13.1176 19.8389 11.6539 19.2363 10.7447 17.6751C10.105 16.5765 10.0256 15.3988 10.2242 14.1554ZM24.962 9.9961C22.1708 9.99096 19.9046 12.2721 19.9043 15.0872C19.904 17.9082 22.1605 20.1716 24.9665 20.165C27.7496 20.1583 29.9937 17.9035 30.0002 15.1072C30.0069 12.2862 27.7546 10.0012 24.962 9.9961Z" fill="#193DC0"/>
<path d="M52.7051 14.5684V20.2031C52.4837 20.4701 52.1419 20.7598 51.6797 21.0723C51.2174 21.3783 50.6217 21.6419 49.8926 21.8633C49.1634 22.0846 48.2812 22.1953 47.2461 22.1953C46.3281 22.1953 45.4915 22.0456 44.7363 21.7461C43.9811 21.4401 43.3301 20.9941 42.7832 20.4082C42.2428 19.8223 41.8262 19.1061 41.5332 18.2598C41.2402 17.4069 41.0938 16.4336 41.0938 15.3398V14.4512C41.0938 13.3574 41.2337 12.3841 41.5137 11.5312C41.8001 10.6784 42.207 9.95898 42.7344 9.37305C43.2617 8.78711 43.89 8.34115 44.6191 8.03516C45.3483 7.72917 46.1589 7.57617 47.0508 7.57617C48.2878 7.57617 49.3034 7.77799 50.0977 8.18164C50.8919 8.57878 51.4974 9.13216 51.9141 9.8418C52.3372 10.5449 52.5977 11.3522 52.6953 12.2637H49.8535C49.7819 11.7819 49.6452 11.362 49.4434 11.0039C49.2415 10.6458 48.9518 10.3659 48.5742 10.1641C48.2031 9.96224 47.7214 9.86133 47.1289 9.86133C46.6406 9.86133 46.2044 9.96224 45.8203 10.1641C45.4427 10.3594 45.1237 10.6491 44.8633 11.0332C44.6029 11.4173 44.4043 11.8926 44.2676 12.459C44.1309 13.0254 44.0625 13.6829 44.0625 14.4316V15.3398C44.0625 16.082 44.1341 16.7396 44.2773 17.3125C44.4206 17.8789 44.6322 18.3574 44.9121 18.748C45.1986 19.1322 45.5501 19.4219 45.9668 19.6172C46.3835 19.8125 46.8685 19.9102 47.4219 19.9102C47.8841 19.9102 48.2682 19.8711 48.5742 19.793C48.8867 19.7148 49.1374 19.6204 49.3262 19.5098C49.5215 19.3926 49.6712 19.2819 49.7754 19.1777V16.6582H47.0996V14.5684H52.7051ZM58.4766 22H55.6445V10.4961C55.6445 9.69531 55.8008 9.02148 56.1133 8.47461C56.4323 7.92122 56.8783 7.50456 57.4512 7.22461C58.0306 6.93815 58.7174 6.79492 59.5117 6.79492C59.7721 6.79492 60.0228 6.81445 60.2637 6.85352C60.5046 6.88607 60.7389 6.92839 60.9668 6.98047L60.9375 9.09961C60.8138 9.06706 60.6836 9.04427 60.5469 9.03125C60.4102 9.01823 60.2507 9.01172 60.0684 9.01172C59.7298 9.01172 59.4401 9.07031 59.1992 9.1875C58.9648 9.29818 58.7858 9.46419 58.6621 9.68555C58.5384 9.9069 58.4766 10.1771 58.4766 10.4961V22ZM60.5859 11.4336V13.4258H54.0723V11.4336H60.5859ZM67.7637 19.6172V14.9102C67.7637 14.5716 67.7083 14.2819 67.5977 14.041C67.487 13.7936 67.3145 13.6016 67.0801 13.4648C66.8522 13.3281 66.556 13.2598 66.1914 13.2598C65.8789 13.2598 65.6087 13.3151 65.3809 13.4258C65.153 13.5299 64.9772 13.6829 64.8535 13.8848C64.7298 14.0801 64.668 14.3112 64.668 14.5781H61.8555C61.8555 14.1289 61.9596 13.7025 62.168 13.2988C62.3763 12.8952 62.679 12.5404 63.0762 12.2344C63.4733 11.9219 63.9453 11.6777 64.4922 11.502C65.0456 11.3262 65.6641 11.2383 66.3477 11.2383C67.168 11.2383 67.8971 11.375 68.5352 11.6484C69.1732 11.9219 69.6745 12.332 70.0391 12.8789C70.4102 13.4258 70.5957 14.1094 70.5957 14.9297V19.4512C70.5957 20.0306 70.6315 20.5059 70.7031 20.877C70.7747 21.2415 70.8789 21.5605 71.0156 21.834V22H68.1738C68.0371 21.7135 67.9329 21.3555 67.8613 20.9258C67.7962 20.4896 67.7637 20.0534 67.7637 19.6172ZM68.1348 15.5645L68.1543 17.1562H66.582C66.2109 17.1562 65.8887 17.1986 65.6152 17.2832C65.3418 17.3678 65.1172 17.4883 64.9414 17.6445C64.7656 17.7943 64.6354 17.9701 64.5508 18.1719C64.4727 18.3737 64.4336 18.5951 64.4336 18.8359C64.4336 19.0768 64.4889 19.2949 64.5996 19.4902C64.7103 19.679 64.8698 19.8288 65.0781 19.9395C65.2865 20.0436 65.5306 20.0957 65.8105 20.0957C66.2337 20.0957 66.6016 20.0111 66.9141 19.8418C67.2266 19.6725 67.4674 19.4642 67.6367 19.2168C67.8125 18.9694 67.9036 18.735 67.9102 18.5137L68.6523 19.7051C68.5482 19.972 68.4049 20.2487 68.2227 20.5352C68.0469 20.8216 67.8223 21.0918 67.5488 21.3457C67.2754 21.5931 66.9466 21.7982 66.5625 21.9609C66.1784 22.1172 65.7227 22.1953 65.1953 22.1953C64.5247 22.1953 63.916 22.0618 63.3691 21.7949C62.8288 21.5215 62.3991 21.1471 62.0801 20.6719C61.7676 20.1901 61.6113 19.6432 61.6113 19.0312C61.6113 18.4779 61.7155 17.9863 61.9238 17.5566C62.1322 17.127 62.4382 16.7656 62.8418 16.4727C63.252 16.1732 63.763 15.9486 64.375 15.7988C64.987 15.6426 65.6966 15.5645 66.5039 15.5645H68.1348ZM77.1289 19.998C77.474 19.998 77.7799 19.9329 78.0469 19.8027C78.3138 19.666 78.5221 19.4772 78.6719 19.2363C78.8281 18.9889 78.9095 18.6992 78.916 18.3672H81.5625C81.556 19.1094 81.3574 19.7702 80.9668 20.3496C80.5762 20.9225 80.0521 21.375 79.3945 21.707C78.737 22.0326 78.0013 22.1953 77.1875 22.1953C76.3672 22.1953 75.651 22.0586 75.0391 21.7852C74.4336 21.5117 73.929 21.1341 73.5254 20.6523C73.1217 20.1641 72.819 19.5977 72.6172 18.9531C72.4154 18.3021 72.3145 17.6055 72.3145 16.8633V16.5801C72.3145 15.8314 72.4154 15.1348 72.6172 14.4902C72.819 13.8392 73.1217 13.2728 73.5254 12.791C73.929 12.3027 74.4336 11.9219 75.0391 11.6484C75.6445 11.375 76.3542 11.2383 77.168 11.2383C78.0339 11.2383 78.7923 11.4043 79.4434 11.7363C80.1009 12.0684 80.6152 12.5436 80.9863 13.1621C81.3639 13.7741 81.556 14.5 81.5625 15.3398H78.916C78.9095 14.9883 78.8346 14.6693 78.6914 14.3828C78.5547 14.0964 78.3529 13.8685 78.0859 13.6992C77.8255 13.5234 77.5033 13.4355 77.1191 13.4355C76.709 13.4355 76.3737 13.5234 76.1133 13.6992C75.8529 13.8685 75.651 14.1029 75.5078 14.4023C75.3646 14.6953 75.2637 15.0306 75.2051 15.4082C75.153 15.7793 75.127 16.1699 75.127 16.5801V16.8633C75.127 17.2734 75.153 17.6673 75.2051 18.0449C75.2572 18.4225 75.3548 18.7578 75.498 19.0508C75.6478 19.3438 75.8529 19.5749 76.1133 19.7441C76.3737 19.9134 76.7122 19.998 77.1289 19.998ZM86.1621 11.4336V22H83.3398V11.4336H86.1621ZM83.1641 8.67969C83.1641 8.26953 83.3073 7.93099 83.5938 7.66406C83.8802 7.39714 84.2643 7.26367 84.7461 7.26367C85.2214 7.26367 85.6022 7.39714 85.8887 7.66406C86.1816 7.93099 86.3281 8.26953 86.3281 8.67969C86.3281 9.08984 86.1816 9.42839 85.8887 9.69531C85.6022 9.96224 85.2214 10.0957 84.7461 10.0957C84.2643 10.0957 83.8802 9.96224 83.5938 9.69531C83.3073 9.42839 83.1641 9.08984 83.1641 8.67969ZM91.4551 7V22H88.6328V7H91.4551ZM96.748 11.4336V22H93.9258V11.4336H96.748ZM93.75 8.67969C93.75 8.26953 93.8932 7.93099 94.1797 7.66406C94.4661 7.39714 94.8503 7.26367 95.332 7.26367C95.8073 7.26367 96.1882 7.39714 96.4746 7.66406C96.7676 7.93099 96.9141 8.26953 96.9141 8.67969C96.9141 9.08984 96.7676 9.42839 96.4746 9.69531C96.1882 9.96224 95.8073 10.0957 95.332 10.0957C94.8503 10.0957 94.4661 9.96224 94.1797 9.69531C93.8932 9.42839 93.75 9.08984 93.75 8.67969ZM104.248 11.4336V13.4258H98.0957V11.4336H104.248ZM99.6191 8.82617H102.432V18.8164C102.432 19.1224 102.471 19.3568 102.549 19.5195C102.633 19.6823 102.757 19.7962 102.92 19.8613C103.083 19.9199 103.288 19.9492 103.535 19.9492C103.711 19.9492 103.867 19.9427 104.004 19.9297C104.147 19.9102 104.268 19.8906 104.365 19.8711L104.375 21.9414C104.134 22.0195 103.874 22.0814 103.594 22.127C103.314 22.1725 103.005 22.1953 102.666 22.1953C102.048 22.1953 101.507 22.0944 101.045 21.8926C100.589 21.6842 100.238 21.3522 99.9902 20.8965C99.7428 20.4408 99.6191 19.8418 99.6191 19.0996V8.82617ZM108.984 20.8086L111.787 11.4336H114.805L110.557 23.5918C110.465 23.8587 110.342 24.1452 110.186 24.4512C110.036 24.7572 109.831 25.0469 109.57 25.3203C109.316 25.6003 108.994 25.8281 108.604 26.0039C108.219 26.1797 107.747 26.2676 107.188 26.2676C106.921 26.2676 106.702 26.2513 106.533 26.2188C106.364 26.1862 106.162 26.1406 105.928 26.082V24.0215C105.999 24.0215 106.074 24.0215 106.152 24.0215C106.23 24.028 106.305 24.0312 106.377 24.0312C106.748 24.0312 107.051 23.9889 107.285 23.9043C107.52 23.8197 107.708 23.6895 107.852 23.5137C107.995 23.3444 108.109 23.123 108.193 22.8496L108.984 20.8086ZM107.812 11.4336L110.107 19.0898L110.508 22.0684L108.594 22.2734L104.795 11.4336H107.812Z" fill="#193DC0"/>
</svg>
