<svg width="136" height="41" viewBox="0 0 136 41"
                                                                        fill="none" xmlns="http://www.w3.org/2000/svg">
                                                                        <g clip-path="url(#clip0_5730_20582)">
                                                                            <path fill-rule="evenodd"
                                                                                clip-rule="evenodd"
                                                                                d="M130.561 40.4062H5.56434C2.80762 40.4062 0.5625 38.1519 0.5625 35.4062V5.40625C0.5625 2.65064 2.80762 0.40625 5.56434 0.40625H130.561C133.315 0.40625 135.562 2.65064 135.562 5.40625V35.4062C135.562 38.1519 133.315 40.4062 130.561 40.4062Z"
                                                                                fill="black" />
                                                                            <path fill-rule="evenodd"
                                                                                clip-rule="evenodd"
                                                                                d="M130.561 1.20675C132.873 1.20675 134.765 3.09453 134.765 5.40625V35.4062C134.765 37.718 132.885 39.6058 130.561 39.6058H5.56434C3.25217 39.6058 1.35971 37.718 1.35971 35.4062V5.40625C1.35971 3.09453 3.23975 1.20675 5.56434 1.20675H130.561ZM130.561 0.40625H5.56434C2.80762 0.40625 0.5625 2.66061 0.5625 5.40625V35.4062C0.5625 38.1619 2.80762 40.4062 5.56434 40.4062H130.561C133.315 40.4062 135.562 38.1619 135.562 35.4062V5.40625C135.562 2.66061 133.315 0.40625 130.561 0.40625Z"
                                                                                fill="#A6A6A6" />
                                                                            <path
                                                                                d="M71.6816 13.6382C70.7801 13.6382 70.0202 13.3215 69.4192 12.6981C68.8231 12.0921 68.4903 11.2567 68.5052 10.4038C68.5052 9.49357 68.8132 8.723 69.4192 8.11202C70.0177 7.48858 70.7776 7.17188 71.6792 7.17188C72.5707 7.17188 73.3307 7.48858 73.9416 8.11202C74.5476 8.74295 74.8556 9.51352 74.8556 10.4038C74.8456 11.3165 74.5377 12.0871 73.9416 12.6956C73.3431 13.324 72.5832 13.6382 71.6816 13.6382ZM44.8571 13.6382C43.9755 13.6382 43.2106 13.3265 42.5847 12.7105C41.9638 12.0971 41.6484 11.3215 41.6484 10.4063C41.6484 9.49108 41.9638 8.71552 42.5847 8.10205C43.1982 7.48609 43.9631 7.17437 44.8571 7.17437C45.2942 7.17437 45.7189 7.26165 46.1262 7.43871C46.5261 7.61078 46.8514 7.84519 47.0923 8.13197L47.1519 8.20429L46.4789 8.86764L46.4093 8.78534C46.0294 8.33148 45.5202 8.10953 44.8472 8.10953C44.2462 8.10953 43.7222 8.32399 43.29 8.74794C42.8554 9.17437 42.6344 9.73297 42.6344 10.4088C42.6344 11.0846 42.8554 11.6432 43.29 12.0696C43.7222 12.4936 44.2462 12.708 44.8472 12.708C45.488 12.708 46.0269 12.4936 46.4466 12.0696C46.6949 11.8203 46.8489 11.4711 46.9036 11.0297H44.7454V10.0971H47.8299L47.8423 10.1819C47.8647 10.339 47.887 10.5011 47.887 10.6507C47.887 11.511 47.6288 12.2068 47.1171 12.7205C46.536 13.329 45.776 13.6382 44.8571 13.6382ZM80.523 13.506H79.5718L76.6586 8.82524L76.6835 9.66813V13.5035H75.7323V7.30654H76.8176L76.8474 7.35392L79.5867 11.7629L79.5618 10.9225V7.30654H80.523V13.506ZM64.5341 13.506H63.5705V8.23921H61.8991V7.30654H66.203V8.23921H64.5316V13.506H64.5341ZM61.1143 13.506H60.1531V7.30654H61.1143V13.506ZM55.7126 13.506H54.7515V8.23921H53.0801V7.30654H57.384V8.23921H55.7126V13.506ZM52.4716 13.4961H48.7861V7.30654H52.4716V8.23921H49.7497V9.93995H52.2059V10.8626H49.7497V12.5634H52.4716V13.4961ZM70.1245 12.0572C70.5541 12.4886 71.0757 12.7055 71.6816 12.7055C72.305 12.7055 72.8141 12.4936 73.2388 12.0572C73.661 11.6332 73.8746 11.0771 73.8746 10.4063C73.8746 9.73547 73.661 9.17686 73.2413 8.75542C72.8116 8.32399 72.2876 8.10704 71.6841 8.10704C71.0608 8.10704 70.5516 8.31901 70.1294 8.75542C69.7072 9.17936 69.4937 9.73547 69.4937 10.4063C69.4937 11.0771 69.7048 11.6357 70.1245 12.0572Z"
                                                                                fill="white" />
                                                                            <path fill-rule="evenodd"
                                                                                clip-rule="evenodd"
                                                                                d="M68.4134 22.1617C66.0664 22.1617 64.164 23.9497 64.164 26.416C64.164 28.8599 66.0788 30.6704 68.4134 30.6704C70.7603 30.6704 72.6627 28.8699 72.6627 26.416C72.6627 23.9497 70.7603 22.1617 68.4134 22.1617ZM68.4134 28.9846C67.1294 28.9846 66.0242 27.9173 66.0242 26.4061C66.0242 24.8724 67.1319 23.8275 68.4134 23.8275C69.6973 23.8275 70.8025 24.8724 70.8025 26.4061C70.805 27.9273 69.6973 28.9846 68.4134 28.9846ZM59.1423 22.1617C56.7954 22.1617 54.893 23.9497 54.893 26.416C54.893 28.8599 56.8078 30.6704 59.1423 30.6704C61.4893 30.6704 63.3916 28.8699 63.3916 26.416C63.3916 23.9497 61.4868 22.1617 59.1423 22.1617ZM59.1423 28.9846C57.8583 28.9846 56.7531 27.9173 56.7531 26.4061C56.7531 24.8724 57.8608 23.8275 59.1423 23.8275C60.4263 23.8275 61.5315 24.8724 61.5315 26.4061C61.5315 27.9273 60.4263 28.9846 59.1423 28.9846ZM48.1104 23.4609V25.2614H52.4144C52.2828 26.2714 51.95 27.017 51.4409 27.5283C50.81 28.1617 49.8365 28.8499 48.1204 28.8499C45.4754 28.8499 43.4066 26.7053 43.4066 24.0494C43.4066 21.3936 45.4754 19.2489 48.1204 19.2489C49.5484 19.2489 50.589 19.815 51.3614 20.5382L52.633 19.2614C51.5601 18.229 50.132 17.4385 48.1303 17.4385C44.5019 17.4385 41.457 20.4061 41.457 24.0395C41.457 27.6829 44.4994 30.6405 48.1303 30.6405C50.0898 30.6405 51.5601 29.9971 52.7224 28.7851C53.907 27.5956 54.282 25.9173 54.282 24.5632C54.282 24.1417 54.2497 23.7627 54.1827 23.441H48.1079C48.1104 23.4385 48.1104 23.4609 48.1104 23.4609ZM93.2338 24.8624C92.8787 23.9073 91.8058 22.1517 89.6054 22.1517C87.4248 22.1517 85.6119 23.8749 85.6119 26.4061C85.6119 28.7951 87.405 30.6604 89.8165 30.6604C91.7536 30.6604 92.8812 29.4709 93.3456 28.7726L91.9076 27.8051C91.4308 28.5158 90.7677 28.9821 89.8264 28.9821C88.8752 28.9821 88.2096 28.5482 87.7676 27.6928L93.4325 25.3362C93.4325 25.3387 93.2338 24.8624 93.2338 24.8624ZM87.4571 26.2839C87.4124 24.6405 88.7287 23.8051 89.67 23.8051C90.4125 23.8051 91.0309 24.1716 91.242 24.7053L87.4571 26.2839ZM82.8551 30.4061H84.7153V17.9073H82.8551V30.4061ZM79.8004 23.1068H79.7333C79.3136 22.6056 78.5164 22.1517 77.4981 22.1517C75.3846 22.1517 73.4376 24.0195 73.4376 26.4185C73.4376 28.8076 75.3747 30.6529 77.4981 30.6529C78.504 30.6529 79.3136 30.1966 79.7333 29.6854H79.8004V30.2963C79.8004 31.9198 78.9361 32.7951 77.5428 32.7951C76.4029 32.7951 75.6951 31.9721 75.407 31.2839L73.7902 31.9622C74.2546 33.0844 75.4939 34.4734 77.5404 34.4734C79.7209 34.4734 81.5687 33.1841 81.5687 30.0395V22.4061H79.8103V23.1068C79.8128 23.1068 79.8004 23.1068 79.8004 23.1068ZM77.6645 28.9846C76.3806 28.9846 75.3077 27.9073 75.3077 26.4185C75.3077 24.9173 76.3806 23.83 77.6645 23.83C78.9361 23.83 79.9221 24.9297 79.9221 26.4185C79.9345 27.9073 78.9386 28.9846 77.6645 28.9846ZM101.944 17.9073H97.4956V30.4061H99.3558V25.6729H101.946C104.005 25.6729 106.029 24.1741 106.029 21.7951C106.029 19.416 104.012 17.9073 101.944 17.9073ZM101.998 23.9273H99.3533V19.638H101.998C103.392 19.638 104.179 20.7926 104.179 21.7826C104.179 22.7627 103.382 23.9273 101.998 23.9273ZM113.485 22.1392C112.134 22.1392 110.74 22.7402 110.164 24.0494L111.813 24.7377C112.168 24.0494 112.819 23.815 113.507 23.815C114.471 23.815 115.444 24.3936 115.466 25.426V25.5582C115.134 25.3686 114.404 25.0794 113.529 25.0794C111.749 25.0794 109.943 26.0569 109.943 27.8898C109.943 29.5682 111.403 30.6455 113.03 30.6455C114.279 30.6455 114.967 30.0794 115.397 29.4235H115.464V30.3911H117.257V25.6031C117.257 23.3736 115.608 22.1392 113.485 22.1392ZM113.251 28.9846C112.643 28.9846 111.791 28.6854 111.791 27.9173C111.791 26.9497 112.854 26.5831 113.76 26.5831C114.58 26.5831 114.967 26.7602 115.454 27.0046C115.32 28.1268 114.376 28.9746 113.251 28.9846ZM123.799 22.4061L121.663 27.8275H121.596L119.383 22.4061H117.381L120.702 29.9846L118.809 34.1966H120.746L125.855 22.4061H123.799ZM107.055 30.4061H108.915V17.9073H107.055V30.4061Z"
                                                                                fill="white" />
                                                                            <path fill-rule="evenodd"
                                                                                clip-rule="evenodd"
                                                                                d="M10.9545 7.9394C10.6664 8.25112 10.5 8.72743 10.5 9.35087V31.4631C10.5 32.0865 10.6664 32.5628 10.9644 32.8621L11.0414 32.9294L23.3796 20.5404V20.2636L11.0315 7.87207L10.9545 7.9394Z"
                                                                                fill="url(#paint0_linear_5730_20582)" />
                                                                            <path fill-rule="evenodd"
                                                                                clip-rule="evenodd"
                                                                                d="M27.4824 24.6835L23.3672 20.5513V20.2621L27.4824 16.1299L27.5718 16.1847L32.4396 18.9628C33.8329 19.7508 33.8329 21.0526 32.4396 21.8506L27.5718 24.6286L27.4824 24.6835Z"
                                                                                fill="url(#paint1_linear_5730_20582)" />
                                                                            <path fill-rule="evenodd"
                                                                                clip-rule="evenodd"
                                                                                d="M27.5729 24.6282L23.3683 20.4062L10.9531 32.8726C11.4076 33.3614 12.1701 33.4162 13.0219 32.9399L27.5729 24.6282Z"
                                                                                fill="url(#paint2_linear_5730_20582)" />
                                                                            <path fill-rule="evenodd"
                                                                                clip-rule="evenodd"
                                                                                d="M27.5729 16.1847L13.0219 7.88543C12.1701 7.39665 11.4051 7.46399 10.9531 7.95276L23.3683 20.4066L27.5729 16.1847Z"
                                                                                fill="url(#paint3_linear_5730_20582)" />
                                                                            <path opacity="0.2" fill-rule="evenodd"
                                                                                clip-rule="evenodd"
                                                                                d="M27.4854 24.5381L13.0336 32.7824C12.2265 33.2488 11.5063 33.2164 11.0418 32.7924L10.9648 32.8697L11.0418 32.9371C11.5063 33.3585 12.2265 33.3934 13.0336 32.9271L27.5847 24.6279L27.4854 24.5381Z"
                                                                                fill="black" />
                                                                            <path opacity="0.12" fill-rule="evenodd"
                                                                                clip-rule="evenodd"
                                                                                d="M32.4422 21.7055L27.4727 24.5384L27.5621 24.6282L32.4298 21.8501C33.1277 21.4511 33.4704 20.9274 33.4704 20.4062C33.4282 20.8851 33.073 21.3389 32.4422 21.7055Z"
                                                                                fill="black" />
                                                                            <path opacity="0.25" fill-rule="evenodd"
                                                                                clip-rule="evenodd"
                                                                                d="M13.0233 8.02954L32.442 19.1069C33.0728 19.4635 33.428 19.9298 33.4826 20.4061C33.4826 19.8849 33.1399 19.3612 32.442 18.9622L13.0233 7.88491C11.63 7.08441 10.5 7.75274 10.5 9.35124V9.49588C10.5 7.89488 11.63 7.23902 13.0233 8.02954Z"
                                                                                fill="white" />
                                                                        </g>
                                                                        <defs>
                                                                            <linearGradient
                                                                                id="paint0_linear_5730_20582"
                                                                                x1="22.2729" y1="9.11231" x2="2.49849"
                                                                                y2="14.3596"
                                                                                gradientUnits="userSpaceOnUse">
                                                                                <stop stop-color="#00A0FF" />
                                                                                <stop offset="0.00657"
                                                                                    stop-color="#00A1FF" />
                                                                                <stop offset="0.2601"
                                                                                    stop-color="#00BEFF" />
                                                                                <stop offset="0.5122"
                                                                                    stop-color="#00D2FF" />
                                                                                <stop offset="0.7604"
                                                                                    stop-color="#00DFFF" />
                                                                                <stop offset="1" stop-color="#00E3FF" />
                                                                            </linearGradient>
                                                                            <linearGradient
                                                                                id="paint1_linear_5730_20582"
                                                                                x1="34.2565" y1="20.4067" x2="10.1588"
                                                                                y2="20.4067"
                                                                                gradientUnits="userSpaceOnUse">
                                                                                <stop stop-color="#FFE000" />
                                                                                <stop offset="0.4087"
                                                                                    stop-color="#FFBD00" />
                                                                                <stop offset="0.7754"
                                                                                    stop-color="#FFA500" />
                                                                                <stop offset="1" stop-color="#FF9C00" />
                                                                            </linearGradient>
                                                                            <linearGradient
                                                                                id="paint2_linear_5730_20582"
                                                                                x1="25.2866" y1="22.7036" x2="9.32386"
                                                                                y2="49.4601"
                                                                                gradientUnits="userSpaceOnUse">
                                                                                <stop stop-color="#FF3A44" />
                                                                                <stop offset="1" stop-color="#C31162" />
                                                                            </linearGradient>
                                                                            <linearGradient
                                                                                id="paint3_linear_5730_20582"
                                                                                x1="7.82684" y1="0.585421" x2="14.9485"
                                                                                y2="12.5353"
                                                                                gradientUnits="userSpaceOnUse">
                                                                                <stop stop-color="#32A071" />
                                                                                <stop offset="0.0685"
                                                                                    stop-color="#2DA771" />
                                                                                <stop offset="0.4762"
                                                                                    stop-color="#15CF74" />
                                                                                <stop offset="0.8009"
                                                                                    stop-color="#06E775" />
                                                                                <stop offset="1" stop-color="#00F076" />
                                                                            </linearGradient>
                                                                            <clipPath id="clip0_5730_20582">
                                                                                <rect width="135" height="40"
                                                                                    fill="white"
                                                                                    transform="translate(0.5625 0.40625)" />
                                                                            </clipPath>
                                                                        </defs>
                                                                    </svg>