<svg width="46" height="45" viewBox="0 0 46 45" fill="none" xmlns="http://www.w3.org/2000/svg">
<g clip-path="url(#clip0_6388_11148)">
<path d="M42.1953 45H3.80469C1.97656 45 0.5 43.5234 0.5 41.6953V3.30469C0.5 1.47656 1.97656 0 3.80469 0H42.2656C44.0234 0 45.5 1.47656 45.5 3.30469V41.7656C45.5 43.5234 44.0234 45 42.1953 45Z" fill="#00B45E"/>
<path d="M34.9536 19.6177V14.6958H35.938V18.9146C35.6567 19.0552 35.3052 19.3364 34.9536 19.6177ZM33.1958 21.0942C33.4771 20.7427 33.8286 20.3208 34.1802 20.0396V14.6958H33.1958V21.0942ZM21.5942 24.9614C21.5942 26.2974 22.0864 27.4927 23.0708 28.4771C23.9849 29.3911 25.2505 29.9536 26.5864 29.9536C27.1489 29.9536 27.7114 29.813 28.1333 29.602V28.6177C27.6411 28.8286 27.0786 28.9692 26.5864 28.9692C24.4067 28.9692 22.6489 27.1411 22.6489 25.0317V24.1177C22.6489 21.938 24.4771 20.1802 26.5864 20.1802C27.6411 20.1802 28.6255 20.6021 29.3989 21.3052C30.1724 22.0786 30.5239 23.063 30.5239 24.1177V30.0239H31.5083V23.9067C31.438 22.6411 30.8755 21.4458 29.9614 20.5317C29.0474 19.6177 27.7817 19.1255 26.5161 19.1255C25.1802 19.1255 23.9849 19.6177 23.0005 20.6021C22.0864 21.5161 21.5239 22.7817 21.5239 24.1177V24.9614H21.5942ZM36.6411 22.5708C37.063 22.1489 37.6958 21.8677 38.2583 21.8677C39.5239 21.8677 40.438 22.8521 40.438 24.0474V24.9614C40.438 26.2271 39.4536 27.1411 38.2583 27.1411C37.6255 27.1411 37.063 26.7896 36.6411 26.2271C36.2192 25.7349 36.0083 24.9614 35.938 24.3286L35.0942 25.313C35.2349 26.0864 35.6567 26.7896 36.2192 27.2817C36.7817 27.7739 37.5552 28.1255 38.2583 28.1255C40.0161 28.1255 41.4927 26.6489 41.4927 24.8911V23.977C41.4927 23.1333 41.1411 22.3599 40.5083 21.7271C39.8755 21.0942 39.1021 20.7427 38.2583 20.7427C37.6958 20.7427 36.8521 20.9536 35.8677 21.8677C35.5864 22.1489 34.9536 22.7817 34.6021 23.2036C33.9692 23.9067 32.9849 24.9614 32.2114 26.0161V27.563C33.1255 26.438 33.6177 25.8052 34.4614 24.8208C35.1646 24.1177 36.0786 23.063 36.6411 22.5708ZM12.8755 20.6724V19.4771C11.9614 18.9849 10.9771 18.7739 9.64111 18.7739C8.30518 18.7739 7.03955 19.2661 6.05518 20.1802C5.0708 21.0942 4.57861 22.2192 4.57861 23.4849V23.8364C4.57861 26.438 6.68799 28.5474 9.21924 28.5474C11.3286 28.5474 12.1724 27.8442 12.3833 27.6333V24.6099H8.93799V25.5942H11.3989V27.1411C11.0474 27.2817 10.4146 27.563 9.21924 27.563C8.23486 27.563 7.3208 27.2114 6.61768 26.5083C5.91455 25.8052 5.56299 24.8911 5.56299 23.9067V23.5552C5.56299 21.5864 7.46143 19.8286 9.64111 19.8286C11.188 19.8286 12.1021 20.0396 12.8755 20.6724ZM20.188 21.8677C20.5396 21.8677 20.8911 21.938 21.1724 22.0786C21.313 21.7974 21.4536 21.5161 21.5942 21.1646C21.313 20.9536 20.6802 20.813 20.188 20.813C18.3599 20.813 16.9536 22.2192 16.9536 24.0474V29.9536H17.938V24.0474C17.938 22.7817 18.8521 21.8677 20.188 21.8677ZM2.8208 23.4849V23.8364C2.8208 25.5942 3.45361 27.2114 4.71924 28.4067C5.91455 29.6021 7.53174 30.3052 9.21924 30.3052C10.6255 30.3052 11.8208 30.0239 12.8755 29.3911C13.7192 28.8989 14.0708 28.3364 14.1411 28.3364V22.9224H8.93799V23.9067H13.0864V27.9849C12.5942 28.4771 11.4692 29.2505 9.21924 29.2505C7.74268 29.2505 6.40674 28.688 5.35205 27.6333C4.36768 26.7192 3.80518 25.313 3.80518 23.8364V23.4849C3.80518 22.0786 4.43799 20.6724 5.56299 19.688C6.68799 18.6333 8.16455 18.0708 9.71143 18.0708C11.1177 18.0708 12.1021 18.2817 12.9458 18.7739V17.6489C12.1021 17.2974 11.1177 17.1567 9.71143 17.1567C5.91455 17.0864 2.8208 20.0396 2.8208 23.4849ZM29.7505 29.9536V24.0474C29.7505 22.2192 28.3442 20.813 26.5161 20.813C25.6724 20.813 24.8989 21.1646 24.2661 21.7974C23.6333 22.4302 23.2817 23.2036 23.2817 24.0474V24.9614C23.2817 26.7192 24.7583 28.1958 26.5161 28.1958C27.0083 28.1958 27.6411 28.0552 28.063 27.7739V26.7192C27.6411 27.0708 27.0786 27.2114 26.5161 27.2114C25.2505 27.2114 24.3364 26.227 24.3364 25.0317V24.1177C24.3364 22.8521 25.3208 21.938 26.5161 21.938C27.7817 21.938 28.6958 22.9224 28.6958 24.1177V30.0239L29.7505 29.9536ZM20.188 20.1099C20.8911 20.1099 21.4536 20.2505 22.0161 20.5317C22.2974 20.1802 22.5083 19.9692 22.7192 19.7583C22.1567 19.3364 21.1724 19.0552 20.188 19.0552C18.7817 19.0552 17.5161 19.5474 16.6021 20.4614C15.688 21.3755 15.1958 22.6411 15.1958 23.977V29.8833H16.1802V23.977C16.2505 21.727 17.8677 20.1099 20.188 20.1099ZM41.7739 20.6021C40.8599 19.688 39.5942 19.1255 38.2583 19.1255C37.2739 19.1255 36.3599 19.4771 35.7974 19.8286C34.6724 20.5317 33.8286 21.3755 32.2114 23.4146V24.8911C33.6177 23.063 34.8833 21.6567 35.8677 20.8833C36.5005 20.3911 37.4146 20.0396 38.2583 20.0396C40.438 20.0396 42.1958 21.8677 42.1958 23.977V24.8911C42.1958 25.9458 41.7739 26.9302 41.0005 27.7036C40.2271 28.4771 39.2427 28.8286 38.188 28.8286C36.4302 28.8286 34.8833 27.6333 34.4614 25.9458L33.7583 26.7895C34.2505 28.5474 36.1489 29.813 38.188 29.813C39.5239 29.813 40.7192 29.3208 41.7036 28.3364C42.6177 27.3521 43.1802 26.1567 43.1802 24.8208V23.9067C43.1802 22.7817 42.688 21.5161 41.7739 20.6021Z" fill="white"/>
</g>
<defs>
<clipPath id="clip0_6388_11148">
<rect x="0.5" width="45" height="45" rx="8" fill="white"/>
</clipPath>
</defs>
</svg>
