<svg width="24" height="24" viewBox="0 0 24 24" fill="none" xmlns="http://www.w3.org/2000/svg">
<rect width="24" height="24" rx="3" fill="#D9FAFF"/>
<path d="M14.8 19C13.6333 19 12.6417 18.5917 11.825 17.775C11.0083 16.9583 10.6 15.9667 10.6 14.8C10.6 13.6333 11.0083 12.6417 11.825 11.825C12.6417 11.0083 13.6333 10.6 14.8 10.6C15.9667 10.6 16.9583 11.0083 17.775 11.825C18.5917 12.6417 19 13.6333 19 14.8C19 15.9667 18.5917 16.9583 17.775 17.775C16.9583 18.5917 15.9667 19 14.8 19ZM14.8 17.6C15.57 17.6 16.2292 17.3258 16.7775 16.7775C17.3258 16.2292 17.6 15.57 17.6 14.8C17.6 14.03 17.3258 13.3708 16.7775 12.8225C16.2292 12.2742 15.57 12 14.8 12C14.03 12 13.3708 12.2742 12.8225 12.8225C12.2742 13.3708 12 14.03 12 14.8C12 15.57 12.2742 16.2292 12.8225 16.7775C13.3708 17.3258 14.03 17.6 14.8 17.6ZM6.4 17.6C6.015 17.6 5.68553 17.463 5.4116 17.1891C5.13767 16.9152 5.00047 16.5855 5 16.2V10.88C5 10.7867 5.00887 10.6933 5.0266 10.6C5.04433 10.5067 5.07047 10.4133 5.105 10.32L6.505 7.1H6.4C6.20167 7.1 6.03553 7.0328 5.9016 6.8984C5.76767 6.764 5.70047 6.59787 5.7 6.4V5.7C5.7 5.50167 5.7672 5.33553 5.9016 5.2016C6.036 5.06767 6.20213 5.00047 6.4 5H11.3C11.4983 5 11.6647 5.0672 11.7991 5.2016C11.9335 5.336 12.0005 5.50213 12 5.7V6.4C12 6.59833 11.9328 6.7647 11.7984 6.8991C11.664 7.0335 11.4979 7.10047 11.3 7.1H11.195L12.35 9.76C12.1283 9.87667 11.9183 9.99917 11.72 10.1275C11.5217 10.2558 11.335 10.4017 11.16 10.565L9.69 7.1H8.01L6.4 10.88V16.2H9.375C9.43333 16.445 9.51197 16.6872 9.6109 16.9266C9.70983 17.166 9.82953 17.3905 9.97 17.6H6.4ZM14.8 9.9C14.31 9.9 13.8958 9.73083 13.5575 9.3925C13.2192 9.05417 13.05 8.64 13.05 8.15C13.05 7.66 13.2192 7.24583 13.5575 6.9075C13.8958 6.56917 14.31 6.4 14.8 6.4V9.9ZM14.8 9.9C14.8 9.41 14.9692 8.99583 15.3075 8.6575C15.6458 8.31917 16.06 8.15 16.55 8.15C17.04 8.15 17.4542 8.31917 17.7925 8.6575C18.1308 8.99583 18.3 9.41 18.3 9.9H14.8Z" fill="#003262"/>
</svg>
