<svg width="45" height="46" viewBox="0 0 45 46" fill="none" xmlns="http://www.w3.org/2000/svg">
<rect y="0.5" width="45" height="45" rx="7.5" fill="#003262"/>
<path d="M27 35.5C24.9167 35.5 23.1458 34.7708 21.6875 33.3125C20.2292 31.8542 19.5 30.0833 19.5 28C19.5 25.9167 20.2292 24.1458 21.6875 22.6875C23.1458 21.2292 24.9167 20.5 27 20.5C29.0833 20.5 30.8542 21.2292 32.3125 22.6875C33.7708 24.1458 34.5 25.9167 34.5 28C34.5 30.0833 33.7708 31.8542 32.3125 33.3125C30.8542 34.7708 29.0833 35.5 27 35.5ZM27 33C28.375 33 29.5521 32.5104 30.5312 31.5312C31.5104 30.5521 32 29.375 32 28C32 26.625 31.5104 25.4479 30.5312 24.4688C29.5521 23.4896 28.375 23 27 23C25.625 23 24.4479 23.4896 23.4688 24.4688C22.4896 25.4479 22 26.625 22 28C22 29.375 22.4896 30.5521 23.4688 31.5312C24.4479 32.5104 25.625 33 27 33ZM12 33C11.3125 33 10.7242 32.7554 10.235 32.2663C9.74583 31.7771 9.50083 31.1883 9.5 30.5V21C9.5 20.8333 9.51583 20.6667 9.5475 20.5C9.57917 20.3333 9.62583 20.1667 9.6875 20L12.1875 14.25H12C11.6458 14.25 11.3492 14.13 11.11 13.89C10.8708 13.65 10.7508 13.3533 10.75 13V11.75C10.75 11.3958 10.87 11.0992 11.11 10.86C11.35 10.6208 11.6467 10.5008 12 10.5H20.75C21.1042 10.5 21.4013 10.62 21.6413 10.86C21.8813 11.1 22.0008 11.3967 22 11.75V13C22 13.3542 21.88 13.6512 21.64 13.8912C21.4 14.1312 21.1033 14.2508 20.75 14.25H20.5625L22.625 19C22.2292 19.2083 21.8542 19.4271 21.5 19.6562C21.1458 19.8854 20.8125 20.1458 20.5 20.4375L17.875 14.25H14.875L12 21V30.5H17.3125C17.4167 30.9375 17.5571 31.37 17.7337 31.7975C17.9104 32.225 18.1242 32.6258 18.375 33H12ZM27 19.25C26.125 19.25 25.3854 18.9479 24.7812 18.3437C24.1771 17.7396 23.875 17 23.875 16.125C23.875 15.25 24.1771 14.5104 24.7812 13.9062C25.3854 13.3021 26.125 13 27 13V19.25ZM27 19.25C27 18.375 27.3021 17.6354 27.9062 17.0312C28.5104 16.4271 29.25 16.125 30.125 16.125C31 16.125 31.7396 16.4271 32.3438 17.0312C32.9479 17.6354 33.25 18.375 33.25 19.25H27Z" fill="white"/>
</svg>
