<svg width="45" height="46" viewBox="0 0 45 46" fill="none" xmlns="http://www.w3.org/2000/svg">
<rect y="0.5" width="45" height="45" rx="7.5" fill="#003262"/>
<path fill-rule="evenodd" clip-rule="evenodd" d="M9.25 11.75C9.25 11.4185 9.3817 11.1005 9.61612 10.8661C9.85054 10.6317 10.1685 10.5 10.5 10.5H24.25C24.5815 10.5 24.8995 10.6317 25.1339 10.8661C25.3683 11.1005 25.5 11.4185 25.5 11.75V18H30.5C31.3208 18 32.1335 18.1617 32.8918 18.4758C33.6501 18.7898 34.3391 19.2502 34.9194 19.8306C35.4998 20.4109 35.9602 21.0999 36.2742 21.8582C36.5883 22.6165 36.75 23.4292 36.75 24.25V29.25C36.7501 30.0547 36.4915 30.8381 36.0123 31.4845C35.5331 32.131 34.8587 32.6062 34.0888 32.84C33.8595 33.5963 33.3972 34.2607 32.7678 34.7386C32.1385 35.2165 31.3742 35.4834 30.5842 35.5011C29.7942 35.5189 29.0187 35.2866 28.3686 34.8374C27.7184 34.3883 27.2267 33.7452 26.9637 33H19.0375C18.7745 33.7452 18.2829 34.3883 17.6327 34.8374C16.9825 35.2866 16.2071 35.5189 15.417 35.5011C14.627 35.4834 13.8628 35.2165 13.2334 34.7386C12.6041 34.2607 12.1418 33.5963 11.9125 32.84C11.1423 32.6064 10.4677 32.1313 9.98821 31.4848C9.50876 30.8384 9.24995 30.0548 9.25 29.25V24.25H16.75C17.0815 24.25 17.3995 24.1183 17.6339 23.8839C17.8683 23.6495 18 23.3315 18 23C18 22.6685 17.8683 22.3505 17.6339 22.1161C17.3995 21.8817 17.0815 21.75 16.75 21.75H9.25V19.25H14.25C14.5815 19.25 14.8995 19.1183 15.1339 18.8839C15.3683 18.6495 15.5 18.3315 15.5 18C15.5 17.6685 15.3683 17.3505 15.1339 17.1161C14.8995 16.8817 14.5815 16.75 14.25 16.75H9.25V11.75ZM25.5 30.5H26.9637C27.2109 29.8006 27.6599 29.1901 28.254 28.7459C28.8481 28.3017 29.5606 28.0437 30.3014 28.0045C31.0421 27.9653 31.7779 28.1466 32.4156 28.5257C33.0532 28.9047 33.5642 29.4643 33.8838 30.1338C34 30.0178 34.0922 29.8801 34.155 29.7284C34.2179 29.5768 34.2502 29.4142 34.25 29.25V24.25C34.25 23.2554 33.8549 22.3016 33.1517 21.5983C32.4484 20.8951 31.4946 20.5 30.5 20.5H25.5V30.5ZM16.75 31.75C16.75 31.4185 16.6183 31.1005 16.3839 30.8661C16.1495 30.6317 15.8315 30.5 15.5 30.5C15.1685 30.5 14.8505 30.6317 14.6161 30.8661C14.3817 31.1005 14.25 31.4185 14.25 31.75C14.25 32.0815 14.3817 32.3995 14.6161 32.6339C14.8505 32.8683 15.1685 33 15.5 33C15.8315 33 16.1495 32.8683 16.3839 32.6339C16.6183 32.3995 16.75 32.0815 16.75 31.75ZM29.6162 30.8662C29.4998 30.982 29.4075 31.1198 29.3447 31.2715C29.2818 31.4232 29.2496 31.5858 29.25 31.75C29.2499 32.0392 29.3502 32.3195 29.5336 32.5431C29.717 32.7666 29.9723 32.9197 30.2559 32.9762C30.5395 33.0327 30.834 32.9891 31.089 32.8528C31.3441 32.7165 31.544 32.496 31.6548 32.2288C31.7655 31.9617 31.7801 31.6644 31.6962 31.3876C31.6123 31.1109 31.4351 30.8718 31.1946 30.711C30.9542 30.5503 30.6655 30.478 30.3777 30.5063C30.0899 30.5346 29.8208 30.6618 29.6162 30.8662Z" fill="white"/>
</svg>
