<svg width="24" height="24" viewBox="0 0 24 24" fill="none" xmlns="http://www.w3.org/2000/svg">
<rect width="24" height="24" rx="3" fill="#D9FAFF"/>
<path d="M5.55937 12.7501L5.31187 12.5026C4.93416 12.1264 4.63425 11.6794 4.42926 11.1873C4.22428 10.6952 4.11824 10.1675 4.1172 9.63433C4.11509 8.55763 4.54078 7.5242 5.30062 6.76137C6.06047 5.99854 7.09222 5.56881 8.16892 5.5667C9.24561 5.56459 10.279 5.99028 11.0419 6.75012L12.0019 7.72512L12.9619 6.75012C13.3346 6.36056 13.7814 6.04934 14.276 5.83472C14.7706 5.6201 15.303 5.50639 15.8421 5.50026C16.3813 5.49413 16.9162 5.59571 17.4155 5.79904C17.9149 6.00237 18.3686 6.30335 18.7501 6.68434C19.1316 7.06533 19.4331 7.51866 19.6371 8.01773C19.8411 8.51681 19.9434 9.05159 19.938 9.59072C19.9325 10.1298 19.8195 10.6625 19.6056 11.1573C19.3916 11.6522 19.0809 12.0994 18.6919 12.4726L18.4444 12.7201L12.0019 19.1776L7.55437 14.7301L5.55937 12.7501Z" stroke="#003262" stroke-width="1.5" stroke-miterlimit="10"/>
<path d="M9.85547 12.0146H14.1455" stroke="#003262" stroke-width="1.5" stroke-miterlimit="10"/>
<path d="M12 9.87012V14.1676" stroke="#003262" stroke-width="1.5" stroke-miterlimit="10"/>
</svg>
