<svg width="84" height="69" viewBox="0 0 84 69" fill="none" xmlns="http://www.w3.org/2000/svg">
<circle cx="55.625" cy="40.1265" r="28.125" fill="#D2F7FF"/>
<g clip-path="url(#clip0_4295_3033)">
<path d="M38.4688 67.5015H30.0312C28.0625 67.5015 25.8125 65.814 25.8125 62.439V56.5327C25.8125 53.7202 24.4062 51.189 22.1562 49.2202C17.0937 45.2827 14.5625 39.6577 14.5625 33.4702C14.8438 22.7827 23.5625 14.3452 33.9687 14.064C39.3125 14.064 44.375 16.0327 48.0312 19.689C51.6875 23.3452 53.9375 28.4077 53.9375 33.7515C53.9375 39.6577 51.4062 45.2827 46.625 48.939C44.0937 50.9077 42.6875 54.0015 42.6875 56.814V63.2827C42.6875 65.5327 40.7188 67.5015 38.4688 67.5015ZM34.25 16.8765C25.25 16.8765 17.6562 24.4702 17.375 33.4702C17.375 38.814 19.625 43.8765 23.8438 46.9702C26.9375 49.5015 28.625 52.8765 28.625 56.5327V62.439C28.625 63.0015 28.625 64.689 30.0312 64.689H38.4688C39.3125 64.689 39.875 64.1265 39.875 63.2827V56.814C39.875 53.1577 41.8438 49.2202 44.9375 46.689C48.875 43.5952 51.125 38.814 51.125 33.7515C51.125 29.2515 49.4375 25.0327 46.0625 21.6577C42.9688 18.564 38.75 16.8765 34.25 16.8765Z" fill="#3D3D3D"/>
<path d="M41.2812 59.064H27.2188C26.375 59.064 25.8125 58.5015 25.8125 57.6577C25.8125 56.814 26.375 56.2515 27.2188 56.2515H41.2812C42.125 56.2515 42.6875 56.814 42.6875 57.6577C42.6875 58.5015 42.125 59.064 41.2812 59.064Z" fill="#3D3D3D"/>
<path d="M34.25 8.43896C33.4062 8.43896 32.8438 7.87646 32.8438 7.03271V1.40771C32.8438 0.563965 33.4062 0.00146484 34.25 0.00146484C35.0937 0.00146484 35.6562 0.563965 35.6562 1.40771V7.03271C35.6562 7.87646 35.0937 8.43896 34.25 8.43896Z" fill="#3D3D3D"/>
<path d="M53.0938 16.314C52.8125 16.314 52.25 16.314 51.9687 16.0327C51.4063 15.4702 51.4063 14.6265 51.9687 14.064L55.9063 10.1265C56.4688 9.56396 57.3125 9.56396 57.875 10.1265C58.4375 10.689 58.4375 11.5327 57.875 12.0952L53.9375 16.0327C53.9375 16.0327 53.375 16.314 53.0938 16.314Z" fill="#3D3D3D"/>
<path d="M66.5938 35.1577H60.9688C60.125 35.1577 59.5625 34.5952 59.5625 33.7515C59.5625 32.9077 60.125 32.3452 60.9688 32.3452H66.5938C67.4375 32.3452 68 32.9077 68 33.7515C68 34.5952 67.4375 35.1577 66.5938 35.1577Z" fill="#3D3D3D"/>
<path d="M57.0313 57.939C56.75 57.939 56.1875 57.939 55.9063 57.6577L51.9687 53.7202C51.4063 53.1577 51.4063 52.314 51.9687 51.7515C52.5312 51.189 53.375 51.189 53.9375 51.7515L57.875 55.689C58.4375 56.2515 58.4375 57.0952 57.875 57.6577C57.875 57.939 57.5938 57.939 57.0313 57.939Z" fill="#3D3D3D"/>
<path d="M11.4688 57.939C11.1875 57.939 10.625 57.939 10.3438 57.6577C9.78125 57.0952 9.78125 56.2515 10.3438 55.689L14.2813 51.7515C14.8438 51.189 15.6875 51.189 16.25 51.7515C16.8125 52.314 16.8125 53.1577 16.25 53.7202L12.3125 57.6577C12.0312 57.939 11.75 57.939 11.4688 57.939Z" fill="#3D3D3D"/>
<path d="M7.53125 35.1577H1.90625C1.0625 35.1577 0.5 34.5952 0.5 33.7515C0.5 32.9077 1.0625 32.3452 1.90625 32.3452H7.53125C8.375 32.3452 8.9375 32.9077 8.9375 33.7515C8.9375 34.5952 8.375 35.1577 7.53125 35.1577Z" fill="#3D3D3D"/>
<path d="M15.4063 16.314C15.125 16.314 14.5625 16.314 14.2813 16.0327L10.3438 11.814C9.78125 11.2515 9.78125 10.4077 10.3438 9.84521C10.9063 9.28271 11.75 9.28271 12.3125 9.84521L16.25 13.7827C16.8125 14.3452 16.8125 15.189 16.25 15.7515C15.9688 16.0327 15.6875 16.314 15.4063 16.314Z" fill="#3D3D3D"/>
<path d="M45.5 35.1577C44.6562 35.1577 44.0937 34.5952 44.0937 33.7515C44.0937 28.4077 39.5937 23.9077 34.25 23.9077C33.4062 23.9077 32.8438 23.3452 32.8438 22.5015C32.8438 21.6577 33.4062 21.0952 34.25 21.0952C41.2812 21.0952 46.9062 26.7202 46.9062 33.7515C46.9062 34.5952 46.3437 35.1577 45.5 35.1577Z" fill="#3D3D3D"/>
</g>
<defs>
<clipPath id="clip0_4295_3033">
<rect width="67.5" height="67.5" fill="white" transform="translate(0.5 0.00146484)"/>
</clipPath>
</defs>
</svg>
