<svg width="46" height="52" viewBox="0 0 46 52" fill="none" xmlns="http://www.w3.org/2000/svg">
<path d="M36.4355 8.55428C34.2669 8.55428 32.7198 9.49928 31.2926 11.5521L27.1783 17.46V0.595703H17.3641V17.46L13.2498 11.5521C11.8248 9.49928 10.2776 8.55428 8.10691 8.55428C4.83262 8.55428 2.65334 10.9714 2.64262 13.95C2.63405 16.5 3.8362 18.1628 6.37119 19.7957L22.2712 30.0386L38.1712 19.7957C40.7062 18.1628 41.9083 16.5 41.8998 13.95C41.8912 10.9714 39.7098 8.55428 36.4355 8.55428Z" fill="#0AAD0A"/>
<path d="M22.2712 32.4883C31.7212 32.4883 39.4677 39.5426 39.4462 49.6654H5.09623C5.07694 39.5469 12.8212 32.4883 22.2712 32.4883Z" fill="#FF7009"/>
</svg>
