<svg width="46" height="45" viewBox="0 0 46 45" fill="none" xmlns="http://www.w3.org/2000/svg">
<g clip-path="url(#clip0_6493_5200)">
<path d="M23.0072 0C13.6136 0 10.8663 0.00969476 10.3322 0.054086C8.40453 0.214302 7.20495 0.517897 5.89804 1.1688C4.89099 1.66884 4.09654 2.24881 3.31281 3.0618C1.88515 4.54406 1.01994 6.36767 0.706652 8.53553C0.554429 9.58799 0.510038 9.80263 0.501024 15.1782C0.497622 16.97 0.501024 19.3284 0.501024 22.4914C0.501024 31.88 0.511399 34.6253 0.556471 35.1583C0.712265 37.0347 1.00634 38.2152 1.62934 39.5065C2.81991 41.9783 5.09373 43.8339 7.77251 44.5262C8.70013 44.7652 9.72453 44.8967 11.0396 44.9591C11.5968 44.9833 17.2761 45.0006 22.9591 45.0006C28.642 45.0006 34.3247 44.9938 34.8682 44.9661C36.3911 44.8943 37.2753 44.7756 38.2529 44.5228C40.9491 43.827 43.1814 41.9992 44.3961 39.4927C45.007 38.2326 45.3168 37.0071 45.4569 35.2288C45.4874 34.841 45.5001 28.6592 45.5001 22.4856C45.5001 16.311 45.4863 10.1404 45.4559 9.7528C45.314 7.94569 45.0041 6.73063 44.3737 5.44634C43.8563 4.3949 43.2817 3.60963 42.4477 2.80685C40.9591 1.3848 39.1386 0.519258 36.9693 0.206309C35.9182 0.0544262 35.7089 0.00935447 30.3306 0H23.0072Z" fill="url(#paint0_radial_6493_5200)"/>
<path d="M23.0072 0C13.6136 0 10.8663 0.00969476 10.3322 0.054086C8.40453 0.214302 7.20495 0.517897 5.89804 1.1688C4.89099 1.66884 4.09654 2.24881 3.31281 3.0618C1.88515 4.54406 1.01994 6.36767 0.706652 8.53553C0.554429 9.58799 0.510038 9.80263 0.501024 15.1782C0.497622 16.97 0.501024 19.3284 0.501024 22.4914C0.501024 31.88 0.511399 34.6253 0.556471 35.1583C0.712265 37.0347 1.00634 38.2152 1.62934 39.5065C2.81991 41.9783 5.09373 43.8339 7.77251 44.5262C8.70013 44.7652 9.72453 44.8967 11.0396 44.9591C11.5968 44.9833 17.2761 45.0006 22.9591 45.0006C28.642 45.0006 34.3247 44.9938 34.8682 44.9661C36.3911 44.8943 37.2753 44.7756 38.2529 44.5228C40.9491 43.827 43.1814 41.9992 44.3961 39.4927C45.007 38.2326 45.3168 37.0071 45.4569 35.2288C45.4874 34.841 45.5001 28.6592 45.5001 22.4856C45.5001 16.311 45.4863 10.1404 45.4559 9.7528C45.314 7.94569 45.0041 6.73063 44.3737 5.44634C43.8563 4.3949 43.2817 3.60963 42.4477 2.80685C40.9591 1.3848 39.1386 0.519258 36.9693 0.206309C35.9182 0.0544262 35.7089 0.00935447 30.3306 0H23.0072Z" fill="url(#paint1_radial_6493_5200)"/>
<path d="M23.0072 0C13.6136 0 10.8663 0.00969476 10.3322 0.054086C8.40453 0.214302 7.20495 0.517897 5.89804 1.1688C4.89099 1.66884 4.09654 2.24881 3.31281 3.0618C1.88515 4.54406 1.01994 6.36767 0.706652 8.53553C0.554429 9.58799 0.510038 9.80263 0.501024 15.1782C0.497622 16.97 0.501024 19.3284 0.501024 22.4914C0.501024 31.88 0.511399 34.6253 0.556471 35.1583C0.712265 37.0347 1.00634 38.2152 1.62934 39.5065C2.81991 41.9783 5.09373 43.8339 7.77251 44.5262C8.70013 44.7652 9.72453 44.8967 11.0396 44.9591C11.5968 44.9833 17.2761 45.0006 22.9591 45.0006C28.642 45.0006 34.3247 44.9938 34.8682 44.9661C36.3911 44.8943 37.2753 44.7756 38.2529 44.5228C40.9491 43.827 43.1814 41.9992 44.3961 39.4927C45.007 38.2326 45.3168 37.0071 45.4569 35.2288C45.4874 34.841 45.5001 28.6592 45.5001 22.4856C45.5001 16.311 45.4863 10.1404 45.4559 9.7528C45.314 7.94569 45.0041 6.73063 44.3737 5.44634C43.8563 4.3949 43.2817 3.60963 42.4477 2.80685C40.9591 1.3848 39.1386 0.519258 36.9693 0.206309C35.9182 0.0544262 35.7089 0.00935447 30.3306 0H23.0072Z" fill="url(#paint2_radial_6493_5200)"/>
<path d="M23.0072 0C13.6136 0 10.8663 0.00969476 10.3322 0.054086C8.40453 0.214302 7.20495 0.517897 5.89804 1.1688C4.89099 1.66884 4.09654 2.24881 3.31281 3.0618C1.88515 4.54406 1.01994 6.36767 0.706652 8.53553C0.554429 9.58799 0.510038 9.80263 0.501024 15.1782C0.497622 16.97 0.501024 19.3284 0.501024 22.4914C0.501024 31.88 0.511399 34.6253 0.556471 35.1583C0.712265 37.0347 1.00634 38.2152 1.62934 39.5065C2.81991 41.9783 5.09373 43.8339 7.77251 44.5262C8.70013 44.7652 9.72453 44.8967 11.0396 44.9591C11.5968 44.9833 17.2761 45.0006 22.9591 45.0006C28.642 45.0006 34.3247 44.9938 34.8682 44.9661C36.3911 44.8943 37.2753 44.7756 38.2529 44.5228C40.9491 43.827 43.1814 41.9992 44.3961 39.4927C45.007 38.2326 45.3168 37.0071 45.4569 35.2288C45.4874 34.841 45.5001 28.6592 45.5001 22.4856C45.5001 16.311 45.4863 10.1404 45.4559 9.7528C45.314 7.94569 45.0041 6.73063 44.3737 5.44634C43.8563 4.3949 43.2817 3.60963 42.4477 2.80685C40.9591 1.3848 39.1386 0.519258 36.9693 0.206309C35.9182 0.0544262 35.7089 0.00935447 30.3306 0H23.0072Z" fill="url(#paint3_radial_6493_5200)"/>
<path d="M23.0094 5.77734C18.4663 5.77734 17.8963 5.79797 16.1113 5.87859C14.3301 5.96016 13.1141 6.24234 12.0501 6.65578C10.9341 7.07506 9.92304 7.73287 9.08756 8.58328C8.23626 9.41841 7.57721 10.4291 7.15631 11.5448C6.74193 12.608 6.45975 13.823 6.37912 15.6023C6.29943 17.3855 6.27881 17.9555 6.27881 22.4967C6.27881 27.038 6.2985 27.6061 6.37912 29.3892C6.46162 31.1686 6.74381 32.3836 7.15725 33.4467C7.57708 34.5629 8.23553 35.5739 9.08662 36.4092C9.92196 37.2603 10.933 37.9187 12.0491 38.3386C13.1141 38.7511 14.3301 39.0333 16.1113 39.1148C17.8954 39.1964 18.4654 39.2161 23.0094 39.2161C27.5535 39.2161 28.1226 39.1964 29.9066 39.1148C31.6879 39.0333 32.9057 38.752 33.9697 38.3386C35.0861 37.9187 36.0972 37.2599 36.9322 36.4083C37.7835 35.5732 38.4426 34.5625 38.8635 33.4467C39.2741 32.3836 39.5563 31.1686 39.6397 29.3892C39.7204 27.6061 39.741 27.037 39.741 22.4967C39.741 17.9564 39.7204 17.3864 39.6397 15.6023C39.5563 13.823 39.2741 12.608 38.8626 11.5448C38.4418 10.4287 37.7827 9.41773 36.9313 8.58234C36.096 7.7319 35.0849 7.07435 33.9688 6.65578C32.9019 6.24328 31.686 5.96109 29.9047 5.87953C28.1197 5.79797 27.5516 5.77828 23.0057 5.77828L23.0094 5.77734ZM21.5094 8.79047H23.0094C27.4776 8.79047 28.0063 8.80641 29.7716 8.88703C31.4029 8.96203 32.2879 9.23391 32.8776 9.46266C33.604 9.73045 34.2611 10.1578 34.8004 10.7133C35.356 11.2524 35.784 11.9091 36.0529 12.6352C36.2816 13.2248 36.5544 14.1089 36.6285 15.7392C36.7091 17.5017 36.726 18.0314 36.726 22.493C36.726 26.9555 36.7091 27.4842 36.6285 29.2467C36.5535 30.878 36.2816 31.762 36.0529 32.3498C35.7846 33.0762 35.3566 33.733 34.8004 34.2717C34.2612 34.8267 33.6045 35.2538 32.8785 35.5214C32.2879 35.7511 31.4029 36.023 29.7716 36.098C28.0072 36.1777 27.4776 36.1955 23.0104 36.1955C18.5422 36.1955 18.0135 36.1777 16.2491 36.098C14.6179 36.023 13.7329 35.7502 13.1422 35.5214C12.4156 35.2535 11.7582 34.8262 11.2185 34.2708C10.6626 33.7318 10.2347 33.0751 9.966 32.3489C9.73725 31.7602 9.46443 30.8761 9.39037 29.2458C9.30975 27.4833 9.29381 26.9536 9.29381 22.4892C9.29381 18.0248 9.30975 17.498 9.39037 15.7355C9.46537 14.1042 9.73725 13.2202 9.966 12.6314C10.2345 11.9049 10.6625 11.2478 11.2185 10.7086C11.7584 10.1531 12.4157 9.72552 13.1422 9.45703C13.7329 9.22734 14.6179 8.95547 16.2491 8.88047C17.7932 8.81109 18.3913 8.79047 21.5085 8.78672L21.5094 8.79047ZM31.941 11.5664C31.5443 11.5668 31.1566 11.6848 30.8269 11.9054C30.4972 12.1261 30.2404 12.4396 30.0888 12.8062C29.9372 13.1728 29.8978 13.5762 29.9754 13.9652C30.053 14.3543 30.2442 14.7116 30.5249 14.992C30.8056 15.2723 31.163 15.4632 31.5522 15.5405C31.9413 15.6178 32.3446 15.5779 32.7111 15.426C33.0775 15.2741 33.3908 15.017 33.6111 14.6871C33.8315 14.3572 33.9491 13.9694 33.9491 13.5727C33.9491 12.4645 33.0491 11.5664 31.941 11.5664ZM23.0104 13.9102C18.2657 13.9102 14.4182 17.7558 14.4182 22.4977C14.4182 27.2395 18.2657 31.0814 23.0104 31.0814C27.7551 31.0814 31.6016 27.2386 31.6016 22.4967C31.6016 17.7548 27.7551 13.9102 23.0104 13.9102ZM23.0104 16.9242C24.4889 16.9237 25.907 17.5105 26.9529 18.5555C27.9988 19.6006 28.5868 21.0182 28.5876 22.4967C28.5873 23.229 28.4428 23.954 28.1624 24.6304C27.8819 25.3068 27.4709 25.9213 26.9529 26.4388C26.4349 26.9564 25.8201 27.3668 25.1434 27.6467C24.4668 27.9267 23.7417 28.0705 23.0094 28.0702C21.5309 28.0704 20.1129 27.4834 19.0672 26.4382C18.0214 25.393 17.4337 23.9752 17.4332 22.4967C17.4334 21.7646 17.5779 21.0397 17.8583 20.3634C18.1387 19.6871 18.5496 19.0727 19.0675 18.5553C19.5854 18.0378 20.2002 17.6274 20.8767 17.3476C21.5532 17.0677 22.2783 16.9238 23.0104 16.9242Z" fill="white"/>
</g>
<defs>
<radialGradient id="paint0_radial_6493_5200" cx="0" cy="0" r="1" gradientUnits="userSpaceOnUse" gradientTransform="translate(44.0535 21.0964) rotate(164.25) scale(28.7534 20.7149)">
<stop stop-color="#FF005F"/>
<stop offset="1" stop-color="#FC01D8"/>
</radialGradient>
<radialGradient id="paint1_radial_6493_5200" cx="0" cy="0" r="1" gradientUnits="userSpaceOnUse" gradientTransform="translate(12.4606 48.4661) rotate(-90) scale(35.9209 38.1113)">
<stop stop-color="#FFCC00"/>
<stop offset="0.124" stop-color="#FFCC00"/>
<stop offset="0.567" stop-color="#FE4A05"/>
<stop offset="0.694" stop-color="#FF0F3F"/>
<stop offset="1" stop-color="#FE0657" stop-opacity="0"/>
</radialGradient>
<radialGradient id="paint2_radial_6493_5200" cx="0" cy="0" r="1" gradientUnits="userSpaceOnUse" gradientTransform="translate(24.1321 44.3676) rotate(-59.8697) scale(14.8531 19.3372)">
<stop stop-color="#FFCC00"/>
<stop offset="1" stop-color="#FFCC00" stop-opacity="0"/>
</radialGradient>
<radialGradient id="paint3_radial_6493_5200" cx="0" cy="0" r="1" gradientUnits="userSpaceOnUse" gradientTransform="translate(6.60674 1.83204) rotate(164.274) scale(28.4339 9.68742)">
<stop stop-color="#780CFF"/>
<stop offset="1" stop-color="#820BFF" stop-opacity="0"/>
</radialGradient>
<clipPath id="clip0_6493_5200">
<rect width="45" height="45" fill="white" transform="translate(0.5)"/>
</clipPath>
</defs>
</svg>
