<svg width="25" height="25" viewBox="0 0 25 25" fill="none" xmlns="http://www.w3.org/2000/svg">
<rect x="0.5" y="0.5" width="24" height="24" rx="3" fill="#D9FAFF"/>
<path d="M21.6914 15.0557H20.4414V10.5557H21.6914C22.1054 10.5557 22.4414 10.2197 22.4414 9.80566C22.4414 9.39166 22.1054 9.05566 21.6914 9.05566H20.4414V8.80566C20.4414 6.38766 19.1094 5.05566 16.6914 5.05566H16.4414V3.80566C16.4414 3.39166 16.1054 3.05566 15.6914 3.05566C15.2774 3.05566 14.9414 3.39166 14.9414 3.80566V5.05566H10.4414V3.80566C10.4414 3.39166 10.1054 3.05566 9.69141 3.05566C9.27741 3.05566 8.94141 3.39166 8.94141 3.80566V5.05566H8.69141C6.27341 5.05566 4.94141 6.38766 4.94141 8.80566V9.05566H3.69141C3.27741 9.05566 2.94141 9.39166 2.94141 9.80566C2.94141 10.2197 3.27741 10.5557 3.69141 10.5557H4.94141V15.0557H3.69141C3.27741 15.0557 2.94141 15.3917 2.94141 15.8057C2.94141 16.2197 3.27741 16.5557 3.69141 16.5557H4.94141V16.8057C4.94141 19.2237 6.27341 20.5557 8.69141 20.5557H8.94141V21.8057C8.94141 22.2197 9.27741 22.5557 9.69141 22.5557C10.1054 22.5557 10.4414 22.2197 10.4414 21.8057V20.5557H14.9414V21.8057C14.9414 22.2197 15.2774 22.5557 15.6914 22.5557C16.1054 22.5557 16.4414 22.2197 16.4414 21.8057V20.5557H16.6914C19.1094 20.5557 20.4414 19.2237 20.4414 16.8057V16.5557H21.6914C22.1054 16.5557 22.4414 16.2197 22.4414 15.8057C22.4414 15.3917 22.1054 15.0557 21.6914 15.0557ZM18.9414 16.8057C18.9414 18.3827 18.2684 19.0557 16.6914 19.0557H8.69141C7.11441 19.0557 6.44141 18.3827 6.44141 16.8057V8.80566C6.44141 7.22866 7.11441 6.55566 8.69141 6.55566H16.6914C18.2684 6.55566 18.9414 7.22866 18.9414 8.80566V16.8057ZM14.6914 8.55566H10.6914C9.28241 8.55566 8.44141 9.39666 8.44141 10.8057V14.8057C8.44141 16.2147 9.28241 17.0557 10.6914 17.0557H14.6914C16.1004 17.0557 16.9414 16.2147 16.9414 14.8057V10.8057C16.9414 9.39666 16.1004 8.55566 14.6914 8.55566ZM15.4414 14.8057C15.4414 15.3947 15.2804 15.5557 14.6914 15.5557H10.6914C10.1024 15.5557 9.94141 15.3947 9.94141 14.8057V10.8057C9.94141 10.2167 10.1024 10.0557 10.6914 10.0557H14.6914C15.2804 10.0557 15.4414 10.2167 15.4414 10.8057V14.8057Z" fill="#25314C"/>
</svg>
