<svg width="89" height="68" viewBox="0 0 89 68" fill="none" xmlns="http://www.w3.org/2000/svg">
<circle cx="60.375" cy="31.375" r="28.125" fill="#D2F7FF"/>
<path d="M46.1792 33.8802C47.2207 22.3314 43.1865 10.5585 34.7227 2.0946C34.2085 1.58044 33.2988 1.58044 32.7847 2.0946C24.3208 10.5585 20.2866 22.3182 21.3281 33.8802C18.4014 37.0311 16.793 41.0917 16.793 45.4159C16.793 49.7797 18.4541 53.9325 21.4731 57.0965C22.2114 57.8744 24.0967 57.5184 23.7935 55.8046C23.6353 54.9081 23.4375 54.038 23.4375 53.181C23.4375 51.0453 24.0835 49.015 25.2832 47.3011C25.481 47.4066 25.7051 47.4725 25.9424 47.4725H41.5649C41.8022 47.4725 42.0264 47.4066 42.2241 47.3011C43.4238 49.015 44.0698 51.0453 44.0698 53.181C44.0698 54.038 43.8457 54.8949 43.7139 55.8046C43.437 57.703 45.4146 57.7689 46.0342 57.0965C49.04 53.9193 50.7144 49.7797 50.7144 45.4159C50.7012 41.0917 49.106 37.0179 46.1792 33.8802ZM33.7471 5.04773C36.1992 7.68445 38.2031 10.6508 39.7588 13.8016H27.7485C29.291 10.6376 31.2949 7.68445 33.7471 5.04773ZM20.8271 51.3221C19.9834 49.4896 19.5483 47.4857 19.5483 45.4159C19.5483 42.621 20.3525 39.9447 21.8555 37.6508C21.8687 37.7562 23.3057 43.2538 23.8594 44.6644C22.2114 46.5629 21.1699 48.8568 20.8271 51.3221ZM40.6553 44.7172H26.8389C22.9629 35.6205 23.0024 25.4559 26.5225 16.5306H40.9717C44.4917 25.4559 44.5312 35.6205 40.6553 44.7172ZM43.648 44.6644C44.4126 42.7001 45.6387 37.7299 45.6519 37.6508C47.1548 39.9315 47.959 42.6078 47.959 45.4159C47.959 47.4857 47.5107 49.4896 46.6802 51.3221C46.3242 48.8568 45.2827 46.5629 43.648 44.6644Z" fill="#3D3D3D"/>
<path d="M28.1953 49.7661C27.4307 49.7661 26.8242 50.3857 26.8242 51.1372V58.0322C26.8242 58.7969 27.4438 59.4033 28.1953 59.4033C28.9468 59.4033 29.5664 58.7837 29.5664 58.0322V51.1372C29.5664 50.3726 28.9468 49.7661 28.1953 49.7661Z" fill="#3D3D3D"/>
<path d="M33.7437 49.7661C33.3613 49.7661 33.0186 49.9243 32.7681 50.1748C32.7681 50.1748 32.7681 50.1748 32.7549 50.188C32.5967 50.3462 32.478 50.5571 32.4121 50.7944C32.3857 50.9131 32.3594 51.0317 32.3594 51.1636V64.9404C32.3594 65.0459 32.3726 65.1514 32.3989 65.2568C32.5439 65.8633 33.0845 66.3115 33.7305 66.3115C34.3765 66.3115 34.917 65.8633 35.062 65.2568C35.0884 65.1514 35.1016 65.0459 35.1016 64.9404V51.1372C35.1016 51.0054 35.0884 50.8867 35.0488 50.7681C34.9038 50.188 34.3765 49.7661 33.7437 49.7661Z" fill="#3D3D3D"/>
<path d="M39.3008 49.7661C38.5361 49.7661 37.9297 50.3857 37.9297 51.1372V58.0322C37.9297 58.7969 38.5493 59.4033 39.3008 59.4033C40.0522 59.4033 40.6719 58.7837 40.6719 58.0322V51.1372C40.6851 50.3726 40.0654 49.7661 39.3008 49.7661Z" fill="#3D3D3D"/>
</svg>
