<svg width="277" height="39" viewBox="0 0 277 39" fill="none" xmlns="http://www.w3.org/2000/svg">
<path d="M57.3863 7.3075V11.9313H51.1088V31H45.3375V11.9313H39.06V7.3075H57.3863ZM66.0539 11.9313V16.7237H73.7827V21.1787H66.0539V26.3762H74.7952V31H60.2827V7.3075H74.7952V11.9313H66.0539ZM77.5632 19.12C77.5632 16.78 78.0695 14.6987 79.082 12.8762C80.0945 11.0312 81.5007 9.6025 83.3007 8.59C85.1232 7.555 87.182 7.0375 89.477 7.0375C92.2895 7.0375 94.697 7.78 96.6995 9.265C98.702 10.75 100.041 12.775 100.716 15.34H94.3707C93.8982 14.35 93.2232 13.5962 92.3457 13.0787C91.4907 12.5612 90.512 12.3025 89.4095 12.3025C87.632 12.3025 86.192 12.9212 85.0895 14.1587C83.987 15.3962 83.4357 17.05 83.4357 19.12C83.4357 21.19 83.987 22.8437 85.0895 24.0812C86.192 25.3187 87.632 25.9375 89.4095 25.9375C90.512 25.9375 91.4907 25.6787 92.3457 25.1612C93.2232 24.6437 93.8982 23.89 94.3707 22.9H100.716C100.041 25.465 98.702 27.49 96.6995 28.975C94.697 30.4375 92.2895 31.1688 89.477 31.1688C87.182 31.1688 85.1232 30.6625 83.3007 29.65C81.5007 28.615 80.0945 27.1862 79.082 25.3637C78.0695 23.5412 77.5632 21.46 77.5632 19.12ZM124.77 7.3075V31H118.999V21.2462H110.021V31H104.25V7.3075H110.021V16.5887H118.999V7.3075H124.77ZM150.131 31H144.36L134.708 16.3862V31H128.936V7.3075H134.708L144.36 21.9887V7.3075H150.131V31ZM165.52 31.2363C163.292 31.2363 161.245 30.7187 159.377 29.6837C157.532 28.6487 156.058 27.2087 154.956 25.3637C153.876 23.4962 153.336 21.4037 153.336 19.0862C153.336 16.7687 153.876 14.6875 154.956 12.8425C156.058 10.9975 157.532 9.5575 159.377 8.5225C161.245 7.4875 163.292 6.97 165.52 6.97C167.747 6.97 169.783 7.4875 171.628 8.5225C173.496 9.5575 174.958 10.9975 176.016 12.8425C177.096 14.6875 177.636 16.7687 177.636 19.0862C177.636 21.4037 177.096 23.4962 176.016 25.3637C174.936 27.2087 173.473 28.6487 171.628 29.6837C169.783 30.7187 167.747 31.2363 165.52 31.2363ZM165.52 25.9712C167.41 25.9712 168.917 25.3412 170.042 24.0812C171.19 22.8212 171.763 21.1562 171.763 19.0862C171.763 16.9937 171.19 15.3287 170.042 14.0912C168.917 12.8312 167.41 12.2012 165.52 12.2012C163.607 12.2012 162.077 12.82 160.93 14.0575C159.805 15.295 159.242 16.9712 159.242 19.0862C159.242 21.1787 159.805 22.855 160.93 24.115C162.077 25.3525 163.607 25.9712 165.52 25.9712Z" fill="#043563"/>
<path d="M201.164 7.3075L192.963 23.17V31H187.192V23.17L178.99 7.3075H185.538L190.128 17.23L194.684 7.3075H201.164ZM209.159 7.3075V21.4825C209.159 22.9 209.508 23.9912 210.206 24.7562C210.903 25.5212 211.927 25.9037 213.277 25.9037C214.627 25.9037 215.662 25.5212 216.382 24.7562C217.102 23.9912 217.462 22.9 217.462 21.4825V7.3075H223.233V21.4487C223.233 23.5637 222.783 25.3525 221.883 26.815C220.983 28.2775 219.768 29.38 218.238 30.1225C216.731 30.865 215.043 31.2363 213.176 31.2363C211.308 31.2363 209.632 30.8763 208.147 30.1562C206.684 29.4137 205.526 28.3112 204.671 26.8487C203.816 25.3637 203.388 23.5637 203.388 21.4487V7.3075H209.159ZM243.013 14.8C242.586 14.0125 241.967 13.4162 241.157 13.0112C240.37 12.5837 239.436 12.37 238.356 12.37C236.488 12.37 234.992 12.9887 233.867 14.2262C232.742 15.4412 232.18 17.0725 232.18 19.12C232.18 21.3025 232.765 23.0125 233.935 24.25C235.127 25.465 236.758 26.0725 238.828 26.0725C240.246 26.0725 241.438 25.7125 242.406 24.9925C243.396 24.2725 244.116 23.2375 244.566 21.8875H237.242V17.635H249.797V23.0012C249.37 24.4412 248.638 25.78 247.603 27.0175C246.591 28.255 245.297 29.2562 243.722 30.0212C242.147 30.7862 240.37 31.1688 238.39 31.1688C236.05 31.1688 233.957 30.6625 232.112 29.65C230.29 28.615 228.861 27.1862 227.826 25.3637C226.813 23.5412 226.307 21.46 226.307 19.12C226.307 16.78 226.813 14.6987 227.826 12.8762C228.861 11.0312 230.29 9.6025 232.112 8.59C233.935 7.555 236.016 7.0375 238.356 7.0375C241.191 7.0375 243.576 7.72375 245.511 9.09625C247.468 10.4687 248.762 12.37 249.392 14.8H243.013ZM267.743 26.815H258.9L257.483 31H251.441L260.014 7.3075H266.696L275.269 31H269.16L267.743 26.815ZM266.258 22.36L263.321 13.6862L260.419 22.36H266.258Z" fill="#323232"/>
<circle cx="175.875" cy="4.875" r="2.625" fill="#282828"/>
<g clip-path="url(#clip0_4691_8778)">
<path fill-rule="evenodd" clip-rule="evenodd" d="M4.69531 36.8436C5.59032 33.5944 7.8454 31.8298 11.0294 31.8236C12.6527 31.8205 14.2761 31.8385 15.8995 31.8351C18.962 31.8289 20.7132 30.1274 20.7352 26.9925C20.7758 21.2494 20.717 15.5057 20.7629 9.76278C20.7854 6.93535 21.7909 4.60089 24.5318 3.33066C25.7491 2.76654 25.8802 2.85541 25.7516 4.15644C25.23 9.43401 25.5336 14.724 25.5104 20.0089C25.4993 22.5403 25.5003 25.072 25.5133 27.6036C25.5379 32.4249 21.5317 36.5222 16.719 36.559C12.7191 36.5893 8.71705 36.4677 4.69531 36.8436Z" fill="#043563"/>
<path fill-rule="evenodd" clip-rule="evenodd" d="M18.7124 26.8971C15.3795 26.2335 12.1034 26.9162 8.89285 26.3093C4.48209 25.4756 1.40648 21.2925 1.71444 16.8139C1.99704 12.7029 1.85038 8.58768 1.4642 4.48288C1.41901 4.00249 1.24585 3.27091 1.47679 3.08541C1.8888 2.75507 2.44784 3.21391 2.90572 3.43662C4.89671 4.40489 6.00933 6.0618 6.33991 8.19485C6.6806 10.3931 6.66161 12.6079 6.48349 14.8366C6.35619 16.4282 6.21782 18.0653 7.11174 19.576C7.96711 21.0212 9.22676 21.6596 10.8333 21.7507C11.3609 21.7806 11.8908 21.773 12.4197 21.7747C15.5329 21.784 17.8011 23.5616 18.7124 26.8971Z" fill="#2B2B2B"/>
<path d="M9.70312 16.0312C10.8681 16.0312 11.8125 14.9609 11.8125 13.6406C11.8125 12.3203 10.8681 11.25 9.70312 11.25C8.53815 11.25 7.59375 12.3203 7.59375 13.6406C7.59375 14.9609 8.53815 16.0312 9.70312 16.0312Z" fill="#323232"/>
</g>
<defs>
<clipPath id="clip0_4691_8778">
<rect width="36" height="36" fill="white" transform="translate(0 2.25)"/>
</clipPath>
</defs>
</svg>
