<svg width="278" height="39" viewBox="0 0 278 39" fill="none" xmlns="http://www.w3.org/2000/svg">
<path d="M58.2863 7.3075V11.9313H52.0088V31H46.2375V11.9313H39.96V7.3075H58.2863ZM66.954 11.9313V16.7237H74.6827V21.1787H66.954V26.3762H75.6952V31H61.1827V7.3075H75.6952V11.9313H66.954ZM78.4632 19.12C78.4632 16.78 78.9695 14.6987 79.982 12.8762C80.9945 11.0312 82.4007 9.6025 84.2007 8.59C86.0232 7.555 88.082 7.0375 90.377 7.0375C93.1895 7.0375 95.597 7.78 97.5995 9.265C99.602 10.75 100.941 12.775 101.616 15.34H95.2707C94.7982 14.35 94.1232 13.5962 93.2457 13.0787C92.3907 12.5612 91.412 12.3025 90.3095 12.3025C88.532 12.3025 87.092 12.9212 85.9895 14.1587C84.887 15.3962 84.3357 17.05 84.3357 19.12C84.3357 21.19 84.887 22.8437 85.9895 24.0812C87.092 25.3187 88.532 25.9375 90.3095 25.9375C91.412 25.9375 92.3907 25.6787 93.2457 25.1612C94.1232 24.6437 94.7982 23.89 95.2707 22.9H101.616C100.941 25.465 99.602 27.49 97.5995 28.975C95.597 30.4375 93.1895 31.1688 90.377 31.1688C88.082 31.1688 86.0232 30.6625 84.2007 29.65C82.4007 28.615 80.9945 27.1862 79.982 25.3637C78.9695 23.5412 78.4632 21.46 78.4632 19.12ZM125.67 7.3075V31H119.899V21.2462H110.921V31H105.15V7.3075H110.921V16.5887H119.899V7.3075H125.67ZM151.031 31H145.26L135.608 16.3862V31H129.836V7.3075H135.608L145.26 21.9887V7.3075H151.031V31ZM166.42 31.2363C164.192 31.2363 162.145 30.7187 160.277 29.6837C158.432 28.6487 156.958 27.2087 155.856 25.3637C154.776 23.4962 154.236 21.4037 154.236 19.0862C154.236 16.7687 154.776 14.6875 155.856 12.8425C156.958 10.9975 158.432 9.5575 160.277 8.5225C162.145 7.4875 164.192 6.97 166.42 6.97C168.647 6.97 170.683 7.4875 172.528 8.5225C174.396 9.5575 175.858 10.9975 176.916 12.8425C177.996 14.6875 178.536 16.7687 178.536 19.0862C178.536 21.4037 177.996 23.4962 176.916 25.3637C175.836 27.2087 174.373 28.6487 172.528 29.6837C170.683 30.7187 168.647 31.2363 166.42 31.2363ZM166.42 25.9712C168.31 25.9712 169.817 25.3412 170.942 24.0812C172.09 22.8212 172.663 21.1562 172.663 19.0862C172.663 16.9937 172.09 15.3287 170.942 14.0912C169.817 12.8312 168.31 12.2012 166.42 12.2012C164.507 12.2012 162.977 12.82 161.83 14.0575C160.705 15.295 160.142 16.9712 160.142 19.0862C160.142 21.1787 160.705 22.855 161.83 24.115C162.977 25.3525 164.507 25.9712 166.42 25.9712ZM202.064 7.3075L193.863 23.17V31H188.092V23.17L179.89 7.3075H186.438L191.028 17.23L195.584 7.3075H202.064ZM210.059 7.3075V21.4825C210.059 22.9 210.408 23.9912 211.106 24.7562C211.803 25.5212 212.827 25.9037 214.177 25.9037C215.527 25.9037 216.562 25.5212 217.282 24.7562C218.002 23.9912 218.362 22.9 218.362 21.4825V7.3075H224.133V21.4487C224.133 23.5637 223.683 25.3525 222.783 26.815C221.883 28.2775 220.668 29.38 219.138 30.1225C217.631 30.865 215.943 31.2363 214.076 31.2363C212.208 31.2363 210.532 30.8763 209.047 30.1562C207.584 29.4137 206.426 28.3112 205.571 26.8487C204.716 25.3637 204.288 23.5637 204.288 21.4487V7.3075H210.059ZM243.913 14.8C243.486 14.0125 242.867 13.4162 242.057 13.0112C241.27 12.5837 240.336 12.37 239.256 12.37C237.388 12.37 235.892 12.9887 234.767 14.2262C233.642 15.4412 233.08 17.0725 233.08 19.12C233.08 21.3025 233.665 23.0125 234.835 24.25C236.027 25.465 237.658 26.0725 239.728 26.0725C241.146 26.0725 242.338 25.7125 243.306 24.9925C244.296 24.2725 245.016 23.2375 245.466 21.8875H238.142V17.635H250.697V23.0012C250.27 24.4412 249.538 25.78 248.503 27.0175C247.491 28.255 246.197 29.2562 244.622 30.0212C243.047 30.7862 241.27 31.1688 239.29 31.1688C236.95 31.1688 234.857 30.6625 233.012 29.65C231.19 28.615 229.761 27.1862 228.726 25.3637C227.713 23.5412 227.207 21.46 227.207 19.12C227.207 16.78 227.713 14.6987 228.726 12.8762C229.761 11.0312 231.19 9.6025 233.012 8.59C234.835 7.555 236.916 7.0375 239.256 7.0375C242.091 7.0375 244.476 7.72375 246.411 9.09625C248.368 10.4687 249.662 12.37 250.292 14.8H243.913ZM268.643 26.815H259.8L258.383 31H252.341L260.914 7.3075H267.596L276.169 31H270.06L268.643 26.815ZM267.158 22.36L264.221 13.6862L261.319 22.36H267.158Z" fill="white"/>
<circle cx="176.775" cy="4.875" r="2.625" fill="white"/>
<g clip-path="url(#clip0_6680_6772)">
<path fill-rule="evenodd" clip-rule="evenodd" d="M5.59351 36.8426C6.48851 33.5934 8.74359 31.8289 11.9276 31.8226C13.5509 31.8195 15.1743 31.8375 16.7976 31.8341C19.8602 31.8279 21.6114 30.1265 21.6334 26.9915C21.674 21.2484 21.6152 15.5047 21.6611 9.7618C21.6836 6.93437 22.6891 4.59991 25.43 3.32968C26.6473 2.76556 26.7784 2.85444 26.6498 4.15547C26.1282 9.43304 26.4318 14.723 26.4086 20.0079C26.3975 22.5394 26.3985 25.071 26.4115 27.6026C26.4361 32.4239 22.4299 36.5212 17.6172 36.558C13.6173 36.5883 9.61524 36.4667 5.59351 36.8426Z" fill="white"/>
<path fill-rule="evenodd" clip-rule="evenodd" d="M19.6124 26.8963C16.2796 26.2327 13.0035 26.9153 9.79287 26.3084C5.38211 25.4747 2.30651 21.2916 2.61446 16.8131C2.89706 12.702 2.75041 8.58683 2.36422 4.48202C2.31903 4.00164 2.14587 3.27005 2.37681 3.08455C2.78883 2.75421 3.34786 3.21306 3.80574 3.43577C5.79673 4.40404 6.90936 6.06094 7.23994 8.19399C7.58063 10.3922 7.56163 12.607 7.38351 14.8358C7.25622 16.4273 7.11785 18.0644 8.01176 19.5751C8.86714 21.0204 10.1268 21.6587 11.7333 21.7499C12.2609 21.7797 12.7908 21.7722 13.3197 21.7738C16.4329 21.7831 18.7011 23.5607 19.6124 26.8963Z" fill="white"/>
<path d="M10.6031 16.0312C11.7681 16.0312 12.7125 14.9609 12.7125 13.6406C12.7125 12.3203 11.7681 11.25 10.6031 11.25C9.43817 11.25 8.49377 12.3203 8.49377 13.6406C8.49377 14.9609 9.43817 16.0312 10.6031 16.0312Z" fill="white"/>
</g>
<defs>
<clipPath id="clip0_6680_6772">
<rect width="36" height="36" fill="white" transform="translate(0.900024 2.25)"/>
</clipPath>
</defs>
</svg>
