<svg width="944" height="144" viewBox="0 0 944 144" fill="none" xmlns="http://www.w3.org/2000/svg">
<path d="M0 71.8594L67.6016 4.32031L67.6882 20.8547L8.60156 80.3203L13.6016 68.8203L0 71.8594Z" fill="#FB923C"/>
<path d="M10.5009 65.4054L67.6875 122.422L67.7702 138.839L0.101563 71.8203L10.5009 65.4054Z" fill="#FB923C"/>
<path d="M138.216 4.0989L149.21 4.0867L93.2109 139.133L81.0996 139.133L138.216 4.0989Z" fill="#FB923C"/>
<path d="M230.867 71.8594L163.267 4.32031L163.18 20.8547L222.266 80.3203L217.266 68.8203L230.867 71.8594Z" fill="#FB923C"/>
<path d="M220.366 65.4054L163.181 122.422L163.098 138.839L230.765 71.8203L220.366 65.4054Z" fill="#FB923C"/>
<path d="M284.38 69L265.139 17.88H273.091L289.989 64.456H288.072L304.97 17.88H312.496L293.184 69H284.38ZM330.472 69.71C326.827 69.71 323.609 68.9053 320.816 67.296C318.071 65.6867 315.917 63.462 314.355 60.622C312.793 57.782 312.012 54.516 312.012 50.824C312.012 47.0847 312.769 43.8187 314.284 41.026C315.846 38.186 318.023 35.985 320.816 34.423C323.609 32.861 326.804 32.08 330.401 32.08C333.904 32.08 336.933 32.8373 339.489 34.352C342.092 35.8193 344.08 37.8783 345.453 40.529C346.873 43.1797 347.583 46.3273 347.583 49.972C347.583 50.54 347.559 51.0843 347.512 51.605C347.512 52.0783 347.465 52.5753 347.37 53.096H316.982V47.558H342.187L340.341 49.759C340.341 45.8777 339.465 42.9193 337.714 40.884C335.963 38.8487 333.525 37.831 330.401 37.831C327.04 37.831 324.366 38.9907 322.378 41.31C320.437 43.582 319.467 46.7533 319.467 50.824C319.467 54.942 320.437 58.1607 322.378 60.48C324.366 62.7993 327.111 63.959 330.614 63.959C332.744 63.959 334.59 63.533 336.152 62.681C337.714 61.7817 338.874 60.48 339.631 58.776H346.589C345.406 62.184 343.394 64.8583 340.554 66.799C337.761 68.7397 334.401 69.71 330.472 69.71ZM381.472 69V60.693L382.182 60.906C381.425 63.604 379.863 65.7577 377.496 67.367C375.129 68.929 372.289 69.71 368.976 69.71C365.71 69.71 362.846 68.929 360.385 67.367C357.971 65.805 356.078 63.6277 354.705 60.835C353.38 58.0423 352.717 54.7763 352.717 51.037C352.717 47.2503 353.403 43.937 354.776 41.097C356.149 38.257 358.066 36.056 360.527 34.494C362.988 32.932 365.876 32.151 369.189 32.151C372.644 32.151 375.484 32.9793 377.709 34.636C379.981 36.2453 381.472 38.5173 382.182 41.452L381.188 41.594V17.88H388.501V69H381.472ZM370.822 63.533C374.088 63.533 376.668 62.4207 378.561 60.196C380.454 57.924 381.401 54.8 381.401 50.824C381.401 46.9427 380.431 43.8897 378.49 41.665C376.597 39.393 374.017 38.257 370.751 38.257C367.532 38.257 364.976 39.393 363.083 41.665C361.237 43.8897 360.314 47.0137 360.314 51.037C360.314 54.9657 361.237 58.0423 363.083 60.267C364.976 62.4443 367.556 63.533 370.822 63.533ZM398.887 69V32.79H406.271V69H398.887ZM398.532 25.69V17.383H406.697V25.69H398.532ZM431.55 69.71C428.095 69.71 425.018 68.9053 422.32 67.296C419.622 65.6393 417.492 63.391 415.93 60.551C414.416 57.711 413.658 54.4687 413.658 50.824C413.658 47.1793 414.416 43.9607 415.93 41.168C417.492 38.328 419.622 36.1033 422.32 34.494C425.018 32.8847 428.071 32.08 431.479 32.08C434.367 32.08 436.946 32.6243 439.218 33.713C441.49 34.8017 443.36 36.3163 444.827 38.257C446.295 40.1977 447.241 42.4933 447.667 45.144H440.709C440.236 43.014 439.195 41.31 437.585 40.032C436.023 38.754 434.035 38.115 431.621 38.115C429.539 38.115 427.716 38.6357 426.154 39.677C424.592 40.7183 423.385 42.1857 422.533 44.079C421.681 45.9723 421.255 48.2207 421.255 50.824C421.255 53.38 421.681 55.6283 422.533 57.569C423.385 59.5097 424.592 61.0243 426.154 62.113C427.716 63.1543 429.562 63.675 431.692 63.675C434.012 63.675 435.976 63.0597 437.585 61.829C439.242 60.551 440.307 58.847 440.78 56.717H447.738C447.265 59.3203 446.271 61.5923 444.756 63.533C443.289 65.4737 441.419 66.9883 439.147 68.077C436.875 69.1657 434.343 69.71 431.55 69.71ZM477.35 69.71C473.8 69.71 470.51 69.071 467.481 67.793C464.452 66.4677 461.825 64.6453 459.6 62.326C457.423 59.9593 455.719 57.1667 454.488 53.948C453.257 50.7293 452.642 47.203 452.642 43.369C452.642 39.535 453.234 36.0323 454.417 32.861C455.648 29.6423 457.352 26.8733 459.529 24.554C461.754 22.1873 464.381 20.365 467.41 19.087C470.439 17.809 473.729 17.17 477.279 17.17C481.255 17.17 484.829 17.9747 488 19.584C491.171 21.146 493.751 23.3707 495.739 26.258C497.774 29.1453 499.029 32.506 499.502 36.34H492.118C491.503 32.3167 489.87 29.1927 487.219 26.968C484.616 24.696 481.326 23.56 477.35 23.56C473.989 23.56 471.007 24.3883 468.404 26.045C465.848 27.6543 463.86 29.95 462.44 32.932C461.02 35.8667 460.31 39.3457 460.31 43.369C460.31 47.345 461.02 50.8477 462.44 53.877C463.907 56.859 465.919 59.1783 468.475 60.835C471.031 62.4917 473.989 63.32 477.35 63.32C481.326 63.32 484.639 62.2077 487.29 59.983C489.988 57.711 491.621 54.5633 492.189 50.54H499.644C499.123 54.4213 497.845 57.8057 495.81 60.693C493.775 63.533 491.171 65.7577 488 67.367C484.876 68.929 481.326 69.71 477.35 69.71ZM523.16 69.71C519.468 69.71 516.226 68.9053 513.433 67.296C510.64 65.6393 508.463 63.391 506.901 60.551C505.339 57.6637 504.558 54.3977 504.558 50.753C504.558 47.061 505.339 43.8187 506.901 41.026C508.51 38.2333 510.688 36.056 513.433 34.494C516.226 32.8847 519.468 32.08 523.16 32.08C526.899 32.08 530.165 32.8847 532.958 34.494C535.751 36.056 537.904 38.2333 539.419 41.026C540.981 43.8187 541.762 47.061 541.762 50.753C541.762 54.3977 540.981 57.6637 539.419 60.551C537.904 63.391 535.751 65.6393 532.958 67.296C530.165 68.9053 526.899 69.71 523.16 69.71ZM523.16 63.675C525.385 63.675 527.302 63.1307 528.911 62.042C530.568 60.9533 531.869 59.4387 532.816 57.498C533.763 55.5573 534.236 53.2853 534.236 50.682C534.236 46.8007 533.195 43.7477 531.112 41.523C529.077 39.251 526.426 38.115 523.16 38.115C519.941 38.115 517.291 39.251 515.208 41.523C513.173 43.795 512.155 46.848 512.155 50.682C512.155 53.2853 512.605 55.5573 513.504 57.498C514.451 59.4387 515.752 60.9533 517.409 62.042C519.113 63.1307 521.03 63.675 523.16 63.675ZM575.682 69V60.693L576.392 60.906C575.635 63.604 574.073 65.7577 571.706 67.367C569.339 68.929 566.499 69.71 563.186 69.71C559.92 69.71 557.056 68.929 554.595 67.367C552.181 65.805 550.288 63.6277 548.915 60.835C547.59 58.0423 546.927 54.7763 546.927 51.037C546.927 47.2503 547.613 43.937 548.986 41.097C550.359 38.257 552.276 36.056 554.737 34.494C557.198 32.932 560.086 32.151 563.399 32.151C566.854 32.151 569.694 32.9793 571.919 34.636C574.191 36.2453 575.682 38.5173 576.392 41.452L575.398 41.594V17.88H582.711V69H575.682ZM565.032 63.533C568.298 63.533 570.878 62.4207 572.771 60.196C574.664 57.924 575.611 54.8 575.611 50.824C575.611 46.9427 574.641 43.8897 572.7 41.665C570.807 39.393 568.227 38.257 564.961 38.257C561.742 38.257 559.186 39.393 557.293 41.665C555.447 43.8897 554.524 47.0137 554.524 51.037C554.524 54.9657 555.447 58.0423 557.293 60.267C559.186 62.4443 561.766 63.533 565.032 63.533ZM608.717 69.71C605.072 69.71 601.854 68.9053 599.061 67.296C596.316 65.6867 594.162 63.462 592.6 60.622C591.038 57.782 590.257 54.516 590.257 50.824C590.257 47.0847 591.014 43.8187 592.529 41.026C594.091 38.186 596.268 35.985 599.061 34.423C601.854 32.861 605.049 32.08 608.646 32.08C612.149 32.08 615.178 32.8373 617.734 34.352C620.337 35.8193 622.325 37.8783 623.698 40.529C625.118 43.1797 625.828 46.3273 625.828 49.972C625.828 50.54 625.804 51.0843 625.757 51.605C625.757 52.0783 625.71 52.5753 625.615 53.096H595.227V47.558H620.432L618.586 49.759C618.586 45.8777 617.71 42.9193 615.959 40.884C614.208 38.8487 611.77 37.831 608.646 37.831C605.285 37.831 602.611 38.9907 600.623 41.31C598.682 43.582 597.712 46.7533 597.712 50.824C597.712 54.942 598.682 58.1607 600.623 60.48C602.611 62.7993 605.356 63.959 608.859 63.959C610.989 63.959 612.835 63.533 614.397 62.681C615.959 61.7817 617.119 60.48 617.876 58.776H624.834C623.651 62.184 621.639 64.8583 618.799 66.799C616.006 68.7397 612.646 69.71 608.717 69.71ZM665.989 69.639C659.836 69.639 654.913 68.1717 651.221 65.237C647.529 62.3023 645.375 58.1133 644.76 52.67H652.073C652.499 56.22 653.919 58.918 656.333 60.764C658.747 62.61 662.013 63.533 666.131 63.533C669.586 63.533 672.19 62.894 673.941 61.616C675.74 60.338 676.639 58.5157 676.639 56.149C676.639 54.019 676.047 52.3387 674.864 51.108C673.681 49.83 671.811 48.7887 669.255 47.984L660.38 45.144C655.836 43.6767 652.499 41.8307 650.369 39.606C648.239 37.3813 647.174 34.565 647.174 31.157C647.174 28.2697 647.884 25.7847 649.304 23.702C650.771 21.6193 652.807 20.01 655.41 18.874C658.061 17.6907 661.137 17.099 664.64 17.099C670.036 17.099 674.343 18.4717 677.562 21.217C680.828 23.915 682.698 27.678 683.171 32.506H675.858C675.29 29.2873 674.059 26.9443 672.166 25.477C670.273 23.9623 667.669 23.205 664.356 23.205C661.232 23.205 658.794 23.8203 657.043 25.051C655.292 26.2817 654.416 28.0093 654.416 30.234C654.416 32.0327 654.984 33.5473 656.12 34.778C657.303 35.9613 659.244 36.979 661.942 37.831L671.243 40.813C675.55 42.1857 678.722 44.0553 680.757 46.422C682.84 48.7887 683.881 51.7707 683.881 55.368C683.881 59.912 682.319 63.4383 679.195 65.947C676.071 68.4083 671.669 69.639 665.989 69.639ZM694.321 83.555L703.054 63.604L704.545 61.261L715.55 32.79H723.218L701.918 83.555H694.321ZM702.699 69L687.221 32.79H695.244L708.379 65.379L702.699 69ZM741.435 69.71C736.702 69.71 732.939 68.6687 730.146 66.586C727.354 64.5033 725.768 61.5687 725.389 57.782H732.205C732.537 59.8647 733.483 61.474 735.045 62.61C736.655 63.6987 738.832 64.243 741.577 64.243C743.991 64.243 745.837 63.817 747.115 62.965C748.393 62.113 749.032 60.906 749.032 59.344C749.032 58.208 748.654 57.2613 747.896 56.504C747.186 55.6993 745.766 55.0367 743.636 54.516L737.814 53.167C734.17 52.2677 731.448 50.9423 729.649 49.191C727.898 47.3923 727.022 45.1913 727.022 42.588C727.022 39.322 728.229 36.766 730.643 34.92C733.105 33.0267 736.465 32.08 740.725 32.08C744.938 32.08 748.322 33.0267 750.878 34.92C753.482 36.8133 754.949 39.464 755.28 42.872H748.464C748.18 41.168 747.352 39.8663 745.979 38.967C744.654 38.0203 742.832 37.547 740.512 37.547C738.335 37.547 736.655 37.9493 735.471 38.754C734.335 39.5113 733.767 40.5763 733.767 41.949C733.767 43.085 734.193 44.0317 735.045 44.789C735.945 45.5463 737.412 46.1853 739.447 46.706L745.411 48.197C748.867 49.049 751.47 50.4453 753.221 52.386C754.973 54.2793 755.848 56.575 755.848 59.273C755.848 62.539 754.57 65.095 752.014 66.941C749.506 68.787 745.979 69.71 741.435 69.71ZM778.03 69.71C773.818 69.71 770.717 68.7397 768.729 66.799C766.789 64.811 765.818 61.9 765.818 58.066V24.483L773.131 21.714V58.137C773.131 60.0303 773.628 61.4267 774.622 62.326C775.616 63.2253 777.226 63.675 779.45 63.675C780.302 63.675 781.06 63.604 781.722 63.462C782.385 63.32 782.953 63.1543 783.426 62.965V68.929C782.906 69.1657 782.172 69.355 781.225 69.497C780.279 69.639 779.214 69.71 778.03 69.71ZM758.576 38.683V32.79H783.426V38.683H758.576ZM805.146 69.71C801.501 69.71 798.282 68.9053 795.49 67.296C792.744 65.6867 790.591 63.462 789.029 60.622C787.467 57.782 786.686 54.516 786.686 50.824C786.686 47.0847 787.443 43.8187 788.958 41.026C790.52 38.186 792.697 35.985 795.49 34.423C798.282 32.861 801.477 32.08 805.075 32.08C808.577 32.08 811.607 32.8373 814.163 34.352C816.766 35.8193 818.754 37.8783 820.127 40.529C821.547 43.1797 822.257 46.3273 822.257 49.972C822.257 50.54 822.233 51.0843 822.186 51.605C822.186 52.0783 822.138 52.5753 822.044 53.096H791.656V47.558H816.861L815.015 49.759C815.015 45.8777 814.139 42.9193 812.388 40.884C810.636 38.8487 808.199 37.831 805.075 37.831C801.714 37.831 799.04 38.9907 797.052 41.31C795.111 43.582 794.141 46.7533 794.141 50.824C794.141 54.942 795.111 58.1607 797.052 60.48C799.04 62.7993 801.785 63.959 805.288 63.959C807.418 63.959 809.264 63.533 810.826 62.681C812.388 61.7817 813.547 60.48 814.305 58.776H821.263C820.079 62.184 818.068 64.8583 815.228 66.799C812.435 68.7397 809.074 69.71 805.146 69.71ZM829.81 69V32.79H836.839V41.31H837.194V69H829.81ZM854.234 69V45.357C854.234 42.8957 853.666 41.097 852.53 39.961C851.394 38.825 849.761 38.257 847.631 38.257C845.643 38.257 843.844 38.7303 842.235 39.677C840.673 40.5763 839.442 41.8543 838.543 43.511C837.644 45.1203 837.194 47.0373 837.194 49.262L836.271 40.813C837.454 38.115 839.229 35.985 841.596 34.423C844.01 32.861 846.708 32.08 849.69 32.08C853.287 32.08 856.151 33.1213 858.281 35.204C860.458 37.2867 861.547 40.032 861.547 43.44V69H854.234ZM878.658 69V45.357C878.658 42.8957 878.066 41.097 876.883 39.961C875.747 38.825 874.114 38.257 871.984 38.257C870.043 38.257 868.268 38.7303 866.659 39.677C865.097 40.5763 863.843 41.8543 862.896 43.511C861.997 45.1203 861.547 47.0373 861.547 49.262L860.056 40.813C861.287 38.115 863.133 35.985 865.594 34.423C868.103 32.861 870.895 32.08 873.972 32.08C877.617 32.08 880.528 33.145 882.705 35.275C884.882 37.3577 885.971 40.1503 885.971 43.653V69H878.658ZM908.812 69.71C904.079 69.71 900.316 68.6687 897.523 66.586C894.731 64.5033 893.145 61.5687 892.766 57.782H899.582C899.914 59.8647 900.86 61.474 902.422 62.61C904.032 63.6987 906.209 64.243 908.954 64.243C911.368 64.243 913.214 63.817 914.492 62.965C915.77 62.113 916.409 60.906 916.409 59.344C916.409 58.208 916.031 57.2613 915.273 56.504C914.563 55.6993 913.143 55.0367 911.013 54.516L905.191 53.167C901.547 52.2677 898.825 50.9423 897.026 49.191C895.275 47.3923 894.399 45.1913 894.399 42.588C894.399 39.322 895.606 36.766 898.02 34.92C900.482 33.0267 903.842 32.08 908.102 32.08C912.315 32.08 915.699 33.0267 918.255 34.92C920.859 36.8133 922.326 39.464 922.657 42.872H915.841C915.557 41.168 914.729 39.8663 913.356 38.967C912.031 38.0203 910.209 37.547 907.889 37.547C905.712 37.547 904.032 37.9493 902.848 38.754C901.712 39.5113 901.144 40.5763 901.144 41.949C901.144 43.085 901.57 44.0317 902.422 44.789C903.322 45.5463 904.789 46.1853 906.824 46.706L912.788 48.197C916.244 49.049 918.847 50.4453 920.598 52.386C922.35 54.2793 923.225 56.575 923.225 59.273C923.225 62.539 921.947 65.095 919.391 66.941C916.883 68.787 913.356 69.71 908.812 69.71Z" fill="#003262"/>
<path d="M373.65 128V118.872L366.006 107.84H368.806L375.442 117.528H374.378L381.014 107.84H383.59L375.946 118.872V128H373.65ZM400.647 128.28C399.247 128.28 397.959 128.028 396.783 127.524C395.625 127.001 394.617 126.273 393.759 125.34C392.9 124.388 392.228 123.277 391.743 122.008C391.276 120.739 391.043 119.348 391.043 117.836C391.043 115.839 391.453 114.065 392.275 112.516C393.096 110.967 394.225 109.753 395.663 108.876C397.119 107.999 398.771 107.56 400.619 107.56C402.504 107.56 404.165 107.999 405.603 108.876C407.059 109.753 408.197 110.967 409.019 112.516C409.84 114.065 410.251 115.848 410.251 117.864C410.251 119.376 410.008 120.767 409.523 122.036C409.056 123.305 408.393 124.407 407.535 125.34C406.676 126.273 405.659 127.001 404.483 127.524C403.307 128.028 402.028 128.28 400.647 128.28ZM400.619 126.208C402.056 126.208 403.316 125.853 404.399 125.144C405.5 124.416 406.359 123.417 406.975 122.148C407.591 120.879 407.899 119.432 407.899 117.808C407.899 116.203 407.591 114.784 406.975 113.552C406.377 112.32 405.528 111.359 404.427 110.668C403.344 109.977 402.075 109.632 400.619 109.632C399.163 109.632 397.893 109.977 396.811 110.668C395.728 111.359 394.888 112.32 394.291 113.552C393.693 114.765 393.395 116.184 393.395 117.808C393.395 119.451 393.693 120.907 394.291 122.176C394.907 123.427 395.756 124.416 396.839 125.144C397.921 125.853 399.181 126.208 400.619 126.208ZM428.594 128.28C426.168 128.28 424.273 127.543 422.91 126.068C421.566 124.575 420.894 122.493 420.894 119.824V107.84H423.19V119.936C423.19 121.952 423.657 123.501 424.59 124.584C425.524 125.667 426.858 126.208 428.594 126.208C430.368 126.208 431.721 125.676 432.654 124.612C433.588 123.529 434.054 121.971 434.054 119.936V107.84H436.35V119.852C436.35 122.503 435.669 124.575 434.306 126.068C432.944 127.543 431.04 128.28 428.594 128.28ZM447.695 128V107.84H455.143C456.58 107.84 457.803 108.073 458.811 108.54C459.819 109.007 460.584 109.66 461.107 110.5C461.648 111.321 461.919 112.301 461.919 113.44C461.919 114.579 461.648 115.577 461.107 116.436C460.584 117.276 459.819 117.939 458.811 118.424C457.803 118.891 456.58 119.124 455.143 119.124H449.375V117.108H455.059C456.552 117.108 457.682 116.781 458.447 116.128C459.231 115.475 459.623 114.579 459.623 113.44C459.623 112.32 459.24 111.443 458.475 110.808C457.71 110.173 456.571 109.856 455.059 109.856H449.991V128H447.695ZM459.511 128L448.787 118.004H451.923L462.983 128H459.511ZM492.06 128L484.276 107.84H486.74L493.964 126.992H493.124L500.32 107.84H502.644L494.86 128H492.06ZM513.047 128V107.84H515.343V128H513.047ZM533.988 128.252C531.636 128.252 529.76 127.673 528.36 126.516C526.979 125.359 526.167 123.707 525.924 121.56H528.164C528.369 123.109 528.957 124.276 529.928 125.06C530.899 125.844 532.243 126.236 533.96 126.236C535.416 126.236 536.508 125.965 537.236 125.424C537.983 124.864 538.356 124.052 538.356 122.988C538.356 122.073 538.104 121.345 537.6 120.804C537.096 120.263 536.312 119.815 535.248 119.46L531.86 118.284C530.143 117.687 528.873 116.968 528.052 116.128C527.231 115.269 526.82 114.187 526.82 112.88C526.82 111.797 527.091 110.864 527.632 110.08C528.173 109.277 528.939 108.652 529.928 108.204C530.917 107.756 532.065 107.532 533.372 107.532C535.388 107.532 537.003 108.064 538.216 109.128C539.429 110.173 540.129 111.667 540.316 113.608H538.076C537.833 112.208 537.329 111.181 536.564 110.528C535.817 109.875 534.735 109.548 533.316 109.548C531.972 109.548 530.927 109.819 530.18 110.36C529.433 110.901 529.06 111.667 529.06 112.656C529.06 113.496 529.321 114.168 529.844 114.672C530.367 115.176 531.179 115.615 532.28 115.988L535.892 117.248C537.46 117.789 538.636 118.527 539.42 119.46C540.204 120.375 540.596 121.541 540.596 122.96C540.596 124.64 540.017 125.947 538.86 126.88C537.721 127.795 536.097 128.252 533.988 128.252ZM551.191 128V107.84H553.487V128H551.191ZM573.897 128.28C572.497 128.28 571.209 128.028 570.033 127.524C568.875 127.001 567.867 126.273 567.009 125.34C566.15 124.388 565.478 123.277 564.993 122.008C564.526 120.739 564.293 119.348 564.293 117.836C564.293 115.839 564.703 114.065 565.525 112.516C566.346 110.967 567.475 109.753 568.913 108.876C570.369 107.999 572.021 107.56 573.869 107.56C575.754 107.56 577.415 107.999 578.853 108.876C580.309 109.753 581.447 110.967 582.269 112.516C583.09 114.065 583.501 115.848 583.501 117.864C583.501 119.376 583.258 120.767 582.773 122.036C582.306 123.305 581.643 124.407 580.785 125.34C579.926 126.273 578.909 127.001 577.733 127.524C576.557 128.028 575.278 128.28 573.897 128.28ZM573.869 126.208C575.306 126.208 576.566 125.853 577.649 125.144C578.75 124.416 579.609 123.417 580.225 122.148C580.841 120.879 581.149 119.432 581.149 117.808C581.149 116.203 580.841 114.784 580.225 113.552C579.627 112.32 578.778 111.359 577.677 110.668C576.594 109.977 575.325 109.632 573.869 109.632C572.413 109.632 571.143 109.977 570.061 110.668C568.978 111.359 568.138 112.32 567.541 113.552C566.943 114.765 566.645 116.184 566.645 117.808C566.645 119.451 566.943 120.907 567.541 122.176C568.157 123.427 569.006 124.416 570.089 125.144C571.171 125.853 572.431 126.208 573.869 126.208ZM594.312 128V107.84H596.692L608.256 124.808L607.92 124.864V107.84H610.104V128H607.724L596.16 111.032L596.496 110.976V128H594.312ZM621.677 132.032V130.884C622.219 130.679 622.611 130.352 622.853 129.904C623.096 129.475 623.217 128.812 623.217 127.916L624.085 128H621.677V125.144H624.505V127.412C624.505 128.607 624.281 129.596 623.833 130.38C623.385 131.164 622.667 131.715 621.677 132.032ZM657.268 128.28C655.868 128.28 654.58 128.028 653.404 127.524C652.246 127.001 651.238 126.273 650.38 125.34C649.521 124.388 648.849 123.277 648.364 122.008C647.897 120.739 647.664 119.348 647.664 117.836C647.664 115.839 648.074 114.065 648.896 112.516C649.717 110.967 650.846 109.753 652.284 108.876C653.74 107.999 655.392 107.56 657.24 107.56C659.125 107.56 660.786 107.999 662.224 108.876C663.68 109.753 664.818 110.967 665.64 112.516C666.461 114.065 666.872 115.848 666.872 117.864C666.872 119.376 666.629 120.767 666.144 122.036C665.677 123.305 665.014 124.407 664.156 125.34C663.297 126.273 662.28 127.001 661.104 127.524C659.928 128.028 658.649 128.28 657.268 128.28ZM657.24 126.208C658.677 126.208 659.937 125.853 661.02 125.144C662.121 124.416 662.98 123.417 663.596 122.148C664.212 120.879 664.52 119.432 664.52 117.808C664.52 116.203 664.212 114.784 663.596 113.552C662.998 112.32 662.149 111.359 661.048 110.668C659.965 109.977 658.696 109.632 657.24 109.632C655.784 109.632 654.514 109.977 653.432 110.668C652.349 111.359 651.509 112.32 650.912 113.552C650.314 114.765 650.016 116.184 650.016 117.808C650.016 119.451 650.314 120.907 650.912 122.176C651.528 123.427 652.377 124.416 653.46 125.144C654.542 125.853 655.802 126.208 657.24 126.208ZM685.215 128.28C682.789 128.28 680.894 127.543 679.531 126.068C678.187 124.575 677.515 122.493 677.515 119.824V107.84H679.811V119.936C679.811 121.952 680.278 123.501 681.211 124.584C682.145 125.667 683.479 126.208 685.215 126.208C686.989 126.208 688.342 125.676 689.275 124.612C690.209 123.529 690.675 121.971 690.675 119.936V107.84H692.971V119.852C692.971 122.503 692.29 124.575 690.927 126.068C689.565 127.543 687.661 128.28 685.215 128.28ZM704.316 128V107.84H711.764C713.202 107.84 714.424 108.073 715.432 108.54C716.44 109.007 717.206 109.66 717.728 110.5C718.27 111.321 718.54 112.301 718.54 113.44C718.54 114.579 718.27 115.577 717.728 116.436C717.206 117.276 716.44 117.939 715.432 118.424C714.424 118.891 713.202 119.124 711.764 119.124H705.996V117.108H711.68C713.174 117.108 714.303 116.781 715.068 116.128C715.852 115.475 716.244 114.579 716.244 113.44C716.244 112.32 715.862 111.443 715.096 110.808C714.331 110.173 713.192 109.856 711.68 109.856H706.612V128H704.316ZM716.132 128L705.408 118.004H708.544L719.604 128H716.132ZM750.837 128.28C749.455 128.28 748.177 128.028 747.001 127.524C745.843 127.001 744.835 126.283 743.977 125.368C743.118 124.435 742.455 123.343 741.989 122.092C741.522 120.823 741.289 119.432 741.289 117.92C741.289 116.408 741.522 115.027 741.989 113.776C742.455 112.507 743.109 111.415 743.949 110.5C744.807 109.567 745.815 108.848 746.973 108.344C748.149 107.821 749.427 107.56 750.809 107.56C752.321 107.56 753.674 107.868 754.869 108.484C756.082 109.1 757.071 109.968 757.837 111.088C758.621 112.208 759.106 113.515 759.293 115.008H756.997C756.773 113.347 756.11 112.04 755.009 111.088C753.926 110.117 752.535 109.632 750.837 109.632C749.399 109.632 748.139 109.987 747.057 110.696C745.974 111.387 745.134 112.357 744.537 113.608C743.939 114.84 743.641 116.277 743.641 117.92C743.641 119.563 743.939 121.009 744.537 122.26C745.134 123.492 745.974 124.463 747.057 125.172C748.139 125.863 749.39 126.208 750.809 126.208C752.545 126.208 753.963 125.723 755.065 124.752C756.185 123.781 756.847 122.475 757.053 120.832H759.349C759.162 122.325 758.677 123.632 757.893 124.752C757.127 125.872 756.138 126.74 754.925 127.356C753.73 127.972 752.367 128.28 750.837 128.28ZM778.483 128.28C777.083 128.28 775.795 128.028 774.619 127.524C773.461 127.001 772.453 126.273 771.595 125.34C770.736 124.388 770.064 123.277 769.579 122.008C769.112 120.739 768.879 119.348 768.879 117.836C768.879 115.839 769.289 114.065 770.111 112.516C770.932 110.967 772.061 109.753 773.499 108.876C774.955 107.999 776.607 107.56 778.455 107.56C780.34 107.56 782.001 107.999 783.439 108.876C784.895 109.753 786.033 110.967 786.855 112.516C787.676 114.065 788.087 115.848 788.087 117.864C788.087 119.376 787.844 120.767 787.359 122.036C786.892 123.305 786.229 124.407 785.371 125.34C784.512 126.273 783.495 127.001 782.319 127.524C781.143 128.028 779.864 128.28 778.483 128.28ZM778.455 126.208C779.892 126.208 781.152 125.853 782.235 125.144C783.336 124.416 784.195 123.417 784.811 122.148C785.427 120.879 785.735 119.432 785.735 117.808C785.735 116.203 785.427 114.784 784.811 113.552C784.213 112.32 783.364 111.359 782.263 110.668C781.18 109.977 779.911 109.632 778.455 109.632C776.999 109.632 775.729 109.977 774.647 110.668C773.564 111.359 772.724 112.32 772.127 113.552C771.529 114.765 771.231 116.184 771.231 117.808C771.231 119.451 771.529 120.907 772.127 122.176C772.743 123.427 773.592 124.416 774.675 125.144C775.757 125.853 777.017 126.208 778.455 126.208ZM800.27 128V125.984H805.674C807.354 125.984 808.801 125.648 810.014 124.976C811.228 124.285 812.161 123.324 812.814 122.092C813.468 120.86 813.794 119.432 813.794 117.808C813.794 116.203 813.468 114.803 812.814 113.608C812.161 112.413 811.228 111.489 810.014 110.836C808.82 110.183 807.373 109.856 805.674 109.856H800.27V107.84H805.674C807.784 107.84 809.622 108.26 811.19 109.1C812.758 109.921 813.972 111.088 814.83 112.6C815.708 114.093 816.146 115.848 816.146 117.864C816.146 119.88 815.708 121.653 814.83 123.184C813.953 124.696 812.73 125.881 811.162 126.74C809.613 127.58 807.793 128 805.702 128H800.27ZM798.898 128V107.84H801.194V128H798.898ZM826.953 128V107.84H829.249V128H826.953ZM828.129 128V125.984H840.449V128H828.129ZM828.129 118.508V116.492H839.441V118.508H828.129ZM828.129 109.856V107.84H840.225V109.856H828.129Z" fill="#1A1A1A"/>
</svg>
