<svg width="46" height="45" viewBox="0 0 46 45" fill="none" xmlns="http://www.w3.org/2000/svg">
<g clip-path="url(#clip0_6388_11119)">
<path d="M0.505127 7.12627H7.33335V25.4664C7.33335 28.3633 8.66489 30.1009 9.71255 30.84C8.60337 31.8262 5.20112 32.6893 2.67515 30.5939C1.18276 29.3617 0.505127 27.3279 0.505127 25.4049V7.12627ZM43.2006 22.3612V20.4382H45.2836V13.6838H42.9915C42.1161 9.62852 38.5046 6.58398 34.1787 6.58398C29.1988 6.58398 25.169 10.6146 25.169 15.5937V31.37C26.5867 31.5669 28.2751 31.3454 29.7173 30.1501C31.2088 28.9179 31.8865 26.8841 31.8865 24.961V24.3818H35.301V17.6274H31.8865V15.5937H31.8988C31.8988 14.3245 32.9218 13.3015 34.191 13.3015C35.4601 13.3015 36.4832 14.3245 36.4832 15.5937V22.3604C36.4832 27.3402 40.5261 31.37 45.5051 31.37V24.6402C44.2237 24.6534 43.2006 23.6304 43.2006 22.3612ZM17.3292 13.6715V23.5935C17.3292 24.1604 16.8607 24.6165 16.2815 24.6165C15.7023 24.6165 15.2338 24.1604 15.2338 23.5935V13.6715H8.47944V25.3434C8.47944 27.4387 9.19399 30.1009 12.4363 30.964C15.6786 31.827 17.5638 30.0394 17.5638 30.0394C17.3916 31.2224 16.2824 32.0854 14.4947 32.27C13.1385 32.4054 11.4132 31.9615 10.5378 31.5924V37.7799C12.7439 38.4329 15.0739 38.643 17.3415 38.1991C21.4829 37.3976 24.0835 33.9347 24.0835 29.3371V13.6838H17.3292V13.6715Z" fill="#EA0B8C"/>
</g>
<defs>
<clipPath id="clip0_6388_11119">
<rect x="0.5" width="45" height="45" rx="8" fill="white"/>
</clipPath>
</defs>
</svg>
