<svg width="351" height="350" viewBox="0 0 351 350" fill="none" xmlns="http://www.w3.org/2000/svg">
<g clip-path="url(#clip0)">
<path d="M301.049 182.563C301.042 182.609 301.035 182.654 301.027 182.699C300.995 182.879 300.939 183.057 300.893 183.236C300.843 183.426 300.796 183.616 300.729 183.805C300.628 184.087 300.514 184.368 300.374 184.645C300.351 184.692 300.327 184.739 300.302 184.785C300.146 185.084 299.968 185.38 299.766 185.673C299.737 185.714 299.705 185.756 299.674 185.799C299.485 186.063 299.274 186.325 299.048 186.583C299.004 186.631 298.965 186.681 298.921 186.729C298.675 186.999 298.404 187.261 298.117 187.519C297.935 187.684 297.732 187.842 297.532 188.002C297.356 188.143 297.187 188.287 296.997 188.426C296.782 188.581 296.545 188.73 296.312 188.882C296.073 189.038 295.844 189.198 295.587 189.348L135.57 282.339C135.157 282.581 134.723 282.802 134.282 283.016C134.166 283.072 134.049 283.127 133.932 283.181C133.532 283.366 133.125 283.541 132.706 283.705C132.653 283.726 132.601 283.749 132.547 283.769C132.101 283.94 131.641 284.094 131.176 284.24C130.852 284.342 130.522 284.431 130.191 284.521C129.942 284.588 129.696 284.661 129.443 284.722C129.094 284.807 128.739 284.876 128.384 284.948C128.128 285.001 127.875 285.059 127.617 285.104C127.509 285.123 127.399 285.139 127.291 285.156C126.855 285.227 126.415 285.289 125.972 285.342C125.842 285.359 125.714 285.375 125.583 285.389C125.329 285.417 125.073 285.432 124.817 285.453C124.387 285.489 123.958 285.52 123.525 285.539C123.25 285.552 122.974 285.557 122.698 285.562C122.349 285.568 122 285.571 121.65 285.567C121.359 285.563 121.067 285.555 120.777 285.543C120.454 285.529 120.13 285.513 119.808 285.491C119.513 285.47 119.219 285.446 118.926 285.417C118.606 285.387 118.289 285.351 117.972 285.31C117.686 285.275 117.402 285.234 117.118 285.19C116.778 285.138 116.441 285.078 116.106 285.014C115.841 284.964 115.576 284.911 115.313 284.854C114.913 284.766 114.519 284.667 114.127 284.563C113.874 284.496 113.618 284.433 113.368 284.359C113.234 284.319 113.099 284.277 112.965 284.235C112.573 284.111 112.187 283.98 111.807 283.838C111.696 283.798 111.583 283.759 111.473 283.717C111.128 283.583 110.794 283.434 110.459 283.287C110.296 283.213 110.126 283.148 109.966 283.072C109.485 282.843 109.017 282.6 108.566 282.341L31.4413 237.812C27.6774 235.638 25.7971 232.785 25.8055 229.936L25.7852 237.155C25.7771 240.004 27.6568 242.858 31.421 245.031L108.546 289.558C108.996 289.818 109.465 290.061 109.946 290.29C110.107 290.366 110.278 290.432 110.443 290.506C110.727 290.631 111.006 290.763 111.3 290.878C111.35 290.898 111.403 290.915 111.453 290.934C111.563 290.977 111.675 291.015 111.786 291.056C112.167 291.197 112.553 291.329 112.947 291.453C113.081 291.495 113.213 291.538 113.348 291.577C113.439 291.604 113.526 291.635 113.618 291.66C113.778 291.706 113.946 291.738 114.108 291.782C114.499 291.885 114.893 291.984 115.294 292.072C115.401 292.095 115.502 292.127 115.609 292.15C115.766 292.181 115.928 292.203 116.085 292.232C116.421 292.296 116.757 292.355 117.098 292.408C117.234 292.43 117.366 292.459 117.503 292.478C117.652 292.5 117.802 292.509 117.951 292.529C118.268 292.569 118.586 292.604 118.905 292.635C119.057 292.65 119.207 292.674 119.36 292.686C119.501 292.697 119.646 292.698 119.787 292.709C120.109 292.731 120.432 292.747 120.756 292.76C120.917 292.767 121.079 292.782 121.241 292.786C121.371 292.79 121.5 292.783 121.63 292.785C121.979 292.789 122.328 292.786 122.678 292.779C122.851 292.776 123.025 292.783 123.197 292.777C123.301 292.773 123.402 292.76 123.504 292.756C123.937 292.737 124.366 292.706 124.795 292.671C124.968 292.656 125.144 292.653 125.316 292.636C125.398 292.627 125.481 292.615 125.563 292.606C125.693 292.593 125.821 292.575 125.949 292.56C126.394 292.507 126.835 292.445 127.273 292.372C127.38 292.355 127.488 292.34 127.595 292.321C127.646 292.312 127.699 292.305 127.752 292.296C127.96 292.259 128.162 292.206 128.368 292.165C128.722 292.093 129.075 292.023 129.421 291.939C129.675 291.878 129.922 291.805 130.172 291.737C130.502 291.647 130.832 291.558 131.156 291.456C131.224 291.435 131.297 291.419 131.367 291.396C131.759 291.269 132.146 291.131 132.526 290.986C132.58 290.966 132.631 290.942 132.685 290.922C133.104 290.758 133.511 290.582 133.911 290.398C134.029 290.344 134.145 290.289 134.261 290.233C134.702 290.02 135.134 289.796 135.548 289.556L295.566 196.564C295.644 196.52 295.721 196.473 295.798 196.427C295.974 196.321 296.124 196.207 296.29 196.099C296.523 195.947 296.76 195.798 296.977 195.641C297.166 195.503 297.334 195.36 297.511 195.218C297.711 195.059 297.914 194.9 298.096 194.736C298.133 194.703 298.178 194.671 298.214 194.638C298.459 194.412 298.686 194.181 298.9 193.946C298.945 193.898 298.983 193.848 299.027 193.798C299.153 193.655 299.282 193.512 299.397 193.367C299.489 193.251 299.569 193.133 299.653 193.016C299.684 192.974 299.717 192.931 299.745 192.889C299.898 192.669 300.04 192.45 300.165 192.226C300.207 192.152 300.242 192.077 300.281 192.003C300.305 191.955 300.331 191.908 300.353 191.862C300.472 191.622 300.583 191.383 300.674 191.141C300.688 191.102 300.694 191.061 300.708 191.022C300.776 190.833 300.822 190.643 300.872 190.452C300.906 190.323 300.956 190.196 300.982 190.066C300.993 190.016 300.997 189.966 301.006 189.916C301.014 189.871 301.021 189.825 301.028 189.779C301.069 189.51 301.1 189.241 301.108 188.971C301.11 188.915 301.11 188.859 301.111 188.804L301.131 181.585C301.13 181.913 301.099 182.238 301.049 182.563Z" fill="url(#paint0_linear)"/>
<path d="M295.493 173.711C302.972 178.029 303.018 185.03 295.587 189.348L135.571 282.339C128.139 286.658 116.047 286.658 108.566 282.34L31.4415 237.812C23.9616 233.494 23.9221 226.488 31.3533 222.17L191.369 129.179C198.8 124.86 210.888 124.864 218.368 129.182L295.493 173.711Z" fill="url(#paint1_linear)"/>
<path d="M130.493 279.408L290.51 186.418C295.15 183.721 295.124 179.334 290.455 176.638L279.137 170.104L267.399 172.209C263.014 172.995 258.22 172.31 254.958 170.427L224.169 152.651C220.907 150.767 219.708 147.993 221.051 145.45L224.647 138.644L213.33 132.11C208.66 129.414 201.086 129.414 196.447 132.11L36.4302 225.102C31.7908 227.797 31.8156 232.185 36.4854 234.881L113.61 279.409C118.281 282.105 125.855 282.105 130.493 279.408Z" fill="url(#paint2_linear)"/>
<path d="M122.963 189.781L108.869 197.972L177.492 237.59L191.585 229.401L122.963 189.781ZM122.404 200.385L116.432 196.938C118.074 196.286 120.36 196.394 121.845 197.252C123.335 198.111 123.524 199.433 122.404 200.385ZM125.608 196.816C124.782 197.296 123.43 197.3 122.593 196.816C121.757 196.333 121.758 195.55 122.584 195.07C123.414 194.588 124.768 194.585 125.604 195.068C126.44 195.55 126.439 196.333 125.608 196.816ZM145.619 212.994L128.686 203.267L131.37 201.707L148.303 211.434L145.619 212.994Z" fill="white"/>
<path d="M100.824 202.644L86.7334 210.836L155.359 250.457L169.45 242.266L100.824 202.644ZM99.3913 213.673L93.6978 210.379L98.1288 207.809L99.0417 208.338L99.213 208.239C100.25 207.64 101.942 207.64 102.991 208.239C104.029 208.848 104.038 209.824 102.999 210.432L102.838 210.53L103.822 211.094L99.3913 213.673ZM140.423 235.864L107.896 216.93L110.58 215.37L143.107 234.304L140.423 235.864Z" fill="white"/>
<path d="M79.032 215.311L64.9385 223.501L133.562 263.12L147.655 254.93L79.032 215.311ZM121.104 249.998L85.7171 229.504L88.4023 227.944L123.789 248.439L121.104 249.998Z" fill="white"/>
<path d="M102.453 210.111L102.283 210.209L99.5967 208.659L99.7575 208.562C100.492 208.132 101.7 208.132 102.443 208.562C103.187 208.991 103.187 209.69 102.453 210.111Z" fill="white"/>
<path d="M100.091 210.754C99.9112 210.853 99.6787 210.907 99.4458 210.907C99.5171 211.131 99.4185 211.364 99.1322 211.534C98.657 211.802 97.8878 211.803 97.4043 211.525C96.9298 211.256 96.9207 210.808 97.3959 210.53C97.6913 210.361 98.0938 210.308 98.47 210.343C98.47 210.209 98.5591 210.074 98.7385 209.967C99.1053 209.753 99.7143 209.753 100.081 209.967C100.457 210.182 100.457 210.54 100.091 210.754Z" fill="white"/>
<path d="M262.846 113.644L260.851 119.67L251.288 125.228L253.284 119.201L262.846 113.644Z" fill="url(#paint3_linear)"/>
<path d="M237.579 76.0704L247.142 70.5129C244.438 72.0839 242.762 75.425 242.749 80.1731C242.745 81.1377 242.812 82.123 242.941 83.1212C243.03 83.8128 243.151 84.5104 243.299 85.21C243.422 85.7848 243.564 86.3613 243.723 86.9379C243.865 87.4501 244.022 87.962 244.193 88.4732C244.351 88.9487 244.521 89.4224 244.702 89.8948C244.876 90.3469 245.06 90.7979 245.255 91.2458C245.444 91.6842 245.644 92.1199 245.852 92.5527C246.06 92.9828 246.277 93.4104 246.502 93.8331C246.728 94.26 246.964 94.6834 247.209 95.1016C247.46 95.5313 247.719 95.9561 247.986 96.3746C248.268 96.8152 248.559 97.2494 248.858 97.6756C249.183 98.1379 249.516 98.5913 249.86 99.0343C250.256 99.5445 250.663 100.041 251.081 100.522C251.613 101.131 252.161 101.717 252.725 102.274C254.297 103.824 255.99 105.15 257.755 106.169C258.47 106.583 259.175 106.931 259.864 107.218C260.466 107.469 261.057 107.672 261.636 107.829C262.086 107.952 262.528 108.046 262.96 108.112C263.343 108.171 263.717 108.209 264.083 108.225C264.423 108.24 264.755 108.237 265.08 108.217C265.391 108.198 265.694 108.162 265.99 108.11C266.279 108.06 266.561 107.995 266.836 107.916C267.108 107.836 267.374 107.743 267.631 107.635C267.891 107.526 268.144 107.403 268.388 107.265C268.415 107.25 268.443 107.234 268.47 107.218L258.907 112.775C258.88 112.791 258.853 112.807 258.825 112.823C258.581 112.96 258.329 113.083 258.068 113.193C257.811 113.3 257.546 113.394 257.273 113.473C256.999 113.553 256.716 113.618 256.428 113.668C256.131 113.719 255.829 113.755 255.517 113.774C255.193 113.795 254.86 113.798 254.521 113.782C254.154 113.766 253.78 113.729 253.397 113.67C252.965 113.603 252.523 113.509 252.073 113.387C251.495 113.23 250.904 113.027 250.3 112.775C249.611 112.488 248.908 112.139 248.193 111.727C246.427 110.707 244.734 109.38 243.163 107.831C242.599 107.274 242.049 106.689 241.519 106.079C241.1 105.598 240.692 105.101 240.297 104.591C239.953 104.148 239.619 103.695 239.295 103.233C238.996 102.806 238.705 102.372 238.424 101.932C238.156 101.513 237.897 101.088 237.645 100.658C237.402 100.24 237.166 99.8172 236.939 99.3903C236.714 98.9672 236.498 98.5399 236.29 98.1095C236.082 97.677 235.882 97.241 235.692 96.8026C235.498 96.3547 235.312 95.904 235.139 95.4516C234.957 94.9796 234.788 94.5051 234.629 94.0303C234.46 93.5191 234.303 93.0073 234.161 92.4954C234.001 91.9185 233.859 91.3419 233.738 90.7671C233.588 90.0668 233.468 89.3693 233.379 88.678C233.249 87.6805 233.183 86.6945 233.186 85.7302C233.199 80.9825 234.875 77.6414 237.579 76.0704Z" fill="url(#paint4_linear)"/>
<path d="M273.464 107.642L273.47 105.411L267.267 99.5647C267.241 99.4314 267.213 99.2982 267.185 99.1647C267.026 98.4262 266.844 97.6853 266.638 96.9445C266.452 96.2766 266.248 95.6085 266.025 94.9417C265.815 94.3117 265.589 93.6834 265.349 93.0575C265.338 93.0317 265.328 93.0058 265.318 92.9796L268.338 88.0703L263.927 80.4314L258.145 80.5422C257.78 80.0874 257.408 79.6412 257.028 79.2049C256.341 78.4136 255.631 77.6539 254.9 76.9315C254.407 76.4445 253.905 75.9739 253.394 75.5218L251.452 67.2745L249.365 66.0697L243.214 69.6447C242.632 69.4877 242.06 69.3674 241.501 69.2818C241 69.2052 240.509 69.1566 240.03 69.136C239.58 69.1161 239.139 69.1206 238.709 69.1475C238.623 69.1535 238.536 69.1594 238.45 69.1675L232.689 62.3964L228.251 64.926L237.814 59.3688L242.253 56.8389L247.109 62.5488L254.757 58.1049L261.015 61.7174L262.956 69.965C263.467 70.4167 263.969 70.8873 264.462 71.3747C265.193 72.0971 265.903 72.8568 266.591 73.6477C266.971 74.0841 267.343 74.5302 267.708 74.9854L273.49 74.8739L277.901 82.5131L274.881 87.4221C274.891 87.4479 274.901 87.4745 274.912 87.5007C275.152 88.1269 275.378 88.7545 275.587 89.3846C275.81 90.0513 276.015 90.7192 276.2 91.3873C276.407 92.1285 276.589 92.8694 276.747 93.6079C276.775 93.7411 276.803 93.8746 276.83 94.0079L283.033 99.8545L283.012 107.041L275.339 111.5L277.798 118.408L268.236 123.965L265.243 115.561C266.093 114.369 266.767 112.936 267.22 111.271L273.464 107.642Z" fill="url(#paint5_linear)"/>
<path d="M232.599 70.7363L238.811 72.0576L229.248 77.6151L223.037 76.2935L232.599 70.7363Z" fill="url(#paint6_linear)"/>
<path d="M223.037 76.2933L229.249 77.615C229.706 75.9437 230.375 74.5004 231.23 73.2983L228.251 64.9266L232.689 62.397L238.45 69.1681C239.928 69.0404 241.528 69.1901 243.214 69.6453L245.195 63.6623L251.452 67.2751L253.394 75.5224C255.079 77.0146 256.672 78.7069 258.145 80.5428L263.927 80.432L268.338 88.0709L265.318 92.9802C266.162 95.1626 266.826 97.3762 267.267 99.5649L273.47 105.412L273.45 112.599L267.22 111.271C266.767 112.936 266.093 114.37 265.243 115.562L268.237 123.965L263.797 126.495L257.996 119.676C256.534 119.802 254.952 119.65 253.284 119.201L251.288 125.228L245.03 121.615L243.076 113.308C241.411 111.832 239.836 110.161 238.377 108.35L232.559 108.461L228.148 100.822L231.175 95.8923C230.335 93.7203 229.674 91.5208 229.23 89.3373L223.017 83.4808L223.037 76.2933ZM248.193 111.727C256.508 116.528 263.274 112.673 263.301 103.117C263.328 93.5609 256.606 81.9197 248.29 77.1188C239.974 72.3176 233.213 76.1745 233.186 85.7304C233.159 95.286 239.877 106.925 248.193 111.727Z" fill="url(#paint7_linear)"/>
<path d="M297.892 141.604L297.03 144.206L292.9 146.606L293.762 144.004L297.892 141.604Z" fill="url(#paint8_linear)"/>
<path d="M286.98 125.376L291.11 122.977C289.943 123.655 289.219 125.098 289.213 127.149C289.212 127.565 289.24 127.991 289.296 128.422C289.334 128.72 289.387 129.022 289.45 129.324C289.503 129.572 289.564 129.821 289.634 130.07C289.695 130.291 289.763 130.513 289.836 130.733C289.904 130.938 289.978 131.143 290.056 131.347C290.131 131.543 290.21 131.737 290.295 131.93C290.377 132.12 290.463 132.308 290.553 132.495C290.643 132.681 290.736 132.865 290.833 133.048C290.931 133.233 291.033 133.415 291.138 133.596C291.248 133.781 291.359 133.965 291.475 134.146C291.597 134.336 291.722 134.524 291.85 134.708C291.99 134.907 292.135 135.103 292.284 135.295C292.454 135.515 292.63 135.729 292.811 135.937C293.04 136.2 293.278 136.453 293.521 136.693C294.2 137.363 294.931 137.936 295.694 138.376C296.002 138.555 296.306 138.705 296.604 138.829C296.864 138.937 297.119 139.025 297.369 139.093C297.564 139.146 297.754 139.186 297.942 139.215C298.107 139.24 298.268 139.257 298.426 139.264C298.573 139.27 298.717 139.27 298.856 139.26C298.991 139.252 299.122 139.236 299.25 139.214C299.375 139.192 299.497 139.164 299.615 139.13C299.733 139.096 299.848 139.056 299.958 139.009C300.071 138.962 300.18 138.909 300.285 138.85C300.298 138.843 300.309 138.836 300.321 138.829L296.191 141.229C296.179 141.236 296.168 141.243 296.155 141.25C296.05 141.309 295.941 141.362 295.828 141.409C295.718 141.456 295.603 141.496 295.485 141.53C295.366 141.565 295.245 141.593 295.12 141.614C294.992 141.636 294.861 141.652 294.727 141.66C294.587 141.669 294.443 141.67 294.297 141.664C294.139 141.657 293.977 141.641 293.811 141.615C293.625 141.586 293.434 141.546 293.239 141.493C292.99 141.425 292.735 141.337 292.474 141.229C292.177 141.105 291.872 140.955 291.564 140.776C290.801 140.336 290.07 139.763 289.391 139.094C289.148 138.853 288.911 138.6 288.682 138.337C288.5 138.13 288.325 137.915 288.154 137.695C288.005 137.503 287.861 137.308 287.72 137.108C287.592 136.924 287.466 136.736 287.345 136.546C287.229 136.365 287.117 136.182 287.009 135.996C286.903 135.816 286.802 135.633 286.703 135.448C286.607 135.266 286.513 135.081 286.423 134.895C286.333 134.709 286.247 134.52 286.164 134.331C286.081 134.137 286.001 133.943 285.926 133.747C285.848 133.543 285.774 133.338 285.706 133.133C285.633 132.913 285.565 132.692 285.503 132.47C285.435 132.221 285.373 131.972 285.321 131.724C285.256 131.421 285.204 131.12 285.166 130.821C285.11 130.391 285.082 129.965 285.083 129.548C285.089 127.498 285.813 126.055 286.98 125.376Z" fill="url(#paint9_linear)"/>
<path d="M302.478 139.012L302.481 138.048L299.802 135.524C299.79 135.466 299.779 135.408 299.766 135.351C299.697 135.032 299.619 134.712 299.53 134.392C299.45 134.103 299.362 133.815 299.265 133.527C299.174 133.255 299.077 132.983 298.973 132.713C298.969 132.702 298.964 132.691 298.96 132.68L300.264 130.559L298.359 127.26L295.862 127.308C295.705 127.112 295.543 126.919 295.379 126.731C295.083 126.389 294.776 126.061 294.46 125.749C294.247 125.539 294.031 125.336 293.81 125.14L292.971 121.579L292.07 121.058L289.414 122.602C289.162 122.535 288.916 122.482 288.673 122.445C288.458 122.413 288.245 122.392 288.038 122.382C287.844 122.374 287.654 122.375 287.468 122.387C287.43 122.39 287.394 122.393 287.356 122.396L284.869 119.472L282.951 120.564L287.081 118.164L288.999 117.072L291.096 119.538L294.399 117.618L297.101 119.179L297.94 122.74C298.16 122.936 298.378 123.139 298.591 123.349C298.906 123.661 299.212 123.99 299.509 124.331C299.674 124.519 299.834 124.712 299.992 124.909L302.489 124.86L304.394 128.16L303.09 130.28C303.095 130.291 303.099 130.302 303.103 130.314C303.207 130.584 303.304 130.855 303.396 131.127C303.492 131.415 303.58 131.703 303.66 131.992C303.749 132.312 303.828 132.632 303.897 132.951C303.909 133.009 303.921 133.066 303.932 133.124L306.611 135.648L306.602 138.752L303.289 140.678L304.35 143.661L300.22 146.061L298.929 142.432C299.296 141.917 299.587 141.298 299.782 140.579L302.478 139.012Z" fill="url(#paint10_linear)"/>
<path d="M284.829 123.073L287.512 123.643L283.382 126.044L280.699 125.473L284.829 123.073Z" fill="url(#paint11_linear)"/>
<path d="M280.699 125.473L283.382 126.044C283.579 125.322 283.869 124.699 284.238 124.18L282.95 120.564L284.868 119.471L287.355 122.396C287.994 122.341 288.686 122.406 289.413 122.602L290.268 120.018L292.971 121.578L293.81 125.14C294.537 125.784 295.226 126.515 295.861 127.308L298.358 127.26L300.264 130.559L298.96 132.679C299.325 133.622 299.61 134.578 299.801 135.523L302.481 138.048L302.471 141.152L299.781 140.579C299.586 141.298 299.295 141.917 298.928 142.432L300.22 146.061L298.303 147.153L295.797 144.209C295.166 144.263 294.483 144.197 293.763 144.004L292.901 146.606L290.199 145.046L289.354 141.458C288.635 140.821 287.956 140.099 287.324 139.317L284.812 139.364L282.907 136.066L284.214 133.937C283.851 132.999 283.567 132.049 283.374 131.106L280.69 128.576L280.699 125.473ZM291.564 140.776C295.155 142.85 298.077 141.185 298.088 137.058C298.1 132.931 295.197 127.903 291.606 125.83C288.015 123.756 285.094 125.422 285.083 129.549C285.071 133.676 287.972 138.702 291.564 140.776Z" fill="url(#paint12_linear)"/>
<path d="M48.8447 93.0701L50.0947 96.8444L56.0826 100.325L54.8337 96.5507L48.8447 93.0701Z" fill="url(#paint13_linear)"/>
<path d="M64.6687 69.5391L58.6801 66.0588C60.3731 67.0427 61.423 69.1353 61.4318 72.109C61.4339 72.7128 61.3926 73.3303 61.3115 73.9547C61.2555 74.3876 61.1804 74.8246 61.0863 75.2631C61.0104 75.6232 60.9213 75.984 60.8209 76.3455C60.7321 76.6662 60.6339 76.9868 60.5279 77.307C60.4283 77.6042 60.3224 77.9014 60.2084 78.1972C60.0989 78.4808 59.9843 78.7626 59.8626 79.043C59.743 79.3178 59.6185 79.5909 59.4874 79.8615C59.3577 80.1311 59.222 80.3985 59.0808 80.6632C58.9392 80.9307 58.7913 81.1957 58.6385 81.4576C58.4815 81.7272 58.3189 81.9929 58.1511 82.2551C57.9749 82.531 57.7931 82.8027 57.606 83.0701C57.4022 83.3596 57.1927 83.6435 56.9777 83.9208C56.7305 84.2404 56.4749 84.5512 56.2131 84.8526C55.8802 85.2344 55.5365 85.6012 55.1834 85.9498C54.1992 86.92 53.1383 87.7511 52.0331 88.3899C51.5853 88.6479 51.1444 88.8664 50.7129 89.0465C50.3356 89.2035 49.965 89.3308 49.6032 89.4294C49.321 89.5063 49.0441 89.565 48.7728 89.6066C48.5347 89.643 48.3001 89.6668 48.0703 89.6769C47.8581 89.6867 47.6494 89.6846 47.4459 89.672C47.2515 89.6594 47.0616 89.637 46.8767 89.6056C46.6949 89.5741 46.5187 89.5328 46.3466 89.4835C46.1757 89.4335 46.0099 89.3752 45.8484 89.308C45.6851 89.2395 45.5271 89.1622 45.3746 89.0762C45.3572 89.0668 45.3397 89.0566 45.3232 89.0468L51.3122 92.5268C51.3286 92.5369 51.3461 92.5471 51.3632 92.5565C51.5157 92.6425 51.6737 92.7194 51.837 92.7876C51.9982 92.8551 52.1643 92.9142 52.3352 92.9635C52.5073 93.0138 52.6835 93.0541 52.8653 93.0859C53.0502 93.1177 53.2404 93.1397 53.4345 93.1523C53.6383 93.1649 53.8467 93.167 54.0593 93.1572C54.289 93.1471 54.5236 93.1233 54.7617 93.0866C55.033 93.0446 55.3099 92.9859 55.5921 92.9096C55.954 92.811 56.3246 92.6838 56.7019 92.5264C57.133 92.3471 57.5742 92.1282 58.0221 91.8698C59.1276 91.2317 60.1881 90.4006 61.1723 89.4304C61.5258 89.0818 61.8692 88.715 62.2024 88.3329C62.4639 88.0318 62.7195 87.721 62.9667 87.4015C63.182 87.1242 63.3915 86.8399 63.5939 86.5508C63.782 86.2833 63.9638 86.0116 64.1404 85.7358C64.3082 85.4735 64.4705 85.2078 64.6278 84.9386C64.7806 84.6764 64.9281 84.4117 65.0697 84.1442C65.2106 83.8792 65.3467 83.6114 65.4764 83.3422C65.6075 83.0712 65.732 82.7981 65.8515 82.5236C65.9732 82.2425 66.0879 81.9604 66.197 81.6772C66.311 81.3817 66.4172 81.0845 66.5169 80.7873C66.6232 80.4674 66.7211 80.1465 66.8099 79.8258C66.9106 79.4643 66.9994 79.1035 67.0756 78.7434C67.1683 78.3046 67.2434 77.8679 67.3008 77.435C67.3819 76.8099 67.4221 76.1928 67.4211 75.5886C67.412 72.6156 66.3617 70.523 64.6687 69.5391Z" fill="url(#paint14_linear)"/>
<path d="M42.1946 89.3118L42.1907 87.9143L46.0756 84.2526C46.092 84.1694 46.1102 84.0858 46.1273 84.0022C46.2259 83.54 46.3406 83.0757 46.47 82.6121C46.586 82.1936 46.7144 81.775 46.8535 81.3576C46.9846 80.9628 47.1266 80.5695 47.2769 80.1779C47.2836 80.1615 47.2895 80.145 47.2965 80.1286L45.4053 77.0546L48.1668 72.2701L51.789 72.3397C52.0166 72.0551 52.2505 71.7754 52.4879 71.5023C52.9183 71.0065 53.3631 70.5307 53.8208 70.0786C54.1295 69.773 54.4442 69.4786 54.7637 69.1958L55.9801 64.0309L57.2871 63.276L61.1401 65.5151C61.504 65.4165 61.8617 65.3413 62.2121 65.2882C62.5257 65.2403 62.833 65.2099 63.1341 65.1969C63.4159 65.1844 63.691 65.1868 63.9613 65.2043C64.0155 65.2074 64.0693 65.2116 64.1235 65.2162L67.7311 60.9758L70.5107 62.56L64.5221 59.0797L61.7425 57.4951L58.7003 61.0712L53.9113 58.2884L49.9919 60.5506L48.7755 65.7158C48.4559 65.999 48.1416 66.2938 47.8329 66.5986C47.3752 67.0507 46.9301 67.5266 46.4997 68.0224C46.2623 68.2954 46.0298 68.5751 45.8008 68.8598L42.1785 68.7902L39.4171 73.5746L41.3079 76.649C41.3009 76.6651 41.2953 76.6815 41.2887 76.6976C41.138 77.0895 40.9971 77.4836 40.8649 77.8776C40.7258 78.2951 40.5974 78.7136 40.4814 79.1318C40.352 79.5961 40.2373 80.0597 40.1387 80.5223C40.1212 80.6058 40.1041 80.6894 40.087 80.7726L36.2021 84.4344L36.2147 88.9349L41.0212 91.7275L39.4807 96.0539L45.4697 99.5339L47.343 94.2707C46.8102 93.525 46.3885 92.6267 46.1053 91.5838L42.1946 89.3118Z" fill="url(#paint15_linear)"/>
<path d="M67.7873 66.1985L63.8965 67.0261L69.8854 70.506L73.7758 69.6788L67.7873 66.1985Z" fill="url(#paint16_linear)"/>
<path d="M73.7879 74.1795L69.8975 77.8475C69.6188 79.2146 69.2056 80.5918 68.6787 81.953L70.574 85.0396L67.8119 89.8237L64.1694 89.7537C63.2554 90.8887 62.2687 91.9351 61.2258 92.8592L60.002 98.0618L56.0826 100.325L54.8337 96.5507C53.7883 96.8315 52.7981 96.9266 51.882 96.8479L48.2493 101.118L45.4693 99.5342L47.3427 94.2711C46.8098 93.5253 46.3882 92.6271 46.105 91.5841L42.203 92.4155L42.1904 87.9146L46.0753 84.2529C46.3522 82.8819 46.7672 81.4956 47.2962 80.1289L45.405 77.0549L48.1664 72.2704L51.7887 72.34C52.711 71.1904 53.7075 70.1303 54.7631 69.1961L55.9795 64.0312L59.8982 61.7684L61.1394 65.5154C62.195 65.2308 63.197 65.1368 64.1225 65.2165L67.7301 60.9761L70.5097 62.5603L68.644 67.8035C69.1786 68.5562 69.5986 69.46 69.8846 70.5065L73.775 69.6793L73.7879 74.1795ZM58.021 91.8694C63.2292 88.8629 67.4364 81.5736 67.4196 75.5892C67.4025 69.6041 63.168 67.1888 57.9602 70.1957C52.7519 73.2029 48.542 80.4932 48.5594 86.4776C48.5769 92.462 52.8128 94.8766 58.021 91.8694Z" fill="url(#paint17_linear)"/>
<path d="M73.5973 186.002L65.8713 181.512L60.2852 171.785L68.0111 176.276L73.5973 186.002Z" fill="url(#paint18_linear)"/>
<path d="M102.158 101.808C105.035 100.147 107.366 101.483 107.375 104.78L107.496 147.493C107.506 150.799 105.19 154.81 102.313 156.471L79.1118 169.867L73.5977 186.003L68.0111 176.276L44.8022 189.676C41.9323 191.331 39.595 190.007 39.5852 186.701L39.4639 143.989C39.4552 140.692 41.7781 136.668 44.648 135.011L102.158 101.808Z" fill="url(#paint19_linear)"/>
<path d="M103.383 101.274C103.461 101.25 103.54 101.227 103.616 101.208C103.687 101.191 103.757 101.176 103.827 101.164C103.921 101.146 104.014 101.131 104.105 101.121C104.157 101.115 104.209 101.108 104.259 101.105C104.373 101.097 104.486 101.095 104.595 101.098C104.62 101.1 104.645 101.098 104.669 101.099C104.8 101.107 104.929 101.124 105.053 101.148C105.084 101.154 105.114 101.162 105.145 101.169C105.243 101.191 105.338 101.218 105.431 101.251C105.46 101.261 105.489 101.271 105.518 101.282C105.636 101.328 105.751 101.381 105.859 101.444L105.855 101.442C105.857 101.443 105.858 101.443 105.859 101.444L98.1334 96.9542C98.1236 96.9483 98.1149 96.9431 98.1051 96.9378C98.0201 96.8906 97.9334 96.8479 97.8435 96.8105C97.8271 96.8035 97.8096 96.799 97.7921 96.792C97.7631 96.7808 97.7338 96.7714 97.7044 96.7612C97.6593 96.7452 97.6156 96.7266 97.5694 96.7133C97.5205 96.6994 97.4691 96.6903 97.4191 96.6784C97.388 96.6714 97.3583 96.6633 97.3271 96.657C97.311 96.6539 97.2946 96.649 97.2782 96.6459C97.1757 96.628 97.0705 96.6161 96.9646 96.6091C96.9569 96.6088 96.9502 96.6091 96.9432 96.6088C96.9191 96.6074 96.8939 96.6091 96.8691 96.6084C96.7869 96.606 96.7051 96.6025 96.6202 96.6067C96.5922 96.6081 96.5621 96.6137 96.5334 96.6154C96.4831 96.6186 96.431 96.6249 96.3793 96.6308C96.3296 96.6368 96.2824 96.6382 96.2335 96.6452C96.1898 96.6522 96.1443 96.6654 96.1013 96.6738C96.0314 96.6868 95.9621 96.7014 95.8908 96.7186C95.8524 96.7277 95.8146 96.7326 95.7758 96.7431C95.7373 96.7535 95.6964 96.7721 95.6583 96.7836C95.5384 96.82 95.416 96.8619 95.2933 96.9095C95.2489 96.9263 95.2073 96.9361 95.1629 96.9542C95.1387 96.9644 95.1129 96.9808 95.0877 96.9913C94.8734 97.0846 94.6552 97.1888 94.4332 97.3172L36.923 130.521C36.5883 130.714 36.2628 130.946 35.9454 131.199C35.8429 131.281 35.7468 131.374 35.6461 131.462C35.4929 131.595 35.3352 131.719 35.1874 131.865C35.1199 131.932 35.0562 132.007 34.9898 132.076C34.9318 132.137 34.8741 132.197 34.8171 132.26C34.7524 132.331 34.6842 132.397 34.6202 132.47C34.4751 132.637 34.3342 132.808 34.1975 132.984C34.1489 133.046 34.1045 133.112 34.0577 133.174C34.0335 133.207 34.0094 133.239 33.9863 133.272C33.9409 133.333 33.8944 133.392 33.851 133.455C33.7475 133.602 33.6475 133.752 33.55 133.905C33.4573 134.049 33.3675 134.197 33.2804 134.345C33.2731 134.358 33.2661 134.371 33.2591 134.383C33.2525 134.395 33.2469 134.405 33.2399 134.417C33.1703 134.538 33.1018 134.66 33.0364 134.784C32.9581 134.93 32.8839 135.078 32.8112 135.226C32.7465 135.361 32.6857 135.496 32.6259 135.632C32.6221 135.64 32.6193 135.647 32.6165 135.654C32.6126 135.662 32.6091 135.67 32.6049 135.679C32.5374 135.834 32.4738 135.99 32.4137 136.146C32.3511 136.309 32.2923 136.472 32.2375 136.637C32.2105 136.718 32.1882 136.8 32.163 136.881C32.1525 136.917 32.141 136.952 32.1305 136.988C32.113 137.047 32.0927 137.107 32.0763 137.167C32.0214 137.365 31.9724 137.565 31.9298 137.763C31.9046 137.883 31.8892 138.002 31.8682 138.121C31.8577 138.184 31.8455 138.247 31.8361 138.31C31.8277 138.367 31.814 138.426 31.8063 138.484C31.7619 138.828 31.7392 139.167 31.7403 139.5L31.8612 182.212C31.8658 183.854 32.4444 185.006 33.3776 185.549L41.1039 190.039C40.1707 189.496 39.5924 188.344 39.5875 186.702L39.4662 143.99C39.4648 143.602 39.5019 143.203 39.5624 142.8C39.5718 142.737 39.5837 142.675 39.5952 142.612C39.6599 142.236 39.7449 141.857 39.8568 141.478C39.8673 141.442 39.8788 141.407 39.8893 141.371C40.0159 140.96 40.1655 140.549 40.3421 140.145C40.3459 140.137 40.3498 140.129 40.3526 140.121C40.534 139.708 40.7407 139.301 40.9672 138.907C40.9732 138.895 40.9788 138.885 40.9854 138.873C41.2078 138.49 41.4525 138.118 41.7126 137.762C41.7357 137.73 41.7598 137.697 41.784 137.665C42.0235 137.343 42.2794 137.039 42.5437 136.75C42.6007 136.688 42.6584 136.627 42.7165 136.566C42.928 136.347 43.149 136.147 43.3727 135.952C43.4731 135.865 43.5696 135.771 43.6717 135.689C43.9891 135.436 44.3147 135.205 44.6496 135.011L102.159 101.808C102.381 101.679 102.6 101.575 102.814 101.482C102.883 101.452 102.951 101.426 103.018 101.4C103.141 101.352 103.263 101.309 103.383 101.274Z" fill="url(#paint20_linear)"/>
<path d="M85.0257 139.761C85.9302 139.239 86.6694 139.661 86.6722 140.71C86.675 141.74 85.9407 143.012 85.0362 143.534L61.7178 156.997C60.8133 157.52 60.0731 157.099 60.0703 156.068C60.0675 155.02 60.8032 153.747 61.7073 153.225L85.0257 139.761Z" fill="url(#paint21_linear)"/>
<path d="M93.2927 123.266C94.1973 122.743 94.9374 123.165 94.9402 124.205C94.943 125.244 94.2074 126.516 93.3029 127.039L54.6493 149.356C53.7452 149.878 52.9969 149.462 52.9941 148.422C52.9914 147.383 53.7343 146.106 54.6385 145.583L93.2927 123.266Z" fill="url(#paint22_linear)"/>
<path d="M93.3573 145.95C94.2618 145.428 95.0006 145.85 95.0037 146.899C95.0065 147.928 94.2719 149.201 93.3674 149.724L54.7139 172.041C53.8086 172.563 53.0604 172.146 53.0576 171.116C53.0548 170.068 53.7978 168.79 54.7023 168.268L93.3573 145.95Z" fill="url(#paint23_linear)"/>
<path d="M235.102 178.278C235.092 178.475 235.08 178.67 235.061 178.866C235.043 179.037 235.02 179.207 234.996 179.378C234.969 179.573 234.94 179.767 234.904 179.961C234.872 180.133 234.834 180.305 234.796 180.477C234.753 180.667 234.708 180.855 234.657 181.044C234.611 181.217 234.56 181.389 234.507 181.56C234.449 181.747 234.387 181.935 234.32 182.123C234.261 182.291 234.196 182.459 234.13 182.627C234.051 182.824 233.969 183.019 233.881 183.216C233.808 183.381 233.732 183.544 233.652 183.709C233.556 183.905 233.455 184.099 233.351 184.291C233.266 184.45 233.179 184.608 233.087 184.765C232.953 184.996 232.808 185.226 232.661 185.454C232.57 185.594 232.484 185.734 232.389 185.872C232.216 186.125 232.028 186.377 231.838 186.627C231.749 186.744 231.668 186.862 231.576 186.977C231.533 187.032 231.486 187.086 231.441 187.141C231.239 187.39 231.027 187.638 230.808 187.883C230.748 187.951 230.689 188.019 230.627 188.086C230.366 188.371 230.097 188.653 229.814 188.932C229.763 188.983 229.709 189.032 229.657 189.083C229.442 189.291 229.218 189.497 228.99 189.702C228.808 189.867 228.619 190.03 228.429 190.193C228.253 190.342 228.074 190.491 227.892 190.639C227.693 190.8 227.488 190.959 227.281 191.117C227.091 191.263 226.899 191.407 226.703 191.551C226.489 191.706 226.267 191.861 226.044 192.014C225.839 192.155 225.634 192.295 225.423 192.434C225.192 192.585 224.955 192.733 224.717 192.882C224.418 193.066 224.124 193.253 223.814 193.433C223.231 193.772 222.63 194.093 222.02 194.405C221.846 194.495 221.669 194.582 221.492 194.669C221.016 194.904 220.533 195.131 220.044 195.35C219.88 195.424 219.718 195.5 219.553 195.572C218.916 195.847 218.269 196.113 217.61 196.364C217.493 196.408 217.374 196.449 217.257 196.491C216.7 196.699 216.136 196.897 215.565 197.086C215.332 197.163 215.098 197.239 214.864 197.313C214.548 197.412 214.231 197.508 213.911 197.602C213.644 197.681 213.376 197.759 213.107 197.833C212.784 197.922 212.46 198.008 212.135 198.093C211.864 198.163 211.591 198.232 211.317 198.298C210.988 198.378 210.655 198.454 210.322 198.529C210.048 198.589 209.775 198.651 209.499 198.708C209.16 198.78 208.82 198.844 208.478 198.91C208.217 198.959 207.958 199.009 207.695 199.055C206.966 199.185 206.23 199.304 205.491 199.408C205.386 199.422 205.28 199.434 205.175 199.448C204.532 199.534 203.885 199.611 203.235 199.679C202.988 199.705 202.741 199.729 202.493 199.751C202.076 199.79 201.659 199.825 201.24 199.856C200.978 199.875 200.715 199.894 200.452 199.91C200.015 199.937 199.576 199.958 199.139 199.976C198.893 199.987 198.649 199.999 198.403 200.007C198.024 200.018 197.644 200.024 197.265 200.029C196.999 200.033 196.734 200.04 196.468 200.04C196.061 200.04 195.656 200.033 195.25 200.028C195.01 200.024 194.771 200.024 194.533 200.017C194.16 200.008 193.788 199.99 193.415 199.974C193.156 199.963 192.897 199.955 192.638 199.942C192.234 199.92 191.83 199.889 191.427 199.86C191.202 199.844 190.976 199.831 190.751 199.813C190.258 199.773 189.766 199.721 189.275 199.67C189.142 199.655 189.009 199.646 188.875 199.631C188.253 199.561 187.632 199.483 187.016 199.395C186.907 199.38 186.801 199.36 186.693 199.345C186.171 199.268 185.65 199.188 185.133 199.098C184.913 199.061 184.694 199.016 184.475 198.975C184.073 198.901 183.67 198.828 183.272 198.746C183.063 198.704 182.858 198.655 182.651 198.611C182.211 198.516 181.773 198.419 181.339 198.314C181.096 198.257 180.857 198.194 180.617 198.133C180.22 198.033 179.826 197.93 179.436 197.82C179.213 197.758 178.992 197.695 178.771 197.63C178.15 197.449 177.535 197.259 176.929 197.058C176.821 197.022 176.711 196.989 176.605 196.953C175.907 196.717 175.221 196.464 174.545 196.2C174.27 196.093 173.998 195.982 173.726 195.871C173.51 195.781 173.293 195.694 173.08 195.603C172.775 195.472 172.475 195.334 172.176 195.198C171.978 195.108 171.778 195.02 171.583 194.928C171.255 194.773 170.934 194.609 170.613 194.447C170.453 194.366 170.29 194.288 170.132 194.205C169.656 193.956 169.188 193.699 168.728 193.435C161.05 189.001 157.215 183.182 157.231 177.372L157.161 189.068C157.145 194.879 160.979 200.698 168.658 205.132C169.117 205.396 169.586 205.652 170.061 205.902C170.221 205.985 170.386 206.063 170.547 206.145C170.867 206.307 171.186 206.469 171.512 206.623C171.708 206.717 171.909 206.805 172.107 206.894C172.406 207.031 172.705 207.168 173.01 207.299C173.223 207.392 173.442 207.478 173.658 207.568C173.864 207.653 174.068 207.742 174.277 207.825C174.342 207.85 174.41 207.873 174.475 207.897C175.152 208.161 175.837 208.414 176.535 208.65C176.642 208.686 176.751 208.718 176.858 208.754C177.465 208.955 178.08 209.145 178.701 209.326C178.804 209.357 178.904 209.392 179.007 209.421C179.126 209.455 179.247 209.484 179.366 209.516C179.757 209.625 180.151 209.728 180.547 209.83C180.788 209.89 181.027 209.952 181.269 210.011C181.703 210.116 182.141 210.212 182.582 210.308C182.745 210.342 182.905 210.384 183.069 210.417C183.113 210.426 183.158 210.434 183.203 210.443C183.602 210.524 184.004 210.597 184.406 210.672C184.626 210.712 184.843 210.756 185.063 210.795C185.58 210.884 186.102 210.963 186.625 211.041C186.726 211.055 186.828 211.074 186.93 211.089C186.936 211.09 186.941 211.09 186.947 211.091C187.564 211.178 188.184 211.257 188.807 211.327C188.938 211.341 189.072 211.352 189.204 211.365C189.696 211.417 190.188 211.467 190.682 211.509C190.693 211.51 190.704 211.511 190.717 211.512C190.93 211.529 191.143 211.54 191.357 211.555C191.761 211.585 192.164 211.617 192.569 211.637C192.827 211.652 193.087 211.659 193.347 211.67C193.718 211.685 194.091 211.704 194.463 211.713C194.493 211.715 194.523 211.717 194.553 211.717C194.763 211.723 194.971 211.72 195.18 211.724C195.587 211.73 195.992 211.737 196.398 211.735C196.665 211.735 196.93 211.729 197.197 211.726C197.576 211.719 197.955 211.715 198.334 211.704C198.403 211.702 198.472 211.702 198.542 211.699C198.719 211.692 198.893 211.68 199.07 211.673C199.508 211.654 199.946 211.634 200.383 211.607C200.646 211.59 200.909 211.571 201.172 211.552C201.59 211.521 202.007 211.486 202.424 211.448C202.57 211.434 202.717 211.426 202.862 211.411C202.963 211.402 203.065 211.387 203.167 211.375C203.816 211.307 204.462 211.23 205.107 211.144C205.212 211.13 205.317 211.119 205.422 211.104C206.162 211 206.897 210.881 207.627 210.752C207.695 210.74 207.763 210.731 207.831 210.719C208.025 210.684 208.216 210.643 208.409 210.605C208.751 210.541 209.091 210.475 209.43 210.404C209.706 210.347 209.979 210.286 210.253 210.224C210.586 210.15 210.919 210.074 211.25 209.995C211.523 209.928 211.795 209.858 212.066 209.788C212.392 209.705 212.716 209.619 213.038 209.529C213.307 209.454 213.575 209.378 213.842 209.299C214.162 209.205 214.479 209.108 214.795 209.009C214.931 208.965 215.071 208.927 215.207 208.884C215.304 208.852 215.399 208.814 215.497 208.782C216.067 208.593 216.631 208.395 217.189 208.188C217.305 208.144 217.425 208.105 217.541 208.06C218.2 207.809 218.846 207.544 219.485 207.268C219.65 207.196 219.811 207.12 219.975 207.047C220.465 206.827 220.948 206.6 221.423 206.364C221.599 206.277 221.777 206.191 221.952 206.101C222.561 205.788 223.162 205.468 223.745 205.129C223.905 205.036 224.063 204.943 224.22 204.848C224.368 204.76 224.503 204.667 224.647 204.578C224.886 204.429 225.123 204.281 225.354 204.13C225.565 203.992 225.77 203.851 225.975 203.711C226.198 203.556 226.419 203.403 226.635 203.246C226.831 203.104 227.022 202.959 227.212 202.813C227.42 202.655 227.624 202.497 227.823 202.336C228.006 202.188 228.184 202.038 228.359 201.889C228.551 201.725 228.739 201.564 228.921 201.398C228.996 201.331 229.078 201.265 229.152 201.197C229.301 201.059 229.444 200.919 229.588 200.779C229.64 200.729 229.694 200.679 229.745 200.629C230.028 200.349 230.298 200.068 230.558 199.783C230.619 199.715 230.679 199.648 230.739 199.58C230.959 199.333 231.17 199.086 231.373 198.836C231.417 198.782 231.463 198.729 231.505 198.674C231.526 198.65 231.548 198.625 231.567 198.6C231.64 198.508 231.701 198.413 231.77 198.321C231.96 198.072 232.147 197.822 232.319 197.569C232.414 197.43 232.501 197.29 232.591 197.151C232.74 196.922 232.884 196.692 233.018 196.46C233.055 196.398 233.099 196.335 233.134 196.273C233.188 196.178 233.23 196.083 233.281 195.989C233.386 195.795 233.487 195.601 233.582 195.405C233.662 195.241 233.739 195.076 233.813 194.911C233.9 194.715 233.983 194.519 234.061 194.322C234.096 194.234 234.139 194.146 234.172 194.057C234.201 193.978 234.223 193.898 234.251 193.818C234.318 193.631 234.379 193.443 234.438 193.255C234.49 193.083 234.543 192.912 234.589 192.74C234.639 192.551 234.685 192.361 234.727 192.172C234.749 192.07 234.781 191.968 234.801 191.864C234.816 191.796 234.822 191.726 234.835 191.656C234.87 191.462 234.899 191.268 234.926 191.074C234.95 190.903 234.974 190.732 234.991 190.561C235.011 190.365 235.022 190.169 235.033 189.973C235.04 189.859 235.055 189.745 235.058 189.63C235.061 189.516 235.062 189.402 235.062 189.287L235.133 177.592C235.132 177.821 235.114 178.05 235.102 178.278Z" fill="url(#paint24_linear)"/>
<path d="M223.635 161.528C238.896 170.34 238.973 184.625 223.815 193.433C208.652 202.246 183.991 202.248 168.729 193.437C153.467 184.625 153.39 170.34 168.553 161.529C183.712 152.719 208.372 152.717 223.635 161.528Z" fill="url(#paint25_linear)"/>
<path d="M214.215 157.532L219.24 169.07L217.588 170.023C216.805 170.475 216.075 170.434 215.656 169.914L211.42 164.658L207.151 167.123L205.365 162.641L214.215 157.532Z" fill="url(#paint26_linear)"/>
<path d="M215.956 170.176L215.942 170.168C215.93 170.161 215.919 170.152 215.906 170.142C215.922 170.154 215.938 170.164 215.956 170.176Z" fill="url(#paint27_linear)"/>
<path d="M207.151 167.122L205.853 166.367L204.066 161.886L205.365 162.641L207.151 167.122Z" fill="#081E2D"/>
<path d="M215.943 170.169L214.667 169.426C214.61 169.394 214.555 169.355 214.504 169.31C214.451 169.265 214.401 169.214 214.356 169.159L210.95 164.93L211.42 164.658L215.657 169.913C215.689 169.954 215.722 169.991 215.758 170.024C215.781 170.046 215.806 170.069 215.831 170.087C215.855 170.107 215.88 170.126 215.906 170.142C215.919 170.15 215.93 170.158 215.943 170.169Z" fill="url(#paint28_linear)"/>
<path d="M212.916 156.777L204.066 161.886L205.365 162.641L214.215 157.532L212.916 156.777Z" fill="url(#paint29_linear)"/>
<path d="M175.655 156.733L170.631 168.27L172.282 169.224C173.065 169.676 173.795 169.635 174.214 169.114L178.45 163.859L182.719 166.323L184.504 161.843L175.655 156.733Z" fill="url(#paint30_linear)"/>
<path d="M173.913 169.377L173.927 169.369C173.939 169.361 173.951 169.353 173.963 169.343C173.947 169.355 173.931 169.365 173.913 169.377Z" fill="url(#paint31_linear)"/>
<path d="M182.719 166.323L184.018 165.568L185.803 161.087L184.505 161.842L182.719 166.323Z" fill="#081E2D"/>
<path d="M173.928 169.369L175.204 168.627C175.261 168.594 175.315 168.556 175.367 168.51C175.42 168.465 175.469 168.414 175.514 168.359L178.92 164.13L178.45 163.859L174.213 169.114C174.181 169.155 174.148 169.191 174.111 169.224C174.089 169.247 174.065 169.269 174.04 169.288C174.015 169.308 173.991 169.326 173.964 169.343C173.952 169.351 173.939 169.359 173.928 169.369Z" fill="url(#paint32_linear)"/>
<path d="M176.954 155.978L185.802 161.087L184.504 161.842L175.654 156.733L176.954 155.978Z" fill="url(#paint33_linear)"/>
<path d="M189.562 174.665C188.757 176.084 187.927 177.671 187.126 179.406C191.917 180.711 197.496 180.72 202.284 179.432C201.48 177.687 200.646 176.092 199.838 174.665H189.562V174.665Z" fill="url(#paint34_linear)"/>
<path d="M195.016 98.887C195.016 98.887 162.502 137.174 187.405 175.176H194.893V175.161L194.896 175.176H195.016H195.136L195.139 175.161V175.176H202.628C227.531 137.174 195.016 98.887 195.016 98.887Z" fill="url(#paint35_linear)"/>
<path d="M205.282 115.688C198.8 117.431 191.25 117.419 184.763 115.652C189.511 105.372 195.017 98.8882 195.017 98.8882C195.017 98.8882 200.537 105.387 205.282 115.688Z" fill="url(#paint36_linear)"/>
<path d="M187.406 175.176H192.626C180.089 136.783 195.017 98.8879 195.017 98.8879C195.017 98.8879 162.502 137.175 187.406 175.176Z" fill="url(#paint37_linear)"/>
<path d="M187.406 175.176H192.626C180.089 136.783 195.017 98.8879 195.017 98.8879C195.017 98.8879 162.502 137.175 187.406 175.176Z" fill="url(#paint38_linear)"/>
<path d="M195.015 98.8928C194.934 99.1012 192.265 105.959 190.154 116.69C188.308 116.472 186.498 116.124 184.764 115.651C189.445 105.514 194.866 99.0676 195.015 98.8928Z" fill="url(#paint39_linear)"/>
<path d="M211.065 171.764L216.906 192.202L214.955 191.075C214.029 190.541 213.17 189.498 212.679 188.313L207.723 176.35L203.539 173.954C202.085 173.122 201.13 171.631 200.982 169.962L200.605 165.726L211.065 171.764Z" fill="url(#paint40_linear)"/>
<path d="M213.214 170.515L202.755 164.477L200.606 165.725L211.065 171.764L216.907 192.201L219.057 190.953L213.214 170.515Z" fill="url(#paint41_linear)"/>
<path d="M177.793 171.764L171.952 192.202L173.904 191.075C174.829 190.541 175.689 189.498 176.179 188.313L181.135 176.35L185.319 173.954C186.773 173.122 187.728 171.631 187.877 169.962L188.253 165.726L177.793 171.764Z" fill="url(#paint42_linear)"/>
<path d="M186.104 164.477L175.644 170.515L169.803 190.953L171.952 192.201L177.793 171.764L188.253 165.725L186.104 164.477Z" fill="url(#paint43_linear)"/>
<path d="M205.282 115.688C198.8 117.431 191.25 117.419 184.763 115.652C189.511 105.372 195.017 98.8882 195.017 98.8882C195.017 98.8882 200.537 105.387 205.282 115.688Z" fill="url(#paint44_linear)"/>
<g opacity="0.33">
<path opacity="0.33" d="M195.014 98.8928C194.933 99.1012 192.264 105.959 190.153 116.69C188.307 116.472 186.497 116.124 184.763 115.651C189.444 105.514 194.865 99.0676 195.014 98.8928Z" fill="#2A2C70"/>
</g>
<path d="M189.83 127.821C186.093 125.664 183.053 127.395 183.041 131.689C183.03 135.983 186.048 141.213 189.786 143.371C193.521 145.527 196.56 143.796 196.572 139.501C196.584 135.208 193.565 129.978 189.83 127.821Z" fill="url(#paint45_linear)"/>
<path d="M188.268 127.821C184.531 125.664 181.493 127.395 181.481 131.689C181.468 135.983 184.488 141.213 188.225 143.371C191.961 145.527 194.999 143.796 195.011 139.501C195.024 135.208 192.005 129.978 188.268 127.821Z" fill="url(#paint46_linear)"/>
<path d="M188.232 140.973C185.646 139.48 183.559 135.863 183.567 132.894C183.576 129.925 185.677 128.727 188.262 130.219C190.846 131.71 192.935 135.328 192.926 138.297C192.918 141.267 190.816 142.464 188.232 140.973Z" fill="url(#paint47_linear)"/>
<path d="M184.36 14.4872C187.051 12.9334 189.242 14.1774 189.251 17.2696L189.339 48.3696C189.348 51.4614 187.171 55.2271 184.48 56.7812L134.463 85.6592C131.771 87.2126 129.58 85.9686 129.571 82.8768L129.483 51.7768C129.475 48.6843 131.651 44.919 134.342 43.3649L184.36 14.4872Z" fill="url(#paint48_linear)"/>
<path d="M183.423 11.586C183.415 11.5807 183.404 11.5758 183.396 11.5706C183.317 11.5262 183.236 11.486 183.152 11.451C183.136 11.4447 183.119 11.4405 183.103 11.4342C183.077 11.4237 183.049 11.415 183.021 11.4052C182.978 11.3902 182.937 11.373 182.894 11.3604C182.848 11.3472 182.801 11.3384 182.754 11.3279C182.724 11.3213 182.696 11.3136 182.667 11.3076C182.651 11.3048 182.637 11.3003 182.62 11.2972C182.525 11.2807 182.426 11.2692 182.326 11.2629C182.32 11.2625 182.313 11.2629 182.307 11.2629C182.284 11.2615 182.258 11.2629 182.234 11.2618C182.158 11.2594 182.081 11.2566 182.002 11.2604C181.977 11.2611 181.949 11.266 181.922 11.2681C181.874 11.2716 181.825 11.2772 181.776 11.2832C181.73 11.2884 181.686 11.2895 181.64 11.2965C181.599 11.3031 181.557 11.315 181.517 11.3227C181.451 11.3353 181.385 11.3493 181.318 11.365C181.281 11.3741 181.247 11.3786 181.21 11.3881C181.174 11.3975 181.136 11.4153 181.1 11.4255C180.987 11.4594 180.873 11.4992 180.757 11.5443C180.717 11.5597 180.678 11.5688 180.636 11.586C180.613 11.5957 180.589 11.6111 180.566 11.6213C180.365 11.7083 180.161 11.8055 179.953 11.9258L129.935 40.8038C129.778 40.8944 129.623 40.994 129.471 41.0993C129.421 41.1335 129.371 41.1713 129.322 41.2069C129.22 41.2807 129.118 41.3566 129.017 41.4367C128.96 41.4818 128.905 41.5286 128.849 41.5751C128.757 41.6527 128.665 41.7328 128.574 41.8157C128.519 41.8664 128.464 41.9174 128.409 41.9695C128.375 42.0024 128.34 42.0328 128.306 42.066C128.27 42.1006 128.238 42.1401 128.203 42.1758C128.092 42.2884 127.983 42.4041 127.877 42.5233C127.843 42.5614 127.806 42.5954 127.773 42.6338C127.746 42.6656 127.719 42.6999 127.692 42.7324C127.628 42.8079 127.565 42.8856 127.502 42.9635C127.461 43.0146 127.417 43.0639 127.377 43.116C127.345 43.1579 127.314 43.202 127.282 43.2443C127.237 43.3048 127.192 43.366 127.147 43.4271C127.116 43.4708 127.083 43.5121 127.052 43.5555C127.002 43.6268 126.956 43.7006 126.906 43.7729C126.875 43.8208 126.842 43.868 126.811 43.917C126.798 43.9373 126.783 43.9565 126.771 43.9775C126.684 44.1131 126.6 44.2505 126.519 44.3893C126.514 44.3981 126.509 44.4068 126.504 44.4149C126.489 44.4418 126.474 44.4694 126.459 44.497C126.401 44.5974 126.344 44.6977 126.29 44.8002C126.266 44.8456 126.244 44.8918 126.22 44.9376C126.195 44.9869 126.171 45.0355 126.145 45.0848C126.124 45.1278 126.101 45.1708 126.08 45.2145C126.025 45.3264 125.975 45.44 125.925 45.5526C125.916 45.5746 125.905 45.5963 125.895 45.618C125.893 45.6243 125.89 45.6306 125.887 45.6372C125.824 45.782 125.764 45.9278 125.708 46.0739C125.698 46.0998 125.69 46.1264 125.68 46.1526C125.66 46.2057 125.642 46.2592 125.622 46.3124C125.596 46.3861 125.567 46.4596 125.543 46.5337C125.524 46.5903 125.509 46.6466 125.491 46.7036C125.471 46.77 125.45 46.8368 125.43 46.9036C125.418 46.9459 125.403 46.9879 125.392 47.0298C125.372 47.1036 125.356 47.1774 125.338 47.2518C125.317 47.3347 125.296 47.4176 125.276 47.5001C125.271 47.5294 125.261 47.5588 125.255 47.5878C125.242 47.6483 125.236 47.7071 125.224 47.7675C125.2 47.8969 125.176 48.0259 125.157 48.1542C125.152 48.1903 125.144 48.2266 125.139 48.2623C125.135 48.2962 125.136 48.328 125.132 48.3619C125.099 48.65 125.076 48.9357 125.077 49.2151L125.165 80.315C125.169 81.8499 125.711 82.9296 126.586 83.4376L130.992 85.9987C130.119 85.4904 129.577 84.411 129.572 82.8765L129.484 51.7765C129.483 51.4971 129.506 51.2108 129.54 50.9223C129.548 50.8538 129.554 50.7853 129.565 50.7157C129.583 50.587 129.607 50.4573 129.632 50.3273C129.648 50.2384 129.663 50.1503 129.683 50.0612C129.702 49.9783 129.723 49.8951 129.744 49.8119C129.773 49.6965 129.803 49.5808 129.837 49.465C129.856 49.3979 129.877 49.3304 129.899 49.2626C129.939 49.1332 129.983 49.0035 130.029 48.8749C130.049 48.8207 130.067 48.7665 130.087 48.7126C130.155 48.534 130.225 48.356 130.303 48.1794C130.312 48.1567 130.324 48.134 130.333 48.1116C130.403 47.955 130.476 47.799 130.553 47.6452C130.578 47.5966 130.603 47.5476 130.628 47.499C130.704 47.3511 130.783 47.2036 130.866 47.0581C130.882 47.0312 130.896 47.0036 130.911 46.9763C131.01 46.8078 131.112 46.6417 131.218 46.4784C131.249 46.4298 131.282 46.383 131.314 46.3351C131.392 46.2183 131.473 46.1026 131.555 45.9889C131.599 45.9274 131.644 45.8659 131.69 45.805C131.761 45.7103 131.835 45.618 131.909 45.5257C131.971 45.4474 132.034 45.3694 132.099 45.2935C132.159 45.2225 132.221 45.154 132.283 45.0848C132.39 44.9659 132.498 44.8498 132.61 44.7369C132.678 44.6673 132.746 44.5974 132.816 44.531C132.871 44.4785 132.926 44.4271 132.982 44.3764C133.072 44.2939 133.164 44.2142 133.256 44.1366C133.313 44.0897 133.368 44.0429 133.424 43.9978C133.525 43.9177 133.627 43.8422 133.729 43.7684C133.778 43.732 133.828 43.6946 133.878 43.6604C134.031 43.5551 134.186 43.4555 134.342 43.3649L184.36 14.4873C184.568 14.3673 184.772 14.2691 184.973 14.182C185.038 14.154 185.101 14.1299 185.164 14.1054C185.28 14.0607 185.395 14.0212 185.508 13.9873C185.58 13.9656 185.654 13.9436 185.725 13.9264C185.792 13.91 185.859 13.896 185.925 13.8834C186.011 13.867 186.098 13.8537 186.182 13.8439C186.232 13.8383 186.28 13.8327 186.329 13.8292C186.435 13.8215 186.54 13.8198 186.642 13.8229C186.665 13.8233 186.69 13.8222 186.714 13.8233C186.837 13.8303 186.957 13.846 187.073 13.8687C187.103 13.874 187.131 13.882 187.16 13.8887C187.252 13.9093 187.342 13.9355 187.428 13.9659C187.455 13.9754 187.483 13.9841 187.51 13.9946C187.62 14.0383 187.728 14.088 187.83 14.1467L183.423 11.586Z" fill="url(#paint49_linear)"/>
<path d="M154.556 42.5127C154.086 42.7843 153.662 43.4619 153.664 44.0605L153.702 57.237C153.704 57.8306 154.128 58.0212 154.598 57.7499C154.73 57.6737 154.865 57.5607 154.996 57.4107L166.594 44.1178C167.26 43.3549 167.257 42.2676 166.589 42.2742L154.954 42.391C154.823 42.3927 154.689 42.4371 154.556 42.5127Z" fill="url(#paint50_linear)"/>
<path d="M185.003 47.8148L136.488 75.8247C135.993 76.1107 135.592 76.8054 135.594 77.375C135.596 77.9445 135.999 78.1743 136.494 77.8879L185.009 49.8777C185.505 49.5917 185.909 48.8952 185.907 48.326C185.907 47.7564 185.499 47.5288 185.003 47.8148Z" fill="url(#paint51_linear)"/>
<path d="M143.504 70.2951C142.137 71.0842 141.035 72.9957 141.039 74.5656C141.043 76.1361 142.154 76.7686 143.52 75.9802C144.886 75.1911 145.992 73.2786 145.988 71.7083C145.984 70.1385 144.871 69.5063 143.504 70.2951Z" fill="url(#paint52_linear)"/>
<path d="M146.891 136.774C146.886 136.83 146.882 136.886 146.871 136.942C146.864 136.988 146.849 137.033 146.838 137.079C146.823 137.132 146.811 137.186 146.791 137.238C146.776 137.281 146.756 137.325 146.738 137.368C146.712 137.424 146.688 137.48 146.659 137.534C146.638 137.574 146.612 137.614 146.588 137.653C146.549 137.715 146.508 137.778 146.462 137.839C146.418 137.899 146.372 137.958 146.321 138.016C146.309 138.029 146.298 138.043 146.286 138.057C146.217 138.132 146.141 138.205 146.061 138.277C146.01 138.324 145.953 138.368 145.896 138.413C145.847 138.453 145.8 138.493 145.747 138.531C145.687 138.575 145.619 138.617 145.555 138.66C145.487 138.703 145.424 138.747 145.352 138.79C145.193 138.882 145.023 138.966 144.849 139.044C144.799 139.067 144.748 139.088 144.697 139.109C144.561 139.166 144.42 139.219 144.278 139.268C144.227 139.285 144.177 139.304 144.125 139.32C144.035 139.349 143.943 139.374 143.85 139.398C143.78 139.418 143.711 139.438 143.64 139.455C143.544 139.478 143.444 139.498 143.345 139.518C143.278 139.532 143.211 139.547 143.144 139.559C142.944 139.595 142.742 139.622 142.538 139.644C142.474 139.65 142.41 139.654 142.347 139.66C142.228 139.669 142.108 139.678 141.988 139.683C141.911 139.687 141.834 139.689 141.756 139.69C141.659 139.691 141.561 139.692 141.464 139.691C141.383 139.69 141.301 139.688 141.22 139.684C141.129 139.681 141.039 139.676 140.95 139.67C140.867 139.664 140.785 139.657 140.702 139.649C140.614 139.641 140.525 139.631 140.437 139.62C140.357 139.61 140.277 139.598 140.198 139.586C140.102 139.571 140.008 139.555 139.915 139.537C139.84 139.523 139.767 139.508 139.694 139.492C139.582 139.468 139.472 139.44 139.362 139.411C139.301 139.395 139.239 139.38 139.179 139.362C138.984 139.305 138.793 139.241 138.607 139.169C138.515 139.133 138.426 139.094 138.337 139.054C138.291 139.034 138.244 139.015 138.199 138.994C138.064 138.93 137.934 138.863 137.807 138.79C136.755 138.182 136.229 137.385 136.232 136.588L136.225 140.552C136.223 141.348 136.748 142.146 137.801 142.754C137.927 142.826 138.057 142.894 138.193 142.958C138.237 142.979 138.285 142.998 138.331 143.018C138.41 143.053 138.488 143.09 138.571 143.122C138.579 143.126 138.59 143.128 138.6 143.132C138.785 143.204 138.977 143.268 139.172 143.326C139.188 143.33 139.202 143.337 139.219 143.341C139.263 143.354 139.311 143.363 139.355 143.375C139.465 143.404 139.575 143.432 139.687 143.456C139.717 143.462 139.745 143.471 139.775 143.477C139.818 143.486 139.864 143.492 139.908 143.5C140.002 143.518 140.095 143.535 140.191 143.55C140.228 143.556 140.266 143.564 140.304 143.57C140.345 143.576 140.388 143.578 140.429 143.584C140.518 143.595 140.607 143.605 140.695 143.613C140.738 143.617 140.78 143.624 140.823 143.627C140.863 143.631 140.902 143.631 140.942 143.634C141.032 143.64 141.123 143.645 141.213 143.648C141.258 143.65 141.303 143.655 141.348 143.656C141.385 143.657 141.421 143.655 141.458 143.655C141.555 143.657 141.652 143.656 141.75 143.654C141.798 143.653 141.846 143.655 141.895 143.653C141.924 143.652 141.952 143.649 141.981 143.647C142.101 143.642 142.222 143.633 142.342 143.623C142.39 143.619 142.439 143.618 142.486 143.614C142.502 143.613 142.516 143.609 142.531 143.608C142.735 143.586 142.938 143.558 143.138 143.523C143.147 143.521 143.157 143.521 143.168 143.519C143.226 143.508 143.282 143.494 143.339 143.482C143.438 143.462 143.537 143.443 143.634 143.419C143.704 143.402 143.774 143.382 143.843 143.363C143.936 143.337 144.027 143.313 144.118 143.284C144.138 143.278 144.158 143.274 144.177 143.267C144.21 143.257 144.239 143.243 144.272 143.232C144.415 143.183 144.555 143.129 144.69 143.073C144.742 143.051 144.793 143.03 144.843 143.007C145.017 142.929 145.187 142.846 145.346 142.753C145.368 142.74 145.389 142.727 145.412 142.714C145.46 142.685 145.503 142.653 145.549 142.623C145.615 142.58 145.681 142.538 145.741 142.494C145.794 142.456 145.841 142.416 145.891 142.377C145.947 142.332 146.004 142.287 146.055 142.241C146.066 142.232 146.078 142.223 146.088 142.213C146.156 142.15 146.22 142.085 146.28 142.02C146.292 142.007 146.303 141.993 146.314 141.979C146.35 141.939 146.387 141.899 146.419 141.857C146.433 141.84 146.442 141.821 146.455 141.803C146.502 141.741 146.542 141.679 146.581 141.617C146.597 141.59 146.618 141.564 146.634 141.538C146.641 141.525 146.646 141.511 146.653 141.498C146.682 141.443 146.706 141.387 146.73 141.332C146.745 141.299 146.764 141.267 146.776 141.234C146.78 141.223 146.781 141.212 146.785 141.201C146.805 141.148 146.817 141.096 146.831 141.042C146.84 141.006 146.854 140.97 146.862 140.934C146.864 140.924 146.863 140.914 146.865 140.905C146.876 140.849 146.88 140.793 146.884 140.737C146.887 140.701 146.896 140.664 146.897 140.628C146.897 140.612 146.898 140.596 146.898 140.581L146.905 136.617C146.904 136.67 146.896 136.722 146.891 136.774Z" fill="url(#paint53_linear)"/>
<path d="M148.636 131.214C148.629 131.288 148.624 131.362 148.609 131.436C148.599 131.497 148.58 131.558 148.564 131.618C148.546 131.688 148.528 131.759 148.503 131.829C148.483 131.887 148.456 131.945 148.431 132.002C148.399 132.076 148.366 132.149 148.327 132.223C148.298 132.275 148.265 132.327 148.232 132.38C148.181 132.462 148.127 132.546 148.066 132.627C148.008 132.706 147.946 132.784 147.879 132.861C147.862 132.879 147.848 132.897 147.832 132.915C147.741 133.015 147.64 133.112 147.533 133.208C147.466 133.269 147.389 133.329 147.315 133.389C147.249 133.441 147.187 133.494 147.117 133.545C147.037 133.603 146.948 133.659 146.861 133.715C146.773 133.774 146.689 133.833 146.593 133.888C146.381 134.011 146.156 134.122 145.925 134.226C145.858 134.256 145.791 134.284 145.722 134.312C145.542 134.388 145.357 134.458 145.166 134.523C145.098 134.546 145.031 134.571 144.963 134.593C144.843 134.631 144.721 134.664 144.598 134.697C144.505 134.722 144.414 134.749 144.32 134.772C144.191 134.804 144.059 134.83 143.927 134.856C143.838 134.874 143.75 134.894 143.661 134.91C143.396 134.957 143.127 134.993 142.856 135.022C142.772 135.031 142.687 135.036 142.603 135.043C142.445 135.056 142.286 135.068 142.125 135.075C142.023 135.079 141.92 135.082 141.819 135.084C141.689 135.086 141.56 135.087 141.431 135.085C141.322 135.084 141.214 135.081 141.106 135.077C140.986 135.072 140.867 135.065 140.747 135.057C140.638 135.05 140.528 135.04 140.419 135.03C140.302 135.019 140.184 135.005 140.067 134.991C139.961 134.977 139.855 134.962 139.749 134.946C139.623 134.926 139.498 134.904 139.374 134.88C139.275 134.861 139.178 134.842 139.081 134.821C138.932 134.788 138.785 134.751 138.64 134.713C138.56 134.691 138.477 134.671 138.398 134.648C138.138 134.572 137.884 134.487 137.638 134.391C137.516 134.344 137.399 134.292 137.28 134.239C137.22 134.212 137.157 134.188 137.097 134.16C136.919 134.075 136.745 133.985 136.579 133.889C135.181 133.082 134.482 132.023 134.486 130.966L134.477 136.228C134.474 137.285 135.172 138.344 136.569 139.151C136.736 139.247 136.91 139.337 137.088 139.422C137.148 139.45 137.211 139.475 137.272 139.502C137.378 139.548 137.481 139.597 137.59 139.64C137.603 139.645 137.617 139.648 137.63 139.653C137.875 139.749 138.13 139.834 138.39 139.91C138.411 139.916 138.43 139.925 138.45 139.931C138.51 139.948 138.572 139.96 138.633 139.975C138.778 140.014 138.923 140.051 139.072 140.083C139.111 140.092 139.15 140.104 139.189 140.112C139.247 140.124 139.307 140.132 139.366 140.143C139.49 140.166 139.615 140.188 139.74 140.208C139.791 140.216 139.841 140.227 139.891 140.234C139.946 140.241 140.002 140.246 140.058 140.253C140.175 140.268 140.293 140.281 140.411 140.292C140.469 140.297 140.523 140.306 140.58 140.311C140.632 140.315 140.685 140.316 140.738 140.319C140.858 140.328 140.978 140.334 141.098 140.339C141.158 140.341 141.217 140.347 141.278 140.348C141.325 140.35 141.374 140.347 141.422 140.348C141.551 140.349 141.681 140.348 141.811 140.346C141.875 140.345 141.939 140.347 142.003 140.345C142.041 140.344 142.079 140.339 142.117 140.337C142.277 140.331 142.436 140.319 142.596 140.305C142.66 140.3 142.725 140.299 142.788 140.293C142.808 140.291 142.828 140.287 142.847 140.284C143.118 140.256 143.387 140.219 143.652 140.172C143.665 140.17 143.679 140.169 143.691 140.167C143.769 140.153 143.844 140.134 143.92 140.118C144.051 140.092 144.183 140.066 144.311 140.035C144.406 140.011 144.496 139.985 144.589 139.96C144.712 139.926 144.834 139.894 144.954 139.855C144.98 139.848 145.007 139.841 145.032 139.833C145.076 139.819 145.115 139.801 145.157 139.786C145.348 139.722 145.533 139.651 145.715 139.575C145.782 139.546 145.85 139.519 145.916 139.489C146.147 139.384 146.372 139.275 146.584 139.151C146.613 139.134 146.642 139.117 146.671 139.1C146.736 139.061 146.792 139.018 146.854 138.978C146.941 138.921 147.029 138.866 147.109 138.808C147.179 138.757 147.242 138.704 147.307 138.651C147.381 138.592 147.457 138.533 147.525 138.471C147.539 138.459 147.555 138.447 147.569 138.435C147.659 138.351 147.744 138.265 147.824 138.178C147.84 138.16 147.855 138.142 147.87 138.124C147.917 138.07 147.966 138.016 148.009 137.962C148.028 137.938 148.04 137.914 148.057 137.89C148.118 137.809 148.172 137.726 148.224 137.643C148.246 137.608 148.275 137.574 148.294 137.539C148.304 137.521 148.309 137.502 148.319 137.485C148.359 137.413 148.39 137.339 148.422 137.265C148.441 137.222 148.467 137.179 148.483 137.136C148.488 137.121 148.49 137.107 148.496 137.092C148.52 137.021 148.537 136.951 148.556 136.88C148.569 136.832 148.587 136.785 148.597 136.737C148.6 136.724 148.599 136.712 148.602 136.699C148.615 136.625 148.62 136.551 148.627 136.476C148.632 136.428 148.642 136.379 148.643 136.33C148.644 136.309 148.644 136.289 148.644 136.268L148.654 131.006C148.653 131.075 148.641 131.144 148.636 131.214Z" fill="url(#paint54_linear)"/>
<path d="M156.822 111.594C156.58 102.848 149.292 95.9538 140.546 96.1964C131.8 96.4397 124.907 103.727 125.15 112.473C125.266 116.673 127.011 120.443 129.758 123.203L129.752 123.206C129.752 123.206 129.776 123.227 129.821 123.266C129.971 123.416 130.123 123.562 130.28 123.705C131.292 124.726 133.484 127.284 134.466 131.013C134.47 132.065 135.167 133.118 136.558 133.922C139.332 135.523 143.817 135.523 146.574 133.922C148.197 132.978 148.852 131.692 148.558 130.466C149.368 126.761 151.385 124.145 152.311 123.106C152.454 122.959 152.595 122.809 152.732 122.658C152.767 122.623 152.788 122.603 152.788 122.603L152.783 122.602C155.393 119.689 156.941 115.812 156.822 111.594Z" fill="url(#paint55_radial)"/>
<path d="M262.585 222.855L280.63 233.426L298.867 222.981L280.821 212.409L262.585 222.855Z" fill="url(#paint56_linear)"/>
<path d="M262.585 222.855L262.406 259.82L280.452 270.39L280.63 233.426L262.585 222.855Z" fill="url(#paint57_linear)"/>
<path d="M280.63 233.426L280.452 270.39L298.689 259.945L298.867 222.981L280.63 233.426Z" fill="url(#paint58_linear)"/>
<path d="M219.19 255.414L237.236 265.985L255.474 255.54L237.427 244.969L219.19 255.414Z" fill="url(#paint59_linear)"/>
<path d="M219.19 255.414L219.012 284.264L237.057 294.834L237.236 265.985L219.19 255.414Z" fill="url(#paint60_linear)"/>
<path d="M237.235 265.985L237.057 294.834L255.294 284.389L255.473 255.54L237.235 265.985Z" fill="url(#paint61_linear)"/>
<path d="M178.174 293.449L196.22 304.02L214.456 293.574L196.411 283.004L178.174 293.449Z" fill="url(#paint62_linear)"/>
<path d="M178.173 293.449L177.995 308.639L196.041 319.209L196.219 304.02L178.173 293.449Z" fill="url(#paint63_linear)"/>
<path d="M196.219 304.02L196.041 319.209L214.277 308.764L214.456 293.574L196.219 304.02Z" fill="url(#paint64_linear)"/>
<path d="M275.774 151.643C276.438 151.541 277.129 151.493 277.877 151.501C277.933 151.501 277.99 151.503 278.109 151.506C278.162 151.508 278.215 151.509 278.334 151.515C278.388 151.517 278.444 151.52 278.548 151.526C278.61 151.53 278.67 151.534 278.737 151.539C278.883 151.55 279.031 151.563 279.181 151.579C281.74 151.846 284.541 152.796 287.478 154.491C299.519 161.444 309.251 178.297 309.212 192.137C309.19 200.138 305.905 205.379 300.811 207.033C300.321 207.192 299.812 207.317 299.191 207.426C298.505 207.541 297.793 207.597 297.056 207.594C296.886 207.593 296.713 207.589 296.54 207.581C293.741 207.464 290.621 206.501 287.335 204.603C284.05 202.705 280.936 200.073 278.114 196.927C277.503 196.246 276.91 195.543 276.245 194.71C275.438 193.694 274.666 192.639 273.932 191.552C268.839 184.019 265.578 174.982 265.602 166.958C265.627 158.061 269.681 152.578 275.774 151.643Z" fill="url(#paint65_linear)"/>
<path d="M283.903 160.779C274.223 155.19 266.349 159.674 266.317 170.796C266.287 181.919 274.109 195.465 283.789 201.054C293.469 206.642 301.34 202.157 301.372 191.034C301.403 179.912 293.582 166.367 283.903 160.779Z" fill="url(#paint66_linear)"/>
<path d="M274.319 152.87C274.374 152.871 274.43 152.872 274.549 152.875C274.602 152.877 274.656 152.879 274.774 152.884C274.829 152.886 274.884 152.89 274.99 152.895C275.05 152.899 275.111 152.903 275.177 152.908C275.323 152.919 275.472 152.933 275.621 152.948C278.18 153.216 280.982 154.165 283.918 155.861C295.959 162.813 305.691 179.666 305.652 193.507C305.63 201.508 302.346 206.748 297.252 208.402C296.762 208.561 296.253 208.688 295.632 208.796C294.945 208.911 294.234 208.967 293.497 208.963C293.326 208.963 293.154 208.959 292.98 208.952C290.181 208.834 287.061 207.87 283.776 205.973C280.49 204.076 277.377 201.443 274.554 198.298C273.943 197.616 273.35 196.913 272.685 196.081C271.88 195.064 271.106 194.008 270.372 192.922C265.28 185.388 262.019 176.353 262.042 168.327C262.067 159.431 266.122 153.948 272.215 153.012C272.879 152.91 273.568 152.862 274.319 152.87ZM283.79 201.054C293.469 206.643 301.34 202.157 301.372 191.035C301.404 179.912 293.583 166.367 283.903 160.779C274.223 155.19 266.35 159.675 266.318 170.797C266.287 181.919 274.11 195.465 283.79 201.054Z" fill="url(#paint67_linear)"/>
<path d="M283.084 163.557C282.492 163.214 282.011 163.489 282.009 164.169C282.007 164.85 282.485 165.677 283.078 166.02C283.67 166.362 284.15 166.088 284.153 165.407C284.154 164.726 283.677 163.899 283.084 163.557Z" fill="url(#paint68_linear)"/>
<path d="M282.993 195.766C282.401 195.423 281.919 195.697 281.917 196.378C281.915 197.059 282.392 197.887 282.985 198.229C283.578 198.571 284.059 198.296 284.061 197.616C284.063 196.935 283.585 196.107 282.993 195.766Z" fill="url(#paint69_linear)"/>
<path d="M288.164 175.778C288.001 175.684 287.836 175.661 287.712 175.732L280.976 179.571C280.856 179.64 280.788 179.786 280.787 179.982C280.787 180.176 280.854 180.403 280.973 180.61L284.725 187.107C284.848 187.322 285.012 187.486 285.175 187.581C285.338 187.675 285.502 187.699 285.626 187.627C285.876 187.483 285.877 187.018 285.629 186.589L282.329 180.872L288.611 177.292C288.863 177.148 288.864 176.684 288.614 176.254C288.49 176.039 288.327 175.872 288.164 175.778Z" fill="url(#paint70_linear)"/>
<path d="M290.087 169.76C289.717 169.546 289.356 169.559 289.156 169.838C288.859 170.26 289.032 171.114 289.544 171.748C289.713 171.959 289.897 172.119 290.08 172.224C290.449 172.438 290.809 172.425 291.01 172.146C291.306 171.724 291.133 170.87 290.622 170.235C290.454 170.025 290.268 169.865 290.087 169.76Z" fill="url(#paint71_linear)"/>
<path d="M275.992 189.561C275.621 189.348 275.26 189.361 275.062 189.641C274.763 190.061 274.939 190.917 275.45 191.55C275.619 191.762 275.803 191.922 275.986 192.028C276.356 192.24 276.715 192.227 276.913 191.947C277.213 191.526 277.038 190.673 276.528 190.038C276.359 189.827 276.174 189.667 275.992 189.561Z" fill="url(#paint72_linear)"/>
<path d="M295.2 178.616C295.018 178.511 294.833 178.458 294.664 178.474C294.151 178.518 293.973 179.168 294.266 179.927C294.463 180.438 294.822 180.867 295.192 181.082C295.375 181.187 295.56 181.239 295.729 181.224C296.243 181.181 296.42 180.53 296.128 179.768C295.929 179.258 295.57 178.83 295.2 178.616Z" fill="url(#paint73_linear)"/>
<path d="M270.878 180.705C270.697 180.6 270.511 180.548 270.343 180.562C269.829 180.606 269.652 181.257 269.945 182.019C270.142 182.527 270.501 182.956 270.872 183.17C271.054 183.276 271.239 183.329 271.408 183.313C271.922 183.27 272.099 182.619 271.807 181.861C271.608 181.348 271.249 180.919 270.878 180.705Z" fill="url(#paint74_linear)"/>
<path d="M297.054 187.753C296.464 187.412 295.98 187.684 295.979 188.365C295.976 189.046 296.457 189.875 297.046 190.216C297.639 190.557 298.123 190.285 298.125 189.605C298.127 188.924 297.646 188.094 297.054 187.753Z" fill="url(#paint75_linear)"/>
<path d="M269.023 171.57C268.431 171.227 267.95 171.501 267.948 172.182C267.946 172.864 268.424 173.69 269.017 174.033C269.609 174.375 270.09 174.101 270.092 173.42C270.094 172.739 269.616 171.911 269.023 171.57Z" fill="url(#paint76_linear)"/>
<path d="M295.154 194.721C294.783 194.507 294.423 194.52 294.224 194.802C293.927 195.221 294.101 196.075 294.612 196.709C294.78 196.92 294.966 197.08 295.148 197.186C295.518 197.399 295.878 197.385 296.078 197.106C296.375 196.685 296.201 195.83 295.69 195.197C295.522 194.987 295.337 194.826 295.154 194.721Z" fill="url(#paint77_linear)"/>
<path d="M270.924 164.6C270.554 164.387 270.193 164.399 269.995 164.68C269.698 165.102 269.871 165.955 270.382 166.589C270.551 166.8 270.736 166.96 270.917 167.065C271.288 167.279 271.648 167.265 271.848 166.984C272.145 166.565 271.971 165.711 271.46 165.077C271.291 164.866 271.106 164.706 270.924 164.6Z" fill="url(#paint78_linear)"/>
<path d="M290.008 197.654C289.826 197.549 289.642 197.496 289.472 197.511C288.958 197.553 288.781 198.205 289.074 198.968C289.272 199.476 289.631 199.905 290.001 200.118C290.183 200.223 290.368 200.276 290.537 200.261C291.051 200.219 291.228 199.567 290.936 198.805C290.737 198.296 290.378 197.867 290.008 197.654Z" fill="url(#paint79_linear)"/>
<path d="M276.072 161.668C275.89 161.563 275.705 161.51 275.536 161.525C275.022 161.568 274.842 162.218 275.138 162.981C275.334 163.49 275.694 163.919 276.064 164.132C276.246 164.238 276.432 164.291 276.601 164.276C277.114 164.233 277.292 163.581 276.996 162.818C276.799 162.31 276.442 161.881 276.072 161.668Z" fill="url(#paint80_linear)"/>
</g>
<defs>
<linearGradient id="paint0_linear" x1="181.362" y1="283.271" x2="175.464" y2="259.058" gradientUnits="userSpaceOnUse">
<stop stop-color="#EFEBDA"/>
<stop offset="1" stop-color="#DDD7C0"/>
</linearGradient>
<linearGradient id="paint1_linear" x1="178.786" y1="298.986" x2="145.14" y2="94.2103" gradientUnits="userSpaceOnUse">
<stop offset="0.0376" stop-color="#FFFDF5"/>
<stop offset="1" stop-color="#EFEBDA"/>
</linearGradient>
<linearGradient id="paint2_linear" x1="33.9072" y1="296.454" x2="244.385" y2="149.12" gradientUnits="userSpaceOnUse">
<stop stop-color="#0596D4"/>
<stop offset="1" stop-color="#2A2C70"/>
</linearGradient>
<linearGradient id="paint3_linear" x1="276.802" y1="138.095" x2="187.926" y2="54.0607" gradientUnits="userSpaceOnUse">
<stop stop-color="#0596D4"/>
<stop offset="1" stop-color="#2A2C70"/>
</linearGradient>
<linearGradient id="paint4_linear" x1="286.284" y1="128.068" x2="197.404" y2="44.0289" gradientUnits="userSpaceOnUse">
<stop stop-color="#0596D4"/>
<stop offset="1" stop-color="#2A2C70"/>
</linearGradient>
<linearGradient id="paint5_linear" x1="293.647" y1="120.281" x2="204.766" y2="36.2428" gradientUnits="userSpaceOnUse">
<stop stop-color="#0596D4"/>
<stop offset="1" stop-color="#2A2C70"/>
</linearGradient>
<linearGradient id="paint6_linear" x1="287.055" y1="127.248" x2="198.178" y2="43.213" gradientUnits="userSpaceOnUse">
<stop stop-color="#0596D4"/>
<stop offset="1" stop-color="#2A2C70"/>
</linearGradient>
<linearGradient id="paint7_linear" x1="219.901" y1="119.531" x2="297.907" y2="50.491" gradientUnits="userSpaceOnUse">
<stop offset="0.0376" stop-color="#FFFDF5"/>
<stop offset="1" stop-color="#EFEBDA"/>
</linearGradient>
<linearGradient id="paint8_linear" x1="303.918" y1="152.163" x2="265.536" y2="115.872" gradientUnits="userSpaceOnUse">
<stop stop-color="#0596D4"/>
<stop offset="1" stop-color="#2A2C70"/>
</linearGradient>
<linearGradient id="paint9_linear" x1="308.015" y1="147.833" x2="269.629" y2="111.539" gradientUnits="userSpaceOnUse">
<stop stop-color="#0596D4"/>
<stop offset="1" stop-color="#2A2C70"/>
</linearGradient>
<linearGradient id="paint10_linear" x1="311.194" y1="144.47" x2="272.809" y2="108.176" gradientUnits="userSpaceOnUse">
<stop stop-color="#0596D4"/>
<stop offset="1" stop-color="#2A2C70"/>
</linearGradient>
<linearGradient id="paint11_linear" x1="308.349" y1="147.482" x2="269.962" y2="111.185" gradientUnits="userSpaceOnUse">
<stop stop-color="#0596D4"/>
<stop offset="1" stop-color="#2A2C70"/>
</linearGradient>
<linearGradient id="paint12_linear" x1="279.345" y1="144.146" x2="313.033" y2="114.33" gradientUnits="userSpaceOnUse">
<stop offset="0.0376" stop-color="#FFFDF5"/>
<stop offset="1" stop-color="#EFEBDA"/>
</linearGradient>
<linearGradient id="paint13_linear" x1="40.1037" y1="108.384" x2="95.7689" y2="55.751" gradientUnits="userSpaceOnUse">
<stop stop-color="#0596D4"/>
<stop offset="1" stop-color="#2A2C70"/>
</linearGradient>
<linearGradient id="paint14_linear" x1="34.1667" y1="102.103" x2="89.8295" y2="49.4728" gradientUnits="userSpaceOnUse">
<stop stop-color="#0596D4"/>
<stop offset="1" stop-color="#2A2C70"/>
</linearGradient>
<linearGradient id="paint15_linear" x1="29.5551" y1="97.2272" x2="85.2181" y2="44.5965" gradientUnits="userSpaceOnUse">
<stop stop-color="#0596D4"/>
<stop offset="1" stop-color="#2A2C70"/>
</linearGradient>
<linearGradient id="paint16_linear" x1="33.6823" y1="101.591" x2="89.3444" y2="48.9609" gradientUnits="userSpaceOnUse">
<stop stop-color="#0596D4"/>
<stop offset="1" stop-color="#2A2C70"/>
</linearGradient>
<linearGradient id="paint17_linear" x1="75.7401" y1="96.7571" x2="26.886" y2="53.5184" gradientUnits="userSpaceOnUse">
<stop offset="0.0376" stop-color="#FFFDF5"/>
<stop offset="1" stop-color="#EFEBDA"/>
</linearGradient>
<linearGradient id="paint18_linear" x1="60.2851" y1="178.894" x2="73.5974" y2="178.894" gradientUnits="userSpaceOnUse">
<stop stop-color="#EFEBDA"/>
<stop offset="1" stop-color="#DDD7C0"/>
</linearGradient>
<linearGradient id="paint19_linear" x1="39.4642" y1="145.741" x2="107.496" y2="145.741" gradientUnits="userSpaceOnUse">
<stop offset="0.0376" stop-color="#FFFDF5"/>
<stop offset="1" stop-color="#EFEBDA"/>
</linearGradient>
<linearGradient id="paint20_linear" x1="31.7386" y1="143.321" x2="105.859" y2="143.321" gradientUnits="userSpaceOnUse">
<stop stop-color="#0596D4"/>
<stop offset="1" stop-color="#2A2C70"/>
</linearGradient>
<linearGradient id="paint21_linear" x1="84.6174" y1="167.68" x2="47.3862" y2="103.795" gradientUnits="userSpaceOnUse">
<stop stop-color="#2A2C70"/>
<stop offset="1" stop-color="#399AD5"/>
</linearGradient>
<linearGradient id="paint22_linear" x1="90.3094" y1="164.353" x2="53.0885" y2="100.485" gradientUnits="userSpaceOnUse">
<stop stop-color="#2A2C70"/>
<stop offset="1" stop-color="#399AD5"/>
</linearGradient>
<linearGradient id="paint23_linear" x1="80.4914" y1="170.085" x2="43.2594" y2="106.198" gradientUnits="userSpaceOnUse">
<stop stop-color="#2A2C70"/>
<stop offset="1" stop-color="#399AD5"/>
</linearGradient>
<linearGradient id="paint24_linear" x1="228.501" y1="243.083" x2="193.213" y2="179.885" gradientUnits="userSpaceOnUse">
<stop stop-color="#2A2C70"/>
<stop offset="1" stop-color="#399AD5"/>
</linearGradient>
<linearGradient id="paint25_linear" x1="232.461" y1="212.813" x2="167.017" y2="149.08" gradientUnits="userSpaceOnUse">
<stop stop-color="#2A2C70"/>
<stop offset="1" stop-color="#399AD5"/>
</linearGradient>
<linearGradient id="paint26_linear" x1="205.365" y1="163.934" x2="219.24" y2="163.934" gradientUnits="userSpaceOnUse">
<stop stop-color="#5BC5C1"/>
<stop offset="1" stop-color="#3797D3"/>
</linearGradient>
<linearGradient id="paint27_linear" x1="215.906" y1="170.159" x2="215.956" y2="170.159" gradientUnits="userSpaceOnUse">
<stop stop-color="#5BC5C1"/>
<stop offset="1" stop-color="#3797D3"/>
</linearGradient>
<linearGradient id="paint28_linear" x1="220.077" y1="169.204" x2="205.379" y2="165.089" gradientUnits="userSpaceOnUse">
<stop stop-color="#2A2C70"/>
<stop offset="1" stop-color="#399AD5"/>
</linearGradient>
<linearGradient id="paint29_linear" x1="221.748" y1="163.239" x2="207.048" y2="159.123" gradientUnits="userSpaceOnUse">
<stop stop-color="#2A2C70"/>
<stop offset="1" stop-color="#399AD5"/>
</linearGradient>
<linearGradient id="paint30_linear" x1="184.505" y1="163.134" x2="170.631" y2="163.134" gradientUnits="userSpaceOnUse">
<stop stop-color="#5BC5C1"/>
<stop offset="1" stop-color="#3797D3"/>
</linearGradient>
<linearGradient id="paint31_linear" x1="173.963" y1="169.36" x2="173.913" y2="169.36" gradientUnits="userSpaceOnUse">
<stop stop-color="#5BC5C1"/>
<stop offset="1" stop-color="#3797D3"/>
</linearGradient>
<linearGradient id="paint32_linear" x1="169.793" y1="168.405" x2="184.492" y2="164.289" gradientUnits="userSpaceOnUse">
<stop stop-color="#2A2C70"/>
<stop offset="1" stop-color="#399AD5"/>
</linearGradient>
<linearGradient id="paint33_linear" x1="168.122" y1="162.44" x2="182.821" y2="158.324" gradientUnits="userSpaceOnUse">
<stop stop-color="#2A2C70"/>
<stop offset="1" stop-color="#399AD5"/>
</linearGradient>
<linearGradient id="paint34_linear" x1="194.705" y1="183.507" x2="194.705" y2="174.031" gradientUnits="userSpaceOnUse">
<stop stop-color="#5BC5C1"/>
<stop offset="1" stop-color="#3797D3"/>
</linearGradient>
<linearGradient id="paint35_linear" x1="178.016" y1="137.031" x2="212.017" y2="137.031" gradientUnits="userSpaceOnUse">
<stop offset="0.0376" stop-color="#FFFDF5"/>
<stop offset="1" stop-color="#EFEBDA"/>
</linearGradient>
<linearGradient id="paint36_linear" x1="184.763" y1="107.937" x2="205.282" y2="107.937" gradientUnits="userSpaceOnUse">
<stop offset="0.0376" stop-color="#FFFDF5"/>
<stop offset="1" stop-color="#EFEBDA"/>
</linearGradient>
<linearGradient id="paint37_linear" x1="178.017" y1="137.032" x2="195.017" y2="137.032" gradientUnits="userSpaceOnUse">
<stop stop-color="#EFEBDA"/>
<stop offset="1" stop-color="#DDD7C0"/>
</linearGradient>
<linearGradient id="paint38_linear" x1="178.017" y1="137.032" x2="195.017" y2="137.032" gradientUnits="userSpaceOnUse">
<stop stop-color="#EFEBDA"/>
<stop offset="1" stop-color="#DDD7C0"/>
</linearGradient>
<linearGradient id="paint39_linear" x1="184.764" y1="107.791" x2="195.015" y2="107.791" gradientUnits="userSpaceOnUse">
<stop stop-color="#EFEBDA"/>
<stop offset="1" stop-color="#DDD7C0"/>
</linearGradient>
<linearGradient id="paint40_linear" x1="222.483" y1="193.277" x2="197.219" y2="162.268" gradientUnits="userSpaceOnUse">
<stop stop-color="#5BC5C1"/>
<stop offset="1" stop-color="#3797D3"/>
</linearGradient>
<linearGradient id="paint41_linear" x1="221.271" y1="192.378" x2="197.532" y2="152.278" gradientUnits="userSpaceOnUse">
<stop stop-color="#2A2C70"/>
<stop offset="1" stop-color="#399AD5"/>
</linearGradient>
<linearGradient id="paint42_linear" x1="169.244" y1="192.311" x2="189.395" y2="161.323" gradientUnits="userSpaceOnUse">
<stop stop-color="#5BC5C1"/>
<stop offset="1" stop-color="#3797D3"/>
</linearGradient>
<linearGradient id="paint43_linear" x1="167.487" y1="190.823" x2="190.906" y2="155.696" gradientUnits="userSpaceOnUse">
<stop stop-color="#2A2C70"/>
<stop offset="1" stop-color="#399AD5"/>
</linearGradient>
<linearGradient id="paint44_linear" x1="209.659" y1="133.397" x2="188.495" y2="105.391" gradientUnits="userSpaceOnUse">
<stop stop-color="#2A2C70"/>
<stop offset="1" stop-color="#399AD5"/>
</linearGradient>
<linearGradient id="paint45_linear" x1="183.041" y1="135.595" x2="196.572" y2="135.595" gradientUnits="userSpaceOnUse">
<stop stop-color="#EFEBDA"/>
<stop offset="1" stop-color="#DDD7C0"/>
</linearGradient>
<linearGradient id="paint46_linear" x1="181.481" y1="135.595" x2="195.011" y2="135.595" gradientUnits="userSpaceOnUse">
<stop stop-color="#5BC5C1"/>
<stop offset="1" stop-color="#3797D3"/>
</linearGradient>
<linearGradient id="paint47_linear" x1="194.251" y1="141.936" x2="183.09" y2="130.15" gradientUnits="userSpaceOnUse">
<stop stop-color="#2A2C70"/>
<stop offset="1" stop-color="#399AD5"/>
</linearGradient>
<linearGradient id="paint48_linear" x1="129.483" y1="50.0732" x2="189.339" y2="50.0732" gradientUnits="userSpaceOnUse">
<stop offset="0.0376" stop-color="#FFFDF5"/>
<stop offset="1" stop-color="#EFEBDA"/>
</linearGradient>
<linearGradient id="paint49_linear" x1="210.181" y1="68.3602" x2="119.073" y2="34.6761" gradientUnits="userSpaceOnUse">
<stop stop-color="#0596D4"/>
<stop offset="1" stop-color="#2A2C70"/>
</linearGradient>
<linearGradient id="paint50_linear" x1="161.74" y1="51.3944" x2="143.482" y2="33.4128" gradientUnits="userSpaceOnUse">
<stop stop-color="#2A2C70"/>
<stop offset="1" stop-color="#399AD5"/>
</linearGradient>
<linearGradient id="paint51_linear" x1="135.594" y1="62.8511" x2="185.908" y2="62.8511" gradientUnits="userSpaceOnUse">
<stop stop-color="#5BC5C1"/>
<stop offset="1" stop-color="#3797D3"/>
</linearGradient>
<linearGradient id="paint52_linear" x1="139.744" y1="79.295" x2="145.416" y2="70.027" gradientUnits="userSpaceOnUse">
<stop stop-color="#2A2C70"/>
<stop offset="1" stop-color="#399AD5"/>
</linearGradient>
<linearGradient id="paint53_linear" x1="141.564" y1="142.664" x2="141.564" y2="140.18" gradientUnits="userSpaceOnUse">
<stop stop-color="#5BC5C1"/>
<stop offset="1" stop-color="#3797D3"/>
</linearGradient>
<linearGradient id="paint54_linear" x1="141.564" y1="142.117" x2="141.564" y2="134.276" gradientUnits="userSpaceOnUse">
<stop stop-color="#5BC5C1"/>
<stop offset="1" stop-color="#3797D3"/>
</linearGradient>
<radialGradient id="paint55_radial" cx="0" cy="0" r="1" gradientUnits="userSpaceOnUse" gradientTransform="translate(134.593 108.208) scale(17.7474)">
<stop offset="0.0376" stop-color="#FFFDF5"/>
<stop offset="1" stop-color="#EFEBDA"/>
</radialGradient>
<linearGradient id="paint56_linear" x1="262.585" y1="222.918" x2="298.867" y2="222.918" gradientUnits="userSpaceOnUse">
<stop offset="0.0376" stop-color="#FFFDF5"/>
<stop offset="1" stop-color="#EFEBDA"/>
</linearGradient>
<linearGradient id="paint57_linear" x1="299.046" y1="288.126" x2="264.657" y2="236.277" gradientUnits="userSpaceOnUse">
<stop stop-color="#5BC5C1"/>
<stop offset="1" stop-color="#3797D3"/>
</linearGradient>
<linearGradient id="paint58_linear" x1="309.493" y1="276.589" x2="281.348" y2="234.154" gradientUnits="userSpaceOnUse">
<stop stop-color="#5BC5C1"/>
<stop offset="1" stop-color="#3797D3"/>
</linearGradient>
<linearGradient id="paint59_linear" x1="219.19" y1="255.477" x2="255.474" y2="255.477" gradientUnits="userSpaceOnUse">
<stop offset="0.0376" stop-color="#FFFDF5"/>
<stop offset="1" stop-color="#EFEBDA"/>
</linearGradient>
<linearGradient id="paint60_linear" x1="246.464" y1="312.708" x2="202.086" y2="221.766" gradientUnits="userSpaceOnUse">
<stop stop-color="#0596D4"/>
<stop offset="1" stop-color="#2A2C70"/>
</linearGradient>
<linearGradient id="paint61_linear" x1="261.091" y1="305.57" x2="216.713" y2="214.629" gradientUnits="userSpaceOnUse">
<stop stop-color="#0596D4"/>
<stop offset="1" stop-color="#2A2C70"/>
</linearGradient>
<linearGradient id="paint62_linear" x1="178.174" y1="293.512" x2="214.456" y2="293.512" gradientUnits="userSpaceOnUse">
<stop offset="0.0376" stop-color="#FFFDF5"/>
<stop offset="1" stop-color="#EFEBDA"/>
</linearGradient>
<linearGradient id="paint63_linear" x1="204.541" y1="332.614" x2="182.761" y2="299.777" gradientUnits="userSpaceOnUse">
<stop stop-color="#5BC5C1"/>
<stop offset="1" stop-color="#3797D3"/>
</linearGradient>
<linearGradient id="paint64_linear" x1="213.863" y1="319.381" x2="201.638" y2="300.949" gradientUnits="userSpaceOnUse">
<stop stop-color="#5BC5C1"/>
<stop offset="1" stop-color="#3797D3"/>
</linearGradient>
<linearGradient id="paint65_linear" x1="250.99" y1="214.419" x2="299.449" y2="168.014" gradientUnits="userSpaceOnUse">
<stop stop-color="#0596D4"/>
<stop offset="1" stop-color="#2A2C70"/>
</linearGradient>
<linearGradient id="paint66_linear" x1="301.372" y1="180.916" x2="266.317" y2="180.916" gradientUnits="userSpaceOnUse">
<stop offset="0.0376" stop-color="#FFFDF5"/>
<stop offset="1" stop-color="#EFEBDA"/>
</linearGradient>
<linearGradient id="paint67_linear" x1="247.43" y1="215.789" x2="295.89" y2="169.383" gradientUnits="userSpaceOnUse">
<stop stop-color="#2A2C70"/>
<stop offset="1" stop-color="#399AD5"/>
</linearGradient>
<linearGradient id="paint68_linear" x1="342.934" y1="208.739" x2="233.704" y2="128.525" gradientUnits="userSpaceOnUse">
<stop stop-color="#2A2C70"/>
<stop offset="1" stop-color="#399AD5"/>
</linearGradient>
<linearGradient id="paint69_linear" x1="327.537" y1="229.711" x2="218.3" y2="149.496" gradientUnits="userSpaceOnUse">
<stop stop-color="#2A2C70"/>
<stop offset="1" stop-color="#399AD5"/>
</linearGradient>
<linearGradient id="paint70_linear" x1="336.134" y1="218.003" x2="226.901" y2="137.789" gradientUnits="userSpaceOnUse">
<stop stop-color="#2A2C70"/>
<stop offset="1" stop-color="#399AD5"/>
</linearGradient>
<linearGradient id="paint71_linear" x1="342.423" y1="209.427" x2="233.201" y2="129.221" gradientUnits="userSpaceOnUse">
<stop stop-color="#2A2C70"/>
<stop offset="1" stop-color="#399AD5"/>
</linearGradient>
<linearGradient id="paint72_linear" x1="328.051" y1="229.025" x2="218.802" y2="148.8" gradientUnits="userSpaceOnUse">
<stop stop-color="#2A2C70"/>
<stop offset="1" stop-color="#399AD5"/>
</linearGradient>
<linearGradient id="paint73_linear" x1="339.988" y1="212.742" x2="230.771" y2="132.54" gradientUnits="userSpaceOnUse">
<stop stop-color="#2A2C70"/>
<stop offset="1" stop-color="#399AD5"/>
</linearGradient>
<linearGradient id="paint74_linear" x1="330.486" y1="225.712" x2="221.237" y2="145.484" gradientUnits="userSpaceOnUse">
<stop stop-color="#2A2C70"/>
<stop offset="1" stop-color="#399AD5"/>
</linearGradient>
<linearGradient id="paint75_linear" x1="336.282" y1="217.794" x2="227.059" y2="137.589" gradientUnits="userSpaceOnUse">
<stop stop-color="#2A2C70"/>
<stop offset="1" stop-color="#399AD5"/>
</linearGradient>
<linearGradient id="paint76_linear" x1="334.185" y1="220.654" x2="224.954" y2="140.441" gradientUnits="userSpaceOnUse">
<stop stop-color="#2A2C70"/>
<stop offset="1" stop-color="#399AD5"/>
</linearGradient>
<linearGradient id="paint77_linear" x1="332.295" y1="223.23" x2="223.063" y2="143.018" gradientUnits="userSpaceOnUse">
<stop stop-color="#2A2C70"/>
<stop offset="1" stop-color="#399AD5"/>
</linearGradient>
<linearGradient id="paint78_linear" x1="338.162" y1="215.21" x2="228.953" y2="135.011" gradientUnits="userSpaceOnUse">
<stop stop-color="#2A2C70"/>
<stop offset="1" stop-color="#399AD5"/>
</linearGradient>
<linearGradient id="paint79_linear" x1="329.1" y1="227.595" x2="219.85" y2="147.369" gradientUnits="userSpaceOnUse">
<stop stop-color="#2A2C70"/>
<stop offset="1" stop-color="#399AD5"/>
</linearGradient>
<linearGradient id="paint80_linear" x1="341.379" y1="210.86" x2="232.145" y2="130.644" gradientUnits="userSpaceOnUse">
<stop stop-color="#2A2C70"/>
<stop offset="1" stop-color="#399AD5"/>
</linearGradient>
<clipPath id="clip0">
<rect width="349.638" height="349.638" fill="white" transform="translate(0.560547 0.197754)"/>
</clipPath>
</defs>
</svg>
