<svg width="24" height="24" viewBox="0 0 24 24" fill="none" xmlns="http://www.w3.org/2000/svg">
<rect width="24" height="24" rx="3" fill="#D9FAFF"/>
<g clip-path="url(#clip0_5583_2158)">
<path d="M5.32016 3.25H18.6802C19.1867 3.25 19.6725 3.41769 20.0307 3.71619C20.3889 4.01468 20.5902 4.41953 20.5902 4.84167V14.3833H3.41016V4.84167C3.41016 4.41953 3.61139 4.01468 3.96958 3.71619C4.32778 3.41769 4.81359 3.25 5.32016 3.25Z" stroke="#003262" stroke-width="1.5" stroke-miterlimit="10"/>
<path d="M20.59 14.3838H3.41L1.58 18.9505C1.52829 19.0909 1.50134 19.2369 1.5 19.3838C1.50262 19.7456 1.67625 20.0919 1.98324 20.3478C2.29024 20.6036 2.70585 20.7483 3.14 20.7505H20.86C21.2941 20.7483 21.7098 20.6036 22.0168 20.3478C22.3237 20.0919 22.4974 19.7456 22.5 19.3838C22.4987 19.2369 22.4717 19.0909 22.42 18.9505L20.59 14.3838Z" stroke="#003262" stroke-width="1.5" stroke-miterlimit="10"/>
<path d="M10.0898 18.3662H13.9098" stroke="#003262" stroke-width="1.5" stroke-miterlimit="10"/>
</g>
<defs>
<clipPath id="clip0_5583_2158">
<rect width="24" height="20" fill="white" transform="translate(0 2)"/>
</clipPath>
</defs>
</svg>
