<svg xmlns="http://www.w3.org/2000/svg" width="114.547" height="30" viewBox="0 0 114.547 30"><g transform="translate(-402.004 -136.937)"><path d="M72.278,28.08h4.076v2.878h.087a4.66,4.66,0,0,1,4.539-3.112,4.223,4.223,0,0,1,4.438,3.242h.088a5.064,5.064,0,0,1,4.944-3.242,4.978,4.978,0,0,1,5.219,5.317V43.942H91.447V34.218c0-1.862-.939-2.878-2.66-2.878a2.744,2.744,0,0,0-2.775,3.012v9.6H81.936V34.063a2.463,2.463,0,0,0-2.617-2.722A2.826,2.826,0,0,0,76.5,34.41v9.54H72.278Z" transform="translate(368.277 118.787)" fill="#2297be"/><path d="M113.092,28.315h-2.153V25.131h2.153V23.719c0-3.047,1.459-4.308,5.148-4.308a13.166,13.166,0,0,1,1.951.144v2.924a6.431,6.431,0,0,0-1.156-.1c-1.272,0-1.793.476-1.807,1.585v1.168h2.977v3.184h-2.887V41h-4.226Z" transform="translate(354.76 121.737)" fill="#2297be"/><path d="M128.693,20.98a2.279,2.279,0,0,1,4.555,0,2.28,2.28,0,0,1-4.555,0Zm.16,3.934h4.22V40.78h-4.22Z" transform="translate(348.553 121.953)" fill="#2297be"/><path d="M139.938,28.082h4.075v2.837h.085a5.007,5.007,0,0,1,4.974-3.068c3.528,0,5.523,2.218,5.523,5.925V43.951h-4.22v-9.3c0-2.1-.983-3.3-2.979-3.3-2.023,0-3.237,1.441-3.237,3.545v9.05h-4.222Z" transform="translate(344.622 118.786)" fill="#2297be"/><path d="M180.864,39.082c-.464,3.068-3.339,5.114-7.215,5.114-4.843,0-7.812-3.1-7.812-8.141s2.979-8.272,7.642-8.272c4.586,0,7.5,3.056,7.5,7.882v1.3H170.007v.259a3.574,3.574,0,0,0,3.716,3.834,3.2,3.2,0,0,0,3.252-1.974ZM170.05,34.356h6.867a3.29,3.29,0,0,0-3.383-3.43A3.459,3.459,0,0,0,170.05,34.356Z" transform="translate(335.566 118.809)" fill="#2297be"/><path d="M37.468,42.937H18.637A5.641,5.641,0,0,1,13,37.321V18.552a5.641,5.641,0,0,1,5.633-5.615H37.468a5.641,5.641,0,0,1,5.638,5.615V37.321a5.641,5.641,0,0,1-5.635,5.615" transform="translate(389 124)" fill="#2297be"/><path d="M30.951,19.892a9.629,9.629,0,0,0-2.624,18.9v2.7a19.267,19.267,0,0,0,9.251-4.945,9.651,9.651,0,0,0-6.623-16.657ZM38.13,32.047H33.458a.61.61,0,0,1-.566-.587l-.581-3.442-1.189,6.347a.807.807,0,0,1-.058.178.522.522,0,0,1-.324.362.621.621,0,0,1-.766-.449l-1.153-4.928-.723,2.14a.642.642,0,0,1-.273.35.5.5,0,0,1-.294.095H23.939a.677.677,0,0,1,0-1.326h3.227l1.189-3.494a.64.64,0,0,1,.4-.532.511.511,0,0,1,.525.127.7.7,0,0,1,.212.454l.99,4.224,1.286-6.85a.625.625,0,0,1,.421-.508l.08-.022a.587.587,0,0,1,.654.547l1.019,5.981h4.2a.677.677,0,0,1,0,1.326Z" transform="translate(386.103 121.568)" fill="#fff"/></g></svg>