<svg width="25" height="25" viewBox="0 0 25 25" fill="none" xmlns="http://www.w3.org/2000/svg">
<rect x="0.5" y="0.5" width="24" height="24" rx="3" fill="#D9FAFF"/>
<path d="M6.53962 16.5347C5.89062 16.5297 5.25264 16.7817 4.76164 17.2727C3.94964 18.0847 3.18263 20.7977 2.96763 21.6107C2.89963 21.8667 2.97162 22.1387 3.15662 22.3277C3.29962 22.4737 3.49264 22.5527 3.69264 22.5527C3.75164 22.5527 3.81161 22.5457 3.87061 22.5317C4.65061 22.3417 7.25964 21.6557 8.07664 20.8387C9.09964 19.8157 9.16463 18.2157 8.22263 17.2727C7.76063 16.8117 7.16362 16.5497 6.53962 16.5347ZM7.01563 19.7787C6.76163 20.0327 5.81864 20.4037 4.79264 20.7207C5.14864 19.6177 5.55963 18.5967 5.82163 18.3337C6.02363 18.1317 6.25062 18.0277 6.50462 18.0347C6.74062 18.0397 6.97363 18.1467 7.16163 18.3337C7.51963 18.6917 7.45363 19.3397 7.01563 19.7787ZM14.1916 8.30566C12.5376 8.30566 11.1916 9.65166 11.1916 11.3057C11.1916 12.9597 12.5376 14.3057 14.1916 14.3057C15.8456 14.3057 17.1916 12.9597 17.1916 11.3057C17.1916 9.65166 15.8456 8.30566 14.1916 8.30566ZM14.1916 12.8057C13.3646 12.8057 12.6916 12.1327 12.6916 11.3057C12.6916 10.4787 13.3646 9.80566 14.1916 9.80566C15.0186 9.80566 15.6916 10.4787 15.6916 11.3057C15.6916 12.1327 15.0186 12.8057 14.1916 12.8057ZM22.4416 3.80566C22.4416 3.39166 22.1056 3.05566 21.6916 3.05566C16.7296 3.05566 12.8136 4.54867 10.2436 7.28867L8.35163 7.60565C6.37363 7.92565 4.68864 9.28066 3.95564 11.1367L2.99561 13.5267C2.89261 13.7827 2.93863 14.0737 3.11463 14.2857C3.25863 14.4597 3.47063 14.5567 3.69163 14.5567C3.74063 14.5567 3.78963 14.5517 3.83863 14.5427L7.07063 13.8977C7.06963 13.9057 7.06662 13.9137 7.06562 13.9217C6.94262 14.6257 7.18063 15.3567 7.70063 15.8767L9.62263 17.7997C10.0526 18.2287 10.6266 18.4657 11.2106 18.4657C11.3326 18.4657 11.4556 18.4557 11.5776 18.4347C11.5856 18.4337 11.5936 18.4307 11.6016 18.4297L10.9566 21.6617C10.9026 21.9317 11.0006 22.2097 11.2126 22.3857C11.3496 22.4997 11.5196 22.5587 11.6916 22.5587C11.7856 22.5587 11.8806 22.5407 11.9706 22.5047L14.3576 21.5467C16.2176 20.8117 17.5716 19.1266 17.8916 17.1526L18.2086 15.2567C20.9486 12.6837 22.4416 8.76766 22.4416 3.80566ZM20.4036 8.27966C19.7746 6.86266 18.6346 5.72266 17.2176 5.09366C18.5856 4.75266 19.8886 4.61168 20.9266 4.57068C20.8856 5.60968 20.7446 6.91166 20.4036 8.27966ZM4.90363 12.7987L5.34864 11.6917C5.89064 10.3207 7.13264 9.32266 8.59464 9.08566L8.89863 9.03467C8.28263 10.0107 7.79861 11.0987 7.45261 12.2897L4.90363 12.7987ZM11.3206 16.9537C11.0996 16.9907 10.8546 16.9087 10.6826 16.7367L8.76063 14.8137C8.58763 14.6417 8.50464 14.3967 8.54264 14.1767C9.30664 9.77367 11.7906 7.37166 14.5026 6.06366C14.5656 6.06066 14.6266 6.05566 14.6916 6.05566C17.3106 6.05566 19.4416 8.18666 19.4416 10.8057C19.4416 10.8647 19.4396 10.9257 19.4366 10.9877C18.1296 13.7017 15.7276 16.1897 11.3206 16.9537ZM16.4116 16.9057C16.1756 18.3637 15.1776 19.6057 13.8026 20.1497L12.6986 20.5927L13.2066 18.0447C14.3986 17.6977 15.4866 17.2137 16.4626 16.5977L16.4116 16.9057Z" fill="#25314C"/>
</svg>
