<svg width="63" height="47" viewBox="0 0 63 47" fill="none" xmlns="http://www.w3.org/2000/svg">
<circle cx="40.6809" cy="22.4118" r="22.0666" fill="#D2F7FF"/>
<path d="M18.0242 31.8385L18.0237 31.8379L10.172 24.1633C9.75938 23.76 9.74174 23.1126 10.1282 22.6877L10.1284 22.6875L19.2199 12.7335C19.2824 12.6475 19.3622 12.5657 19.4503 12.4954C25.9453 5.2209 35.9356 0.654402 45.0746 0.85644L18.0242 31.8385ZM18.0242 31.8385C18.2384 32.0456 18.5179 32.15 18.7967 32.15C19.0753 32.15 19.3553 32.0457 19.568 31.8358C19.996 31.4172 19.9959 30.7357 19.5678 30.3172L12.4521 23.362L20.8772 14.1302C20.9259 14.0914 20.9751 14.0469 21.0198 13.9951C26.7569 7.51733 35.8498 3.19246 43.9552 3.00073C43.8184 8.25406 41.842 14.0276 38.4415 19.0051L38.4414 19.0053C38.1045 19.5003 38.2445 20.1683 38.7457 20.4956C39.2412 20.8198 39.9219 20.693 40.2595 20.2002L40.2596 20.2C44.1852 14.4536 46.2752 7.9572 46.1442 1.90529L46.1442 1.90509M18.0242 31.8385L46.1442 1.90509M46.1442 1.90509C46.131 1.32953 45.6578 0.86922 45.0746 0.85644L46.1442 1.90509Z" fill="#3D3D3D" stroke="#3D3D3D" stroke-width="0.3"/>
<path d="M6.40953 19.2759C10.2536 16.4172 15.0234 14.862 20.0603 14.862C20.6484 14.862 21.15 14.4242 21.15 13.856C21.15 13.2878 20.6484 12.85 20.0603 12.85C13.7062 12.85 7.73276 15.1005 3.17468 19.2526C2.88024 19.5208 2.77261 19.9232 2.90742 20.2916C3.04125 20.6573 3.38307 20.913 3.78621 20.9657L3.78625 20.9657L12.7813 22.14C12.8365 22.1482 12.8895 22.15 12.9375 22.15C13.4587 22.15 13.9328 21.7988 14.0158 21.2897L14.016 21.2887C14.1043 20.7233 13.6735 20.2256 13.0908 20.1479L13.0904 20.1478L6.40953 19.2759Z" fill="#3D3D3D" stroke="#3D3D3D" stroke-width="0.3"/>
<path d="M30.9843 16.0046L30.9842 16.0045C29.872 14.8875 29.8719 13.0692 30.9841 11.9522C31.5244 11.4115 32.2387 11.114 33.001 11.114C33.7617 11.114 34.4776 11.4097 35.0156 11.9519L35.0158 11.952C36.1281 13.0691 36.1281 14.8875 35.0158 16.0045C33.9398 17.085 32.0563 17.083 30.9843 16.0046ZM29.3569 17.6349C30.3295 18.6116 31.6244 19.15 33.001 19.15L29.4632 10.4235L29.3569 10.3176C29.3569 10.3177 29.3569 10.3177 29.3569 10.3177C27.3477 12.3355 27.3477 15.6171 29.3569 17.6349Z" fill="#3D3D3D" stroke="#3D3D3D" stroke-width="0.3"/>
<path d="M2.24713 46.1068L2.24714 46.1069L2.24934 46.1062C2.76438 45.9521 5.29085 45.1853 7.94058 44.2056C9.26528 43.7158 10.6232 43.1719 11.7769 42.6239C12.9252 42.0785 13.8894 41.5208 14.4111 40.999C16.7296 38.6804 16.7296 34.9075 14.4111 32.5889C12.0926 30.2704 8.31979 30.2704 6.00126 32.5889C5.47951 33.1107 4.9218 34.075 4.37641 35.2235C3.82845 36.3774 3.28462 37.7355 2.79496 39.0604C1.81564 41.7101 1.04946 44.2363 0.896091 44.751C0.780881 45.1339 0.885325 45.5494 1.16816 45.8322C1.37517 46.0393 1.6537 46.15 1.93814 46.15C2.04236 46.15 2.14798 46.1349 2.24713 46.1068ZM6.64135 35.5282C6.98045 34.8651 7.28692 34.3781 7.53938 34.1252C8.27526 33.3912 9.24184 33.0232 10.2071 33.0232C11.1725 33.0232 12.1391 33.3912 12.873 34.1234C14.3429 35.5933 14.3429 37.9872 12.873 39.4571C12.6206 39.7095 12.1339 40.016 11.4708 40.3552C10.8124 40.692 9.99467 41.0538 9.09314 41.42C7.38066 42.1156 5.37323 42.8237 3.59651 43.4018C4.17382 41.6252 4.88147 39.6181 5.57676 37.9059C5.9428 37.0044 6.30457 36.1868 6.64135 35.5282Z" fill="#3D3D3D" stroke="#3D3D3D" stroke-width="0.3"/>
<path d="M21.85 34C21.85 40.6995 27.3005 46.15 34 46.15C40.6995 46.15 46.15 40.6995 46.15 34C46.15 27.3005 40.6995 21.85 34 21.85C27.3005 21.85 21.85 27.3005 21.85 34ZM23.9962 34C23.9962 28.4835 28.4853 23.9962 34 23.9962C39.5147 23.9962 44.0038 28.4835 44.0038 34C44.0038 39.5165 39.5147 44.0038 34 44.0038C28.4853 44.0038 23.9962 39.5165 23.9962 34Z" fill="#3D3D3D" stroke="#3D3D3D" stroke-width="0.3"/>
<path d="M30.8581 37.8446L30.8587 37.8452L38.6845 29.2236L38.7821 29.1097C38.7821 29.1097 38.7821 29.1096 38.7821 29.1096C38.3385 28.7295 37.662 28.7706 37.271 29.2081C37.271 29.2081 37.271 29.2082 37.2709 29.2082L31.5631 35.5678L28.6802 32.7574C28.2618 32.3496 27.5836 32.3496 27.1653 32.7574C26.7449 33.1673 26.7449 33.8349 27.1653 34.2448L30.8581 37.8446Z" fill="#3D3D3D" stroke="#3D3D3D" stroke-width="0.3"/>
</svg>
