<svg width="46" height="16" viewBox="0 0 46 16" fill="none" xmlns="http://www.w3.org/2000/svg">
<g clip-path="url(#clip0_6388_11138)">
<path d="M7.30132 0.121578C8.3058 -0.049803 9.34361 -0.0355212 10.3481 0.164423C10.8432 0.250114 11.3002 0.488143 11.7287 0.735694C12.2142 1.02609 12.7093 1.29268 13.2092 1.54975C14.4136 2.34953 15.3991 3.49207 15.9608 4.83456C16.2798 5.57721 16.4702 6.37223 16.5511 7.17677C16.7416 8.23362 16.6368 9.32855 16.2893 10.3426C16.0132 11.347 15.38 12.1849 14.8707 13.075C14.7992 13.1941 14.6993 13.2988 14.6088 13.4083C13.9519 14.1986 13.1759 14.9127 12.2142 15.3078C12.2571 15.2507 12.2809 15.1888 12.2904 15.1222C12.1809 15.146 12.0714 15.1746 11.9619 15.208C12.0238 15.127 12.119 15.0841 12.2047 15.027C12.5189 14.8223 12.8188 14.5985 13.1045 14.3557C13.1521 14.3129 13.2187 14.2891 13.2378 14.2224C13.1235 14.27 13.0521 14.3795 12.9474 14.4462C11.4383 15.5364 9.54832 16.1362 7.68217 15.9743C5.75889 15.8172 3.92606 14.8842 2.64071 13.4465C1.75048 12.461 1.10304 11.2566 0.774555 9.97123C0.384187 8.49545 0.427032 6.90541 0.922133 5.4582C1.20777 4.62033 1.6267 3.82531 2.18845 3.13979C3.06916 2.04009 4.19742 1.11654 5.49706 0.559552C6.09689 0.402453 6.6872 0.22155 7.30132 0.121578ZM7.39653 0.573834C6.03024 0.816624 4.74488 1.46406 3.70232 2.3781C2.58358 3.35402 1.73619 4.63938 1.2887 6.05327C1.12684 6.85781 0.955458 7.67663 0.964979 8.50021C1.13636 9.72368 1.50769 10.9424 2.20273 11.9754C2.67879 12.6895 3.31195 13.2941 4.02604 13.7607C4.06412 13.7845 4.10697 13.8035 4.14505 13.8178C3.72612 13.5226 3.36908 13.1561 3.00251 12.799C1.81236 11.5946 1.14588 9.90458 1.15064 8.21458C1.14112 6.76736 1.59814 5.3249 2.40744 4.12523C2.75496 3.76819 2.98823 3.32069 3.32147 2.94461C4.42116 1.89252 5.82078 1.17367 7.2918 0.802342C8.89612 0.564313 10.5671 0.835666 12.0286 1.53547C13.4092 2.19243 14.6088 3.24452 15.38 4.56797C15.9704 5.56769 16.2941 6.71975 16.3226 7.87657C16.3417 7.45288 16.3798 7.01491 16.256 6.60074C16.1036 5.97234 15.9608 5.32966 15.6657 4.75363C15.1372 3.86816 14.5945 2.96365 13.8186 2.27336C13.2283 1.7497 12.538 1.34505 11.8048 1.05465C11.1669 0.883272 10.5242 0.730933 9.88156 0.569073C9.06274 0.421495 8.21535 0.431016 7.39653 0.573834ZM7.58696 1.69733C6.33968 2.00201 5.19238 2.64469 4.2117 3.45875C3.93082 3.72534 3.66423 4.01574 3.51189 4.37754C3.47857 4.45847 3.45953 4.54892 3.40716 4.62509C3.42144 4.62509 3.44524 4.62033 3.45953 4.61557C3.73088 4.23949 4.01651 3.87292 4.35928 3.55872C5.32568 2.65897 6.61103 2.13531 7.91544 2.02581C9.38646 1.89252 10.8908 2.25908 12.1381 3.03506C12.5665 3.27785 12.9664 3.56824 13.3092 3.92529C13.9185 4.55368 14.3565 5.3487 14.6088 6.18657C14.8754 6.95778 15.0944 7.7766 14.9897 8.60018C14.8516 9.47142 14.8326 10.3806 14.4755 11.2042C14.1708 11.6755 13.89 12.1612 13.5758 12.6229C12.5522 13.7845 11.2383 14.7366 9.72446 15.1079C9.58164 15.1222 9.45311 15.2031 9.30553 15.1888C9.45311 15.2222 9.5864 15.1365 9.73398 15.1365C11.2002 14.8651 12.5665 14.1081 13.5853 13.0228C14.5374 12.0088 15.1801 10.6901 15.3515 9.30475C15.3562 8.73348 15.3515 8.16697 15.3515 7.5957C15.3705 7.27198 15.2801 6.95778 15.2039 6.64358C14.8088 5.144 13.8566 3.82055 12.6237 2.89224C12.2619 2.62565 11.8905 2.36381 11.4716 2.19243C10.2576 1.66401 8.89612 1.54023 7.58696 1.69733ZM5.65416 5.81048C5.0686 6.54837 4.78773 7.52429 4.91151 8.45737C4.98291 9.01916 5.2019 9.54754 5.49706 10.0236C5.45897 9.99504 5.3828 9.93315 5.34472 9.90458C5.25427 9.87126 5.25427 9.97599 5.29711 10.0236C5.52562 10.4711 5.90171 10.8234 6.3016 11.1233C6.64912 11.3137 6.9776 11.5423 7.34893 11.6898C7.79166 11.8469 8.2582 11.9516 8.7295 11.9136C9.2722 11.8611 9.82443 11.7659 10.3148 11.5137C10.8242 11.2661 11.2526 10.871 11.6287 10.4521C11.8953 10.1807 11.9239 9.78081 12.1238 9.47137C12.3475 9.09528 12.3904 8.64303 12.3951 8.21458C12.4047 7.7528 12.3095 7.29578 12.1762 6.85781C12.1095 6.55313 11.9381 6.28654 11.7715 6.02947C11.2336 5.27253 10.4528 4.66794 9.5388 4.45371C8.1249 4.09191 6.54439 4.66318 5.65416 5.81048ZM40.1256 3.17311C41.4014 5.45344 42.6677 7.74804 43.9388 10.0331C44.453 10.9662 44.9814 11.8897 45.486 12.8276C44.6434 12.8228 43.8055 12.8371 42.9676 12.8228C42.0298 11.109 41.0682 9.40948 40.1302 7.69567C39.4257 8.89534 38.7545 10.1141 38.0689 11.3185C37.7881 11.8183 37.4976 12.3133 37.2263 12.8181C36.398 12.8323 35.5696 12.8228 34.7413 12.8276C35.2603 11.8945 35.7839 10.9614 36.3028 10.0284C37.5739 7.74328 38.8545 5.4582 40.1256 3.17311ZM30.1759 3.24452C30.89 3.23024 31.5994 3.22548 32.3134 3.24452C32.3039 5.21541 32.3039 7.18153 32.3039 9.15241C32.2944 9.63323 32.3039 10.1093 32.2991 10.5901C33.2226 10.5949 34.1463 10.5901 35.0697 10.5949C34.6556 11.3375 34.2128 12.0754 33.7987 12.8228C32.5896 12.8323 31.3803 12.8277 30.1663 12.8228C30.1712 11.3042 30.1712 9.78081 30.1759 8.26218C30.1712 6.58646 30.1855 4.91549 30.1759 3.24452ZM20.6548 5.42487C21.5022 4.09191 23.0446 3.235 24.6299 3.235C26.1866 3.20644 27.7242 4.00146 28.6097 5.28205C29.2143 6.14372 29.5191 7.21009 29.4666 8.26218C29.4047 9.80461 28.5335 11.2804 27.2197 12.0897C26.2104 12.7324 24.9488 12.9656 23.773 12.7371C22.2496 12.4563 20.9071 11.3851 20.293 9.96647C19.6408 8.51925 19.7788 6.74831 20.6548 5.42487ZM24.13 5.52961C23.4254 5.68194 22.7923 6.15324 22.4447 6.7864C22.121 7.35767 22.0353 8.05748 22.2116 8.69063C22.383 9.34284 22.8256 9.91411 23.4065 10.2473C23.9874 10.5806 24.7014 10.6709 25.344 10.4949C25.9962 10.3188 26.5675 9.87602 26.9008 9.29042C27.2291 8.71434 27.3197 8.00506 27.1435 7.36238C26.9674 6.70542 26.5151 6.12463 25.9153 5.79139C25.3773 5.49152 24.7298 5.40107 24.13 5.52961Z" fill="#221E1F" stroke="#221E1F" stroke-width="0.00447495"/>
<path d="M5.65423 5.81094C6.54446 4.66363 8.12497 4.09236 9.53887 4.45417C10.4529 4.6684 11.2336 5.27299 11.7716 6.02992C11.9382 6.287 12.1096 6.55359 12.1762 6.85827C12.3095 7.29624 12.4047 7.75326 12.3952 8.21503C12.3905 8.64349 12.3476 9.09574 12.1239 9.47183C11.9239 9.78127 11.8954 10.1811 11.6288 10.4525C11.2527 10.8714 10.8242 11.2666 10.3148 11.5141C9.8245 11.7664 9.27227 11.8616 8.72957 11.914C8.25827 11.9521 7.79173 11.8474 7.349 11.6903C6.97767 11.5427 6.64919 11.3142 6.30167 11.1238C5.90178 10.8238 5.52569 10.4716 5.29718 10.0241C5.25434 9.97645 5.25434 9.87172 5.34479 9.90504C5.38287 9.9336 5.45904 9.99549 5.49713 10.0241C5.20197 9.548 4.98299 9.01957 4.91158 8.45782C4.7878 7.52475 5.06868 6.54883 5.65423 5.81094ZM7.39184 4.83978C7.34424 4.85882 7.29187 4.88262 7.25379 4.92071C8.29635 4.47321 9.55315 4.58747 10.4957 5.21586C10.7433 5.44437 11.067 5.59195 11.2432 5.88711C11.5907 6.36316 11.8954 6.88207 12.0429 7.45334C12.2762 8.79582 11.6859 10.2383 10.5814 11.0333C10.2863 11.2665 9.934 11.4093 9.58647 11.5474C9.3294 11.6427 9.04377 11.6284 8.78193 11.7093C8.95331 11.7141 9.12946 11.795 9.30084 11.7425C9.60552 11.6617 9.91971 11.5903 10.2053 11.4426C10.7147 11.1332 11.2336 10.7952 11.5669 10.2858C11.6192 10.1954 11.7049 10.1144 11.7145 10.005L11.7383 9.96217C11.743 9.95736 11.7525 9.94313 11.7573 9.93356C11.9572 9.65273 11.9858 9.30035 12.0715 8.97197C12.2714 8.25788 12.1858 7.4819 11.8954 6.8059C11.5193 5.94423 10.8052 5.24443 9.94828 4.86358C9.47698 4.64459 8.95331 4.58747 8.44393 4.56366C8.07737 4.5827 7.72984 4.70648 7.39184 4.83978ZM9.9816 5.60623C10.2577 5.84902 10.5148 6.10609 10.7385 6.39173C11.1622 6.92967 11.4859 7.60568 11.405 8.30548C11.3622 8.82915 11.067 9.2814 10.7909 9.70986C10.5434 10.0812 10.2672 10.4477 9.91019 10.7285C9.73405 10.8713 9.50554 10.9285 9.30084 11.0284C9.11041 11.1189 8.93427 11.2379 8.72957 11.2903C9.02948 11.3523 9.32464 11.2379 9.60075 11.1427C10.3434 10.8523 10.9528 10.2763 11.3288 9.58123C11.6145 8.9813 11.6764 8.29587 11.5954 7.64367C11.4479 7.05335 11.1384 6.51541 10.7433 6.05363C10.5814 5.89177 10.4005 5.72039 10.1625 5.70135C10.0959 5.67764 10.0435 5.63479 9.9816 5.60623ZM5.35431 8.92436C5.68279 10.243 6.92054 11.2999 8.29159 11.3332C7.93931 11.219 7.60131 11.0714 7.26807 10.9143C6.93959 10.6905 6.56826 10.5192 6.28263 10.2288C5.84941 9.80512 5.45904 9.29569 5.32099 8.69585C5.30194 8.77202 5.33051 8.84819 5.35431 8.92436Z" fill="#D7DF20" stroke="#D7DF20" stroke-width="0.00447495"/>
<path d="M9.58652 11.5473C10.4529 11.3188 11.2289 10.7618 11.7145 10.0049C11.705 10.1144 11.6193 10.1953 11.5669 10.2858C11.2337 10.7951 10.7148 11.1331 10.2054 11.4426C9.91976 11.5903 9.60556 11.6617 9.30089 11.7425C9.12951 11.795 8.95336 11.7139 8.78198 11.7093C9.04381 11.6282 9.32945 11.6425 9.58652 11.5473Z" fill="#221E1F" stroke="#221E1F" stroke-width="0.00447495"/>
</g>
<defs>
<clipPath id="clip0_6388_11138">
<rect width="45" height="16.002" fill="white" transform="translate(0.5)"/>
</clipPath>
</defs>
</svg>
