<svg width="24" height="24" viewBox="0 0 24 24" fill="none" xmlns="http://www.w3.org/2000/svg">
<rect width="24" height="24" rx="3" fill="#D9FAFF"/>
<g clip-path="url(#clip0_5475_12574)">
<path d="M20.838 9.4378C18.5148 6.97 15.3789 5.62012 12.0076 5.63686C8.63648 5.65367 5.51417 7.03469 3.21568 9.52548C2.95237 9.81085 2.97023 10.2557 3.25561 10.519C3.54102 10.7824 3.98584 10.7645 4.24918 10.4791C6.28013 8.2782 9.03793 7.05794 12.0148 7.04309C14.9914 7.02832 17.7613 8.22108 19.814 10.4017C19.9532 10.5496 20.1414 10.6238 20.3296 10.6229C20.5013 10.622 20.6731 10.5586 20.8079 10.4317C21.0907 10.1655 21.1041 9.72054 20.838 9.4378Z" fill="#003262"/>
<path d="M18.27 11.8547C16.5533 10.1422 14.3363 9.20546 12.0273 9.21701C9.7177 9.22854 7.51006 10.1873 5.81104 11.9168C5.5389 12.1938 5.54284 12.639 5.81985 12.9111C6.09687 13.1832 6.54204 13.1793 6.81418 12.9023C8.24851 11.4423 10.1024 10.6329 12.0343 10.6232C13.9656 10.6136 15.8275 11.4045 17.2768 12.8503C17.4149 12.9881 17.596 13.0565 17.7769 13.0556C17.9559 13.0547 18.1347 12.9859 18.2712 12.8491C18.5454 12.5742 18.5449 12.129 18.27 11.8547Z" fill="#003262"/>
<path d="M15.4669 14.2806C14.5476 13.3788 13.2336 12.8224 12.0376 12.8284C12.0374 12.8284 12.0372 12.8284 12.037 12.8284L11.9864 12.8286C11.9862 12.8286 11.986 12.8286 11.9858 12.8286C10.7897 12.8346 9.48122 13.4041 8.57101 14.3149C8.29654 14.5895 8.29668 15.0347 8.57136 15.3092C8.70954 15.4473 8.89087 15.5159 9.07189 15.515C9.25072 15.5141 9.42929 15.4454 9.56569 15.3089C10.2137 14.6605 11.1663 14.239 11.9929 14.2348C11.993 14.2348 11.9931 14.2348 11.9933 14.2348L12.0441 14.2346C12.0443 14.2346 12.0443 14.2346 12.0444 14.2346C12.8709 14.2305 13.8278 14.6426 14.4821 15.2845C14.7593 15.5564 15.2045 15.5522 15.4764 15.2749C15.7484 14.9977 15.7441 14.5525 15.4669 14.2806Z" fill="#003262"/>
<path d="M12.0389 18.9376C12.6796 18.9344 13.1964 18.4124 13.1932 17.7716C13.1901 17.1309 12.6681 16.6141 12.0273 16.6173C11.3866 16.6205 10.8698 17.1425 10.873 17.7832C10.8761 18.4239 11.3981 18.9407 12.0389 18.9376Z" fill="#003262"/>
</g>
<defs>
<clipPath id="clip0_5475_12574">
<rect width="18" height="16.2045" fill="white" transform="translate(3 4.08203) rotate(-0.285068)"/>
</clipPath>
</defs>
</svg>
