<svg width="45" height="45" viewBox="0 0 45 45" fill="none" xmlns="http://www.w3.org/2000/svg">
<rect width="45" height="45" rx="7.5" fill="#003262"/>
<path d="M28 9H15C13.5981 9 12 10.6051 12 12V32C12 33.3949 13.5981 35 15 35H28C29.4019 35 31 33.3949 31 32V12C31 10.6051 29.4019 9 28 9Z" stroke="white" stroke-width="1.125" stroke-miterlimit="10"/>
<path d="M23.9728 9.96949H19.0272C18.8705 9.97103 19.1715 10.0167 19.0272 9.96949C18.8829 9.92232 18.146 10.0575 18.0381 9.96949C17.9302 9.88149 18.0915 9.14632 18.0381 9.03221C17.9847 8.91811 18.0281 9.15334 18.0381 9.03221H24.9619C24.9719 9.15334 25.0153 8.91811 24.9619 9.03221C24.9085 9.14632 25.0698 9.88149 24.9619 9.96949C24.854 10.0575 24.1171 9.92232 23.9728 9.96949C23.8285 10.0167 24.1295 9.97103 23.9728 9.96949Z" stroke="white" stroke-width="1.125" stroke-miterlimit="10"/>
<path d="M18 25H22C22.4674 25 22.6695 24.3282 23 24C23.3305 23.6718 24 23.4641 24 23C24 22.5359 23.3305 22.3282 23 22C22.6695 21.6718 22.4674 21 22 21H21C20.7686 21 20.2138 21.0879 20 21C19.7862 20.9121 20.1636 21.1625 20 21C19.8364 20.8375 19.0886 20.2123 19 20C18.9114 19.7877 19 20.2298 19 20C19 19.5359 19.6695 19.3282 20 19C20.3305 18.6718 20.5326 18 21 18H25" stroke="white" stroke-width="1.125" stroke-miterlimit="10"/>
<path d="M22 16V18" stroke="white" stroke-width="1.125" stroke-miterlimit="10"/>
<path d="M22 26V28" stroke="white" stroke-width="1.125" stroke-miterlimit="10"/>
</svg>
