<svg width="46" height="45" viewBox="0 0 46 45" fill="none" xmlns="http://www.w3.org/2000/svg">
<path d="M43.3603 12.2793H1.94922V32.0393H43.3603V12.2793Z" fill="black"/>
<path d="M10.2521 21.7607L10.6731 20.2906H12.6263C13.6547 20.2906 14.2759 19.8212 14.5657 18.8343L14.7245 18.289C15.0903 17.0329 14.4967 16.253 13.1992 16.253H4.70992L3.12939 21.7607H10.2521ZM13.1854 17.73L12.8541 18.9309H11.0665L11.4047 17.7369H13.1854V17.73ZM15.4492 21.7607L15.9737 20.8358H18.3894V21.7607H19.9768V16.2461H16.8572L13.6064 21.7607H15.4492ZM17.7337 17.7438H18.3894V19.4969H16.7329L17.7337 17.7438ZM26.4576 18.7791L26.6026 18.2821C26.9684 17.0122 26.3748 16.2461 25.0772 16.2461H22.0611L20.4806 21.7607H22.1302L22.565 20.2423H23.5934L24.0627 21.7607H25.7605L25.2636 20.1387C25.8572 19.9593 26.2506 19.5038 26.4576 18.7791ZM23.2759 17.73H25.0565L24.7253 18.924H22.9377L23.2759 17.73ZM28.0036 21.7607L29.5842 16.2461H27.9277L26.3541 21.7607H28.0036ZM17.8786 22.5406L16.0151 24.7423L15.249 22.5406H8.09872L6.5251 28.062H13.6547L14.5243 25.0114L15.1041 26.7162H16.167L17.7061 24.901L16.795 28.062H18.4446L20.0182 22.5406H17.8786ZM22.2337 22.5406L18.976 28.0551H20.8188L21.3434 27.1303H23.759V28.0551H25.3464V22.5475L22.2337 22.5406ZM22.1095 25.8051L23.1033 24.0521H23.759V25.8051H22.1095ZM30.9369 24.1211L31.3855 22.5406H26.3679L25.9193 24.1211H27.7345L26.6026 28.062H28.2521L29.384 24.1211H30.9369ZM33.1386 24.1211H35.644L36.0995 22.5475H33.4285C32.4001 22.5475 31.7789 23.0168 31.4891 24.0038L30.9024 26.0191C30.5297 27.3097 31.1302 28.0551 32.4277 28.0551H34.5052L34.9538 26.4815H32.4484L33.1386 24.1211ZM40.3717 22.5406L39.8058 24.5145H37.9147L38.4737 22.5406H36.8242L35.2506 28.062H36.9001L37.4592 26.0881H39.3503L38.7912 28.062H40.4476L42.0213 22.5406H40.3717Z" fill="#F6FF00"/>
</svg>
