<svg width="120" height="10" viewBox="0 0 120 10" fill="none" xmlns="http://www.w3.org/2000/svg">
<path d="M0.169873 4.75146L4.5 9.08159L8.83013 4.75146L4.5 0.421338L0.169873 4.75146ZM120 4.75146L112.5 0.421338V9.08159L120 4.75146ZM4.5 5.50146H7.3875V4.00146H4.5V5.50146ZM13.1625 5.50146H18.9375V4.00146H13.1625V5.50146ZM24.7125 5.50146H30.4875V4.00146H24.7125V5.50146ZM36.2625 5.50146H42.0375V4.00146H36.2625V5.50146ZM47.8125 5.50146H53.5875V4.00146H47.8125V5.50146ZM59.3625 5.50146H65.1375V4.00146H59.3625V5.50146ZM70.9125 5.50146H76.6875V4.00146H70.9125V5.50146ZM82.4625 5.50146H88.2375V4.00146H82.4625V5.50146ZM94.0125 5.50146H99.7875V4.00146H94.0125V5.50146ZM105.563 5.50146H111.338V4.00146H105.563V5.50146Z" fill="#3D3D3D"/>
</svg>
