<svg width="24" height="24" viewBox="0 0 24 24" fill="none" xmlns="http://www.w3.org/2000/svg">
<rect width="24" height="24" rx="3" fill="#D9FAFF"/>
<path d="M15.8227 3.59405C15.5108 3.58357 15.1843 3.63794 14.857 3.74405C14.2024 3.95628 13.5165 4.36986 12.8125 4.94249C12.5366 5.1669 12.2582 5.42343 11.9789 5.69561C11.7057 5.43034 11.4331 5.17992 11.1633 4.96046C10.4599 4.38828 9.77578 3.97533 9.12266 3.76358C8.46953 3.55184 7.81967 3.54528 7.28594 3.85343C6.7522 4.16158 6.43303 4.72724 6.28984 5.39874C6.14666 6.07024 6.16165 6.8699 6.30547 7.76515C6.35542 8.07611 6.42745 8.40233 6.50859 8.73468C6.20362 8.8271 5.90745 8.92428 5.63281 9.03155C4.80397 9.35528 4.11816 9.74257 3.61875 10.2034C3.11934 10.6643 2.79688 11.2236 2.79688 11.8378C2.79688 12.452 3.11934 13.0105 3.61875 13.4714C4.11816 13.9323 4.80397 14.3203 5.63281 14.6441C5.92648 14.7588 6.24443 14.862 6.57266 14.9597C6.45459 15.4008 6.35894 15.8289 6.29375 16.2347C6.14982 17.1306 6.13462 17.9304 6.27813 18.6034C6.42164 19.2764 6.74097 19.8453 7.27734 20.155C7.81372 20.4647 8.46649 20.4571 9.12109 20.2448C9.7757 20.0326 10.4609 19.6198 11.1648 19.0472C11.4382 18.8248 11.7147 18.5712 11.9914 18.3019C12.2694 18.5727 12.5473 18.8277 12.8219 19.0511C13.5253 19.6233 14.2102 20.0362 14.8633 20.248C15.5164 20.4597 16.1655 20.4663 16.6992 20.1581C17.233 19.85 17.5521 19.2843 17.6953 18.6128C17.8385 17.9413 17.8227 17.1416 17.6789 16.2464C17.6135 15.8395 17.5178 15.4108 17.3992 14.9683C17.7383 14.8682 18.0663 14.7622 18.3688 14.6441C19.1976 14.3203 19.8834 13.9323 20.3828 13.4714C20.8822 13.0105 21.2047 12.452 21.2047 11.8378C21.2047 11.2236 20.8822 10.6643 20.3828 10.2034C19.8834 9.74257 19.1976 9.35528 18.3688 9.03155C18.0902 8.92275 17.7895 8.8243 17.4797 8.73077C17.5615 8.39639 17.6341 8.06782 17.6844 7.75499C17.8283 6.85902 17.8435 6.05848 17.7 5.38546C17.5565 4.71244 17.2364 4.14435 16.7 3.83468C16.4318 3.67984 16.1345 3.60454 15.8227 3.59405ZM15.7859 4.40811C15.9816 4.41347 16.1486 4.46004 16.2914 4.54249C16.577 4.70739 16.7881 5.02834 16.9008 5.55655C17.0134 6.08476 17.0095 6.79843 16.8766 7.62608C16.831 7.90945 16.7649 8.20978 16.6898 8.51749C15.8719 8.32063 14.9756 8.17447 14.0203 8.08858C13.5404 7.42369 13.0472 6.81885 12.55 6.28155C12.8129 6.02497 13.074 5.78499 13.3289 5.57765C13.9792 5.04868 14.5948 4.68874 15.1086 4.52218C15.3655 4.4389 15.5902 4.40276 15.7859 4.40811ZM8.19531 4.41046C8.39215 4.40496 8.61738 4.441 8.875 4.52452C9.39024 4.69157 10.007 5.05134 10.6578 5.58077C10.9075 5.78391 11.163 6.01865 11.4203 6.26905C10.9196 6.81061 10.4229 7.42178 9.93984 8.09249C8.98798 8.17996 8.09489 8.32751 7.28047 8.5253C7.20586 8.21906 7.14064 7.91994 7.09531 7.6378C6.96224 6.80943 6.95892 6.09488 7.07188 5.56515C7.18483 5.03541 7.39768 4.71282 7.68594 4.5464C7.83007 4.46318 7.99848 4.41595 8.19531 4.41046ZM11.9914 6.85733C12.3172 7.21189 12.6432 7.60002 12.9664 8.01749C12.6488 8.00425 12.3273 7.9964 12.0008 7.9964C11.6678 7.9964 11.3401 8.0045 11.0164 8.01827C11.3397 7.60042 11.6655 7.2122 11.9914 6.85733ZM12.0008 8.80421C12.5447 8.80421 13.0749 8.82656 13.5906 8.86436C13.9455 9.37403 14.2922 9.91472 14.6227 10.487C14.913 10.9899 15.1757 11.492 15.4148 11.9878C15.1732 12.4902 14.9061 12.9991 14.6117 13.5089C14.3526 13.9577 14.0821 14.3839 13.807 14.7948C13.2245 14.8435 12.6209 14.8706 12.0008 14.8706C11.3657 14.8706 10.7486 14.8419 10.1531 14.7909C9.88268 14.3859 9.61668 13.9653 9.36172 13.5237C9.06806 13.0151 8.80221 12.5079 8.56094 12.0066C8.80322 11.5023 9.07026 10.9916 9.36562 10.48C9.69431 9.91069 10.0401 9.37312 10.393 8.86593C10.9142 8.82727 11.4506 8.80421 12.0008 8.80421ZM14.6211 8.96436C15.2802 9.04663 15.899 9.16092 16.475 9.29796C16.304 9.85842 16.0934 10.4438 15.8383 11.048C15.6726 10.7286 15.501 10.4081 15.3156 10.087C15.0911 9.69808 14.8576 9.32669 14.6211 8.96436ZM9.33828 8.97061C9.10664 9.32634 8.87872 9.69013 8.65859 10.0714C8.47082 10.3966 8.29567 10.7214 8.12813 11.0448C7.87517 10.4443 7.66584 9.86225 7.49609 9.30499C8.06798 9.16765 8.68349 9.05383 9.33828 8.97061ZM17.2664 9.51046C17.55 9.59625 17.8238 9.68579 18.075 9.7839C18.8391 10.0823 19.4434 10.4357 19.8352 10.7972C20.2269 11.1587 20.3969 11.5034 20.3969 11.8378C20.3969 12.1722 20.2269 12.5169 19.8352 12.8784C19.4434 13.2399 18.8391 13.5933 18.075 13.8917C17.7959 14.0007 17.4892 14.0996 17.1703 14.1933C16.9429 13.4898 16.6525 12.7558 16.307 12.0066C16.7043 11.1463 17.0252 10.3076 17.2664 9.51046ZM6.72187 9.51436C6.9603 10.3035 7.27712 11.134 7.66875 11.9855C7.32097 12.7391 7.02922 13.4772 6.80078 14.1847C6.49317 14.0935 6.19687 13.9973 5.92656 13.8917C5.1625 13.5933 4.55812 13.2399 4.16641 12.8784C3.77469 12.5169 3.60469 12.1722 3.60469 11.8378C3.60469 11.5034 3.77469 11.1587 4.16641 10.7972C4.55812 10.4357 5.1625 10.0823 5.92656 9.7839C6.17389 9.6873 6.44315 9.59904 6.72187 9.51436ZM12.0008 10.0003C10.9009 10.0003 10.0008 10.9005 10.0008 12.0003C10.0008 13.1001 10.9009 14.0003 12.0008 14.0003C13.1006 14.0003 14.0008 13.1001 14.0008 12.0003C14.0008 10.9005 13.1006 10.0003 12.0008 10.0003ZM12.0008 10.8003C12.6683 10.8003 13.2008 11.3328 13.2008 12.0003C13.2008 12.6678 12.6683 13.2003 12.0008 13.2003C11.3333 13.2003 10.8008 12.6678 10.8008 12.0003C10.8008 11.3328 11.3333 10.8003 12.0008 10.8003ZM15.8484 12.9456C16.0582 13.4421 16.2406 13.9279 16.3938 14.3964C15.9127 14.5079 15.4005 14.6019 14.8617 14.6761C15.0168 14.4286 15.17 14.1765 15.3195 13.9175C15.507 13.5928 15.6811 13.2685 15.8484 12.9456ZM8.1375 12.9464C8.3057 13.2713 8.48089 13.597 8.66953 13.9237C8.81721 14.1795 8.968 14.4292 9.12109 14.6737C8.58391 14.5993 8.07327 14.5049 7.59375 14.3933C7.74624 13.9262 7.92868 13.4414 8.1375 12.9464ZM7.36328 15.1698C8.08721 15.3413 8.87187 15.4731 9.70391 15.5589C10.2594 16.3624 10.8379 17.084 11.4203 17.7151C11.1599 17.969 10.9018 18.2073 10.6492 18.4128C9.99893 18.9418 9.38251 19.3009 8.86875 19.4675C8.35499 19.6341 7.97156 19.6121 7.68594 19.4472C7.40032 19.2823 7.18998 18.9613 7.07734 18.4331C6.96471 17.9049 6.96782 17.192 7.10078 16.3644C7.1611 15.9889 7.25124 15.5869 7.36328 15.1698ZM16.625 15.173C16.7379 15.5923 16.8284 15.9962 16.8891 16.3737C17.0221 17.2021 17.0255 17.9159 16.9125 18.4456C16.7995 18.9754 16.5875 19.2987 16.2992 19.4651C16.011 19.6316 15.6246 19.6541 15.1094 19.487C14.5941 19.32 13.9774 18.9594 13.3266 18.43C13.0722 18.223 12.8123 17.9836 12.55 17.7276C13.1362 17.0941 13.719 16.3686 14.2781 15.5605C15.1123 15.4752 15.8991 15.3443 16.625 15.173ZM10.7477 15.6409C11.1584 15.6633 11.5745 15.6784 12.0008 15.6784C12.413 15.6784 12.8156 15.6642 13.2133 15.6433C12.8068 16.1917 12.3924 16.6904 11.9797 17.1394C11.5672 16.6894 11.1536 16.1899 10.7477 15.6409Z" fill="#003262"/>
</svg>
