<svg width="24" height="24" viewBox="0 0 24 24" fill="none" xmlns="http://www.w3.org/2000/svg">
<rect width="24" height="24" rx="3" fill="#D9FAFF"/>
<path d="M3.375 15.5928H20.625" stroke="#003262" stroke-width="1.5" stroke-miterlimit="10"/>
<path d="M4.81641 15.5928H19.1864V15.7503C19.1864 16.4763 18.898 17.1726 18.3846 17.686C17.8712 18.1994 17.1749 18.4878 16.4489 18.4878H7.55391C6.82788 18.4878 6.13158 18.1994 5.6182 17.686C5.10482 17.1726 4.81641 16.4763 4.81641 15.7503V15.6153V15.5928Z" stroke="#003262" stroke-width="1.5" stroke-miterlimit="10"/>
<path d="M12.0014 8.40723C13.907 8.40723 15.7345 9.16422 17.082 10.5117C18.4294 11.8591 19.1864 13.6866 19.1864 15.5922H4.81641C4.81641 13.6866 5.57339 11.8591 6.92084 10.5117C8.26829 9.16422 10.0958 8.40723 12.0014 8.40723Z" stroke="#003262" stroke-width="1.5" stroke-miterlimit="10"/>
<path d="M11.9986 8.40734C12.7939 8.40734 13.4386 7.76263 13.4386 6.96734C13.4386 6.17205 12.7939 5.52734 11.9986 5.52734C11.2033 5.52734 10.5586 6.17205 10.5586 6.96734C10.5586 7.76263 11.2033 8.40734 11.9986 8.40734Z" stroke="#003262" stroke-width="1.5" stroke-miterlimit="10"/>
</svg>
