<svg width="15" height="15" viewBox="0 0 15 15" fill="none" xmlns="http://www.w3.org/2000/svg">
<g clip-path="url(#clip0_4602_19411)">
<path d="M0.901583 6.44756C0.962958 6.4376 1.02507 6.43301 1.08722 6.43381H11.6694L11.4387 6.32649C11.2131 6.21973 11.0079 6.07444 10.8323 5.89719L7.86478 2.92968C7.47395 2.55659 7.40828 1.95641 7.70916 1.50763C8.05934 1.0294 8.73088 0.925564 9.20915 1.27574C9.24778 1.30405 9.28451 1.3349 9.31902 1.36811L14.6852 6.73432C15.1046 7.15322 15.105 7.83275 14.6861 8.25212C14.6858 8.25239 14.6855 8.25269 14.6852 8.25296L9.31902 13.6192C8.89931 14.0377 8.21978 14.0368 7.80122 13.6171C7.76828 13.584 7.73753 13.5489 7.70916 13.5118C7.40828 13.0631 7.47395 12.4629 7.86478 12.0898L10.8269 9.11692C10.9844 8.95928 11.1654 8.82711 11.3635 8.72518L11.6855 8.58029H1.14628C0.598022 8.60065 0.117008 8.21767 0.0140104 7.67877C-0.0808706 7.09369 0.316498 6.54248 0.901583 6.44756Z" fill="white"/>
</g>
<defs>
<clipPath id="clip0_4602_19411">
<rect width="15" height="15" fill="white" transform="matrix(-1 0 0 1 15 0)"/>
</clipPath>
</defs>
</svg>
