<svg width="45" height="46" viewBox="0 0 45 46" fill="none" xmlns="http://www.w3.org/2000/svg">
<rect y="0.5" width="45" height="45" rx="7.5" fill="#003262"/>
<path d="M22 18.3125C19.415 18.3125 17.3125 20.415 17.3125 23C17.3125 25.585 19.415 27.6875 22 27.6875C24.585 27.6875 26.6875 25.585 26.6875 23C26.6875 20.415 24.585 18.3125 22 18.3125ZM22 25.8125C20.4487 25.8125 19.1875 24.5512 19.1875 23C19.1875 21.4487 20.4487 20.1875 22 20.1875C23.5512 20.1875 24.8125 21.4487 24.8125 23C24.8125 24.5512 23.5512 25.8125 22 25.8125ZM33.51 25.4412C32.6425 24.9387 32.1025 24.0037 32.1012 23C32.1 21.9987 32.6363 21.065 33.515 20.5562C34.1588 20.1825 34.3788 19.3537 34.0063 18.7087L31.9163 15.1012C31.5438 14.4575 30.715 14.2362 30.07 14.6075C29.1962 15.1112 28.11 15.1112 27.2338 14.6025C26.37 14.1012 25.8325 13.17 25.8325 12.1712C25.8325 11.4225 25.2225 10.8137 24.4738 10.8137H19.53C18.78 10.8137 18.1713 11.4225 18.1713 12.1712C18.1713 13.17 17.6337 14.1012 16.7675 14.605C15.8937 15.1112 14.8088 15.1124 13.935 14.6087C13.2888 14.2362 12.4613 14.4587 12.0888 15.1025L9.99625 18.7137C9.62375 19.3575 9.84498 20.1849 10.495 20.5624C11.3612 21.0637 11.9013 21.9975 11.9038 22.9987C11.9063 24.0012 11.3687 24.9375 10.4912 25.4462C10.1787 25.6275 9.95375 25.9187 9.86125 26.2687C9.76875 26.6174 9.81626 26.9812 9.99751 27.295L12.0862 30.9C12.4587 31.545 13.2875 31.7687 13.935 31.395C14.8088 30.8912 15.8925 30.8925 16.7538 31.3912L16.7562 31.3924C16.76 31.3949 16.7637 31.3975 16.7687 31.4C17.6325 31.9012 18.1687 32.8324 18.1675 33.8324C18.1675 34.5812 18.7762 35.19 19.525 35.19H24.4738C25.2225 35.19 25.8312 34.5812 25.8312 33.8337C25.8312 32.8337 26.3687 31.9025 27.2362 31.3987C28.1087 30.8925 29.1937 30.89 30.0687 31.395C30.7137 31.7675 31.5413 31.5462 31.915 30.9025L34.0075 27.2912C34.3787 26.645 34.1575 25.8162 33.51 25.4412ZM30.5387 29.5337C29.1762 28.9399 27.595 29.0212 26.2925 29.775C25.0012 30.5237 24.1488 31.8475 23.9838 33.3125H20.0125C19.85 31.8475 18.995 30.5212 17.7037 29.7737C16.4037 29.02 14.82 28.9399 13.4613 29.5337L11.8663 26.7799C13.06 25.9012 13.7812 24.4912 13.7762 22.9912C13.7725 21.5012 13.0525 20.1012 11.865 19.2225L13.4613 16.4674C14.8213 17.0599 16.405 16.9799 17.7075 16.2249C18.9975 15.4774 19.85 14.1525 20.015 12.6887H23.9838C24.1475 14.1537 25.0013 15.4775 26.295 16.2275C27.5938 16.9812 29.1775 17.0612 30.5387 16.4687L32.135 19.2225C30.9437 20.1 30.2237 21.5075 30.2262 23.005C30.2275 24.4975 30.9475 25.9 32.1363 26.7812L30.5387 29.5337Z" fill="white"/>
</svg>
