<svg width="46" height="45" viewBox="0 0 46 45" fill="none" xmlns="http://www.w3.org/2000/svg">
<g clip-path="url(#clip0_6493_5224)">
<path d="M38.3298 0C42.2891 0 45.5 3.21023 45.5 7.17088V37.8298C45.5 41.7891 42.2891 45 38.3298 45H7.67088C3.71089 45 0.5 41.7891 0.5 37.8298V7.17088C0.5 3.21023 3.71089 0 7.67088 0H38.3298Z" fill="#FFFC00"/>
<path d="M38.1724 30.2155C38.0398 29.7766 37.4051 29.4671 37.4051 29.4671C37.3451 29.4355 37.2914 29.4071 37.2472 29.385C36.1894 28.8735 35.2516 28.2578 34.4622 27.5599C33.8275 26.9979 33.2844 26.379 32.8487 25.7222C32.315 24.9202 32.0656 24.2508 31.9582 23.8876C31.8982 23.6508 31.9077 23.5561 31.9582 23.4329C31.9993 23.3287 32.1224 23.2308 32.1793 23.1835C32.5361 22.9309 33.1108 22.5583 33.4644 22.3309C33.7707 22.132 34.0328 21.9615 34.1875 21.8541C34.6832 21.5068 35.0243 21.1531 35.2232 20.7711C35.4821 20.2785 35.5137 19.7354 35.3116 19.2017C35.0401 18.4818 34.3675 18.0524 33.5118 18.0524C33.3223 18.0524 33.1265 18.0745 32.9308 18.1155C32.4413 18.2229 31.9772 18.3966 31.5888 18.5481C31.5604 18.5608 31.5288 18.5387 31.532 18.5071C31.573 17.544 31.6204 16.2494 31.513 15.0211C31.4183 13.9096 31.1878 12.9718 30.8152 12.154C30.4394 11.333 29.95 10.7267 29.5679 10.2878C29.2048 9.87103 28.5638 9.2553 27.5976 8.70272C26.2398 7.92595 24.6926 7.53125 23.0001 7.53125C21.3108 7.53125 19.7667 7.92595 18.4058 8.70272C17.3827 9.28688 16.7291 9.94682 16.4323 10.2878C16.0502 10.7267 15.5608 11.333 15.185 12.154C14.8093 12.9718 14.5819 13.9065 14.4872 15.0211C14.3799 16.2557 14.4241 17.4461 14.4683 18.5071C14.4683 18.5387 14.4399 18.5608 14.4083 18.5481C14.0199 18.3966 13.5557 18.2229 13.0663 18.1155C12.8737 18.0745 12.6779 18.0524 12.4853 18.0524C11.6327 18.0524 10.9602 18.4818 10.6855 19.2017C10.4834 19.7354 10.515 20.2785 10.7739 20.7711C10.976 21.1531 11.3138 21.5068 11.8096 21.8541C11.9611 21.9615 12.2264 22.132 12.5327 22.3309C12.8768 22.5551 13.4357 22.9182 13.7957 23.1677C13.8399 23.1993 13.9915 23.3129 14.0388 23.4329C14.0894 23.5592 14.0988 23.654 14.0325 23.9066C13.922 24.2729 13.6726 24.936 13.1484 25.7222C12.7126 26.3821 12.1695 26.9979 11.5349 27.5599C10.7455 28.2578 9.80765 28.8735 8.74985 29.385C8.69933 29.4103 8.63934 29.4387 8.57618 29.4766C8.57618 29.4766 7.94466 29.7987 7.82467 30.2155C7.64785 30.8312 8.11833 31.409 8.59513 31.7185C9.37821 32.2237 10.3318 32.4953 10.8844 32.6437C11.0391 32.6847 11.178 32.7226 11.3044 32.7605C11.3833 32.7858 11.5822 32.8615 11.6675 32.9721C11.7748 33.111 11.7875 33.2815 11.8254 33.4741C11.8854 33.7993 12.0211 34.2004 12.4221 34.4782C12.8642 34.7814 13.4231 34.8035 14.1336 34.8319C14.8756 34.8603 15.7976 34.895 16.8554 35.2455C17.3448 35.4066 17.7901 35.6813 18.3016 35.997C19.3752 36.657 20.7109 37.478 22.9906 37.478C25.2736 37.478 26.6187 36.6538 27.6986 35.9907C28.2102 35.6781 28.6491 35.4066 29.129 35.2487C30.1868 34.8982 31.1088 34.8635 31.8509 34.835C32.5613 34.8066 33.1202 34.7877 33.5623 34.4814C33.9917 34.1846 34.1149 33.7425 34.1717 33.411C34.2033 33.2468 34.2222 33.0984 34.317 32.9784C34.3991 32.8742 34.5822 32.8015 34.6675 32.7731C34.7969 32.7321 34.9422 32.6942 35.1032 32.65C35.6558 32.5016 36.3505 32.3279 37.1935 31.8511C38.2103 31.2733 38.2798 30.566 38.1724 30.2155Z" fill="white"/>
<path d="M39.0498 29.8745C38.8256 29.2619 38.3962 28.9367 37.9099 28.6651C37.8184 28.6114 37.7331 28.5672 37.6636 28.5356C37.5184 28.4599 37.37 28.3872 37.2216 28.3114C35.7028 27.5063 34.5155 26.4895 33.6945 25.2865C33.4167 24.8791 33.2241 24.5129 33.0883 24.2129C33.0188 24.0108 33.022 23.8971 33.0725 23.7929C33.1104 23.714 33.2114 23.6319 33.2683 23.5908C33.5303 23.4172 33.7987 23.2435 33.9819 23.1267C34.3071 22.9151 34.566 22.7478 34.7302 22.6341C35.3554 22.1983 35.7912 21.7342 36.0627 21.2163C36.448 20.4869 36.4953 19.6533 36.1985 18.8702C35.788 17.784 34.7586 17.1083 33.5146 17.1083C33.2556 17.1083 32.9935 17.1367 32.7346 17.1935C32.6652 17.2093 32.5988 17.2251 32.5325 17.2409C32.5452 16.502 32.5262 15.7126 32.4599 14.9422C32.2262 12.2266 31.2758 10.8025 30.2843 9.66896C29.8707 9.19532 29.1507 8.50381 28.0708 7.88492C26.5647 7.01973 24.8596 6.58398 22.9997 6.58398C21.1462 6.58398 19.4411 7.01973 17.9349 7.88176C16.8487 8.50065 16.1288 9.19532 15.7183 9.6658C14.7268 10.7994 13.7764 12.2235 13.5427 14.939C13.4764 15.7095 13.4606 16.4989 13.4701 17.2377C13.4038 17.2219 13.3343 17.2062 13.268 17.1904C13.0091 17.1335 12.7438 17.1051 12.4881 17.1051C11.244 17.1051 10.2146 17.7808 9.80411 18.8671C9.5073 19.6501 9.55466 20.4838 9.93989 21.2132C10.2114 21.731 10.6504 22.1952 11.2724 22.6309C11.4398 22.7478 11.6955 22.9151 12.0208 23.1235C12.1976 23.2372 12.4533 23.4045 12.706 23.5719C12.7438 23.5971 12.8796 23.6982 12.927 23.7929C12.9807 23.9003 12.9807 24.0171 12.9017 24.2318C12.7691 24.5255 12.5765 24.8854 12.3049 25.2833C11.4997 26.4611 10.3472 27.4589 8.87894 28.2546C8.09901 28.6683 7.29066 28.943 6.94964 29.8713C6.69072 30.5723 6.86123 31.3712 7.51485 32.0437C7.72957 32.2742 8.00112 32.4795 8.34214 32.6689C9.14417 33.111 9.82622 33.3289 10.363 33.4773C10.4577 33.5057 10.6756 33.5752 10.7703 33.6604C11.0103 33.8688 10.9756 34.1846 11.2945 34.6456C11.4871 34.9329 11.7081 35.1287 11.8913 35.255C12.5575 35.716 13.3091 35.7444 14.1048 35.776C14.8215 35.8044 15.6362 35.836 16.5645 36.1423C16.9498 36.2686 17.3508 36.5149 17.8118 36.7991C18.9233 37.4843 20.4484 38.4189 22.9966 38.4189C25.5479 38.4189 27.0794 37.478 28.2003 36.7928C28.6613 36.5117 29.0592 36.2654 29.4318 36.1423C30.3601 35.836 31.1748 35.8044 31.8915 35.776C32.6873 35.7444 33.4356 35.716 34.105 35.255C34.3134 35.1098 34.5787 34.8729 34.7871 34.513C35.0144 34.1246 35.0113 33.8499 35.226 33.6636C35.3144 33.5878 35.507 33.5215 35.6112 33.4899C36.1511 33.3415 36.8427 33.1236 37.6605 32.6721C38.0236 32.4732 38.3046 32.2553 38.5288 32.0058C38.532 32.0027 38.5351 31.9995 38.5383 31.9964C39.1477 31.3333 39.3024 30.5597 39.0498 29.8745ZM36.7858 31.0901C35.4028 31.8543 34.4839 31.7722 33.7703 32.23C33.1641 32.6216 33.5209 33.4647 33.082 33.7678C32.5389 34.1435 30.9379 33.7425 28.8697 34.4246C27.1646 34.9898 26.0752 36.6096 23.0029 36.6096C19.9242 36.6096 18.8664 34.9961 17.1361 34.4246C15.0678 33.7425 13.4638 34.1435 12.9238 33.7678C12.4849 33.4647 12.8417 32.6216 12.2355 32.23C11.5218 31.769 10.603 31.8511 9.21996 31.0901C8.33899 30.6039 8.83789 30.3039 9.13154 30.1618C14.1395 27.7399 14.9352 23.995 14.9731 23.714C15.0173 23.3793 15.0647 23.114 14.6952 22.7699C14.3384 22.4383 12.7502 21.4563 12.3112 21.15C11.5818 20.6416 11.2629 20.1333 11.4997 19.5081C11.6639 19.0755 12.0681 18.9144 12.4944 18.9144C12.627 18.9144 12.7628 18.9302 12.8922 18.9586C13.6911 19.1323 14.4679 19.5333 14.9163 19.6407C14.9794 19.6565 15.0331 19.6628 15.0805 19.6628C15.3204 19.6628 15.4025 19.5428 15.3868 19.2681C15.3362 18.3934 15.2099 16.6883 15.3489 15.0937C15.5383 12.9023 16.2456 11.8161 17.0855 10.8531C17.4897 10.3921 19.3843 8.39013 23.0061 8.39013C26.6373 8.39013 28.5224 10.3921 28.9266 10.8531C29.7665 11.813 30.4738 12.8992 30.6632 15.0937C30.8022 16.6883 30.6822 18.3934 30.6253 19.2681C30.6064 19.5554 30.6948 19.6628 30.9316 19.6628C30.979 19.6628 31.0358 19.6565 31.0958 19.6407C31.5442 19.5333 32.321 19.1323 33.1199 18.9586C33.2493 18.9302 33.3851 18.9144 33.5177 18.9144C33.944 18.9144 34.3482 19.0786 34.5124 19.5081C34.7492 20.1333 34.4271 20.6416 33.7008 21.15C33.2619 21.4563 31.6737 22.4383 31.3169 22.7699C30.9474 23.1109 30.9948 23.3761 31.039 23.714C31.0737 23.995 31.8726 27.7399 36.8806 30.1618C37.1647 30.3039 37.6668 30.6039 36.7858 31.0901Z" fill="black"/>
</g>
<defs>
<clipPath id="clip0_6493_5224">
<rect width="45" height="45" fill="white" transform="translate(0.5)"/>
</clipPath>
</defs>
</svg>
