<svg width="45" height="46" viewBox="0 0 45 46" fill="none" xmlns="http://www.w3.org/2000/svg">
<rect y="0.5" width="45" height="45" rx="7.5" fill="#003262"/>
<path d="M31.6123 16.7643C32.6223 16.1443 33.291 15.298 33.6185 14.2218C32.6961 14.7207 31.7062 15.0832 30.6798 15.298C29.801 14.353 28.6885 13.873 27.3548 13.873C26.051 13.873 24.9498 14.3305 24.051 15.2205C23.617 15.6432 23.2738 16.15 23.0426 16.7099C22.8113 17.2698 22.6968 17.8711 22.706 18.4768C22.706 18.863 22.7548 19.208 22.8523 19.5005C19.0073 19.3693 15.8248 17.7743 13.3173 14.7043C12.8923 15.4555 12.6798 16.2205 12.6798 17.0118C12.6798 18.638 13.366 19.9268 14.736 20.873C13.9548 20.8068 13.266 20.6093 12.6798 20.2855C12.6798 21.4468 13.021 22.4168 13.7048 23.2705C14.369 24.1025 15.305 24.6738 16.3485 24.8843C15.9585 24.9843 15.5473 25.0318 15.1248 25.0318C14.7348 25.0318 14.4585 24.9993 14.2948 24.928C14.5823 25.8743 15.1248 26.6418 15.9085 27.2293C16.6833 27.8176 17.6258 28.143 18.5985 28.158C16.9335 29.4643 15.0298 30.1105 12.876 30.1105C12.3485 30.1105 11.9748 30.103 11.7485 30.063C13.8698 31.4405 16.231 32.1243 18.8435 32.1243C21.5173 32.1243 23.8798 31.4468 25.936 30.0918C27.9923 28.7443 29.5098 27.0818 30.4848 25.1243C31.449 23.2302 31.951 21.1347 31.9498 19.0093V18.4243C32.8485 17.7617 33.6265 16.9494 34.2498 16.023C33.408 16.3879 32.5208 16.6372 31.6123 16.7643Z" fill="white"/>
</svg>
