<svg width="24" height="24" viewBox="0 0 24 24" fill="none" xmlns="http://www.w3.org/2000/svg">
<rect width="24" height="24" rx="3" fill="#D9FAFF"/>
<path d="M14.6229 5V15.075L9.674 12.9341H9.04851L8.92616 14.0046H10.1551V15.4318H8.76463L8.36047 19H5V7.58191H9.64925L14.6229 5ZM7.66349 12.9341H6.37471V17.5727H7.13767L7.66349 12.9341ZM6.37471 11.5069H9.94894L13.2482 12.9341V7.30931L9.97368 9.00918H6.37471V11.5069ZM17.6012 7.28647L18.0872 7.79101C18.7312 8.45968 19 9.46233 19 10.3772C19 11.2914 18.7312 12.2947 18.0872 12.9634L17.6012 13.4679L16.6293 12.4589L17.1153 11.9536C17.4205 11.6375 17.6253 11.0516 17.6253 10.3765C17.6253 9.70211 17.4205 9.11693 17.1153 8.80008L16.6293 8.29554L17.6012 7.28647ZM16.1695 8.47752L16.6554 8.98206C17.0121 9.35249 17.2125 9.85484 17.2125 10.3786C17.2125 10.9024 17.0121 11.4048 16.6554 11.7752L16.1695 12.2797L15.1969 11.2707L15.6828 10.7661C15.889 10.552 15.889 10.2052 15.6828 9.99113L15.1969 9.48659L16.1695 8.47752Z" fill="#003262"/>
</svg>
