<svg width="45" height="46" viewBox="0 0 45 46" fill="none" xmlns="http://www.w3.org/2000/svg">
<rect y="0.5" width="45" height="45" rx="7.5" fill="#003262"/>
<path d="M27 9.72656V27.3741L18 23.6241H16.8625L16.64 25.4991H18.875V27.9991H16.3463L15.6112 34.2491H9.5V14.2491H17.955L27 9.72656ZM14.3438 23.6241H12V31.7491H13.3875L14.3438 23.6241ZM12 21.1241H18.5L24.5 23.6241V13.7716L18.545 16.7491H12V21.1241ZM32.4163 13.7316L33.3 14.6153C34.4713 15.7866 34.96 17.5428 34.96 19.1453C34.96 20.7466 34.4713 22.5041 33.3 23.6753L32.4163 24.5591L30.6488 22.7916L31.5325 21.9066C32.0875 21.3528 32.46 20.3266 32.46 19.1441C32.46 17.9628 32.0875 16.9378 31.5325 16.3828L30.6488 15.4991L32.4163 13.7316ZM29.8125 15.8178L30.6963 16.7016C31.3449 17.3504 31.7093 18.2303 31.7093 19.1478C31.7093 20.0653 31.3449 20.9452 30.6963 21.5941L29.8125 22.4778L28.0437 20.7103L28.9275 19.8266C29.3025 19.4516 29.3025 18.8441 28.9275 18.4691L28.0437 17.5853L29.8125 15.8178Z" fill="white"/>
</svg>
