<svg width="45" height="46" viewBox="0 0 45 46" fill="none" xmlns="http://www.w3.org/2000/svg">
<rect y="0.5" width="45" height="45" rx="7.5" fill="#003262"/>
<path d="M20.9375 32.75L21.3125 31C21.375 30.7292 21.5054 30.5054 21.7038 30.3288C21.9021 30.1521 22.1467 30.0425 22.4375 30L26.3125 29.6875C26.5833 29.6458 26.8333 29.6979 27.0625 29.8438C27.2917 29.9896 27.4583 30.1875 27.5625 30.4375L28.0625 31.625C28.875 31.1458 29.6042 30.5679 30.25 29.8913C30.8958 29.2146 31.4375 28.4592 31.875 27.625L31.5 27.4375C31.2708 27.2708 31.1042 27.0679 31 26.8288C30.8958 26.5896 30.875 26.3342 30.9375 26.0625L31.8125 22.25C31.875 22 32.0054 21.7917 32.2038 21.625C32.4021 21.4583 32.6258 21.3542 32.875 21.3125C32.7708 20.7917 32.6408 20.2863 32.485 19.7963C32.3292 19.3063 32.1258 18.8325 31.875 18.375C31.6875 18.4792 31.4842 18.5262 31.265 18.5163C31.0458 18.5063 30.8533 18.4383 30.6875 18.3125L27.375 16.3125C27.1458 16.1667 26.9792 15.9688 26.875 15.7188C26.7708 15.4688 26.75 15.2083 26.8125 14.9375L27.0625 13.875C26.4167 13.5833 25.755 13.3646 25.0775 13.2188C24.4 13.0729 23.7075 13 23 13C22.7083 13 22.4062 13.0158 22.0938 13.0475C21.7812 13.0792 21.4792 13.1258 21.1875 13.1875L22.125 15.3125C22.2292 15.5625 22.2554 15.8229 22.2037 16.0938C22.1521 16.3646 22.0217 16.5833 21.8125 16.75L18.875 19.3125C18.6667 19.5 18.4221 19.6042 18.1412 19.625C17.8604 19.6458 17.605 19.5833 17.375 19.4375L14.5 17.6875C14.0208 18.4792 13.6513 19.3283 13.3913 20.235C13.1313 21.1417 13.0008 22.0633 13 23C13 23.3333 13.0417 23.875 13.125 24.625L15.875 24.375C16.1667 24.3333 16.4325 24.3804 16.6725 24.5163C16.9125 24.6521 17.0842 24.855 17.1875 25.125L18.6875 28.6875C18.7917 28.9375 18.8179 29.1979 18.7662 29.4688C18.7146 29.7396 18.5842 29.9583 18.375 30.125L17.1875 31.125C17.75 31.5417 18.3492 31.8854 18.985 32.1562C19.6208 32.4271 20.2717 32.625 20.9375 32.75ZM23.1875 27.375C22.9167 27.4167 22.6667 27.3646 22.4375 27.2188C22.2083 27.0729 22.0417 26.875 21.9375 26.625L20.25 22.75C20.1458 22.5 20.1304 22.2396 20.2037 21.9688C20.2771 21.6979 20.4175 21.4792 20.625 21.3125L23.8125 18.625C24 18.4375 24.2292 18.3333 24.5 18.3125C24.7708 18.2917 25.0208 18.3542 25.25 18.5L28.75 20.5625C28.9792 20.7083 29.1562 20.9062 29.2812 21.1562C29.4062 21.4062 29.4375 21.6667 29.375 21.9375L28.375 26C28.3125 26.2708 28.1875 26.495 28 26.6725C27.8125 26.85 27.5833 26.9592 27.3125 27L23.1875 27.375ZM23 35.5C21.2708 35.5 19.6458 35.1717 18.125 34.515C16.6042 33.8583 15.2812 32.9679 14.1563 31.8438C13.0313 30.7188 12.1408 29.3958 11.485 27.875C10.8292 26.3542 10.5008 24.7292 10.5 23C10.5 21.2708 10.8283 19.6458 11.485 18.125C12.1417 16.6042 13.0321 15.2812 14.1563 14.1563C15.2812 13.0313 16.6042 12.1408 18.125 11.485C19.6458 10.8292 21.2708 10.5008 23 10.5C24.7292 10.5 26.3542 10.8283 27.875 11.485C29.3958 12.1417 30.7188 13.0321 31.8438 14.1563C32.9688 15.2812 33.8596 16.6042 34.5162 18.125C35.1729 19.6458 35.5008 21.2708 35.5 23C35.5 24.7292 35.1717 26.3542 34.515 27.875C33.8583 29.3958 32.9679 30.7188 31.8438 31.8438C30.7188 32.9688 29.3958 33.8596 27.875 34.5162C26.3542 35.1729 24.7292 35.5008 23 35.5Z" fill="white"/>
</svg>
