<svg width="24" height="24" viewBox="0 0 24 24" fill="none" xmlns="http://www.w3.org/2000/svg">
<rect width="24" height="24" rx="3" fill="#D9FAFF"/>
<path d="M10.845 17.46L11.055 16.48C11.09 16.3283 11.163 16.203 11.2741 16.1041C11.3852 16.0052 11.5221 15.9438 11.685 15.92L13.855 15.745C14.0067 15.7217 14.1467 15.7508 14.275 15.8325C14.4033 15.9142 14.4967 16.025 14.555 16.165L14.835 16.83C15.29 16.5617 15.6983 16.238 16.06 15.8591C16.4217 15.4802 16.725 15.0571 16.97 14.59L16.76 14.485C16.6317 14.3917 16.5383 14.278 16.48 14.1441C16.4217 14.0102 16.41 13.8671 16.445 13.715L16.935 11.58C16.97 11.44 17.043 11.3233 17.1541 11.23C17.2652 11.1367 17.3905 11.0783 17.53 11.055C17.4717 10.7633 17.3989 10.4803 17.3116 10.2059C17.2243 9.9315 17.1105 9.6662 16.97 9.41C16.865 9.46833 16.7511 9.4947 16.6284 9.4891C16.5057 9.4835 16.3979 9.44547 16.305 9.375L14.45 8.255C14.3217 8.17333 14.2283 8.0625 14.17 7.9225C14.1117 7.7825 14.1 7.63667 14.135 7.485L14.275 6.89C13.9133 6.72667 13.5428 6.60417 13.1634 6.5225C12.784 6.44083 12.3962 6.4 12 6.4C11.8367 6.4 11.6675 6.40887 11.4925 6.4266C11.3175 6.44433 11.1483 6.47047 10.985 6.505L11.51 7.695C11.5683 7.835 11.583 7.98083 11.5541 8.1325C11.5252 8.28417 11.4521 8.40667 11.335 8.5L9.69 9.935C9.57333 10.04 9.43637 10.0983 9.2791 10.11C9.12183 10.1217 8.9788 10.0867 8.85 10.005L7.24 9.025C6.97167 9.46833 6.7647 9.94387 6.6191 10.4516C6.4735 10.9593 6.40047 11.4755 6.4 12C6.4 12.1867 6.42333 12.49 6.47 12.91L8.01 12.77C8.17333 12.7467 8.3222 12.773 8.4566 12.8491C8.591 12.9252 8.68713 13.0388 8.745 13.19L9.585 15.185C9.64333 15.325 9.65803 15.4708 9.6291 15.6225C9.60017 15.7742 9.52713 15.8967 9.41 15.99L8.745 16.55C9.06 16.7833 9.39553 16.9758 9.7516 17.1275C10.1077 17.2792 10.4721 17.39 10.845 17.46ZM12.105 14.45C11.9533 14.4733 11.8133 14.4442 11.685 14.3625C11.5567 14.2808 11.4633 14.17 11.405 14.03L10.46 11.86C10.4017 11.72 10.393 11.5742 10.4341 11.4225C10.4752 11.2708 10.5538 11.1483 10.67 11.055L12.455 9.55C12.56 9.445 12.6883 9.38667 12.84 9.375C12.9917 9.36333 13.1317 9.39833 13.26 9.48L15.22 10.635C15.3483 10.7167 15.4475 10.8275 15.5175 10.9675C15.5875 11.1075 15.605 11.2533 15.57 11.405L15.01 13.68C14.975 13.8317 14.905 13.9572 14.8 14.0566C14.695 14.156 14.5667 14.2171 14.415 14.24L12.105 14.45ZM12 19C11.0317 19 10.1217 18.8161 9.27 18.4484C8.41833 18.0807 7.6775 17.582 7.0475 16.9525C6.4175 16.3225 5.91887 15.5817 5.5516 14.73C5.18433 13.8783 5.00047 12.9683 5 12C5 11.0317 5.18387 10.1217 5.5516 9.27C5.91933 8.41833 6.41797 7.6775 7.0475 7.0475C7.6775 6.4175 8.41833 5.91887 9.27 5.5516C10.1217 5.18433 11.0317 5.00047 12 5C12.9683 5 13.8783 5.18387 14.73 5.5516C15.5817 5.91933 16.3225 6.41797 16.9525 7.0475C17.5825 7.6775 18.0814 8.41833 18.4491 9.27C18.8168 10.1217 19.0005 11.0317 19 12C19 12.9683 18.8161 13.8783 18.4484 14.73C18.0807 15.5817 17.582 16.3225 16.9525 16.9525C16.3225 17.5825 15.5817 18.0814 14.73 18.4491C13.8783 18.8168 12.9683 19.0005 12 19Z" fill="#003262"/>
</svg>
