<svg width="45" height="46" viewBox="0 0 45 46" fill="none" xmlns="http://www.w3.org/2000/svg">
<rect y="0.5" width="45" height="45" rx="7.5" fill="#003262"/>
<path d="M22 10.5C15.0963 10.5 9.5 16.0963 9.5 23C9.5 29.9037 15.0963 35.5 22 35.5C28.9037 35.5 34.5 29.9037 34.5 23C34.5 16.0963 28.9037 10.5 22 10.5ZM17.305 13.4663L21.065 15.7162V18.4575L17.5763 20.9925L15.0212 20.1088L14.2875 15.6912C15.154 14.7771 16.1756 14.0238 17.305 13.4663ZM11.5263 24.7987L14.435 21.89L16.985 22.7713L18.3375 26.9375L17.125 28.9062L13.0088 28.6637C12.2644 27.4858 11.7606 26.1723 11.5263 24.7987ZM20.1625 33.4662L18.6825 29.955L19.8862 27.9963H24.1012L25.2413 29.9725L23.9413 33.4475C22.6928 33.678 21.4132 33.6844 20.1625 33.4662ZM30.615 29.22L26.835 28.9825L25.6625 26.9525L27.0212 22.7713L29.5375 21.9013L32.4275 25.0512C32.1327 26.5558 31.5142 27.9783 30.615 29.22ZM29.715 15.695L28.9788 20.1112L26.4288 20.9925L22.94 18.4575V15.715L26.6925 13.465C27.824 14.0236 28.8474 14.7786 29.715 15.695Z" fill="white"/>
</svg>
