<svg width="45" height="46" viewBox="0 0 45 46" fill="none" xmlns="http://www.w3.org/2000/svg">
<rect y="0.5" width="45" height="45" rx="7.5" fill="#003262"/>
<path d="M34.4844 29.8845H11.5156C11.3867 29.8845 11.2812 29.99 11.2812 30.1189V31.7595C11.2812 31.8884 11.3867 31.9939 11.5156 31.9939H34.4844C34.6133 31.9939 34.7188 31.8884 34.7188 31.7595V30.1189C34.7188 29.99 34.6133 29.8845 34.4844 29.8845ZM12.8545 26.2165L14.0176 27.3738C14.1084 27.4646 14.2578 27.4646 14.3486 27.3738L21.2246 20.5212L24.084 23.3718C24.2601 23.5463 24.4981 23.6443 24.7461 23.6443C24.9941 23.6443 25.232 23.5463 25.4082 23.3718L33.1484 15.6609C33.2393 15.57 33.2393 15.4206 33.1484 15.3298L31.9854 14.1696C31.9413 14.126 31.8818 14.1016 31.8198 14.1016C31.7578 14.1016 31.6983 14.126 31.6543 14.1696L24.749 21.0544L21.8867 18.2038C21.7106 18.0293 21.4726 17.9314 21.2246 17.9314C20.9766 17.9314 20.7387 18.0293 20.5625 18.2038L12.8545 25.8855C12.8326 25.9071 12.8152 25.9329 12.8033 25.9613C12.7914 25.9897 12.7853 26.0202 12.7853 26.051C12.7853 26.0818 12.7914 26.1123 12.8033 26.1407C12.8152 26.1691 12.8326 26.1949 12.8545 26.2165Z" fill="white"/>
</svg>
