<svg width="45" height="46" viewBox="0 0 45 46" fill="none" xmlns="http://www.w3.org/2000/svg">
<rect y="0.5" width="45" height="45" rx="7.5" fill="#003262"/>
<path d="M17 10.5C17.3315 10.5 17.6495 10.6317 17.8839 10.8661C18.1183 11.1005 18.25 11.4185 18.25 11.75V14.25C19.2446 14.25 20.1984 14.6451 20.9017 15.3483C21.6049 16.0516 22 17.0054 22 18V25.5C22 26.4946 21.6049 27.4484 20.9017 28.1517C20.1984 28.8549 19.2446 29.25 18.25 29.25V34.25C18.25 34.5815 18.1183 34.8995 17.8839 35.1339C17.6495 35.3683 17.3315 35.5 17 35.5C16.6685 35.5 16.3505 35.3683 16.1161 35.1339C15.8817 34.8995 15.75 34.5815 15.75 34.25V29.25C14.7554 29.25 13.8016 28.8549 13.0983 28.1517C12.3951 27.4484 12 26.4946 12 25.5V18C12 17.0054 12.3951 16.0516 13.0983 15.3483C13.8016 14.6451 14.7554 14.25 15.75 14.25V11.75C15.75 11.4185 15.8817 11.1005 16.1161 10.8661C16.3505 10.6317 16.6685 10.5 17 10.5ZM28.25 10.5C28.5562 10.5 28.8517 10.6124 29.0805 10.8159C29.3093 11.0193 29.4554 11.2997 29.4912 11.6037L29.5 11.75V16.75C30.4565 16.7499 31.3769 17.1154 32.0728 17.7716C32.7688 18.4278 33.1876 19.3251 33.2438 20.28L33.25 20.5V28C33.2501 28.9565 32.8846 29.8769 32.2284 30.5728C31.5722 31.2688 30.6749 31.6876 29.72 31.7438L29.5 31.75V34.25C29.4996 34.5686 29.3777 34.875 29.1589 35.1067C28.9402 35.3384 28.6413 35.4778 28.3233 35.4965C28.0052 35.5151 27.692 35.4117 27.4477 35.2072C27.2034 35.0027 27.0464 34.7126 27.0087 34.3963L27 34.25V31.75C26.0435 31.7501 25.1231 31.3846 24.4272 30.7284C23.7312 30.0722 23.3124 29.1749 23.2563 28.22L23.25 28V20.5C23.2499 19.5435 23.6154 18.6231 24.2716 17.9272C24.9278 17.2312 25.8251 16.8124 26.78 16.7563L27 16.75V11.75C27 11.4185 27.1317 11.1005 27.3661 10.8661C27.6005 10.6317 27.9185 10.5 28.25 10.5Z" fill="white"/>
</svg>
