<svg width="24" height="24" viewBox="0 0 24 24" fill="none" xmlns="http://www.w3.org/2000/svg">
<rect width="24" height="24" rx="3" fill="#D9FAFF"/>
<path d="M8.29412 5C8.51253 5 8.722 5.06762 8.87644 5.18798C9.03088 5.30833 9.11765 5.47158 9.11765 5.64179V6.92537C9.77289 6.92537 10.4013 7.12822 10.8646 7.4893C11.3279 7.85037 11.5882 8.3401 11.5882 8.85074V12.7015C11.5882 13.2121 11.3279 13.7018 10.8646 14.0629C10.4013 14.424 9.77289 14.6268 9.11765 14.6268V17.194C9.11765 17.3642 9.03088 17.5275 8.87644 17.6478C8.722 17.7682 8.51253 17.8358 8.29412 17.8358C8.0757 17.8358 7.86624 17.7682 7.71179 17.6478C7.55735 17.5275 7.47059 17.3642 7.47059 17.194V14.6268C6.81535 14.6268 6.18694 14.424 5.72362 14.0629C5.26029 13.7018 5 13.2121 5 12.7015V8.85074C5 8.3401 5.26029 7.85037 5.72362 7.4893C6.18694 7.12822 6.81535 6.92537 7.47059 6.92537V5.64179C7.47059 5.47158 7.55735 5.30833 7.71179 5.18798C7.86624 5.06762 8.0757 5 8.29412 5ZM15.7059 5C15.9076 5.00002 16.1023 5.05773 16.253 5.16219C16.4037 5.26665 16.5 5.41058 16.5236 5.5667L16.5294 5.64179V8.20895C17.1596 8.20892 17.766 8.39656 18.2244 8.73347C18.6829 9.07039 18.9589 9.5311 18.9959 10.0214L19 10.1343V13.9851C19 14.4762 18.7593 14.9487 18.3269 15.306C17.8946 15.6633 17.3034 15.8784 16.6744 15.9072L16.5294 15.9104V17.194C16.5292 17.3576 16.4488 17.5149 16.3047 17.6339C16.1606 17.7528 15.9637 17.8244 15.7541 17.834C15.5446 17.8436 15.3383 17.7904 15.1773 17.6854C15.0164 17.5805 14.9129 17.4315 14.8881 17.2691L14.8824 17.194V15.9104C14.2522 15.9105 13.6458 15.7228 13.1873 15.3859C12.7288 15.049 12.4529 14.5883 12.4159 14.098L12.4118 13.9851V10.1343C12.4117 9.64321 12.6525 9.17066 13.0848 8.81335C13.5171 8.45603 14.1083 8.24097 14.7374 8.21216L14.8824 8.20895V5.64179C14.8824 5.47158 14.9691 5.30833 15.1236 5.18798C15.278 5.06762 15.4875 5 15.7059 5Z" fill="#003262"/>
</svg>
