<svg width="45" height="46" viewBox="0 0 45 46" fill="none" xmlns="http://www.w3.org/2000/svg">
<rect y="0.5" width="45" height="45" rx="7.5" fill="#003262"/>
<path d="M22 9.5625C14.59 9.5625 8.5625 15.5912 8.5625 23C8.5625 30.4088 14.59 36.4375 22 36.4375C29.41 36.4375 35.4375 30.4088 35.4375 23C35.4375 15.5912 29.41 9.5625 22 9.5625ZM22 34.5625C15.6238 34.5625 10.4375 29.3762 10.4375 23C10.4375 16.6238 15.6238 11.4375 22 11.4375C28.3762 11.4375 33.5625 16.6238 33.5625 23C33.5625 29.3762 28.3762 34.5625 22 34.5625ZM19.19 20.885L17.0763 23L19.1913 25.115C19.5575 25.4812 19.5575 26.075 19.1913 26.4412C19.0088 26.6237 18.7688 26.7162 18.5288 26.7162C18.2888 26.7162 18.0487 26.625 17.8662 26.4412L15.0887 23.6638C14.7225 23.2975 14.7225 22.7038 15.0887 22.3375L17.8662 19.56C18.2325 19.1937 18.8262 19.1937 19.1925 19.56C19.5562 19.925 19.5562 20.5188 19.19 20.885ZM28.9125 22.3375C29.2787 22.7038 29.2787 23.2975 28.9125 23.6638L26.135 26.4412C25.9525 26.6237 25.7125 26.7162 25.4725 26.7162C25.2325 26.7162 24.9925 26.625 24.81 26.4412C24.4438 26.075 24.4438 25.4812 24.81 25.115L26.925 23L24.81 20.885C24.4438 20.5188 24.4438 19.925 24.81 19.5588C25.1763 19.1925 25.77 19.1925 26.1363 19.5588L28.9125 22.3375ZM24.16 18.2275L21.66 28.2275C21.5537 28.6538 21.1713 28.9375 20.7513 28.9375C20.6763 28.9375 20.6 28.9287 20.5225 28.9087C20.02 28.7837 19.715 28.2737 19.8412 27.7725L22.3412 17.7725C22.4662 17.27 22.97 16.965 23.4787 17.09C23.98 17.2163 24.285 17.725 24.16 18.2275Z" fill="white"/>
</svg>
