<svg width="45" height="46" viewBox="0 0 45 46" fill="none" xmlns="http://www.w3.org/2000/svg">
<rect y="0.5" width="45" height="45" rx="7.5" fill="#003262"/>
<path d="M35.125 21.125H33.7938L30.584 15.507C30.42 15.2201 30.1831 14.9816 29.8972 14.8158C29.6114 14.6499 29.2867 14.5625 28.9562 14.5625H26.3852L24.9789 11.0539C24.8408 10.7056 24.6011 10.4068 24.291 10.1966C23.9808 9.98633 23.6146 9.87428 23.2398 9.87501H20.7602C20.385 9.87381 20.0183 9.98564 19.7077 10.1959C19.397 10.4062 19.157 10.7052 19.0187 11.0539L17.6148 14.5625H15.0437C14.7133 14.5625 14.3886 14.6499 14.1028 14.8158C13.8169 14.9816 13.58 15.2201 13.416 15.507L10.2063 21.125H8.875C8.62636 21.125 8.3879 21.2238 8.21209 21.3996C8.03627 21.5754 7.9375 21.8139 7.9375 22.0625C7.9375 22.3112 8.03627 22.5496 8.21209 22.7254C8.3879 22.9012 8.62636 23 8.875 23H9.8125V32.375C9.8125 32.8723 10.01 33.3492 10.3617 33.7008C10.7133 34.0525 11.1902 34.25 11.6875 34.25H14.5C14.9973 34.25 15.4742 34.0525 15.8258 33.7008C16.1775 33.3492 16.375 32.8723 16.375 32.375V30.5H27.625V32.375C27.625 32.8723 27.8225 33.3492 28.1742 33.7008C28.5258 34.0525 29.0027 34.25 29.5 34.25H32.3125C32.8098 34.25 33.2867 34.0525 33.6383 33.7008C33.99 33.3492 34.1875 32.8723 34.1875 32.375V23H35.125C35.3736 23 35.6121 22.9012 35.7879 22.7254C35.9637 22.5496 36.0625 22.3112 36.0625 22.0625C36.0625 21.8139 35.9637 21.5754 35.7879 21.3996C35.6121 21.2238 35.3736 21.125 35.125 21.125ZM20.7602 11.75H23.2398L24.3648 14.5625H19.6352L20.7602 11.75ZM15.0437 16.4375H28.9562L31.634 21.125H12.366L15.0437 16.4375ZM14.5 32.375H11.6875V30.5H14.5V32.375ZM29.5 32.375V30.5H32.3125V32.375H29.5ZM32.3125 28.625H11.6875V23H32.3125V28.625ZM13.5625 25.8125C13.5625 25.5639 13.6613 25.3254 13.8371 25.1496C14.0129 24.9738 14.2514 24.875 14.5 24.875H16.375C16.6236 24.875 16.8621 24.9738 17.0379 25.1496C17.2137 25.3254 17.3125 25.5639 17.3125 25.8125C17.3125 26.0611 17.2137 26.2996 17.0379 26.4754C16.8621 26.6512 16.6236 26.75 16.375 26.75H14.5C14.2514 26.75 14.0129 26.6512 13.8371 26.4754C13.6613 26.2996 13.5625 26.0611 13.5625 25.8125ZM26.6875 25.8125C26.6875 25.5639 26.7863 25.3254 26.9621 25.1496C27.1379 24.9738 27.3764 24.875 27.625 24.875H29.5C29.7486 24.875 29.9871 24.9738 30.1629 25.1496C30.3387 25.3254 30.4375 25.5639 30.4375 25.8125C30.4375 26.0611 30.3387 26.2996 30.1629 26.4754C29.9871 26.6512 29.7486 26.75 29.5 26.75H27.625C27.3764 26.75 27.1379 26.6512 26.9621 26.4754C26.7863 26.2996 26.6875 26.0611 26.6875 25.8125Z" fill="white"/>
</svg>
