<svg width="45" height="46" viewBox="0 0 45 46" fill="none" xmlns="http://www.w3.org/2000/svg">
<rect y="0.5" width="45" height="45" rx="7.5" fill="#003262"/>
<path d="M34.2625 23.925L33.2375 23.1375V22.8625L34.2375 22.075C34.4375 21.925 34.4875 21.65 34.3625 21.4375L33.3 19.5875C33.2562 19.5104 33.1925 19.4465 33.1155 19.4025C33.0386 19.3585 32.9512 19.3361 32.8625 19.3375C32.8 19.3375 32.7375 19.35 32.675 19.375L31.4875 19.85C31.3875 19.7875 31.35 19.7625 31.25 19.7125L31.0625 18.45C31.048 18.3271 30.9892 18.2137 30.8972 18.1309C30.8052 18.0481 30.6863 18.0016 30.5625 18H28.425C28.175 18 27.9625 18.1875 27.925 18.425L27.75 19.6875C27.7125 19.7125 27.6625 19.725 27.625 19.75L27.5125 19.825L26.325 19.35C26.2128 19.3037 26.0875 19.2998 25.9726 19.3388C25.8576 19.3779 25.7608 19.4574 25.7 19.5625L24.6375 21.4125C24.5125 21.625 24.5625 21.9 24.7625 22.05L25.7625 22.8375V23.125L24.7625 23.9125C24.667 23.9848 24.6014 24.0898 24.5783 24.2074C24.5553 24.325 24.5763 24.447 24.6375 24.55L25.7 26.4C25.7875 26.5625 25.9625 26.65 26.1375 26.65C26.2 26.65 26.2625 26.6375 26.325 26.6125L27.5125 26.15C27.6125 26.2125 27.6625 26.2375 27.7625 26.2875L27.95 27.55C27.9875 27.8 28.2 27.975 28.45 27.975H30.5875C30.8375 27.975 31.05 27.7875 31.0875 27.55L31.275 26.2875C31.3125 26.2625 31.3625 26.25 31.4 26.225L31.5125 26.15L32.7 26.625C32.8122 26.6713 32.9375 26.6752 33.0524 26.6362C33.1674 26.5971 33.2642 26.5176 33.325 26.4125L34.3875 24.5625C34.4487 24.4595 34.4697 24.3375 34.4467 24.2199C34.4236 24.1023 34.358 23.9973 34.2625 23.925ZM29.5 24.875C28.4625 24.875 27.625 24.0375 27.625 23C27.625 21.9625 28.4625 21.125 29.5 21.125C30.5375 21.125 31.375 21.9625 31.375 23C31.375 24.0375 30.5375 24.875 29.5 24.875ZM28.25 30.5H15.75V15.5H28.25V16.75H30.75V11.75C30.75 10.375 29.625 9.25 28.25 9.25H15.75C14.375 9.25 13.25 10.375 13.25 11.75V34.25C13.25 35.625 14.375 36.75 15.75 36.75H28.25C29.625 36.75 30.75 35.625 30.75 34.25V29.25H28.25V30.5ZM15.75 11.75H28.25V13H15.75V11.75ZM28.25 34.25H15.75V33H28.25V34.25Z" fill="white"/>
</svg>
