<svg width="45" height="46" viewBox="0 0 45 46" fill="none" xmlns="http://www.w3.org/2000/svg">
<rect y="0.5" width="45" height="45" rx="7.5" fill="#003262"/>
<path d="M32.6251 19.5625C34.1763 19.5625 35.4376 18.3012 35.4376 16.75C35.4376 15.1987 34.1763 13.9375 32.6251 13.9375C31.4051 13.9375 30.3738 14.7237 29.9851 15.8125H25.4126C25.2913 14.245 24.2751 13.3125 22.6239 13.3125H21.3739C19.7226 13.3125 18.7076 14.245 18.5851 15.8125H14.0126C13.6238 14.7237 12.5938 13.9375 11.3726 13.9375C9.82131 13.9375 8.56006 15.1987 8.56006 16.75C8.56006 18.3012 9.82131 19.5625 11.3726 19.5625C12.5926 19.5625 13.6238 18.7762 14.0126 17.6875H16.0051C13.8201 19.3875 12.5501 22.1975 12.3638 25.8325C10.7651 25.935 9.81136 26.955 9.81136 28.625V29.875C9.81136 31.6362 10.8626 32.6875 12.6239 32.6875H13.8739C15.6351 32.6875 16.6864 31.6362 16.6864 29.875V28.625C16.6864 26.9838 15.7638 25.9712 14.215 25.8387C14.3625 23.2425 15.2301 19.655 18.6801 18.2725C18.9888 19.4812 19.9414 20.1875 21.3739 20.1875H22.6239C24.0576 20.1875 25.0088 19.4825 25.3176 18.2725C28.7676 19.655 29.6351 23.2425 29.7826 25.8387C28.2326 25.97 27.3114 26.9838 27.3114 28.625V29.875C27.3114 31.6362 28.3626 32.6875 30.1239 32.6875H31.3739C33.1351 32.6875 34.1864 31.6362 34.1864 29.875V28.625C34.1864 26.955 33.2325 25.935 31.6338 25.8325C31.4475 22.1975 30.1776 19.3875 27.9926 17.6875H29.9851C30.3738 18.7762 31.4051 19.5625 32.6251 19.5625ZM14.8126 28.625V29.875C14.8126 30.6112 14.6113 30.8125 13.8751 30.8125H12.6251C11.8888 30.8125 11.6876 30.6112 11.6876 29.875V28.625C11.6876 27.8888 11.8888 27.6875 12.6251 27.6875H13.8751C14.6113 27.6875 14.8126 27.8888 14.8126 28.625ZM32.3126 28.625V29.875C32.3126 30.6112 32.1113 30.8125 31.3751 30.8125H30.1251C29.3888 30.8125 29.1876 30.6112 29.1876 29.875V28.625C29.1876 27.8888 29.3888 27.6875 30.1251 27.6875H31.3751C32.1113 27.6875 32.3126 27.8888 32.3126 28.625ZM32.6251 15.8125C33.1426 15.8125 33.5626 16.2325 33.5626 16.75C33.5626 17.2675 33.1426 17.6875 32.6251 17.6875C32.1076 17.6875 31.6876 17.2675 31.6876 16.75C31.6876 16.2325 32.1076 15.8125 32.6251 15.8125ZM11.3751 17.6875C10.8576 17.6875 10.4376 17.2675 10.4376 16.75C10.4376 16.2325 10.8576 15.8125 11.3751 15.8125C11.8926 15.8125 12.3126 16.2325 12.3126 16.75C12.3126 17.2675 11.8926 17.6875 11.3751 17.6875ZM23.5626 17.375C23.5626 18.1112 23.3613 18.3125 22.6251 18.3125H21.3751C20.6388 18.3125 20.4376 18.1112 20.4376 17.375V16.125C20.4376 15.3888 20.6388 15.1875 21.3751 15.1875H22.6251C23.3613 15.1875 23.5626 15.3888 23.5626 16.125V17.375Z" fill="white"/>
</svg>
