<svg width="45" height="46" viewBox="0 0 45 46" fill="none" xmlns="http://www.w3.org/2000/svg">
<rect y="0.5" width="45" height="45" rx="7.5" fill="#003262"/>
<path d="M32.0612 21.0413L31.9512 20.1875H33.25C33.7675 20.1875 34.1875 19.7675 34.1875 19.25C34.1875 18.7325 33.7675 18.3125 33.25 18.3125H31.7125L31.5737 17.2337C31.2687 15.395 30.9237 13.3125 26.9475 13.3125H17.0513C13.075 13.3125 12.73 15.3963 12.42 17.2688L12.2863 18.3125H10.75C10.2325 18.3125 9.8125 18.7325 9.8125 19.25C9.8125 19.7675 10.2325 20.1875 10.75 20.1875H12.0475L11.9388 21.0413C11.3238 21.2563 10.8825 21.585 10.6113 21.8925C9.98376 22.6038 9.7125 23.5925 9.8475 24.6763L10.335 28.5812C10.5612 30.3925 11.5025 31.675 12.9388 32.2838V34.25C12.9388 34.7675 13.3588 35.1875 13.8763 35.1875C14.3938 35.1875 14.8138 34.7675 14.8138 34.25V32.675C14.8725 32.6762 14.925 32.6875 14.985 32.6875H29.0175C29.075 32.6875 29.1263 32.6762 29.1825 32.675V34.25C29.1825 34.7675 29.6025 35.1875 30.12 35.1875C30.6375 35.1875 31.0575 34.7675 31.0575 34.25V32.2862C32.4975 31.6787 33.44 30.395 33.6662 28.5812L34.1538 24.6763C34.2888 23.5925 34.0187 22.6038 33.39 21.8913C33.1187 21.585 32.6775 21.2563 32.0612 21.0413ZM17.0525 15.1875H26.9487C29.335 15.1875 29.4337 15.78 29.72 17.5063L30.1562 20.9213C29.1212 21.145 25.9475 21.75 22 21.75C18.0525 21.75 14.8775 21.145 13.8438 20.9225L14.275 17.5412C14.5675 15.78 14.665 15.1875 17.0525 15.1875ZM31.805 28.3487C31.6 29.9837 30.6625 30.8125 29.0163 30.8125H14.9837C13.3375 30.8125 12.3988 29.9837 12.195 28.3487L11.7075 24.4437C11.64 23.9012 11.7488 23.4362 12.0163 23.1337C12.2613 22.8562 12.6425 22.7075 13.1525 22.69C13.8575 22.855 17.39 23.6263 22 23.6263C26.61 23.6263 30.1425 22.8563 30.8475 22.69C31.3575 22.7075 31.7387 22.8562 31.9837 23.1337C32.2512 23.4362 32.36 23.9013 32.2925 24.445L31.805 28.3487ZM19.1875 11.75C19.1875 11.2325 19.6075 10.8125 20.125 10.8125H23.875C24.3925 10.8125 24.8125 11.2325 24.8125 11.75C24.8125 12.2675 24.3925 12.6875 23.875 12.6875H20.125C19.6075 12.6875 19.1875 12.2675 19.1875 11.75ZM28.875 26.75C28.875 27.2675 28.455 27.6875 27.9375 27.6875H26.0625C25.545 27.6875 25.125 27.2675 25.125 26.75C25.125 26.2325 25.545 25.8125 26.0625 25.8125H27.9375C28.455 25.8125 28.875 26.2325 28.875 26.75ZM18.875 26.75C18.875 27.2675 18.455 27.6875 17.9375 27.6875H16.0625C15.545 27.6875 15.125 27.2675 15.125 26.75C15.125 26.2325 15.545 25.8125 16.0625 25.8125H17.9375C18.455 25.8125 18.875 26.2325 18.875 26.75Z" fill="white"/>
</svg>
