<svg width="24" height="24" viewBox="0 0 24 24" fill="none" xmlns="http://www.w3.org/2000/svg">
<rect width="24" height="24" rx="3" fill="#D9FAFF"/>
<path d="M18.0367 10.8248L17.9707 10.3125H18.75C19.0605 10.3125 19.3125 10.0605 19.3125 9.75C19.3125 9.4395 19.0605 9.1875 18.75 9.1875H17.8275L17.7442 8.54025C17.5612 7.437 17.3542 6.1875 14.9685 6.1875H9.03075C6.645 6.1875 6.438 7.43776 6.252 8.56126L6.17175 9.1875H5.25C4.9395 9.1875 4.6875 9.4395 4.6875 9.75C4.6875 10.0605 4.9395 10.3125 5.25 10.3125H6.0285L5.96325 10.8248C5.59425 10.9538 5.32951 11.151 5.16676 11.3355C4.79026 11.7623 4.6275 12.3555 4.7085 13.0058L5.001 15.3487C5.13675 16.4355 5.70151 17.205 6.56326 17.5703V18.75C6.56326 19.0605 6.81526 19.3125 7.12576 19.3125C7.43626 19.3125 7.68826 19.0605 7.68826 18.75V17.805C7.72351 17.8057 7.755 17.8125 7.791 17.8125H16.2105C16.245 17.8125 16.2758 17.8057 16.3095 17.805V18.75C16.3095 19.0605 16.5615 19.3125 16.872 19.3125C17.1825 19.3125 17.4345 19.0605 17.4345 18.75V17.5717C18.2985 17.2072 18.864 16.437 18.9997 15.3487L19.2923 13.0058C19.3733 12.3555 19.2112 11.7623 18.834 11.3348C18.6712 11.151 18.4065 10.9538 18.0367 10.8248ZM9.03151 7.3125H14.9692C16.401 7.3125 16.4602 7.66801 16.632 8.70376L16.8937 10.7528C16.2727 10.887 14.3685 11.25 12 11.25C9.6315 11.25 7.7265 10.887 7.10625 10.7535L7.36501 8.72475C7.54051 7.668 7.59901 7.3125 9.03151 7.3125ZM17.883 15.2092C17.76 16.1902 17.1975 16.6875 16.2098 16.6875H7.79025C6.8025 16.6875 6.23925 16.1902 6.117 15.2092L5.8245 12.8662C5.784 12.5407 5.84925 12.2617 6.00975 12.0802C6.15675 11.9137 6.3855 11.8245 6.6915 11.814C7.1145 11.913 9.234 12.3758 12 12.3758C14.766 12.3758 16.8855 11.9138 17.3085 11.814C17.6145 11.8245 17.8432 11.9137 17.9902 12.0802C18.1507 12.2617 18.216 12.5408 18.1755 12.867L17.883 15.2092ZM10.3125 5.25C10.3125 4.9395 10.5645 4.6875 10.875 4.6875H13.125C13.4355 4.6875 13.6875 4.9395 13.6875 5.25C13.6875 5.5605 13.4355 5.8125 13.125 5.8125H10.875C10.5645 5.8125 10.3125 5.5605 10.3125 5.25ZM16.125 14.25C16.125 14.5605 15.873 14.8125 15.5625 14.8125H14.4375C14.127 14.8125 13.875 14.5605 13.875 14.25C13.875 13.9395 14.127 13.6875 14.4375 13.6875H15.5625C15.873 13.6875 16.125 13.9395 16.125 14.25ZM10.125 14.25C10.125 14.5605 9.873 14.8125 9.5625 14.8125H8.4375C8.127 14.8125 7.875 14.5605 7.875 14.25C7.875 13.9395 8.127 13.6875 8.4375 13.6875H9.5625C9.873 13.6875 10.125 13.9395 10.125 14.25Z" fill="#25314C"/>
</svg>
