<svg width="46" height="45" viewBox="0 0 46 45" fill="none" xmlns="http://www.w3.org/2000/svg">
<g clip-path="url(#clip0_6493_5245)">
<path fill-rule="evenodd" clip-rule="evenodd" d="M5 0H41C43.4854 0 45.5 2.01456 45.5 4.5V40.5C45.5 42.9854 43.4854 45 41 45H5C2.51456 45 0.5 42.9854 0.5 40.5V4.5C0.5 2.01456 2.51456 0 5 0Z" fill="#010101"/>
<path fill-rule="evenodd" clip-rule="evenodd" d="M28.7563 41.4009C30.1256 41.4009 31.2356 40.2999 31.2356 38.9418C31.2356 37.5837 30.1256 36.4824 28.7563 36.4824H28.3828C29.7521 36.4824 30.8621 37.5837 30.8621 38.9418C30.8621 40.2999 29.7521 41.4009 28.3828 41.4009H28.7563Z" fill="#EE1D51"/>
<path fill-rule="evenodd" clip-rule="evenodd" d="M28.3491 36.4824H27.9756C26.6063 36.4824 25.4961 37.5837 25.4961 38.9418C25.4961 40.2999 26.6063 41.4009 27.9756 41.4009H28.3491C26.9797 41.4009 25.8696 40.2999 25.8696 38.9418C25.8696 37.5837 26.9797 36.4824 28.3491 36.4824Z" fill="#66C8CF"/>
<path d="M28.366 40.1356C29.0319 40.1356 29.5718 39.6003 29.5718 38.9399C29.5718 38.2795 29.0319 37.7441 28.366 37.7441C27.7 37.7441 27.1602 38.2795 27.1602 38.9399C27.1602 39.6003 27.7 40.1356 28.366 40.1356Z" fill="#010101"/>
<path fill-rule="evenodd" clip-rule="evenodd" d="M9.5 35.3691V36.6156H10.9602V41.3655H12.4209V36.6493H13.6094L14.0169 35.3691H9.5ZM21.4547 35.3691V36.6156H22.9149V41.3655H24.3756V36.6493H25.5641L25.9716 35.3691H21.4547ZM14.2889 36.0765C14.2889 35.6859 14.6077 35.3691 15.0015 35.3691C15.3957 35.3691 15.7149 35.6859 15.7149 36.0765C15.7149 36.4671 15.3959 36.7839 15.0015 36.7839C14.6077 36.7838 14.2889 36.4671 14.2889 36.0765ZM14.2889 37.2894H15.7149V41.3655H14.2889V37.2894ZM16.3263 35.3691V41.3655H17.7528V39.816L18.1944 39.4114L19.5867 41.3991H21.1149L19.1109 38.502L20.9109 36.7501H19.179L17.7528 38.1649V35.3691H16.3263ZM31.7109 35.3691V41.3655H33.1376V39.816L33.579 39.4114L34.9716 41.3991H36.5L34.4961 38.502L36.2961 36.7501H34.5641L33.1376 38.1649V35.3691H31.7109Z" fill="white"/>
<path fill-rule="evenodd" clip-rule="evenodd" d="M29.5103 14.6134C31.4802 16.0208 33.8937 16.849 36.5 16.849V11.8358C36.0067 11.836 35.5147 11.7845 35.0322 11.6823V15.6284C32.4259 15.6284 30.0128 14.8002 28.0424 13.3928V23.6231C28.0424 28.7409 23.8916 32.8893 18.7715 32.8893C16.8612 32.8893 15.0855 32.3121 13.6104 31.3221C15.2939 33.0425 17.6416 34.1099 20.239 34.1099C25.3595 34.1099 29.5105 29.9615 29.5105 24.8435L29.5103 14.6134ZM31.3211 9.55575C30.3144 8.45649 29.6534 7.03575 29.5103 5.46507V4.82031H28.1193C28.4693 6.81651 29.6637 8.52201 31.3211 9.55575ZM16.8487 27.395C16.2863 26.6579 15.9823 25.7561 15.9837 24.8289C15.9837 22.4882 17.8823 20.5905 20.2246 20.5905C20.6611 20.5902 21.095 20.6571 21.5111 20.789V15.6639C21.0249 15.5973 20.5343 15.5691 20.0437 15.5795V19.5686C19.6275 19.4367 19.1934 19.3698 18.7567 19.3701C16.4144 19.3701 14.5159 21.2678 14.5159 23.6087C14.5159 25.2638 15.4649 26.697 16.8487 27.395Z" fill="#EE1D52"/>
<path fill-rule="evenodd" clip-rule="evenodd" d="M28.0422 13.3928C30.0127 14.8002 32.4258 15.6284 35.032 15.6284V11.6823C33.5772 11.3727 32.2893 10.6127 31.3209 9.55575C29.6635 8.52201 28.4692 6.81651 28.1191 4.82031H24.4653V24.8433C24.457 27.1776 22.5616 29.0676 20.2243 29.0676C18.8469 29.0676 17.6233 28.4115 16.8484 27.395C15.4645 26.697 14.5156 25.2638 14.5156 23.6087C14.5156 21.2678 16.414 19.3701 18.7564 19.3701C19.2051 19.3701 19.6377 19.4399 20.0434 19.5686V15.5795C15.0133 15.6833 10.9678 19.7913 10.9678 24.8435C10.9678 27.3655 11.9752 29.6519 13.6102 31.3223C15.0853 32.3123 16.861 32.8895 18.7713 32.8895C23.8914 32.8895 28.0422 28.7409 28.0422 23.6233V13.3928Z" fill="white"/>
<path fill-rule="evenodd" clip-rule="evenodd" d="M35.0319 11.682V10.6149C33.72 10.6169 32.434 10.2497 31.3209 9.55527C32.3061 10.6334 33.6036 11.3769 35.0319 11.682ZM28.119 4.82001C28.0856 4.62926 28.0599 4.43722 28.0422 4.24437V3.59961H22.9971V23.6228C22.989 25.9569 21.0938 27.8469 18.7563 27.8469C18.07 27.8469 17.4222 27.6841 16.8483 27.3947C17.6232 28.4112 18.8469 29.0673 20.2242 29.0673C22.5613 29.0673 24.4569 27.1773 24.4652 24.843V4.82001H28.119ZM20.0435 15.5791V14.4432C19.6219 14.3855 19.1969 14.3567 18.7714 14.3569C13.6508 14.3569 9.5 18.5056 9.5 23.6228C9.5 26.8311 11.1313 29.6586 13.6103 31.3218C11.9754 29.6514 10.9679 27.365 10.9679 24.843C10.9679 19.791 15.0132 15.683 20.0435 15.5791Z" fill="#69C9D0"/>
<path fill-rule="evenodd" clip-rule="evenodd" d="M28.3828 41.4009C29.7521 41.4009 30.8623 40.2999 30.8623 38.9418C30.8623 37.5837 29.7521 36.4824 28.3828 36.4824H28.3489C26.9797 36.4824 25.8696 37.5837 25.8696 38.9418C25.8696 40.2999 26.9797 41.4009 28.3489 41.4009H28.3828ZM27.1602 38.9418C27.1602 38.2812 27.7002 37.746 28.3662 37.746C29.0317 37.746 29.5717 38.2812 29.5717 38.9418C29.5717 39.6024 29.0317 40.1379 28.3662 40.1379C27.7002 40.1377 27.1602 39.6024 27.1602 38.9418Z" fill="white"/>
</g>
<defs>
<clipPath id="clip0_6493_5245">
<rect width="45" height="45" fill="white" transform="translate(0.5)"/>
</clipPath>
</defs>
</svg>
