<svg width="45" height="45" viewBox="0 0 45 45" fill="none" xmlns="http://www.w3.org/2000/svg">
<rect width="45" height="45" rx="7.5" fill="#003262"/>
<path d="M22 25C23.933 25 25 23.933 25 22C25 20.067 23.933 18 22 18C20.067 18 18 20.067 18 22C18 23.933 20.067 25 22 25Z" stroke="white" stroke-width="1.125" stroke-miterlimit="10" stroke-linecap="square"/>
<path d="M34.9208 15V27C34.9225 27.4638 35.0981 27.5711 34.9208 28C34.7436 28.4289 34.2541 28.6715 33.925 29C33.5959 29.3285 33.3597 29.8222 32.9292 30C32.4986 30.1778 31.4037 30 30.9375 30H16L20.9792 35" stroke="white" stroke-width="1.125" stroke-miterlimit="10"/>
<path d="M13 22H15" stroke="white" stroke-width="1.125" stroke-miterlimit="10"/>
<path d="M29 22H31" stroke="white" stroke-width="1.125" stroke-miterlimit="10"/>
<path d="M9 29V17C9 16.0622 9.33059 15.6631 10 15C10.6694 14.3369 12.0533 14 13 14H28L23 9" stroke="white" stroke-width="1.125" stroke-miterlimit="10"/>
</svg>
