<svg width="24" height="24" viewBox="0 0 24 24" fill="none" xmlns="http://www.w3.org/2000/svg">
<rect width="24" height="24" rx="3" fill="#D9FAFF"/>
<path d="M7.70203 17.7302C8.49318 17.7302 9.13453 17.0889 9.13453 16.2977C9.13453 15.5066 8.49318 14.8652 7.70203 14.8652C6.91088 14.8652 6.26953 15.5066 6.26953 16.2977C6.26953 17.0889 6.91088 17.7302 7.70203 17.7302Z" stroke="#003262" stroke-width="1.5" stroke-miterlimit="10"/>
<path d="M16.2958 17.7302C17.0869 17.7302 17.7283 17.0889 17.7283 16.2977C17.7283 15.5066 17.0869 14.8652 16.2958 14.8652C15.5046 14.8652 14.8633 15.5066 14.8633 16.2977C14.8633 17.0889 15.5046 17.7302 16.2958 17.7302Z" stroke="#003262" stroke-width="1.5" stroke-miterlimit="10"/>
<path d="M6.27 16.297H4.125V6.26953H17.01V9.13453L18.4425 11.9995L19.875 12.802V16.297H17.73" stroke="#003262" stroke-width="1.5" stroke-miterlimit="10"/>
<path d="M14.8667 16.2979H9.13672" stroke="#003262" stroke-width="1.5" stroke-miterlimit="10"/>
<path d="M18.442 11.9998H14.1445V9.13477H17.0095" stroke="#003262" stroke-width="1.5" stroke-miterlimit="10"/>
</svg>
