<svg width="46" height="45" viewBox="0 0 46 45" fill="none" xmlns="http://www.w3.org/2000/svg">
<g clip-path="url(#clip0_6493_5209)">
<path d="M38.75 0H7.25C3.52208 0 0.5 3.02208 0.5 6.75V38.25C0.5 41.9779 3.52208 45 7.25 45H38.75C42.4779 45 45.5 41.9779 45.5 38.25V6.75C45.5 3.02208 42.4779 0 38.75 0Z" fill="#1DA1F2"/>
<path d="M38.9082 13.3585C37.8535 13.8858 36.623 14.2374 35.3926 14.4131C36.7109 13.6221 37.6777 12.3917 38.2051 10.8975C36.9746 11.6006 35.6562 12.128 34.25 12.3917C33.2935 11.4121 32.0452 10.7691 30.6923 10.5592C29.3394 10.3493 27.9549 10.5838 26.7466 11.2276C25.5383 11.8714 24.5714 12.8896 23.9909 14.1296C23.4105 15.3695 23.2478 16.7643 23.5273 18.1046C18.6055 17.8409 13.8594 15.5557 10.7832 11.6006C10.3646 12.2692 10.0825 13.014 9.95318 13.7921C9.82382 14.5702 9.84977 15.3662 10.0295 16.1342C10.2093 16.9022 10.5393 17.627 11.0005 18.2669C11.4617 18.9068 12.045 19.449 12.7168 19.8624C11.75 19.8624 10.7832 19.6866 9.9043 19.2471C9.99219 22.1475 12.0137 24.6964 14.8262 25.3116C13.9473 25.5753 12.9805 25.5753 12.0137 25.3995C12.8926 27.9483 15.2656 29.7061 17.9023 29.794C15.3535 31.9034 11.9258 32.8702 8.67383 32.3428C11.3913 34.1562 14.5624 35.1722 17.8277 35.2757C21.0931 35.3792 24.3221 34.5661 27.149 32.9285C29.9759 31.2909 32.2877 28.8943 33.8223 26.0102C35.357 23.1261 36.0532 19.8699 35.832 16.6104C37.0625 15.7315 38.1172 14.6768 38.9082 13.3585Z" fill="white"/>
</g>
<defs>
<clipPath id="clip0_6493_5209">
<rect width="45" height="45" fill="white" transform="translate(0.5)"/>
</clipPath>
</defs>
</svg>
