<svg width="46" height="45" viewBox="0 0 46 45" fill="none" xmlns="http://www.w3.org/2000/svg">
<g clip-path="url(#clip0_6388_11104)">
<path d="M0.5 0H45.5V45H0.5V0Z" fill="black"/>
<path d="M12.8626 19.5637V22.9725C12.8626 24.1087 12.3563 24.5813 11.1751 24.5813C9.99381 24.5813 9.48756 24.1087 9.48756 22.9725V19.4175H8.36256C8.26131 19.4175 8.21631 19.4625 8.21631 19.5637V23.0175C8.21631 24.9188 9.43131 25.5825 11.1863 25.5825C12.9413 25.5825 14.1563 24.9188 14.1563 23.0175V19.4062H13.0201C12.9188 19.4175 12.8626 19.4625 12.8626 19.5637Z" fill="white"/>
<path d="M29.3439 20.3963C29.4339 20.3963 29.4789 20.3625 29.5126 20.295L29.8389 19.485C29.8614 19.44 29.8389 19.4062 29.7939 19.4062H25.2151C24.7876 19.4062 24.6301 19.5413 24.6301 19.8338V25.1213C24.6301 25.3688 24.7539 25.4812 25.0801 25.4812H29.3439C29.4339 25.4812 29.4789 25.4475 29.5126 25.38L29.8389 24.57C29.8614 24.525 29.8389 24.4912 29.7939 24.4912H25.8901V23.4113C25.8901 23.04 26.0926 22.8713 26.6439 22.8713H28.3426C28.4326 22.8713 28.4776 22.8375 28.5114 22.77L28.8264 21.9825C28.8489 21.9375 28.8264 21.9037 28.7814 21.9037H25.8901V20.385H29.3439V20.3963Z" fill="white"/>
<path d="M21.2775 22.2862C21.7725 22.0275 21.975 21.5325 21.975 20.9587C21.975 19.62 20.8837 19.4175 19.7475 19.4175H17.16C16.7325 19.4175 16.575 19.5525 16.575 19.845V25.1325C16.575 25.38 16.6987 25.4925 17.025 25.4925H20.2087C21.4125 25.4925 22.2675 25.0312 22.2675 23.8162C22.2787 23.0737 21.9637 22.4662 21.2775 22.2862ZM17.8462 20.385H19.8487C20.5237 20.385 20.7037 20.6325 20.7037 21.1612C20.7037 21.69 20.5125 21.9375 19.8487 21.9375H17.8462V20.385ZM20.085 24.5025H17.8462V23.3887C17.8462 23.0175 18.0487 22.8487 18.6 22.8487H20.085C20.7937 22.8487 20.9962 23.1187 20.9962 23.6812C21.0075 24.2437 20.805 24.5025 20.085 24.5025Z" fill="white"/>
<path d="M37.77 25.38L36.4087 23.04C37.0837 22.8712 37.635 22.4212 37.635 21.285C37.635 19.8112 36.7237 19.4175 35.2162 19.4175H32.6175C32.19 19.4175 32.0325 19.5525 32.0325 19.845V25.3462C32.0325 25.4475 32.0775 25.4925 32.1787 25.4925H33.2925V23.7262C33.2925 23.355 33.495 23.1862 34.0462 23.1862H35.16L36.3862 25.4025C36.42 25.47 36.465 25.5037 36.555 25.5037H37.7137C37.7925 25.4812 37.7925 25.4137 37.77 25.38ZM35.3962 22.23H33.2812V20.3962H35.3962C36.1837 20.3962 36.3637 20.7 36.3637 21.3187C36.3637 21.9262 36.1837 22.23 35.3962 22.23Z" fill="white"/>
</g>
<defs>
<clipPath id="clip0_6388_11104">
<rect x="0.5" width="45" height="45" rx="8" fill="white"/>
</clipPath>
</defs>
</svg>
