<svg width="25" height="25" viewBox="0 0 25 25" fill="none" xmlns="http://www.w3.org/2000/svg">
<rect y="0.5" width="24" height="24" rx="3" fill="#D9FAFF"/>
<path d="M20.6895 10.0557C21.9305 10.0557 22.9395 9.04666 22.9395 7.80566C22.9395 6.56466 21.9305 5.55566 20.6895 5.55566C19.7135 5.55566 18.8885 6.18466 18.5775 7.05566H14.9195C14.8225 5.80166 14.0095 5.05566 12.6885 5.05566H11.6885C10.3675 5.05566 9.55552 5.80166 9.45752 7.05566H5.7995C5.4885 6.18466 4.6645 5.55566 3.6875 5.55566C2.4465 5.55566 1.4375 6.56466 1.4375 7.80566C1.4375 9.04666 2.4465 10.0557 3.6875 10.0557C4.6635 10.0557 5.4885 9.42666 5.7995 8.55566H7.39349C5.64549 9.91566 4.62953 12.1637 4.48053 15.0717C3.20153 15.1537 2.43854 15.9697 2.43854 17.3057V18.3057C2.43854 19.7147 3.27954 20.5557 4.68854 20.5557H5.68854C7.09754 20.5557 7.93854 19.7147 7.93854 18.3057V17.3057C7.93854 15.9927 7.20049 15.1827 5.96149 15.0767C6.07949 12.9997 6.77351 10.1297 9.53351 9.02365C9.78051 9.99065 10.5425 10.5557 11.6885 10.5557H12.6885C13.8355 10.5557 14.5965 9.99165 14.8435 9.02365C17.6035 10.1297 18.2975 12.9997 18.4155 15.0767C17.1755 15.1817 16.4385 15.9927 16.4385 17.3057V18.3057C16.4385 19.7147 17.2795 20.5557 18.6885 20.5557H19.6885C21.0975 20.5557 21.9385 19.7147 21.9385 18.3057V17.3057C21.9385 15.9697 21.1755 15.1537 19.8965 15.0717C19.7475 12.1637 18.7315 9.91566 16.9835 8.55566H18.5775C18.8885 9.42666 19.7135 10.0557 20.6895 10.0557ZM6.43951 17.3057V18.3057C6.43951 18.8947 6.27851 19.0557 5.68951 19.0557H4.68951C4.10051 19.0557 3.93951 18.8947 3.93951 18.3057V17.3057C3.93951 16.7167 4.10051 16.5557 4.68951 16.5557H5.68951C6.27851 16.5557 6.43951 16.7167 6.43951 17.3057ZM20.4395 17.3057V18.3057C20.4395 18.8947 20.2785 19.0557 19.6895 19.0557H18.6895C18.1005 19.0557 17.9395 18.8947 17.9395 18.3057V17.3057C17.9395 16.7167 18.1005 16.5557 18.6895 16.5557H19.6895C20.2785 16.5557 20.4395 16.7167 20.4395 17.3057ZM20.6895 7.05566C21.1035 7.05566 21.4395 7.39166 21.4395 7.80566C21.4395 8.21966 21.1035 8.55566 20.6895 8.55566C20.2755 8.55566 19.9395 8.21966 19.9395 7.80566C19.9395 7.39166 20.2755 7.05566 20.6895 7.05566ZM3.68951 8.55566C3.27551 8.55566 2.93951 8.21966 2.93951 7.80566C2.93951 7.39166 3.27551 7.05566 3.68951 7.05566C4.10351 7.05566 4.43951 7.39166 4.43951 7.80566C4.43951 8.21966 4.10351 8.55566 3.68951 8.55566ZM13.4395 8.30566C13.4395 8.89466 13.2785 9.05566 12.6895 9.05566H11.6895C11.1005 9.05566 10.9395 8.89466 10.9395 8.30566V7.30566C10.9395 6.71666 11.1005 6.55566 11.6895 6.55566H12.6895C13.2785 6.55566 13.4395 6.71666 13.4395 7.30566V8.30566Z" fill="#25314C"/>
</svg>
