<svg width="97" height="71" viewBox="0 0 97 71" fill="none" xmlns="http://www.w3.org/2000/svg">
<g clip-path="url(#clip0_5098_3096)">
<path d="M64.5206 65.8033C82.4576 65.8033 96.9983 51.2662 96.9983 33.3338C96.9983 15.4014 82.4576 0.864258 64.5206 0.864258C46.5837 0.864258 32.043 15.4014 32.043 33.3338C32.043 51.2662 46.5837 65.8033 64.5206 65.8033Z" fill="#D2F7FF"/>
<path d="M46.7304 32.0577C46.5541 31.5111 46.2189 31.0272 45.7655 30.6691C45.2539 30.2651 44.6213 30.0448 43.9693 30.0435C43.9695 30.0435 43.9692 30.0435 43.9693 30.0435M46.7304 32.0577L43.9693 29.8703V30.0435M43.9693 30.0435H25.3177ZM43.9693 30.0435H25.3177ZM3.51892 59.0279H20.173V63.4546C20.1751 64.8179 20.7178 66.1252 21.6821 67.0892C22.6463 68.0533 23.9534 68.596 25.3171 68.5984H43.9693C45.3329 68.596 46.6404 68.0533 47.6046 67.0892C48.5689 66.1252 49.1116 64.8182 49.1138 63.455V59.0279H65.7678C66.065 59.0279 66.35 58.9099 66.5601 58.6999C66.7702 58.4898 66.8882 58.2049 66.8882 57.9078V5.24764C66.8883 5.10059 66.8594 4.95488 66.8032 4.81891C66.7469 4.68296 66.6644 4.55942 66.5603 4.45538C66.4562 4.35133 66.3327 4.26882 66.1966 4.21255C66.0606 4.15627 65.9149 4.12736 65.7678 4.12744H3.51892C3.37175 4.12736 3.22607 4.15628 3.09009 4.21255C2.9541 4.26882 2.83053 4.35133 2.72646 4.45538C2.62239 4.55942 2.53985 4.68296 2.48356 4.81892C2.4273 4.95484 2.39837 5.10053 2.39844 5.24764C2.39844 5.24761 2.39844 5.24767 2.39844 5.24764V57.9078C2.39844 58.2049 2.51648 58.4898 2.72662 58.6999C2.93675 58.9099 3.22175 59.0279 3.51892 59.0279ZM20.173 32.9469V56.7875H4.6394V14.0203H64.6474V56.7875H49.1138V32.9469C49.1116 31.5836 48.5689 30.2763 47.6046 29.3123C46.6404 28.3481 45.3333 27.8055 43.9697 27.8031H25.3174C23.9538 27.8055 22.6463 28.3481 21.6821 29.3123C20.7178 30.2763 20.1751 31.5836 20.173 32.9469ZM4.6394 6.36784H64.6474V11.7799H4.6394V6.36784ZM22.4139 57.9234V57.9225V57.9215V57.9206V57.9196V57.9187V57.9177V57.9168V57.9158V57.9149V57.9139V57.913V57.912V57.9111V57.9101V57.9092V57.9083V57.9073V57.9064V57.9054V57.9045V57.9036V57.9027V57.9017V57.9008V57.8998V57.8989V57.898V57.897V57.8961V57.8951V57.8942V57.8932V57.8923V34.2981H46.8728V57.8921V57.9078V57.9087V57.9097V57.9106V57.9116V57.9125V57.9135V57.9144V57.9154V57.9163V57.9173V57.9183V57.9192V57.9202V57.9211V57.9221V57.923V59.4312H22.4139V57.9234ZM43.9691 66.3607H25.3176C24.5477 66.3597 23.8096 66.0535 23.2653 65.5092C22.7208 64.9648 22.4147 64.2269 22.4139 63.4572V61.6716H46.8728V63.4572C46.872 64.2269 46.5659 64.9648 46.0215 65.5092C45.4771 66.0535 44.739 66.3597 43.9691 66.3607Z" fill="#3D3D3D"/>
<path d="M46.7304 32.0577C46.5541 31.5111 46.2189 31.0272 45.7655 30.6691C45.2539 30.2651 44.6213 30.0448 43.9693 30.0435M46.7304 32.0577L43.9693 29.8703V30.0435M46.7304 32.0577H22.5563M43.9693 30.0435C43.9692 30.0435 43.9695 30.0435 43.9693 30.0435ZM43.9693 30.0435H25.3177M2.39844 5.24764C2.39837 5.10053 2.4273 4.95484 2.48356 4.81892C2.53985 4.68296 2.62239 4.55942 2.72646 4.45538C2.83053 4.35133 2.9541 4.26882 3.09009 4.21255C3.22607 4.15628 3.37175 4.12736 3.51892 4.12744H65.7678C65.9149 4.12736 66.0606 4.15627 66.1966 4.21255C66.3327 4.26882 66.4562 4.35133 66.5603 4.45538C66.6644 4.55942 66.7469 4.68296 66.8032 4.81891C66.8594 4.95488 66.8883 5.10059 66.8882 5.24764V57.9078C66.8882 58.2049 66.7702 58.4898 66.5601 58.6999C66.35 58.9099 66.065 59.0279 65.7678 59.0279H49.1138V63.455C49.1116 64.8182 48.5689 66.1252 47.6046 67.0892C46.6404 68.0533 45.3329 68.596 43.9693 68.5984H25.3171C23.9534 68.596 22.6463 68.0533 21.6821 67.0892C20.7178 66.1252 20.1751 64.8179 20.173 63.4546V59.0279H3.51892C3.22175 59.0279 2.93675 58.9099 2.72662 58.6999C2.51648 58.4898 2.39844 58.2049 2.39844 57.9078V5.24764ZM2.39844 5.24764C2.39844 5.24767 2.39844 5.24761 2.39844 5.24764ZM20.173 32.9469V56.7875H4.6394V14.0203H64.6474V56.7875H49.1138V32.9469C49.1116 31.5836 48.5689 30.2763 47.6046 29.3123C46.6404 28.3481 45.3333 27.8055 43.9697 27.8031H25.3174C23.9538 27.8055 22.6463 28.3481 21.6821 29.3123C20.7178 30.2763 20.1751 31.5836 20.173 32.9469ZM4.6394 6.36784H64.6474V11.7799H4.6394V6.36784ZM22.4139 57.9234V57.9225V57.9215V57.9206V57.9196V57.9187V57.9177V57.9168V57.9158V57.9149V57.9139V57.913V57.912V57.9111V57.9101V57.9092V57.9083V57.9073V57.9064V57.9054V57.9045V57.9036V57.9027V57.9017V57.9008V57.8998V57.8989V57.898V57.897V57.8961V57.8951V57.8942V57.8932V57.8923V34.2981H46.8728V57.8921V57.9078V57.9087V57.9097V57.9106V57.9116V57.9125V57.9135V57.9144V57.9154V57.9163V57.9173V57.9183V57.9192V57.9202V57.9211V57.9221V57.923V59.4312H22.4139V57.9234ZM43.9691 66.3607H25.3176C24.5477 66.3597 23.8096 66.0535 23.2653 65.5092C22.7208 64.9648 22.4147 64.2269 22.4139 63.4572V61.6716H46.8728V63.4572C46.872 64.2269 46.5659 64.9648 46.0215 65.5092C45.4771 66.0535 44.739 66.3597 43.9691 66.3607Z" stroke="#3D3D3D" stroke-width="0.4"/>
<path d="M44.9039 7.26416C44.5458 7.26416 44.1959 7.3703 43.8982 7.56914C43.6005 7.76798 43.3686 8.05062 43.2316 8.38128C43.0946 8.71192 43.0587 9.07584 43.1285 9.42685C43.1984 9.77787 43.3707 10.1003 43.6239 10.3534C43.877 10.6065 44.1996 10.7788 44.5508 10.8487C44.9019 10.9185 45.2658 10.8826 45.5965 10.7457C45.9273 10.6087 46.21 10.3768 46.4089 10.0792C46.6078 9.78159 46.714 9.4317 46.714 9.07376C46.714 8.59385 46.5232 8.13356 46.1837 7.79419C45.8443 7.45482 45.3839 7.26416 44.9039 7.26416Z" fill="#3D3D3D" stroke="#3D3D3D" stroke-width="0.4"/>
<path d="M51.3107 7.26416C50.9527 7.26405 50.6027 7.37008 50.3049 7.56885C50.0072 7.76763 49.7751 8.05021 49.638 8.38087C49.5009 8.71149 49.4649 9.07541 49.5347 9.42651C49.6045 9.77753 49.7769 10.1001 50.0299 10.3532C50.2831 10.6063 50.6056 10.7787 50.9567 10.8486C51.3079 10.9185 51.6718 10.8827 52.0027 10.7457C52.3334 10.6088 52.6162 10.3769 52.8151 10.0793C53.014 9.78159 53.1202 9.4317 53.1202 9.07376C53.1202 8.59396 52.9296 8.13376 52.5902 7.79441C52.2509 7.45505 51.7907 7.26432 51.3107 7.26416Z" fill="#3D3D3D" stroke="#3D3D3D" stroke-width="0.4"/>
<path d="M56.7112 7.56885C57.0088 7.37009 57.3589 7.26406 57.7169 7.26416L56.7112 7.56885ZM56.7112 7.56885C56.4134 7.76763 56.1813 8.05021 56.0442 8.38087ZM56.7112 7.56885L56.0442 8.38087ZM56.0442 8.38087C55.9071 8.71149 55.8712 9.07541 55.941 9.42651ZM56.0442 8.38087L55.941 9.42651ZM55.941 9.42651C56.0107 9.77753 56.183 10.1001 56.4362 10.3532ZM55.941 9.42651L56.4362 10.3532ZM56.4362 10.3532C56.6894 10.6063 57.0119 10.7787 57.363 10.8486ZM56.4362 10.3532L57.363 10.8486ZM57.363 10.8486C57.7141 10.9185 58.0781 10.8827 58.4088 10.7457ZM57.363 10.8486L58.4088 10.7457ZM58.4088 10.7457C58.7397 10.6088 59.0224 10.3769 59.2213 10.0793ZM58.4088 10.7457L59.2213 10.0793ZM59.2213 10.0793C59.4202 9.78168 59.5264 9.43179 59.5264 9.07385L59.2213 10.0793ZM59.5264 9.07385C59.5265 8.83626 59.4797 8.6009 59.3889 8.38136C59.298 8.16181 59.1647 7.9623 58.9966 7.79424C58.8286 7.62619 58.6291 7.49288 58.4095 7.40193C58.1899 7.31099 57.9545 7.26417 57.7169 7.26416L59.5264 9.07385Z" fill="#3D3D3D"/>
<path d="M56.7112 7.56885C57.0088 7.37009 57.3589 7.26406 57.7169 7.26416M56.7112 7.56885L57.7169 7.26416M56.7112 7.56885C56.4134 7.76763 56.1813 8.05021 56.0442 8.38087M56.7112 7.56885L56.0442 8.38087M57.7169 7.26416C57.9545 7.26417 58.1899 7.31099 58.4095 7.40193C58.6291 7.49288 58.8286 7.62619 58.9966 7.79424C59.1647 7.9623 59.298 8.16181 59.3889 8.38136C59.4797 8.6009 59.5265 8.83626 59.5264 9.07385M57.7169 7.26416L59.5264 9.07385M56.0442 8.38087C55.9071 8.71149 55.8712 9.07541 55.941 9.42651M56.0442 8.38087L55.941 9.42651M55.941 9.42651C56.0107 9.77753 56.183 10.1001 56.4362 10.3532M55.941 9.42651L56.4362 10.3532M56.4362 10.3532C56.6894 10.6063 57.0119 10.7787 57.363 10.8486M56.4362 10.3532L57.363 10.8486M57.363 10.8486C57.7141 10.9185 58.0781 10.8827 58.4088 10.7457M57.363 10.8486L58.4088 10.7457M58.4088 10.7457C58.7397 10.6088 59.0224 10.3769 59.2213 10.0793M58.4088 10.7457L59.2213 10.0793M59.2213 10.0793C59.4202 9.78168 59.5264 9.43179 59.5264 9.07385M59.2213 10.0793L59.5264 9.07385" stroke="#3D3D3D" stroke-width="0.4"/>
<path d="M34.6442 62.1665C34.278 62.1665 33.9202 62.2751 33.6157 62.4785C33.3113 62.6819 33.074 62.9709 32.9339 63.3091C32.7937 63.6472 32.7571 64.0193 32.8286 64.3783C32.8999 64.7374 33.0763 65.0671 33.3352 65.326C33.5941 65.5848 33.924 65.7611 34.283 65.8325C34.6421 65.9039 35.0144 65.8673 35.3526 65.7272C35.6909 65.5871 35.98 65.3499 36.1835 65.0456C36.3869 64.7412 36.4954 64.3834 36.4954 64.0173C36.4954 63.5264 36.3004 63.0557 35.9533 62.7086C35.6061 62.3615 35.1352 62.1665 34.6442 62.1665Z" fill="#3D3D3D" stroke="#3D3D3D" stroke-width="0.4"/>
<path d="M40.8734 42.2202V44.0025C40.8734 44.2996 40.9915 44.5845 41.2016 44.7946C41.4118 45.0047 41.6967 45.1227 41.994 45.1227C42.2911 45.1227 42.576 45.0047 42.7862 44.7946C42.9964 44.5845 43.1144 44.2996 43.1144 44.0025V39.5157C43.1142 39.4425 43.1069 39.3689 43.0927 39.297C43.0861 39.2644 43.0709 39.2192 43.0649 39.2015C43.0643 39.1999 43.0639 39.1984 43.0635 39.1973C43.0547 39.1626 43.0442 39.1284 43.0319 39.0948L43.0293 39.0877L43.0261 39.0809C43.0076 39.0414 42.9868 39.0029 42.964 38.9657C42.9621 38.9624 42.9605 38.9591 42.9575 38.9533C42.9561 38.9505 42.9544 38.9472 42.9523 38.9432C42.9464 38.9316 42.937 38.914 42.9246 38.8954C42.8424 38.7719 42.7364 38.6659 42.6128 38.5837L42.6071 38.58C42.5851 38.5666 42.5624 38.554 42.5392 38.5426C42.4687 38.4978 42.391 38.4651 42.3096 38.446C42.3088 38.4457 42.3079 38.4455 42.307 38.4451C42.2902 38.4394 42.247 38.4247 42.211 38.4178C42.1391 38.4031 42.0659 38.3957 41.9925 38.3955H37.5066C37.2094 38.3955 36.9244 38.5136 36.7143 38.7237C36.5042 38.9337 36.3861 39.2187 36.3861 39.5157C36.3861 39.8128 36.5042 40.0978 36.7143 40.3078C36.9244 40.5179 37.2094 40.6359 37.5066 40.6359H39.2893L28.4128 51.5102V49.7274C28.4128 49.4303 28.2948 49.1454 28.0847 48.9353C27.8745 48.7252 27.5895 48.6072 27.2924 48.6072C26.9952 48.6072 26.7102 48.7252 26.5 48.9353C26.2899 49.1454 26.1719 49.4303 26.1719 49.7274V54.2141C26.172 54.2876 26.1793 54.3612 26.1935 54.4333L26.1938 54.4343C26.1989 54.4593 26.2057 54.4807 26.2108 54.4961C26.2124 54.501 26.2138 54.5051 26.215 54.5087C26.2179 54.5173 26.2199 54.5231 26.2218 54.5297C26.2311 54.5658 26.2423 54.6015 26.2553 54.6364L26.2596 54.6471C26.2772 54.6863 26.2971 54.7245 26.319 54.7614C26.3209 54.7647 26.3225 54.7678 26.325 54.7729C26.3266 54.7761 26.3286 54.7801 26.3315 54.7857C26.3379 54.7982 26.3478 54.8171 26.3613 54.8369L26.5043 54.7391M40.8734 42.2202L29.997 53.094H31.7797C32.0768 53.094 32.3619 53.212 32.572 53.4221C32.7821 53.6321 32.9002 53.9171 32.9002 54.2141C32.9002 54.5112 32.7821 54.7962 32.572 55.0062C32.3619 55.2164 32.0768 55.3344 31.7797 55.3344H27.2924C27.219 55.3341 27.1452 55.3268 27.0732 55.3126L27.0709 55.3122C27.0405 55.3058 27.0094 55.2956 26.9881 55.2887C26.9823 55.2868 26.9772 55.2851 26.9731 55.2838C26.9709 55.2831 26.9667 55.282 26.961 55.2804C26.939 55.2743 26.8952 55.262 26.8644 55.2493L26.8587 55.247C26.8204 55.2296 26.7831 55.21 26.747 55.1882C26.743 55.1861 26.7391 55.1841 26.7326 55.1809C26.7298 55.1794 26.7265 55.1777 26.7225 55.1758C26.7101 55.1696 26.692 55.1603 26.6729 55.1478L26.6707 55.1464C26.5479 55.064 26.4424 54.9582 26.3602 54.8353L26.5043 54.7391M40.8734 42.2202L41.0467 42.0471V44.0025C41.0467 44.2536 41.1464 44.4946 41.3241 44.6722C41.5018 44.8498 41.7427 44.9495 41.994 44.9495C42.2451 44.9495 42.4861 44.8498 42.6637 44.6722C42.8414 44.4946 42.9412 44.2536 42.9412 44.0025V39.5157M26.5043 54.7391C26.4954 54.7261 26.4884 54.7123 26.4816 54.6987C26.4775 54.6906 26.4734 54.6825 26.469 54.6747L26.9302 55.0892C26.8971 55.0742 26.865 55.0572 26.8339 55.0383C26.8252 55.0334 26.8163 55.029 26.8075 55.0247C26.794 55.0179 26.7805 55.0112 26.7673 55.0026C26.6633 54.9328 26.5739 54.8433 26.5043 54.7391Z" fill="#3D3D3D"/>
<path d="M40.8734 42.2202V44.0025C40.8734 44.2996 40.9915 44.5845 41.2016 44.7946C41.4118 45.0047 41.6967 45.1227 41.994 45.1227C42.2911 45.1227 42.576 45.0047 42.7862 44.7946C42.9964 44.5845 43.1144 44.2996 43.1144 44.0025V39.5157C43.1142 39.4425 43.1069 39.3689 43.0927 39.297C43.0861 39.2644 43.0709 39.2192 43.0649 39.2015C43.0643 39.1999 43.0639 39.1984 43.0635 39.1973C43.0547 39.1626 43.0442 39.1284 43.0319 39.0948L43.0293 39.0877L43.0261 39.0809C43.0076 39.0414 42.9868 39.0029 42.964 38.9657C42.9621 38.9624 42.9605 38.9591 42.9575 38.9533C42.9561 38.9505 42.9544 38.9472 42.9523 38.9432C42.9464 38.9316 42.937 38.914 42.9246 38.8954C42.8424 38.7719 42.7364 38.6659 42.6128 38.5837L42.6071 38.58C42.5851 38.5666 42.5624 38.554 42.5392 38.5426C42.4687 38.4978 42.391 38.4651 42.3096 38.446C42.3088 38.4457 42.3079 38.4455 42.307 38.4451C42.2902 38.4394 42.247 38.4247 42.211 38.4178C42.1391 38.4031 42.0659 38.3957 41.9925 38.3955H37.5066C37.2094 38.3955 36.9244 38.5136 36.7143 38.7237C36.5042 38.9337 36.3861 39.2187 36.3861 39.5157C36.3861 39.8128 36.5042 40.0978 36.7143 40.3078C36.9244 40.5179 37.2094 40.6359 37.5066 40.6359H39.2893L28.4128 51.5102V49.7274C28.4128 49.4303 28.2948 49.1454 28.0847 48.9353C27.8745 48.7252 27.5895 48.6072 27.2924 48.6072C26.9952 48.6072 26.7102 48.7252 26.5 48.9353C26.2899 49.1454 26.1719 49.4303 26.1719 49.7274V54.2141C26.172 54.2876 26.1793 54.3612 26.1935 54.4333L26.1938 54.4343C26.1989 54.4593 26.2057 54.4807 26.2108 54.4961C26.2124 54.501 26.2138 54.5051 26.215 54.5087C26.2179 54.5173 26.2199 54.5231 26.2218 54.5297C26.2311 54.5658 26.2423 54.6015 26.2553 54.6364L26.2596 54.6471C26.2772 54.6863 26.2971 54.7245 26.319 54.7614C26.3209 54.7647 26.3225 54.7678 26.325 54.7729C26.3266 54.7761 26.3286 54.7801 26.3315 54.7857C26.3379 54.7982 26.3478 54.8171 26.3613 54.8369L26.5043 54.7391M40.8734 42.2202L29.997 53.094H31.7797C32.0768 53.094 32.3619 53.212 32.572 53.4221C32.7821 53.6321 32.9002 53.9171 32.9002 54.2141C32.9002 54.5112 32.7821 54.7962 32.572 55.0062C32.3619 55.2164 32.0768 55.3344 31.7797 55.3344H27.2924C27.219 55.3341 27.1452 55.3268 27.0732 55.3126L27.0709 55.3122C27.0405 55.3058 27.0094 55.2956 26.9881 55.2887C26.9823 55.2868 26.9772 55.2851 26.9731 55.2838C26.9709 55.2831 26.9667 55.282 26.961 55.2804C26.939 55.2743 26.8952 55.262 26.8644 55.2493L26.8587 55.247C26.8204 55.2296 26.7831 55.21 26.747 55.1882C26.743 55.1861 26.7391 55.1841 26.7326 55.1809C26.7298 55.1794 26.7265 55.1777 26.7225 55.1758C26.7101 55.1696 26.692 55.1603 26.6729 55.1478L26.6707 55.1464C26.5479 55.064 26.4424 54.9582 26.3602 54.8353L26.5043 54.7391M40.8734 42.2202L41.0467 42.0471V44.0025C41.0467 44.2536 41.1464 44.4946 41.3241 44.6722C41.5018 44.8498 41.7427 44.9495 41.994 44.9495C42.2451 44.9495 42.4861 44.8498 42.6637 44.6722C42.8414 44.4946 42.9412 44.2536 42.9412 44.0025V39.5157M26.5043 54.7391C26.4954 54.7261 26.4884 54.7123 26.4816 54.6987C26.4775 54.6906 26.4734 54.6825 26.469 54.6747L26.9302 55.0892C26.8971 55.0742 26.865 55.0572 26.8339 55.0383C26.8252 55.0334 26.8163 55.029 26.8075 55.0247C26.794 55.0179 26.7805 55.0112 26.7673 55.0026C26.6633 54.9328 26.5739 54.8433 26.5043 54.7391Z" stroke="#3D3D3D" stroke-width="0.4"/>
</g>
<defs>
<clipPath id="clip0_5098_3096">
<rect width="97" height="71" fill="white"/>
</clipPath>
</defs>
</svg>
