<svg width="24" height="24" viewBox="0 0 24 24" fill="none" xmlns="http://www.w3.org/2000/svg">
<rect width="24" height="24" rx="3" fill="#D9FAFF"/>
<path fill-rule="evenodd" clip-rule="evenodd" d="M5 12.4375V11.5625C5 8.68638 5 7.24787 5.6356 6.27925C5.75187 6.10219 5.88175 5.93983 6.0234 5.7945C6.799 5 7.9484 5 10.25 5C12.5509 5 13.7017 5 14.4766 5.7945C14.6182 5.93983 14.7481 6.10219 14.8644 6.27925C15.3558 7.02737 15.4671 8.05638 15.4923 9.8125L15.9613 9.52375C17.3228 8.67325 18.0039 8.24713 18.5023 8.63213C19 9.01713 19 9.96913 19 11.8723V12.1277C19 14.0309 19 14.9829 18.5023 15.3679C18.0039 15.7529 17.3228 15.3268 15.9613 14.4754L15.4923 14.1875C15.4671 15.9436 15.3558 16.9726 14.8644 17.7208C14.7481 17.8978 14.6182 18.0602 14.4766 18.2055C13.701 19 12.5516 19 10.25 19C7.9491 19 6.7983 19 6.0234 18.2055C5.88175 18.0602 5.75187 17.8978 5.6356 17.7208C5 16.7513 5 15.3145 5 12.4375ZM10.6532 8.5175C10.6039 8.44365 10.5423 8.38423 10.4726 8.34345C10.4029 8.30268 10.3269 8.28155 10.25 8.28155C10.1731 8.28155 10.0971 8.30268 10.0274 8.34345C9.95773 8.38423 9.89607 8.44365 9.8468 8.5175L8.0968 11.1425C8.05071 11.2084 8.01562 11.2851 7.99359 11.3681C7.97157 11.4512 7.96306 11.5389 7.96856 11.6262C7.97406 11.7134 7.99346 11.7984 8.02562 11.8761C8.05779 11.9538 8.10206 12.0227 8.15584 12.0787C8.20962 12.1348 8.27181 12.1768 8.33877 12.2023C8.40573 12.2278 8.4761 12.2364 8.54574 12.2274C8.61537 12.2184 8.68287 12.1921 8.74426 12.1501C8.80565 12.108 8.85969 12.051 8.9032 11.9825L9.725 10.7505V15.0625C9.725 15.2365 9.78031 15.4035 9.87877 15.5265C9.97723 15.6496 10.1108 15.7188 10.25 15.7188C10.3892 15.7188 10.5228 15.6496 10.6212 15.5265C10.7197 15.4035 10.775 15.2365 10.775 15.0625V10.7505L11.5968 11.9825C11.687 12.1114 11.814 12.1912 11.9507 12.2046C12.0873 12.2181 12.2227 12.1642 12.328 12.0545C12.4333 11.9449 12.5001 11.7881 12.5142 11.6177C12.5282 11.4472 12.4884 11.2767 12.4032 11.1425L10.6532 8.5175Z" fill="#003262"/>
</svg>
