<svg width="45" height="46" viewBox="0 0 45 46" fill="none" xmlns="http://www.w3.org/2000/svg">
<rect y="0.5" width="45" height="45" rx="7.5" fill="#003262"/>
<path fill-rule="evenodd" clip-rule="evenodd" d="M10.5 23.625V22.375C10.5 18.2663 10.5 16.2112 11.635 14.8275C11.8426 14.5746 12.0746 14.3426 12.3275 14.135C13.7125 13 15.765 13 19.875 13C23.9838 13 26.0387 13 27.4225 14.135C27.6754 14.3426 27.9074 14.5746 28.115 14.8275C28.9925 15.8962 29.1912 17.3663 29.2362 19.875L30.0737 19.4625C32.505 18.2475 33.7212 17.6388 34.6112 18.1888C35.5 18.7387 35.5 20.0988 35.5 22.8175V23.1825C35.5 25.9012 35.5 27.2612 34.6112 27.8112C33.7212 28.3612 32.505 27.7525 30.0737 26.5363L29.2362 26.125C29.1912 28.6337 28.9925 30.1038 28.115 31.1725C27.9074 31.4254 27.6754 31.6574 27.4225 31.865C26.0375 33 23.985 33 19.875 33C15.7663 33 13.7112 33 12.3275 31.865C12.0746 31.6574 11.8426 31.4254 11.635 31.1725C10.5 29.7875 10.5 27.735 10.5 23.625ZM20.595 18.025C20.507 17.9195 20.3969 17.8346 20.2725 17.7764C20.1481 17.7181 20.0124 17.6879 19.875 17.6879C19.7376 17.6879 19.6019 17.7181 19.4775 17.7764C19.3531 17.8346 19.243 17.9195 19.155 18.025L16.03 21.775C15.9477 21.8691 15.885 21.9787 15.8457 22.0973C15.8064 22.216 15.7912 22.3413 15.801 22.466C15.8108 22.5906 15.8455 22.712 15.9029 22.823C15.9603 22.934 16.0394 23.0325 16.1354 23.1125C16.2315 23.1925 16.3425 23.2525 16.4621 23.289C16.5817 23.3255 16.7073 23.3377 16.8317 23.3248C16.956 23.312 17.0766 23.2745 17.1862 23.2144C17.2958 23.1543 17.3923 23.0729 17.47 22.975L18.9375 21.215V27.375C18.9375 27.6236 19.0363 27.8621 19.2121 28.0379C19.3879 28.2137 19.6264 28.3125 19.875 28.3125C20.1236 28.3125 20.3621 28.2137 20.5379 28.0379C20.7137 27.8621 20.8125 27.6236 20.8125 27.375V21.215L22.28 22.975C22.4411 23.1592 22.6679 23.2731 22.9119 23.2923C23.1559 23.3115 23.3978 23.2346 23.5858 23.0779C23.7738 22.9212 23.8931 22.6972 23.9182 22.4538C23.9432 22.2103 23.8721 21.9667 23.72 21.775L20.595 18.025Z" fill="white"/>
</svg>
