<svg width="45" height="46" viewBox="0 0 45 46" fill="none" xmlns="http://www.w3.org/2000/svg">
<rect y="0.5" width="45" height="45" rx="7.5" fill="#003262"/>
<g clip-path="url(#clip0_6500_2021)">
<path d="M17.1783 22.9997C17.1783 22.0804 17.2169 21.1847 17.2887 20.3211H26.7108C26.815 21.5683 26.8461 22.8204 26.804 24.0711H24.1426C23.2901 24.0711 22.4725 24.4098 21.8697 25.0126C21.2669 25.6154 20.9283 26.433 20.9283 27.2854V27.8211H17.549C17.2987 26.2263 17.1747 24.6141 17.1783 22.9997ZM33.5487 25.5894C33.8739 25.335 34.2664 25.1812 34.6779 25.1469C34.947 23.5462 34.9128 21.9092 34.5772 20.3211H28.3233C28.4221 21.5686 28.4514 22.8205 28.4111 24.0711H29.4997C30.1871 24.0709 30.8565 24.2911 31.4096 24.6994C31.9626 25.1076 32.3703 25.6824 32.5726 26.3394L33.5487 25.5894ZM20.9283 34.7854V29.4283H17.8587C18.1051 30.5115 18.4126 31.4961 18.7651 32.3533C19.2504 33.5319 19.8076 34.4319 20.3862 35.0265C20.6015 35.2483 20.8137 35.4197 21.0194 35.5494C20.9586 35.2993 20.928 35.0428 20.9283 34.7854ZM15.9226 27.8211C15.5616 25.3381 15.4789 22.8225 15.6762 20.3211H9.42222C9.23581 21.2018 9.14208 22.0996 9.14258 22.9997C9.14258 24.7044 9.47472 26.3319 10.0769 27.8211H15.9226ZM10.8622 29.4283H16.214C16.4915 30.7322 16.8515 31.9247 17.2801 32.9651C17.6626 33.8929 18.1062 34.7201 18.6108 35.4047C15.3429 34.5088 12.5584 32.3616 10.8622 29.4283ZM25.2354 13.6461C25.8097 15.0401 26.2597 16.7683 26.5319 18.714H17.4687C17.7408 16.7683 18.1908 15.0401 18.7651 13.6461C19.2504 12.4676 19.8076 11.5676 20.3862 10.9729C20.9604 10.3815 21.5069 10.1426 21.9997 10.1426C22.4926 10.1426 23.0379 10.3815 23.6133 10.9729C24.1919 11.5665 24.749 12.4676 25.2344 13.6461M28.1529 18.714H34.1251C33.431 16.757 32.2742 14.9967 30.7532 13.583C29.2323 12.1693 27.3922 11.1441 25.3897 10.5947C25.8933 11.2794 26.3379 12.1065 26.7204 13.0344C27.374 14.6233 27.869 16.5626 28.1529 18.714ZM9.87437 18.714H15.8465C16.1304 16.5626 16.6254 14.6233 17.279 13.0344C17.6615 12.1065 18.1051 11.2794 18.6097 10.5947C16.6072 11.1441 14.7672 12.1693 13.2462 13.583C11.7253 14.9967 10.5685 16.757 9.87437 18.714ZM21.9997 27.2854C21.9997 26.7171 22.2255 26.1721 22.6274 25.7702C23.0292 25.3683 23.5743 25.1426 24.1426 25.1426H29.4997C30.068 25.1426 30.6131 25.3683 31.0149 25.7702C31.4168 26.1721 31.6426 26.7171 31.6426 27.2854V28.4061L34.2012 26.4379C34.3598 26.3158 34.5494 26.2406 34.7486 26.2208C34.9478 26.201 35.1486 26.2373 35.3281 26.3258C35.5077 26.4142 35.6589 26.5512 35.7646 26.7212C35.8703 26.8912 35.9263 27.0874 35.9261 27.2876V34.7854C35.9261 34.9855 35.87 35.1816 35.7642 35.3514C35.6584 35.5213 35.5072 35.6581 35.3277 35.7464C35.1481 35.8347 34.9474 35.871 34.7483 35.8511C34.5493 35.8313 34.3597 35.7561 34.2012 35.634L31.6426 33.6669V34.7854C31.6426 35.3538 31.4168 35.8988 31.0149 36.3007C30.6131 36.7025 30.068 36.9283 29.4997 36.9283H24.1426C23.5743 36.9283 23.0292 36.7025 22.6274 36.3007C22.2255 35.8988 21.9997 35.3538 21.9997 34.7854V27.2854Z" fill="white"/>
<path d="M28.7142 40.0008C28.7142 38.0397 28.7964 36.1288 28.9496 34.2866H49.0502C49.2725 36.9471 49.3389 39.6183 49.249 42.2866H43.5713C41.7527 42.2866 40.0085 43.009 38.7226 44.295C37.4366 45.5809 36.7142 47.3251 36.7142 49.1437V50.2866H29.505C28.971 46.8841 28.7066 43.4449 28.7142 40.0008ZM63.6376 45.5254C64.3315 44.9828 65.1689 44.6547 66.0467 44.5814C66.6207 41.1666 66.5478 37.6744 65.8319 34.2866H52.4902C52.701 36.9477 52.7635 39.6185 52.6776 42.2866H54.9999C56.4664 42.2861 57.8943 42.7558 59.0742 43.6267C60.2541 44.4977 61.1237 45.7239 61.5553 47.1254L63.6376 45.5254ZM36.7142 65.1437V53.7151H30.1656C30.6913 56.026 31.3473 58.1266 32.0993 59.9551C33.1347 62.4694 34.3233 64.3894 35.5576 65.658C36.017 66.1311 36.4696 66.4968 36.9084 66.7734C36.7787 66.2399 36.7135 65.6927 36.7142 65.1437ZM26.0353 50.2866C25.2651 44.9894 25.0888 39.6228 25.5096 34.2866H12.1679C11.7702 36.1653 11.5702 38.0805 11.5713 40.0008C11.5713 43.6374 12.2799 47.1094 13.5644 50.2866H26.0353ZM15.2399 53.7151H26.657C27.249 56.4968 28.017 59.0408 28.9313 61.2603C29.7473 63.2397 30.6936 65.0043 31.7702 66.4648C24.7987 64.5535 18.8584 59.9729 15.2399 53.7151ZM45.9027 20.0466C47.1279 23.0203 48.0879 26.7071 48.6684 30.858H29.3336C29.9142 26.7071 30.8742 23.0203 32.0993 20.0466C33.1347 17.5323 34.3233 15.6123 35.5576 14.3437C36.7827 13.082 37.9484 12.5723 38.9999 12.5723C40.0513 12.5723 41.2147 13.082 42.4422 14.3437C43.6764 15.61 44.865 17.5323 45.9004 20.0466M52.1267 30.858H64.8673C63.3865 26.683 60.9187 22.9277 57.674 19.9118C54.4293 16.896 50.5038 14.7089 46.2319 13.5368C47.3062 14.9974 48.2547 16.762 49.0707 18.7414C50.465 22.1311 51.521 26.2683 52.1267 30.858ZM13.1324 30.858H25.873C26.4787 26.2683 27.5347 22.1311 28.929 18.7414C29.745 16.762 30.6913 14.9974 31.7679 13.5368C27.4959 14.7089 23.5704 16.896 20.3258 19.9118C17.0811 22.9277 14.6132 26.683 13.1324 30.858ZM38.9999 49.1437C38.9999 47.9313 39.4815 46.7685 40.3388 45.9112C41.1961 45.0539 42.3589 44.5723 43.5713 44.5723H54.9999C56.2123 44.5723 57.375 45.0539 58.2324 45.9112C59.0897 46.7685 59.5713 47.9313 59.5713 49.1437V51.5346L65.0296 47.3357C65.368 47.0752 65.7726 46.9147 66.1975 46.8724C66.6224 46.8301 67.0507 46.9077 67.4338 47.0964C67.8169 47.2851 68.1395 47.5773 68.365 47.94C68.5905 48.3027 68.7098 48.7212 68.7096 49.1483V65.1437C68.7094 65.5705 68.5897 65.9888 68.3641 66.3511C68.1384 66.7135 67.8158 67.0054 67.4328 67.1938C67.0498 67.3822 66.6217 67.4596 66.1969 67.4172C65.7722 67.3748 65.3678 67.2144 65.0296 66.954L59.5713 62.7574V65.1437C59.5713 66.3561 59.0897 67.5189 58.2324 68.3762C57.375 69.2335 56.2123 69.7151 54.9999 69.7151H43.5713C42.3589 69.7151 41.1961 69.2335 40.3388 68.3762C39.4815 67.5189 38.9999 66.3561 38.9999 65.1437V49.1437Z" fill="#003262"/>
</g>
<defs>
<clipPath id="clip0_6500_2021">
<rect width="30" height="30" fill="white" transform="translate(7 8)"/>
</clipPath>
</defs>
</svg>
