<svg width="45" height="45" viewBox="0 0 45 45" fill="none" xmlns="http://www.w3.org/2000/svg">
<rect width="45" height="45" rx="7.5" fill="#003262"/>
<path d="M32 9V16H12C11.1124 15.9472 10.6099 15.6506 10 15C9.39009 14.3494 9 12.8941 9 12C9 11.1059 9.39009 10.6506 10 10C10.6099 9.34942 11.1124 9.05275 12 9H32Z" stroke="white" stroke-width="1.125" stroke-miterlimit="10" stroke-linecap="square"/>
<path d="M30 23H35V28H30C29.3812 28 29.4376 27.4688 29 27C28.5624 26.5312 28 26.663 28 26C28 25.337 28.5624 24.4688 29 24C29.4376 23.5312 29.3812 23 30 23Z" stroke="white" stroke-width="1.125" stroke-miterlimit="10" stroke-linecap="square"/>
<path d="M35 16V35H11.0728C10.4485 34.9968 10.5173 34.4337 10.0759 34C9.63442 33.5663 9.08213 33.6134 9.07889 33V13C9.07726 13.4565 8.90221 13.5778 9.07889 14C9.25557 14.4222 9.74788 14.6766 10.0759 15C10.4038 15.3234 10.6437 15.8249 11.0728 16C11.5019 16.1751 12.6021 16 13.0668 16H35Z" stroke="white" stroke-width="1.125" stroke-miterlimit="10" stroke-linecap="square"/>
</svg>
