<svg width="25" height="25" viewBox="0 0 25 25" fill="none" xmlns="http://www.w3.org/2000/svg">
<rect x="0.5" y="0.5" width="24" height="24" rx="3" fill="#D9FAFF"/>
<path d="M12.6914 2.05566C6.76341 2.05566 1.94141 6.87866 1.94141 12.8057C1.94141 18.7327 6.76341 23.5557 12.6914 23.5557C18.6194 23.5557 23.4414 18.7327 23.4414 12.8057C23.4414 6.87866 18.6194 2.05566 12.6914 2.05566ZM21.9034 12.0557H17.8534C17.7224 9.31266 16.8784 6.51767 15.4184 3.96667C18.9614 5.06267 21.5944 8.23566 21.9034 12.0557ZM13.4214 3.59265C15.1774 6.20365 16.2004 9.16566 16.3534 12.0557H9.02942C9.18142 9.16566 10.2054 6.20365 11.9614 3.59265C12.2034 3.57365 12.4454 3.55566 12.6914 3.55566C12.9374 3.55566 13.1804 3.57365 13.4214 3.59265ZM9.96442 3.96667C8.50442 6.51767 7.66042 9.31266 7.52942 12.0557H3.4794C3.7884 8.23566 6.42142 5.06267 9.96442 3.96667ZM3.4794 13.5557H7.52942C7.66042 16.2987 8.50442 19.0937 9.96442 21.6447C6.42142 20.5487 3.7884 17.3757 3.4794 13.5557ZM11.9614 22.0187C10.2054 19.4077 9.18242 16.4457 9.02942 13.5557H16.3534C16.2014 16.4457 15.1774 19.4077 13.4214 22.0187C13.1794 22.0377 12.9374 22.0557 12.6914 22.0557C12.4454 22.0557 12.2024 22.0377 11.9614 22.0187ZM15.4184 21.6447C16.8784 19.0937 17.7224 16.2987 17.8534 13.5557H21.9034C21.5944 17.3757 18.9614 20.5487 15.4184 21.6447Z" fill="#25314C"/>
</svg>
