<svg width="67" height="45" viewBox="0 0 67 45" fill="none" xmlns="http://www.w3.org/2000/svg">
<circle cx="44.6818" cy="22.4118" r="22.0666" fill="#D2F7FF"/>
<path fill-rule="evenodd" clip-rule="evenodd" d="M42.8297 17.5753C42.69 18.3646 42.5919 19.164 42.4027 19.9412C41.902 21.9964 40.8968 23.8132 39.6416 25.4951C37.7044 28.0907 35.349 30.2846 32.9178 32.3995C30.0517 34.8929 27.1704 37.3686 24.2905 39.846C23.184 40.798 21.9955 40.8412 20.9307 39.9178C17.1741 36.66 13.4083 33.412 9.69731 30.1026C7.81487 28.4239 6.12431 26.5512 4.74155 24.4229C3.43628 22.4137 2.56283 20.2492 2.35538 17.8422C2.34764 17.7522 2.31695 17.6642 2.29688 17.5753C2.29688 16.9684 2.29688 16.3615 2.29688 15.7546C2.31992 15.6273 2.35214 15.5009 2.36447 15.3727C2.5874 13.0695 3.30515 10.9402 4.68476 9.07223C6.63596 6.43055 9.25261 4.90037 12.5336 4.5806C16.227 4.22042 19.2329 5.59112 21.6777 8.31056C21.9819 8.64887 22.2636 9.00743 22.5376 9.33494C23.14 8.68334 23.6796 8.01203 24.3068 7.43603C27.3909 4.60382 30.9891 3.79805 34.9433 5.07839C39.0052 6.39356 41.3764 9.3578 42.4259 13.4278C42.6218 14.1876 42.6981 14.9782 42.8297 15.7546C42.8297 16.3615 42.8297 16.9684 42.8297 17.5753ZM22.5515 38.1898C22.6458 38.1149 22.7087 38.0686 22.7676 38.0178C25.7539 35.4421 28.7504 32.8777 31.7226 30.2857C33.852 28.4287 35.905 26.4907 37.6223 24.2308C38.979 22.4455 40.0347 20.5138 40.3284 18.2512C40.7264 15.1849 40.1047 12.3748 38.11 9.9473C35.1957 6.40094 29.2487 5.46908 25.4733 9.63914C24.8484 10.3294 24.3338 11.1193 23.7684 11.8632C23.1385 12.6919 21.9927 12.6985 21.3669 11.8711C21.2002 11.6507 21.0577 11.4121 20.9039 11.182C20.2092 10.1426 19.374 9.23225 18.3768 8.47742C14.6837 5.68175 9.18035 6.66788 6.57323 10.5378C4.07608 14.2444 4.05322 18.1455 6.101 22.0678C7.16164 24.0992 8.64728 25.8294 10.3103 27.3789C12.751 29.6526 15.2604 31.8532 17.7597 34.0633C19.3302 35.4518 20.9357 36.8007 22.5515 38.1898Z" fill="#3D3D3D"/>
</svg>
