<svg width="64" height="48" viewBox="0 0 64 48" fill="none" xmlns="http://www.w3.org/2000/svg">
<circle cx="41.6799" cy="22.4118" r="22.0666" fill="#D2F7FF"/>
<path d="M22.5 48C16.49 48 10.8397 45.6596 6.59004 41.41C2.34035 37.1603 0 31.51 0 25.5C0 19.49 2.34044 13.8398 6.59004 9.59004C10.8396 5.34026 16.49 3 22.5 3C28.51 3 34.1603 5.34035 38.41 9.59004C42.6596 13.8397 45 19.49 45 25.5C45 31.51 42.6596 37.1602 38.41 41.41C34.1604 45.6597 28.51 48 22.5 48ZM22.5 5.8125C11.6443 5.8125 2.8125 14.6443 2.8125 25.5C2.8125 36.3557 11.6443 45.1875 22.5 45.1875C33.3557 45.1875 42.1875 36.3557 42.1875 25.5C42.1875 14.6443 33.3557 5.8125 22.5 5.8125Z" fill="#3D3D3D"/>
<path d="M22.5 24.0938C20.5615 24.0938 18.9844 22.5166 18.9844 20.5781C18.9844 18.6396 20.5615 17.0625 22.5 17.0625C24.4385 17.0625 26.0156 18.6396 26.0156 20.5781C26.0156 21.3547 26.6452 21.9844 27.4219 21.9844C28.1986 21.9844 28.8281 21.3547 28.8281 20.5781C28.8281 17.5722 26.7207 15.0509 23.9062 14.4094V12.8438C23.9062 12.0671 23.2767 11.4375 22.5 11.4375C21.7233 11.4375 21.0938 12.0671 21.0938 12.8438V14.4094C18.2793 15.0509 16.1719 17.5722 16.1719 20.5781C16.1719 24.0675 19.0107 26.9062 22.5 26.9062C24.4385 26.9062 26.0156 28.4834 26.0156 30.4219C26.0156 32.3604 24.4385 33.9375 22.5 33.9375C20.5615 33.9375 18.9844 32.3604 18.9844 30.4219C18.9844 29.6453 18.3548 29.0156 17.5781 29.0156C16.8014 29.0156 16.1719 29.6453 16.1719 30.4219C16.1719 33.4278 18.2793 35.9491 21.0938 36.5906V38.1562C21.0938 38.9329 21.7233 39.5625 22.5 39.5625C23.2767 39.5625 23.9062 38.9329 23.9062 38.1562V36.5906C26.7207 35.9491 28.8281 33.4278 28.8281 30.4219C28.8281 26.9325 25.9893 24.0938 22.5 24.0938Z" fill="#3D3D3D"/>
</svg>
