<svg width="67" height="45" viewBox="0 0 67 45" fill="none" xmlns="http://www.w3.org/2000/svg">
<circle cx="44.6818" cy="22.4118" r="22.0666" fill="#D2F7FF"/>
<path d="M26.6503 35.0562H26.4885L26.5609 35.201L27.9671 38.0135L27.9948 38.0688H28.0566H31.875C32.5964 38.0688 33.1813 38.6536 33.1813 39.375C33.1813 40.0964 32.5964 40.6813 31.875 40.6813H13.125C12.4036 40.6813 11.8188 40.0964 11.8188 39.375C11.8188 38.6536 12.4036 38.0688 13.125 38.0688H16.9434H17.0052L17.0328 38.0135L18.4391 35.201L18.5114 35.0562H18.3496H7.5C4.70752 35.0562 2.44375 32.7925 2.44375 30V11.25C2.44375 8.45752 4.70752 6.19375 7.5 6.19375H37.5C40.2925 6.19375 42.5563 8.45752 42.5563 11.25V30C42.5563 32.7925 40.2925 35.0562 37.5 35.0562H26.6503ZM7.5 32.4438H37.5C38.8497 32.4438 39.9438 31.3497 39.9438 30V11.25C39.9438 9.90035 38.8497 8.80625 37.5 8.80625H7.5C6.15035 8.80625 5.05625 9.90035 5.05625 11.25V30C5.05625 31.3497 6.15035 32.4438 7.5 32.4438Z" fill="#3D3D3D" stroke="white" stroke-width="0.2"/>
</svg>
