<?xml version="1.0" encoding="utf-8"?>
<!-- Generator: Adobe Illustrator 16.0.0, SVG Export Plug-In . SVG Version: 6.00 Build 0)  -->
<!DOCTYPE svg PUBLIC "-//W3C//DTD SVG 1.1//EN" "http://www.w3.org/Graphics/SVG/1.1/DTD/svg11.dtd">
<svg version="1.1" id="Layer_1" xmlns="http://www.w3.org/2000/svg" xmlns:xlink="http://www.w3.org/1999/xlink" x="0px" y="0px"
	 width="500px" height="500px" viewBox="0 0 500 500" enable-background="new 0 0 500 500" xml:space="preserve">
<g>
	<path fill-rule="evenodd" clip-rule="evenodd" fill="#D1F6FE" d="M177.698,300.908c-3.652-5.006-6.273-10.58-8.924-16.141
		c-0.132-0.277-0.338-0.52-0.51-0.779c2.06-4.332,1.564-6.979-1.893-10.305c-1.32-1.268-2.6-2.58-3.898-3.871
		c-0.201-0.236-0.401-0.473-0.601-0.711l0.014,0.102c0.134-2.971-1.276-5.572-2.061-8.309c-3.762-13.111-6.209-26.443-6.436-40.089
		c-0.121-7.285-0.336-14.579,0.338-21.881c0.455-4.936,1.3-9.798,1.896-14.702c0.56-4.603,2.218-8.993,2.516-13.637l-0.028,0.039
		c0.169-0.182,0.338-0.363,0.508-0.545c0.167-0.269,0.295-0.572,0.505-0.8c8.926-9.69,17.626-19.6,26.836-29.012
		c24.528-25.069,53.274-43.996,85.55-57.586c26.268-11.061,53.518-17.932,82.133-18.85c1.881-0.061,2.242,0.449,2.168,2.247
		c-1.074,26.042-7.156,50.928-17.07,74.952c-6.666,16.148-14.9,31.446-24.697,45.907c-1.242,1.833-2.234,3.724-1.801,6.053
		c0.582,3.115,2.801,5.488,5.84,5.997c3.449,0.578,6.059-0.76,8.018-3.657c11.047-16.34,20.414-33.58,27.703-51.916
		c10.969-27.587,17.215-56.103,16.75-85.932c-0.039-2.577-0.787-4.688-2.557-6.49c6.02,1.148,11.639,3.501,17.297,5.738
		c14.408,5.699,27.693,13.409,39.9,22.904c9.049,7.039,17.398,14.822,24.895,23.586c9.975,11.66,18.354,24.287,24.855,38.147
		c6.215,13.246,10.699,27.052,13.293,41.496c2.133,11.869,3.174,23.797,2.771,35.825c-0.455,13.617-2.443,27.029-6.143,40.171
		c-3.029,10.762-6.939,21.191-12.061,31.119c-6.408,12.426-14.076,24.016-23.393,34.518c-10.277,11.582-21.752,21.729-34.648,30.291
		c-15.859,10.523-33.123,17.912-51.494,22.633c-8.027,2.063-16.227,3.445-24.539,4.119c-6.715,0.545-13.404,1.145-20.143,0.752
		c0.926-0.625,1.84-1.268,2.779-1.871c31.441-20.23,47.934-58.035,41.246-94.557c-9.133-49.884-55.578-83.558-105.723-75.562
		c-36.557,5.83-61.093,27.258-74.107,61.822C179.306,281.357,178.025,291.07,177.698,300.908z M263.105,188.516
		c21.895,0.034,39.736-17.783,39.705-39.648c-0.031-22.032-17.434-39.349-39.568-39.373c-22.14-0.024-39.521,17.287-39.507,39.35
		C223.75,170.775,241.322,188.481,263.105,188.516z"/>
	<path fill-rule="evenodd" clip-rule="evenodd" fill="#3E3E3E" d="M367.996,50.99c1.77,1.803,2.518,3.913,2.557,6.49
		c0.465,29.83-5.781,58.345-16.75,85.932c-7.289,18.335-16.656,35.575-27.703,51.916c-1.959,2.897-4.568,4.235-8.018,3.657
		c-3.039-0.509-5.258-2.882-5.84-5.997c-0.434-2.329,0.559-4.22,1.801-6.053c9.797-14.46,18.031-29.759,24.697-45.907
		c9.914-24.024,15.996-48.911,17.07-74.952c0.074-1.798-0.287-2.308-2.168-2.247c-28.615,0.918-55.865,7.79-82.133,18.85
		c-32.276,13.591-61.022,32.518-85.55,57.586c-9.209,9.413-17.91,19.322-26.836,29.012c-0.21,0.228-0.339,0.532-0.505,0.8
		c-0.169,0.181-0.338,0.363-0.508,0.545l0.028-0.039c-0.192,0.138-0.416,0.247-0.571,0.418
		c-14.719,16.121-29.416,32.26-44.177,48.341c-1.136,1.238-0.837,1.83,0.187,2.826c9.038,8.787,18.017,17.635,27.043,26.436
		c7.066,6.886,14.175,13.732,21.265,20.597c0,0-0.014-0.102-0.013-0.1c0.2,0.236,0.4,0.473,0.601,0.709
		c1.298,1.291,2.578,2.604,3.898,3.871c3.458,3.326,3.953,5.973,1.893,10.305c-4.216,4.102-8.161,4.057-12.342-0.037
		c-19.461-19.057-38.944-38.087-58.406-57.14c-3.885-3.805-3.903-7.58-0.17-11.539c1.314-1.395,2.587-2.828,4.273-4.678
		c-3.682-0.497-6.941-0.95-10.203-1.376c-17.35-2.266-34.705-4.49-52.046-6.815c-3.346-0.449-5.791-2.342-6.783-5.697
		c-0.955-3.227,0.278-5.768,2.678-7.929c25.578-23.042,55.348-37.739,89.001-44.666c13.254-2.727,26.663-4.051,40.202-3.919
		c0.824,0.008,1.464-0.023,2.113-0.748c2.942-3.281,5.982-6.474,8.986-9.699c0.164-0.197,0.327-0.395,0.49-0.591l-0.029,0.031
		c0.169-0.171,0.338-0.342,0.507-0.513l-0.019,0.023c3.513-3.28,6.97-6.623,10.549-9.83c27.457-24.6,58.518-43.146,93.292-55.439
		c20.516-7.253,41.574-11.92,63.307-13.54c6.012-0.448,12.029-0.25,18.031-0.655C363.904,49.421,366.127,49.574,367.996,50.99z
		 M59.774,189.36c9.228,1.208,17.817,2.326,26.405,3.457c8.357,1.1,16.746,2.017,25.048,3.44c2.441,0.418,3.667-0.084,5.207-1.799
		c8.912-9.918,17.958-19.718,26.949-29.564c2.548-2.79,5.07-5.604,7.957-8.797C117.544,158.781,87.307,169.333,59.774,189.36z"/>
	<path fill-rule="evenodd" clip-rule="evenodd" fill="#3E3E3E" d="M177.698,300.908c0.328-9.838,1.608-19.551,5.085-28.787
		c13.014-34.564,37.551-55.992,74.107-61.822c50.145-7.996,96.59,25.678,105.723,75.562c6.688,36.521-9.805,74.326-41.246,94.557
		c-0.939,0.604-1.854,1.246-2.779,1.871c-7.686,4.207-15.582,7.934-24.148,9.963c-32.779,7.758-62.011,0.709-86.872-22.049
		c-19.271-17.643-29.016-39.979-29.721-66.168C177.819,302.992,177.749,301.951,177.698,300.908z M200.458,331.459l-0.129,0.041
		c1.79,5.02,4.419,9.605,7.478,13.922c13.758,19.414,32.498,30.486,56.166,32.949c6.117,0.637,12.318,0.713,18.404-0.73
		c0.715-0.043,1.445-0.01,2.145-0.139c41.139-7.547,68.545-46.42,61.869-87.736c-8.418-52.093-66.818-80.442-112.679-54.378
		c-24.083,13.688-37.132,34.875-39.214,62.517c-0.854,11.338,0.997,22.396,5.562,32.908
		C200.192,331.027,200.325,331.244,200.458,331.459z"/>
	<path fill-rule="evenodd" clip-rule="evenodd" fill="#3E3E3E" d="M134.291,325.766c-0.749,14.465-7.287,27.707-21.829,36.322
		c-12.611,7.473-26.236,12.738-39.902,17.859c-14.41,5.4-29.021,10.221-43.747,14.697c-3.528,1.072-6.712,0.84-9.36-1.83
		c-2.634-2.654-2.928-5.799-1.832-9.355c7.272-23.602,15.082-47.008,25.25-69.555c2.573-5.705,5.313-11.342,8.846-16.527
		c9-13.213,21.844-19.523,37.515-19.301c17.621,0.246,30.887,8.586,39.635,23.932C132.35,308.121,134.314,316.238,134.291,325.766z
		 M38.146,374.086c20.519-6.855,40.304-13.66,59.182-22.799c4.324-2.094,8.711-4.248,12.118-7.76
		c10.267-10.588,10.729-27.102,1.173-38.648c-9.073-10.963-25.598-13.256-37.744-5.43c-6.15,3.963-9.261,10.084-12.301,16.287
		c-7.034,14.352-12.441,29.359-17.718,44.414C41.303,364.584,39.844,369.053,38.146,374.086z"/>
	<path fill-rule="evenodd" clip-rule="evenodd" fill="#D1F6FE" d="M361.693,49.231c-6.002,0.404-12.02,0.207-18.031,0.655
		c-21.732,1.62-42.791,6.286-63.307,13.54c-34.774,12.293-65.835,30.839-93.292,55.439c-3.579,3.207-7.036,6.55-10.549,9.83
		c-0.134-2.051,1.366-3.394,2.298-4.914c8.309-13.564,18.578-25.571,30.382-36.136c16.336-14.62,34.827-25.826,55.553-33.243
		c11.564-4.138,23.434-7.001,35.578-8.612c4.893-0.649,9.867-0.892,14.814-1.215c5.305-0.346,10.551-0.02,15.811,0.174
		C341.348,45.136,351.613,46.596,361.693,49.231z"/>
	<path fill-rule="evenodd" clip-rule="evenodd" fill="#D1F6FE" d="M176.534,128.672c-0.169,0.171-0.338,0.342-0.507,0.513
		C176.196,129.015,176.365,128.843,176.534,128.672z"/>
	<path fill-rule="evenodd" clip-rule="evenodd" fill="#D1F6FE" d="M176.056,129.155c-0.163,0.197-0.326,0.394-0.49,0.591
		C175.729,129.549,175.893,129.352,176.056,129.155z"/>
	<path fill-rule="evenodd" clip-rule="evenodd" fill="#3E3E3E" d="M263.105,188.516c-21.784-0.034-39.356-17.741-39.37-39.672
		c-0.014-22.063,17.367-39.374,39.507-39.35c22.135,0.024,39.537,17.341,39.568,39.373C302.842,170.733,285,188.55,263.105,188.516z
		 M241.544,148.763c0.014,12.268,9.401,21.742,21.585,21.785c12.225,0.043,21.904-9.6,21.877-21.795
		c-0.025-12.002-9.744-21.705-21.771-21.735C251.235,126.988,241.53,136.718,241.544,148.763z"/>
	<path fill-rule="evenodd" clip-rule="evenodd" fill="#FDFDFD" d="M158.11,170.624c0.169-0.182,0.338-0.364,0.508-0.545
		C158.449,170.26,158.28,170.442,158.11,170.624z"/>
	<path fill-rule="evenodd" clip-rule="evenodd" fill="#FDFDFD" d="M162.472,269.813c-0.2-0.236-0.4-0.473-0.601-0.709
		C162.071,269.34,162.271,269.576,162.472,269.813z"/>
	<path fill-rule="evenodd" clip-rule="evenodd" fill="#D1F6FE" d="M200.059,330.813c-4.565-10.512-6.416-21.57-5.562-32.908
		c2.082-27.643,15.131-48.83,39.214-62.517c45.861-26.063,104.261,2.285,112.679,54.378c6.676,41.316-20.73,80.189-61.869,87.736
		c-0.699,0.129-1.43,0.096-2.146,0.139c-11.063-2.414-21.625-6.295-31.857-11.066c-18.156-8.469-34.153-20.037-48.427-34.045
		c-0.488-0.479-0.861-1.227-1.762-1.029c0,0,0.129-0.041,0.129-0.041C200.503,331.133,200.346,330.932,200.059,330.813z
		 M224.268,290.262c-3.307,0.037-6.466,2.068-7.592,5.01c-1.275,3.33-0.657,6.348,1.894,8.844
		c9.186,8.994,18.387,17.973,27.622,26.916c4.288,4.152,9.059,4.141,13.012-0.236c16.42-18.174,32.773-36.408,49.117-54.652
		c2.975-3.32,2.75-8.1-0.338-11.088c-3.146-3.045-8.135-3.23-11.371-0.287c-1.479,1.346-2.746,2.924-4.086,4.418
		c-12.986,14.459-25.986,28.908-38.926,43.41c-1.152,1.291-1.75,1.229-2.941,0.041c-6.664-6.629-13.429-13.156-20.146-19.732
		C228.767,291.195,226.736,290.225,224.268,290.262z"/>
	<path fill-rule="evenodd" clip-rule="evenodd" fill="#FDFDFD" d="M200.059,330.813c0.287,0.119,0.444,0.32,0.399,0.646
		C200.325,331.244,200.192,331.027,200.059,330.813z"/>
	<path fill-rule="evenodd" clip-rule="evenodd" fill="#D1F6FE" d="M241.544,148.763c-0.014-12.045,9.691-21.775,21.69-21.745
		c12.027,0.03,21.746,9.733,21.771,21.735c0.027,12.195-9.652,21.838-21.877,21.795
		C250.945,170.505,241.558,161.031,241.544,148.763z"/>
	<path fill-rule="evenodd" clip-rule="evenodd" fill="#3E3E3E" d="M224.268,290.262c2.468-0.037,4.5,0.934,6.244,2.643
		c6.718,6.576,13.482,13.104,20.146,19.732c1.191,1.188,1.789,1.25,2.941-0.041c12.939-14.502,25.939-28.951,38.926-43.41
		c1.34-1.494,2.607-3.072,4.086-4.418c3.236-2.943,8.225-2.758,11.371,0.287c3.088,2.988,3.313,7.768,0.338,11.088
		c-16.344,18.244-32.697,36.479-49.117,54.652c-3.953,4.377-8.724,4.389-13.012,0.236c-9.235-8.943-18.436-17.922-27.622-26.916
		c-2.551-2.496-3.169-5.514-1.894-8.844C217.802,292.33,220.96,290.299,224.268,290.262z"/>
</g>
</svg>
