<svg width="56" height="45" viewBox="0 0 56 45" fill="none" xmlns="http://www.w3.org/2000/svg">
<circle cx="33.6809" cy="22.4118" r="22.0666" fill="#D2F7FF"/>
<path d="M6.65459 41.2H38.3454C41.0265 41.2 43.2 38.9705 43.2 36.2396V8.76041C43.2 6.0295 41.0265 3.8 38.3454 3.8H6.65459C3.97355 3.8 1.8 6.0295 1.8 8.76041V36.2396C1.8 38.9705 3.97355 41.2 6.65459 41.2ZM3.58647 8.76041C3.58647 7.02369 4.96731 5.61799 6.65459 5.61799H38.3454C40.0327 5.61799 41.4135 7.02369 41.4135 8.76041V36.2396C41.4135 37.9763 40.0327 39.382 38.3454 39.382H6.65459C4.96731 39.382 3.58647 37.9763 3.58647 36.2396V8.76041Z" fill="#3D3D3D" stroke="#3D3D3D" stroke-width="0.4"/>
<path d="M25.7339 30.2H37.2661C37.5037 30.2 37.7276 30.1348 37.8977 30.0189C38.0668 29.9036 38.2 29.7237 38.2 29.5C38.2 29.2763 38.0666 29.0964 37.8975 28.9812C37.7274 28.8653 37.5035 28.8 37.2661 28.8H25.7339C25.4963 28.8 25.2724 28.8653 25.1023 28.9813C24.9332 29.0965 24.8 29.2764 24.8 29.5C24.8 29.7237 24.9332 29.9036 25.1023 30.0189C25.2724 30.1348 25.4963 30.2 25.7339 30.2Z" fill="#3D3D3D" stroke="#3D3D3D" stroke-width="0.4"/>
<path d="M25.7339 35.2H37.2661C37.5037 35.2 37.7276 35.1348 37.8977 35.0189C38.0668 34.9036 38.2 34.7237 38.2 34.5C38.2 34.2763 38.0666 34.0964 37.8975 33.9812C37.7274 33.8653 37.5035 33.8 37.2661 33.8H25.7339C25.4963 33.8 25.2724 33.8653 25.1023 33.9813C24.9332 34.0965 24.8 34.2764 24.8 34.5C24.8 34.7237 24.9332 34.9036 25.1023 35.0189C25.2724 35.1348 25.4963 35.2 25.7339 35.2Z" fill="#3D3D3D" stroke="#3D3D3D" stroke-width="0.4"/>
<path d="M25.7339 20.2H37.2661C37.5477 20.2 37.7859 20.0441 37.9463 19.8255C38.1068 19.6068 38.2 19.3143 38.2 19C38.2 18.6859 38.1067 18.3934 37.9462 18.1747C37.7858 17.9561 37.5477 17.8 37.2661 17.8H25.7339C25.4522 17.8 25.214 17.9561 25.0536 18.1747C24.8932 18.3935 24.8 18.686 24.8 19C24.8 19.3143 24.8932 19.6068 25.0537 19.8255C25.2141 20.0441 25.4523 20.2 25.7339 20.2Z" fill="#3D3D3D" stroke="#3D3D3D" stroke-width="0.4"/>
<path d="M25.7339 25.2H37.2661C37.5037 25.2 37.7276 25.1348 37.8977 25.0189C38.0668 24.9036 38.2 24.7237 38.2 24.5C38.2 24.2763 38.0666 24.0964 37.8975 23.9812C37.7274 23.8653 37.5035 23.8 37.2661 23.8H25.7339C25.4963 23.8 25.2724 23.8653 25.1023 23.9813C24.9332 24.0965 24.8 24.2764 24.8 24.5C24.8 24.7237 24.9332 24.9036 25.1023 25.0189C25.2724 25.1348 25.4963 25.2 25.7339 25.2Z" fill="#3D3D3D" stroke="#3D3D3D" stroke-width="0.4"/>
<path d="M2.69324 13.2H42.3068C42.5355 13.2 42.7509 13.1335 42.914 13.0158C43.0769 12.8983 43.2 12.7186 43.2 12.5C43.2 12.2814 43.0769 12.1017 42.914 11.9842C42.7509 11.8665 42.5355 11.8 42.3068 11.8H2.69324C2.46446 11.8 2.24914 11.8665 2.08601 11.9842C1.92313 12.1017 1.8 12.2814 1.8 12.5C1.8 12.7186 1.92313 12.8983 2.08601 13.0158C2.24914 13.1335 2.46446 13.2 2.69324 13.2Z" fill="#3D3D3D" stroke="#3D3D3D" stroke-width="0.4"/>
<path d="M7.69504 35.2H20.305C20.8054 35.2 21.2 34.7832 21.2 34.2824V18.7176C21.2 18.2173 20.8054 17.8 20.305 17.8H7.69504C7.19455 17.8 6.8 18.2173 6.8 18.7176V34.2824C6.8 34.7832 7.19462 35.2 7.69504 35.2ZM19.4099 19.6352V33.3648H8.59007V19.6352H19.4099Z" fill="#3D3D3D" stroke="#3D3D3D" stroke-width="0.4"/>
</svg>
