<svg width="37" height="37" viewBox="0 0 37 37" fill="none" xmlns="http://www.w3.org/2000/svg">
<g clip-path="url(#clip0_5253_4004)">
<path d="M30.3847 36.499H6.53834C2.92283 36.499 0 33.5762 0 29.9607V7.03736C0 3.42185 2.92283 0.499023 6.53834 0.499023H30.3847C34.0002 0.499023 36.9231 3.42185 36.9231 7.03736V29.9607C36.9231 33.5762 34.0002 36.499 30.3847 36.499Z" fill="#FF26BE"/>
<path d="M29.8 34.9602H7.12331C4.04688 34.9602 1.53906 32.4524 1.53906 29.3759V7.62233C1.53906 4.5459 4.04688 2.03809 7.12331 2.03809H29.7852C32.8779 2.03809 35.3695 4.5459 35.3695 7.62233V29.3612C35.3842 32.4524 32.8764 34.9602 29.8 34.9602Z" fill="#2E001F"/>
<path d="M14.6013 17.3445L18.9095 25.6212C18.9863 25.7438 18.9405 25.8678 18.8164 25.8678H16.1387C15.9689 25.8678 15.8921 25.822 15.8153 25.6684C14.8302 23.6377 13.8303 21.6069 12.7994 19.4225H12.7684C11.8453 21.4843 10.8292 23.6539 9.84558 25.6847C9.76878 25.8073 9.69198 25.8545 9.56792 25.8545H7.03204C6.87844 25.8545 6.86219 25.7319 6.94047 25.6389L11.1556 17.6074L7.0793 9.48431C6.98625 9.36172 7.0793 9.26868 7.17087 9.26868H9.81752C9.97112 9.26868 10.0331 9.29969 10.0937 9.43852C11.0626 11.4693 12.0477 13.5621 12.9707 15.6076H13.0018C13.8938 13.5769 14.8789 11.4693 15.833 9.45329C15.9098 9.33071 15.9556 9.25391 16.1107 9.25391H18.5875C18.7101 9.25391 18.7573 9.34695 18.6805 9.46954L14.6013 17.3445ZM19.6642 19.8523C19.6642 16.2678 22.0494 13.4676 25.8333 13.4676C26.1567 13.4676 26.3251 13.4676 26.6338 13.4986V9.42228C26.6338 9.32923 26.7106 9.26868 26.7874 9.26868H29.2184C29.341 9.26868 29.372 9.31446 29.372 9.39126V23.5151C29.372 23.9301 29.372 24.4529 29.4488 25.023C29.4488 25.1161 29.4178 25.1456 29.3262 25.1929C28.0339 25.8087 26.6795 26.0849 25.3872 26.0849C22.0479 26.0982 19.6627 24.0379 19.6642 19.8523ZM26.6323 15.9148C26.4167 15.8218 26.1095 15.7612 25.7402 15.7612C23.801 15.7612 22.4482 17.2529 22.4482 19.7312C22.4482 22.5625 23.8335 23.7012 25.5719 23.7012C25.9411 23.7012 26.3413 23.6554 26.6338 23.5313V15.9148H26.6323Z" fill="#FFD9F2"/>
</g>
<defs>
<clipPath id="clip0_5253_4004">
<rect width="36.9231" height="36" fill="white" transform="translate(0 0.499023)"/>
</clipPath>
</defs>
</svg>
