<svg width="33" height="37" viewBox="0 0 33 37" fill="none" xmlns="http://www.w3.org/2000/svg">
<g clip-path="url(#clip0_5253_3718)">
<path d="M11.0008 22.3652C12.2418 22.3652 13.2479 23.3713 13.2479 24.6123V34.2515C13.2479 35.4925 12.2418 36.4984 11.0008 36.4984C9.75996 36.4984 8.75391 35.4925 8.75391 34.2515V24.6123C8.75391 23.3714 9.75996 22.3654 11.0008 22.3654V22.3652Z" fill="#A4C639"/>
<path d="M5.87326 10.7764C5.86584 10.8616 5.85938 10.9477 5.85938 11.0348V25.6392C5.85938 27.2098 7.10258 28.4751 8.6459 28.4751H23.4975C25.041 28.4751 26.2842 27.2096 26.2842 25.6392V11.0348C26.2842 10.9477 26.281 10.8613 26.2738 10.7764H5.87326Z" fill="#A4C639"/>
<path d="M21.1386 22.366C22.3796 22.366 23.3857 23.372 23.3857 24.613V34.2522C23.3857 35.4932 22.3796 36.4991 21.1386 36.4991C19.8978 36.4991 18.8917 35.4932 18.8917 34.2522V24.613C18.8917 23.3722 19.8978 22.3661 21.1386 22.3661V22.366ZM2.24705 12.0766C3.48789 12.0766 4.49395 13.0827 4.49395 14.3237V23.9629C4.49395 25.2039 3.48789 26.21 2.24705 26.21C1.00605 26.21 1.85578e-08 25.2039 1.85578e-08 23.9631V14.3238C-0.000157769 13.0828 1.00589 12.0766 2.24705 12.0766ZM29.8928 12.0766C31.1337 12.0766 32.1397 13.0827 32.1397 14.3237V23.9629C32.1397 25.2039 31.1337 26.21 29.8928 26.21C28.6518 26.21 27.6458 25.2039 27.6458 23.9631V14.3238C27.6458 13.0828 28.6518 12.0766 29.8928 12.0766ZM5.93691 9.81759C5.9994 5.3317 9.91473 1.65367 14.9406 1.16895H17.1988C22.225 1.65383 26.14 5.33201 26.2025 9.81759H5.93691Z" fill="#A4C639"/>
<path d="M6.71875 0.735352L9.08903 4.84098M25.4218 0.735352L23.0513 4.84098" stroke="#A4C639" stroke-width="0.473362" stroke-linecap="round" stroke-linejoin="round"/>
<path d="M13.0516 5.7968C13.0535 6.42385 12.5345 6.93366 11.8923 6.9354C11.2504 6.93697 10.7285 6.43016 10.7266 5.80311V5.7968C10.7248 5.1696 11.2438 4.65994 11.8858 4.65821C12.5277 4.65647 13.0497 5.16313 13.0516 5.79049V5.7968ZM21.7292 5.7968C21.7311 6.42385 21.2122 6.93366 20.57 6.9354C19.9281 6.93697 19.4061 6.43016 19.4042 5.80311V5.7968C19.4025 5.1696 19.9215 4.65994 20.5635 4.65821C21.2054 4.65647 21.7274 5.16313 21.7292 5.79049V5.7968Z" fill="white"/>
</g>
<defs>
<clipPath id="clip0_5253_3718">
<rect width="32.1408" height="36" fill="white" transform="translate(0 0.499023)"/>
</clipPath>
</defs>
</svg>
