<svg width="25" height="37" viewBox="0 0 25 37" fill="none" xmlns="http://www.w3.org/2000/svg">
<g clip-path="url(#clip0_5253_3996)">
<path d="M6.00391 36.499C9.31591 36.499 12.0039 33.811 12.0039 30.499V24.499H6.00391C2.69191 24.499 0.00390625 27.187 0.00390625 30.499C0.00390625 33.811 2.69191 36.499 6.00391 36.499Z" fill="#0ACF83"/>
<path d="M0.00390625 18.499C0.00390625 15.187 2.69191 12.499 6.00391 12.499H12.0039V24.499H6.00391C2.69191 24.499 0.00390625 21.811 0.00390625 18.499Z" fill="#A259FF"/>
<path d="M0.00390625 6.49902C0.00390625 3.18702 2.69191 0.499023 6.00391 0.499023H12.0039V12.499H6.00391C2.69191 12.499 0.00390625 9.81102 0.00390625 6.49902Z" fill="#F24E1E"/>
<path d="M12.0039 0.499023H18.0039C21.3159 0.499023 24.0039 3.18702 24.0039 6.49902C24.0039 9.81102 21.3159 12.499 18.0039 12.499H12.0039V0.499023Z" fill="#FF7262"/>
<path d="M24.0039 18.499C24.0039 21.811 21.3159 24.499 18.0039 24.499C14.6919 24.499 12.0039 21.811 12.0039 18.499C12.0039 15.187 14.6919 12.499 18.0039 12.499C21.3159 12.499 24.0039 15.187 24.0039 18.499Z" fill="#1ABCFE"/>
</g>
<defs>
<clipPath id="clip0_5253_3996">
<rect width="24.0048" height="36" fill="white" transform="translate(0 0.499023)"/>
</clipPath>
</defs>
</svg>
