<svg width="36" height="37" viewBox="0 0 36 37" fill="none" xmlns="http://www.w3.org/2000/svg">
<g clip-path="url(#clip0_5253_3691)">
<mask id="mask0_5253_3691" style="mask-type:luminance" maskUnits="userSpaceOnUse" x="3" y="0" width="30" height="37">
<path d="M32.4465 17.1108L22.756 26.8048L32.4465 36.4987H21.3731L11.6792 26.8048L21.3731 17.1108H32.4465ZM21.3731 0.499023L3.375 18.4971L8.91342 24.0356L32.4465 0.499023H21.3731Z" fill="white"/>
</mask>
<g mask="url(#mask0_5253_3691)">
<path d="M11.6836 26.8043L17.2185 32.3427L32.4475 17.1104H21.3741L11.6836 26.8043Z" fill="#39CEFD"/>
</g>
<mask id="mask1_5253_3691" style="mask-type:luminance" maskUnits="userSpaceOnUse" x="3" y="0" width="30" height="37">
<path d="M32.4465 17.1108L22.756 26.8048L32.4465 36.4987H21.3731L11.6792 26.8048L21.3731 17.1108H32.4465ZM21.3731 0.499023L3.375 18.4971L8.91342 24.0356L32.4465 0.499023H21.3731Z" fill="white"/>
</mask>
<g mask="url(#mask1_5253_3691)">
<path d="M21.3731 0.499023H32.4465L8.91342 24.0356L3.375 18.4972L21.3731 0.499023Z" fill="#39CEFD"/>
</g>
<mask id="mask2_5253_3691" style="mask-type:luminance" maskUnits="userSpaceOnUse" x="3" y="0" width="30" height="37">
<path d="M32.4465 17.1108L22.756 26.8048L32.4465 36.4987H21.3731L11.6792 26.8048L21.3731 17.1108H32.4465ZM21.3731 0.499023L3.375 18.4971L8.91342 24.0356L32.4465 0.499023H21.3731Z" fill="white"/>
</mask>
<g mask="url(#mask2_5253_3691)">
<path d="M17.2188 32.3431L21.3743 36.4952H32.4477L22.7572 26.8047L17.2188 32.3431Z" fill="#03569B"/>
</g>
<mask id="mask3_5253_3691" style="mask-type:luminance" maskUnits="userSpaceOnUse" x="3" y="0" width="30" height="37">
<path d="M32.4465 17.1108L22.756 26.8048L32.4465 36.4987H21.3731L11.6792 26.8048L21.3731 17.1108H32.4465ZM21.3731 0.499023L3.375 18.4971L8.91342 24.0356L32.4465 0.499023H21.3731Z" fill="white"/>
</mask>
<g mask="url(#mask3_5253_3691)">
<path d="M25.4328 29.4976L22.7572 26.8047L17.2188 32.3431L25.4328 29.4976Z" fill="url(#paint0_linear_5253_3691)"/>
</g>
<mask id="mask4_5253_3691" style="mask-type:luminance" maskUnits="userSpaceOnUse" x="3" y="0" width="30" height="37">
<path d="M32.4465 17.1108L22.756 26.8048L32.4465 36.4987H21.3731L11.6792 26.8048L21.3731 17.1108H32.4465ZM21.3731 0.499023L3.375 18.4971L8.91342 24.0356L32.4465 0.499023H21.3731Z" fill="white"/>
</mask>
<g mask="url(#mask4_5253_3691)">
<path d="M11.6836 26.8032L17.2222 21.2646L22.7611 26.8032L17.2222 32.3418L11.6836 26.8032Z" fill="#16B9FD"/>
</g>
<path d="M32.4465 17.1108L22.756 26.8048L32.4465 36.4987H21.3731L11.6792 26.8048L21.3731 17.1108H32.4465ZM21.3731 0.499023L3.375 18.4971L8.91342 24.0356L32.4465 0.499023H21.3731Z" fill="url(#paint1_radial_5253_3691)"/>
</g>
<defs>
<linearGradient id="paint0_linear_5253_3691" x1="18.835" y1="33.4119" x2="22.9599" y2="29.2871" gradientUnits="userSpaceOnUse">
<stop stop-color="#1A237E" stop-opacity="0.4"/>
<stop offset="1" stop-color="#1A237E" stop-opacity="0"/>
</linearGradient>
<radialGradient id="paint1_radial_5253_3691" cx="0" cy="0" r="1" gradientUnits="userSpaceOnUse" gradientTransform="translate(4.19172 2.95266) scale(44.0413)">
<stop stop-color="white" stop-opacity="0.1"/>
<stop offset="1" stop-color="white" stop-opacity="0"/>
</radialGradient>
<clipPath id="clip0_5253_3691">
<rect width="36" height="36" fill="white" transform="translate(0 0.499023)"/>
</clipPath>
</defs>
</svg>
