<svg width="36" height="37" viewBox="0 0 36 37" fill="none" xmlns="http://www.w3.org/2000/svg">
<path d="M10.2564 34.3743C10.2294 34.3743 10.2028 34.3678 10.1788 34.3554C10.1548 34.343 10.1341 34.3251 10.1184 34.3031L0.031015 20.0178C0.0138881 19.9935 0.00343733 19.9652 0.000713837 19.9356C-0.00200965 19.9061 0.00309 19.8763 0.0154986 19.8494L7.32157 3.95558C7.33393 3.92859 7.3532 3.90536 7.37743 3.88821C7.40165 3.87107 7.42998 3.86062 7.45953 3.85794L24.8526 2.24922C24.8822 2.24562 24.9123 2.25034 24.9394 2.26283C24.9665 2.27533 24.9896 2.29511 25.0061 2.31998L35.0936 16.605C35.1107 16.6293 35.1211 16.6576 35.1239 16.6872C35.1266 16.7167 35.1215 16.7465 35.1091 16.7734L27.8032 32.6677C27.7908 32.6946 27.7715 32.7178 27.7473 32.7349C27.7231 32.7521 27.6948 32.7626 27.6653 32.7653L10.272 34.3738C10.2668 34.3743 10.2615 34.3743 10.2564 34.3743ZM0.36332 19.9022L10.338 34.0281L27.537 32.4375L34.7612 16.7206L24.7865 2.59472L7.5878 4.18528L0.36332 19.9022Z" fill="#2F3134"/>
<path d="M10.196 34.3379L7.40426 19.8031L7.39062 3.91309L20.9922 7.9166L35.0964 16.6909L24.6212 26.0021L10.196 34.3379ZM7.55993 4.13903L7.57169 19.7871L10.3172 34.0728L24.5228 25.8658L34.8152 16.7144L20.9127 8.06611L7.55993 4.13903Z" fill="#2F3134"/>
<path d="M21.2136 8.58337C21.4933 8.58337 21.7201 8.35659 21.7201 8.07684C21.7201 7.79709 21.4933 7.57031 21.2136 7.57031C20.9338 7.57031 20.707 7.79709 20.707 8.07684C20.707 8.35659 20.9338 8.58337 21.2136 8.58337Z" fill="#2F3134"/>
<path d="M21.2142 9.12157C21.0074 9.12178 20.8052 9.06066 20.6332 8.94594C20.4612 8.83123 20.3271 8.66807 20.2478 8.47712C20.1686 8.28617 20.1477 8.076 20.1879 7.87319C20.2281 7.67038 20.3276 7.48405 20.4737 7.33778C20.6198 7.1915 20.806 7.09185 21.0088 7.05142C21.2115 7.011 21.4217 7.03162 21.6128 7.11067C21.8038 7.18973 21.9671 7.32367 22.082 7.49556C22.1969 7.66744 22.2583 7.86954 22.2583 8.07629C22.2581 8.35325 22.148 8.61883 21.9523 8.81478C21.7566 9.01073 21.4911 9.12106 21.2142 9.12157ZM21.2142 8.0461L21.1828 8.07628C21.183 8.08446 21.1863 8.09225 21.1922 8.09794C21.1981 8.10364 21.206 8.10678 21.2142 8.10668V8.0461Z" fill="#2F3134"/>
<path d="M24.5964 26.4154C24.8761 26.4154 25.1029 26.1886 25.1029 25.9089C25.1029 25.6291 24.8761 25.4023 24.5964 25.4023C24.3166 25.4023 24.0898 25.6291 24.0898 25.9089C24.0898 26.1886 24.3166 26.4154 24.5964 26.4154Z" fill="#2F3134"/>
<path d="M24.597 26.9538C24.3902 26.954 24.188 26.8929 24.016 26.7781C23.844 26.6634 23.7099 26.5002 23.6306 26.3092C23.5514 26.1182 23.5305 25.908 23.5708 25.7052C23.611 25.5024 23.7105 25.316 23.8566 25.1698C24.0028 25.0235 24.189 24.9238 24.3918 24.8834C24.5946 24.843 24.8048 24.8637 24.9959 24.9428C25.1869 25.0219 25.3502 25.1558 25.4651 25.3278C25.58 25.4997 25.6413 25.7018 25.6413 25.9086C25.6412 26.1856 25.5311 26.4512 25.3353 26.6472C25.1396 26.8432 24.874 26.9534 24.597 26.9538ZM24.597 25.8784L24.5659 25.9086C24.566 25.9167 24.5694 25.9244 24.5752 25.9301C24.5811 25.9357 24.5889 25.9388 24.597 25.9387V25.8784Z" fill="#2F3134"/>
<path d="M10.3815 34.7123C10.6613 34.7123 10.8881 34.4855 10.8881 34.2057C10.8881 33.926 10.6613 33.6992 10.3815 33.6992C10.1018 33.6992 9.875 33.926 9.875 34.2057C9.875 34.4855 10.1018 34.7123 10.3815 34.7123Z" fill="#2F3134"/>
<path d="M10.3822 35.2507C10.1754 35.2509 9.9732 35.1898 9.80118 35.075C9.62916 34.9603 9.49504 34.7971 9.41578 34.6061C9.33652 34.4151 9.31568 34.2049 9.35591 34.0021C9.39613 33.7993 9.49561 33.6129 9.64176 33.4666C9.78791 33.3204 9.97416 33.2207 10.1769 33.1803C10.3797 33.1399 10.59 33.1605 10.781 33.2396C10.9721 33.3187 11.1354 33.4527 11.2503 33.6246C11.3652 33.7965 11.4265 33.9987 11.4265 34.2054C11.4263 34.4824 11.3163 34.7481 11.1205 34.9441C10.9247 35.14 10.6592 35.2503 10.3822 35.2507ZM10.3822 34.1752L10.351 34.2054C10.3512 34.2135 10.3545 34.2213 10.3604 34.2269C10.3662 34.2326 10.374 34.2357 10.3822 34.2356V34.1752Z" fill="#2F3134"/>
<path d="M7.47528 20.4623C7.75503 20.4623 7.98181 20.2355 7.98181 19.9557C7.98181 19.676 7.75503 19.4492 7.47528 19.4492C7.19553 19.4492 6.96875 19.676 6.96875 19.9557C6.96875 20.2355 7.19553 20.4623 7.47528 20.4623Z" fill="#2F3134"/>
<path d="M7.47567 21.0012C7.26893 21.0014 7.06678 20.9403 6.8948 20.8255C6.72281 20.7108 6.58872 20.5476 6.50948 20.3567C6.43025 20.1657 6.40943 19.9556 6.44967 19.7528C6.48991 19.55 6.58939 19.3637 6.73552 19.2175C6.88166 19.0712 7.06789 18.9716 7.27065 18.9313C7.47341 18.8909 7.68359 18.9116 7.8746 18.9907C8.06561 19.0698 8.22886 19.2037 8.3437 19.3757C8.45854 19.5476 8.51982 19.7497 8.51977 19.9564C8.51947 20.2333 8.40939 20.4988 8.21367 20.6946C8.01795 20.8905 7.75256 21.0007 7.47567 21.0012ZM7.47567 19.9258L7.4443 19.9564C7.44454 19.9645 7.44797 19.9723 7.45383 19.9779C7.45969 19.9835 7.46753 19.9867 7.47567 19.9866V19.9258Z" fill="#2F3134"/>
<path d="M34.9557 17.2347C35.2355 17.2347 35.4623 17.008 35.4623 16.7282C35.4623 16.4485 35.2355 16.2217 34.9557 16.2217C34.676 16.2217 34.4492 16.4485 34.4492 16.7282C34.4492 17.008 34.676 17.2347 34.9557 17.2347Z" fill="#2F3134"/>
<path d="M34.9559 17.7727C34.7492 17.7728 34.547 17.7117 34.3751 17.5969C34.2031 17.4822 34.0691 17.319 33.9899 17.128C33.9107 16.9371 33.8899 16.7269 33.9302 16.5241C33.9704 16.3214 34.0699 16.1351 34.2161 15.9889C34.3622 15.8427 34.5485 15.7431 34.7512 15.7027C34.954 15.6624 35.1641 15.6831 35.3551 15.7622C35.5461 15.8413 35.7094 15.9753 35.8242 16.1472C35.939 16.3191 36.0003 16.5212 36.0002 16.7279C35.9999 17.0048 35.8898 17.2703 35.6941 17.4662C35.4983 17.662 35.2328 17.7723 34.9559 17.7727ZM34.9559 16.6972L34.9248 16.7279C34.9249 16.736 34.9283 16.7438 34.9341 16.7494C34.94 16.7551 34.9478 16.7582 34.9559 16.7581V16.6972Z" fill="#2F3134"/>
<path d="M7.47528 4.53259C7.75503 4.53259 7.98181 4.30581 7.98181 4.02606C7.98181 3.74631 7.75503 3.51953 7.47528 3.51953C7.19553 3.51953 6.96875 3.74631 6.96875 4.02606C6.96875 4.30581 7.19553 4.53259 7.47528 4.53259Z" fill="#2F3134"/>
<path d="M7.47591 5.07177C7.26915 5.07198 7.06698 5.01086 6.89497 4.89615C6.72296 4.78144 6.58883 4.61828 6.50956 4.42733C6.43029 4.23638 6.40943 4.02621 6.44963 3.8234C6.48983 3.62059 6.58928 3.43426 6.73539 3.28798C6.88151 3.1417 7.06772 3.04205 7.27049 3.00162C7.47325 2.96119 7.68344 2.98181 7.87449 3.06087C8.06553 3.13993 8.22883 3.27387 8.34373 3.44575C8.45864 3.61763 8.51998 3.81973 8.52001 4.02649C8.5198 4.30345 8.40977 4.56902 8.21404 4.76497C8.01831 4.96092 7.75286 5.07125 7.47591 5.07177ZM7.47591 3.9963L7.44452 4.02649C7.44468 4.03468 7.44806 4.04246 7.45394 4.04816C7.45982 4.05385 7.46771 4.05699 7.47589 4.0569L7.47591 3.9963Z" fill="#2F3134"/>
<path d="M27.6498 32.7656C27.6306 32.7658 27.6115 32.7626 27.5934 32.7563L14.3317 28.0747L0.0862575 20.0672C0.0629617 20.0541 0.0430965 20.0357 0.0282943 20.0135C0.0134922 19.9913 0.00417663 19.9659 0.00111369 19.9393C-0.00194926 19.9128 0.00132747 19.8859 0.0106753 19.8609C0.0200231 19.8359 0.0351741 19.8135 0.0548831 19.7955L10.7728 9.97428L24.7869 2.26913C24.8098 2.25642 24.8353 2.24925 24.8615 2.24819C24.8877 2.24712 24.9137 2.25219 24.9376 2.263C24.9614 2.27378 24.9824 2.28993 24.999 2.31018C25.0156 2.33044 25.0272 2.35424 25.0331 2.37975L28.1729 16.183L27.8187 32.6006C27.8181 32.6273 27.8111 32.6535 27.7985 32.677C27.7858 32.7005 27.7678 32.7207 27.7458 32.736C27.7176 32.7554 27.6841 32.7658 27.6498 32.7656ZM0.455131 19.8869L14.4709 27.768L27.4859 32.36L27.8392 16.2167L24.7531 2.6731L10.9683 10.2469L0.455131 19.8869Z" fill="#2F3134"/>
<path d="M24.6504 25.9722L24.5813 25.9486L7.39062 19.9722L7.44604 19.9241L21.2417 7.99609L24.6504 25.9722ZM7.55667 19.9401L24.5401 25.8448L21.1861 8.156L7.55667 19.9401Z" fill="#2F3134"/>
<path d="M14.2784 28.2324L10.6641 9.83984L28.339 16.1594L14.2784 28.2324ZM11.1103 10.3582L14.4982 27.5985L27.6777 16.282L11.1103 10.3582Z" fill="#2F3134"/>
<path d="M7.62291 3.94279L7.32812 4.1084L10.7399 10.1812L11.0347 10.0156L7.62291 3.94279Z" fill="#2F3134"/>
<path d="M14.2462 27.8242L14.5312 28.0066L10.5232 34.2966L10.2383 34.1146L14.2462 27.8242Z" fill="#2F3134"/>
<path d="M28.0207 16.0518L27.9961 16.3887L34.9437 16.8962L34.9683 16.5593L28.0207 16.0518Z" fill="#2F3134"/>
</svg>
