<svg width="30" height="37" viewBox="0 0 30 37" fill="none" xmlns="http://www.w3.org/2000/svg">
<g clip-path="url(#clip0_5253_3726)">
<path d="M28.3716 12.7714C28.1628 12.9334 24.4764 15.0106 24.4764 19.6294C24.4764 24.9718 29.1672 26.8618 29.3076 26.9086C29.286 27.0238 28.5624 29.497 26.8344 32.017C25.2936 34.2346 23.6844 36.4486 21.2364 36.4486C18.7884 36.4486 18.1584 35.0266 15.3324 35.0266C12.5784 35.0266 11.5992 36.4954 9.36 36.4954C7.1208 36.4954 5.5584 34.4434 3.762 31.9234C1.6812 28.9642 0 24.367 0 20.0038C0 13.0054 4.5504 9.29382 9.0288 9.29382C11.4084 9.29382 13.392 10.8562 14.886 10.8562C16.308 10.8562 18.5256 9.20022 21.2328 9.20022C22.2588 9.20022 25.9452 9.29382 28.3716 12.7714ZM19.9476 6.23742C21.0672 4.90902 21.8592 3.06582 21.8592 1.22262C21.8592 0.967023 21.8376 0.707823 21.7908 0.499023C19.9692 0.567423 17.802 1.71222 16.4952 3.22782C15.4692 4.39422 14.5116 6.23742 14.5116 8.10582C14.5116 8.38662 14.5584 8.66742 14.58 8.75742C14.6952 8.77902 14.8824 8.80422 15.0696 8.80422C16.704 8.80422 18.7596 7.70982 19.9476 6.23742Z" fill="black"/>
</g>
<defs>
<clipPath id="clip0_5253_3726">
<rect width="29.304" height="36" fill="white" transform="translate(0 0.499023)"/>
</clipPath>
</defs>
</svg>
