<svg width="35" height="37" viewBox="0 0 35 37" fill="none" xmlns="http://www.w3.org/2000/svg">
<g clip-path="url(#clip0_5253_3843)">
<path d="M34.7377 8.71275C34.7506 8.76046 34.7572 8.80964 34.7573 8.85905V16.5393C34.7573 16.6379 34.7313 16.7347 34.6819 16.82C34.6324 16.9053 34.5614 16.9761 34.4759 17.0251L28.0297 20.7365V28.0927C28.0297 28.2929 27.9233 28.4777 27.7497 28.5785L14.2938 36.3245C14.263 36.342 14.2294 36.3532 14.1958 36.3651C14.1832 36.3693 14.1713 36.377 14.158 36.3805C14.0639 36.4053 13.9651 36.4053 13.871 36.3805C13.8556 36.3763 13.8416 36.3679 13.8269 36.3623C13.7961 36.3511 13.7639 36.3413 13.7345 36.3245L0.281396 28.5785C0.195932 28.5294 0.124921 28.4586 0.075518 28.3733C0.0261155 28.288 6.77166e-05 28.1912 0 28.0927L0 5.05181C0 5.00141 0.0069999 4.95241 0.0195997 4.90481C0.0237996 4.88871 0.0335995 4.87401 0.0391994 4.85791C0.0496993 4.82851 0.0594991 4.79841 0.0748989 4.77111C0.0853987 4.75291 0.100798 4.73821 0.113398 4.72141C0.129498 4.69901 0.144198 4.67591 0.163098 4.65631C0.179197 4.64021 0.200197 4.62831 0.218397 4.61431C0.238696 4.59751 0.256896 4.57931 0.279996 4.56602L7.00759 0.692973C7.09277 0.64396 7.18932 0.618164 7.28759 0.618164C7.38586 0.618164 7.48241 0.64396 7.56759 0.692973L14.2945 4.56602H14.2959C14.3183 4.58001 14.3372 4.59751 14.3575 4.61361C14.3757 4.62761 14.396 4.64021 14.4121 4.65561C14.4317 4.67591 14.4457 4.69901 14.4625 4.72141C14.4744 4.73821 14.4905 4.75291 14.5003 4.77111C14.5164 4.79911 14.5255 4.82851 14.5367 4.85791C14.5423 4.87401 14.5521 4.88871 14.5563 4.90551C14.5692 4.95321 14.5758 5.0024 14.5759 5.05181V19.4429L20.1814 16.2152V8.85835C20.1814 8.80935 20.1884 8.75965 20.201 8.71275C20.2059 8.69595 20.215 8.68125 20.2206 8.66515C20.2318 8.63575 20.2416 8.60565 20.257 8.57835C20.2675 8.56016 20.2829 8.54546 20.2948 8.52866C20.3116 8.50626 20.3256 8.48316 20.3452 8.46356C20.3613 8.44746 20.3816 8.43556 20.3998 8.42156C20.4208 8.40476 20.439 8.38656 20.4614 8.37326L27.1897 4.50022C27.2748 4.45113 27.3714 4.4253 27.4697 4.4253C27.568 4.4253 27.6645 4.45113 27.7497 4.50022L34.4766 8.37326C34.5004 8.38726 34.5186 8.40476 34.5396 8.42086C34.5571 8.43486 34.5774 8.44746 34.5935 8.46286C34.6131 8.48316 34.6271 8.50626 34.6439 8.52866C34.6565 8.54546 34.6719 8.56016 34.6817 8.57835C34.6978 8.60565 34.7069 8.63575 34.7181 8.66515C34.7244 8.68125 34.7335 8.69595 34.7377 8.71275ZM33.6359 16.2152V9.82854L31.2818 11.1837L28.0297 13.0562V19.4429L33.6366 16.2152H33.6359ZM26.909 27.7686V21.3777L23.71 23.2046L14.5752 28.4182V34.8693L26.909 27.7686ZM1.12138 6.02129V27.7686L13.4538 34.8686V28.4189L7.01109 24.7726L7.00899 24.7712L7.00619 24.7698C6.9845 24.7572 6.9663 24.739 6.946 24.7236C6.9285 24.7096 6.9082 24.6984 6.8928 24.683L6.8914 24.6809C6.8732 24.6634 6.8606 24.6417 6.8452 24.6221C6.8312 24.6032 6.8144 24.5871 6.8032 24.5675L6.8025 24.5654C6.7899 24.5444 6.7822 24.5192 6.7731 24.4954C6.764 24.4744 6.7521 24.4548 6.7465 24.4324C6.7395 24.4058 6.7381 24.3771 6.7353 24.3498C6.7325 24.3288 6.7269 24.3078 6.7269 24.2868V9.24895L3.47545 7.37577L1.12138 6.02129ZM7.28829 1.82556L1.68347 5.05181L7.28689 8.27806L12.891 5.05111L7.28689 1.82556H7.28829ZM10.203 21.9601L13.4545 20.0883V6.02129L11.1004 7.37647L7.84828 9.24895V23.3159L10.203 21.9601ZM27.4697 5.6328L21.8656 8.85905L27.4697 12.0853L33.0731 8.85835L27.4697 5.6328ZM26.909 13.0562L23.6568 11.1837L21.3028 9.82854V16.2152L24.5542 18.087L26.909 19.4429V13.0562ZM14.0138 27.4487L22.2338 22.7559L26.3427 20.411L20.7428 17.1868L14.2952 20.8989L8.41877 24.2819L14.0138 27.4487Z" fill="#FF2D20"/>
</g>
<defs>
<clipPath id="clip0_5253_3843">
<rect width="34.8192" height="36" fill="white" transform="translate(0 0.499023)"/>
</clipPath>
</defs>
</svg>
