<svg width="36" height="37" viewBox="0 0 36 37" fill="none" xmlns="http://www.w3.org/2000/svg">
<g clip-path="url(#clip0_5253_4713)">
<path d="M18 36.499C27.9411 36.499 36 28.4401 36 18.499C36 8.5579 27.9411 0.499023 18 0.499023C8.05888 0.499023 0 8.5579 0 18.499C0 28.4401 8.05888 36.499 18 36.499Z" fill="#2081E2"/>
<path d="M8.87729 19.104L8.95505 18.982L13.6372 11.6567C13.6528 11.6324 13.6746 11.6128 13.7004 11.5999C13.7262 11.587 13.755 11.5813 13.7837 11.5834C13.8125 11.5855 13.8401 11.5954 13.8638 11.6119C13.8874 11.6284 13.9061 11.6509 13.918 11.6772C14.7003 13.4304 15.3753 15.6106 15.0592 16.9681C14.9242 17.5265 14.5545 18.2828 14.1383 18.982C14.0843 19.0838 14.0253 19.1836 13.9627 19.2797C13.948 19.3015 13.9281 19.3193 13.9049 19.3315C13.8816 19.3438 13.8557 19.3501 13.8295 19.3499H9.01409C8.88449 19.3499 8.80889 19.2095 8.87729 19.104Z" fill="white"/>
<path d="M29.7504 20.4652V21.6244C29.7504 21.6913 29.7098 21.7504 29.6507 21.7763C29.2882 21.9318 28.0473 22.5013 27.5314 23.2188C26.2145 25.0512 25.2087 27.672 22.9598 27.672H13.5782C10.2532 27.672 7.55859 24.9684 7.55859 21.6319V21.525C7.55859 21.4361 7.63059 21.3641 7.71951 21.3641H12.9496C13.0529 21.3641 13.1289 21.4602 13.1195 21.5621C13.0827 21.9078 13.1476 22.2568 13.3064 22.5661C13.4584 22.8737 13.6935 23.1327 13.985 23.3137C14.2764 23.4948 14.6127 23.5907 14.9559 23.5907H17.545V21.5693H14.9854C14.9554 21.5689 14.9261 21.5604 14.9007 21.5446C14.8752 21.5289 14.8545 21.5064 14.8408 21.4798C14.8271 21.4531 14.8209 21.4233 14.8229 21.3934C14.8249 21.3635 14.835 21.3347 14.8522 21.3101C14.8803 21.2676 14.9116 21.2237 14.9447 21.1733C15.2787 20.6926 15.5898 20.1965 15.8771 19.6865C16.1118 19.2761 16.3394 18.8376 16.5222 18.3977C16.5593 18.3181 16.5888 18.2368 16.6184 18.1572C16.6684 18.0168 16.7202 17.8854 16.7573 17.754C16.794 17.6431 16.8239 17.5265 16.8534 17.4174C16.9402 17.0437 16.9773 16.6481 16.9773 16.2377C16.9773 16.0768 16.9701 15.9083 16.955 15.7474C16.9478 15.5717 16.9254 15.396 16.9031 15.2203C16.8859 15.0628 16.8619 14.906 16.8311 14.7505C16.7926 14.5142 16.7433 14.2797 16.6835 14.0478L16.663 13.9593C16.6184 13.7983 16.5816 13.645 16.5298 13.4841C16.3867 12.9915 16.2225 12.5053 16.0377 12.0268C15.9729 11.8435 15.8991 11.6679 15.8253 11.4922C15.7162 11.2276 15.605 10.9875 15.5034 10.7599C15.4516 10.6563 15.4073 10.5619 15.363 10.4658C15.3136 10.3577 15.2624 10.2504 15.2093 10.144C15.1722 10.0648 15.1298 9.99062 15.1002 9.91646L14.7838 9.33218C14.7739 9.3145 14.7694 9.29429 14.7709 9.27407C14.7725 9.25386 14.7799 9.23455 14.7924 9.21855C14.8048 9.20256 14.8217 9.1906 14.8409 9.18417C14.8602 9.17775 14.8809 9.17714 14.9004 9.18242L16.8794 9.71882H16.8848C16.8884 9.71882 16.8905 9.72062 16.892 9.72062L17.153 9.79262L17.4395 9.87398L17.545 9.9035V8.72738C17.545 8.15966 18 7.69922 18.562 7.69922C18.8432 7.69922 19.0984 7.8137 19.2816 8.00054C19.4645 8.18774 19.5794 8.44262 19.5794 8.72774V10.4734L19.79 10.5324C19.8072 10.5378 19.8235 10.546 19.8382 10.5565C19.89 10.5954 19.9642 10.6527 20.0582 10.7229C20.1323 10.7819 20.2119 10.8543 20.308 10.9281C20.4984 11.0818 20.7256 11.2794 20.9754 11.5069C21.042 11.5645 21.1068 11.6236 21.1662 11.6826C21.5246 12.0125 21.867 12.3593 22.1922 12.7219C22.2887 12.831 22.383 12.9419 22.4792 13.0585C22.5753 13.177 22.6772 13.2933 22.7657 13.4099C22.8824 13.5654 23.008 13.7263 23.1171 13.8945C23.1689 13.974 23.228 14.0554 23.278 14.1349C23.4184 14.3473 23.5422 14.5677 23.6607 14.7876C23.7107 14.8895 23.7626 15.0004 23.8068 15.1095C23.9382 15.4036 24.0416 15.7035 24.1082 16.0026C24.1287 16.0674 24.1434 16.1376 24.1506 16.2006V16.2154C24.173 16.3043 24.1805 16.3986 24.1877 16.4947C24.2184 16.8031 24.2009 17.1144 24.1359 17.4174C24.1073 17.5484 24.0708 17.6775 24.0268 17.8041C23.9825 17.9301 23.9382 18.0611 23.8806 18.1849C23.7692 18.447 23.6362 18.6994 23.4832 18.9395C23.4332 19.0281 23.3741 19.1224 23.3147 19.2113C23.2499 19.3056 23.1837 19.3945 23.1243 19.4813C23.0429 19.5922 22.9562 19.7088 22.8672 19.8125C22.788 19.9216 22.7063 20.0307 22.6178 20.1268C22.4989 20.2688 22.3769 20.408 22.2516 20.5444C22.1775 20.6315 22.0979 20.7204 22.0166 20.8C21.9374 20.8885 21.8556 20.9681 21.7818 21.0423C21.658 21.1661 21.5543 21.2622 21.4676 21.3418L21.2642 21.5286C21.2339 21.5549 21.1952 21.5694 21.1551 21.5693H19.579V23.5907H21.5615C22.0037 23.5905 22.4313 23.4323 22.7672 23.1447C22.8838 23.0431 23.3921 22.6029 23.9933 21.939C24.0135 21.9166 24.0397 21.9006 24.0689 21.8929L29.5449 20.3097C29.5689 20.3029 29.5941 20.3019 29.6186 20.3065C29.6431 20.3112 29.6662 20.3214 29.6861 20.3365C29.7059 20.3516 29.7221 20.371 29.7332 20.3933C29.7443 20.4157 29.7504 20.4402 29.7504 20.4652Z" fill="white"/>
</g>
<defs>
<clipPath id="clip0_5253_4713">
<rect width="36" height="36" fill="white" transform="translate(0 0.499023)"/>
</clipPath>
</defs>
</svg>
