<svg width="36" height="37" viewBox="0 0 36 37" fill="none" xmlns="http://www.w3.org/2000/svg">
<path d="M18.0794 1.24902C17.6271 1.24902 17.1579 1.36631 16.7725 1.58412L4.30688 8.78874C3.50265 9.25788 3 10.1291 3 11.0674V25.4431C3 26.3814 3.50265 27.2527 4.30688 27.7218L7.57409 29.5984C9.16581 30.3691 9.70197 30.3858 10.4392 30.3858C12.7849 30.3858 14.142 28.9617 14.142 26.4819V12.2905C14.142 12.0895 13.9745 11.9219 13.7734 11.9219H12.2152C11.9974 11.9219 11.8298 12.0895 11.8298 12.2905V26.4819C11.8298 27.5878 10.6905 28.6768 8.86422 27.7553L5.42946 25.795C5.31218 25.7112 5.24516 25.5772 5.24516 25.4431V11.0674C5.24516 10.9166 5.31218 10.7826 5.42946 10.7156L17.8951 3.52769C17.9957 3.46067 18.1632 3.46067 18.2637 3.52769L30.7294 10.7156C30.8467 10.7826 30.9137 10.9166 30.9137 11.0674V25.4431C30.9137 25.5772 30.8467 25.7112 30.7294 25.795L18.2637 32.9829C18.1632 33.0499 17.9957 33.0499 17.8784 32.9829L14.7284 31.0728C14.5944 31.0225 14.4604 31.0058 14.3766 31.056C13.4886 31.5587 13.321 31.6592 12.5 31.9105C12.299 31.9776 11.9806 32.0948 12.6173 32.4467L16.7725 34.9097C17.1747 35.1442 17.6103 35.2615 18.0794 35.2615C18.5486 35.2615 18.9842 35.1442 19.3863 34.9097L31.852 27.7218C32.6562 27.2527 33.1589 26.3814 33.1589 25.4431V11.0674C33.1589 10.1291 32.6562 9.25788 31.852 8.78874L19.3863 1.58412C19.001 1.36631 18.5486 1.24902 18.0794 1.24902ZM21.4304 11.5533C17.8784 11.5533 15.7505 13.0445 15.7505 15.5577C15.7505 18.2553 17.8616 19.0428 21.2796 19.3779C25.3511 19.78 25.6694 20.3831 25.6694 21.1874C25.6694 22.578 24.5468 23.1645 21.9331 23.1645C18.6156 23.1645 17.9119 22.3435 17.6606 20.7015C17.627 20.5339 17.4763 20.3999 17.292 20.3999H15.6835C15.4824 20.3999 15.3316 20.5507 15.3316 20.7685C15.3316 22.8461 16.471 25.3594 21.9331 25.3594C25.8705 25.3594 28.1324 23.8012 28.1324 21.0869C28.1324 18.3893 26.3229 17.6856 22.486 17.1662C18.6156 16.6636 18.2302 16.3955 18.2302 15.4907C18.2302 14.7367 18.5653 13.7314 21.4304 13.7314C23.9437 13.7314 24.9322 14.2844 25.3176 16.0101C25.3511 16.1777 25.5019 16.2949 25.6694 16.2949H27.2946C27.3784 16.2949 27.4789 16.2614 27.546 16.1777C27.613 16.1106 27.6633 16.0101 27.6297 15.9096C27.3952 12.9272 25.4181 11.5533 21.4304 11.5533Z" fill="#8BC34A"/>
</svg>
