<svg width="36" height="37" viewBox="0 0 36 37" fill="none" xmlns="http://www.w3.org/2000/svg">
<g clip-path="url(#clip0_5253_4039)">
<path d="M1.5 2.04395H34.5001V34.144H1.5V2.04395Z" fill="#001D26"/>
<path d="M1.49998 2.04393H34.5001V34.144H1.49998V2.04393ZM0 35.6441H36.0001V0.543945H0V35.6441ZM24.27 14.944C23.085 14.944 22.6801 15.544 22.6801 16.0389C22.6801 16.5789 22.95 16.9539 24.5401 17.779C26.8951 18.919 27.6301 20.014 27.6301 21.619C27.6301 24.019 25.8001 25.309 23.3251 25.309C22.02 25.309 20.895 25.039 20.25 24.664C20.145 24.619 20.13 24.544 20.13 24.424V22.219C20.13 22.069 20.205 22.0239 20.3101 22.099C21.2551 22.714 22.3351 22.984 23.3251 22.984C24.5101 22.984 25.0051 22.489 25.0051 21.814C25.0051 21.274 24.6601 20.794 23.145 20.014C21.015 18.994 20.13 17.959 20.13 16.234C20.13 14.2989 21.6451 12.694 24.27 12.694C25.5601 12.694 26.4601 12.889 26.9551 13.114C27.075 13.189 27.105 13.3089 27.105 13.4139V15.4689C27.105 15.5889 27.03 15.6639 26.88 15.6189C26.22 15.199 25.245 14.944 24.27 14.944ZM11.37 16.729C11.715 16.759 11.985 16.759 12.585 16.759C14.3401 16.759 15.9901 16.144 15.9901 13.759C15.9901 11.854 14.805 10.894 12.8101 10.894C12.2101 10.894 11.64 10.924 11.37 10.939V16.729ZM8.70006 8.76394C8.70006 8.65896 8.91009 8.58391 9.03001 8.58391C9.99006 8.53891 11.4151 8.50892 12.9 8.50892C17.055 8.50892 18.675 10.7889 18.675 13.699C18.675 17.5089 15.915 19.144 12.525 19.144C11.955 19.144 11.7601 19.114 11.355 19.114V24.874C11.355 24.994 11.31 25.054 11.175 25.054H8.88003C8.76005 25.054 8.69999 25.009 8.69999 24.874L8.70006 8.76394Z" fill="#31C5F0"/>
</g>
<defs>
<clipPath id="clip0_5253_4039">
<rect width="36" height="36" fill="white" transform="translate(0 0.499023)"/>
</clipPath>
</defs>
</svg>
