<svg width="36" height="37" viewBox="0 0 36 37" fill="none" xmlns="http://www.w3.org/2000/svg">
<g clip-path="url(#clip0_5253_4709)">
<path d="M29.7429 10.1668L21.4629 1.86431C21.0246 1.41256 20.5 1.05341 19.9202 0.808154C19.3405 0.562897 18.7174 0.436523 18.0879 0.436523C17.4585 0.436523 16.8354 0.562897 16.2557 0.808154C15.6759 1.05341 15.1513 1.41256 14.7129 1.86431L6.41045 10.1668L18.0429 15.9718L29.7429 10.1668ZM32.9199 13.5193L34.5624 15.1618C35.0171 15.5985 35.3788 16.1226 35.6258 16.7026C35.8729 17.2825 36.0003 17.9064 36.0003 18.5368C36.0003 19.1672 35.8729 19.7911 35.6258 20.3711C35.3788 20.951 35.0171 21.4751 34.5624 21.9118L21.3302 35.2746C21.0166 35.5954 20.6516 35.8616 20.2502 36.0621V19.8643L32.9199 13.5193ZM3.08045 13.5193L1.43795 15.1618C0.983296 15.5985 0.621567 16.1226 0.374469 16.7025C0.127371 17.2825 0 17.9064 0 18.5368C0 19.1672 0.127371 19.7911 0.374469 20.3711C0.621567 20.9511 0.983296 21.4751 1.43795 21.9118L14.6702 35.2746C14.9838 35.5956 15.3489 35.8617 15.7502 36.0621V19.8643L3.08045 13.5193Z" fill="black"/>
</g>
<defs>
<clipPath id="clip0_5253_4709">
<rect width="36" height="36" fill="white" transform="translate(0 0.249023)"/>
</clipPath>
</defs>
</svg>
