<svg width="36" height="37" viewBox="0 0 36 37" fill="none" xmlns="http://www.w3.org/2000/svg">
<path d="M18 21.2822C19.5533 21.2822 20.8125 20.023 20.8125 18.4697C20.8125 16.9164 19.5533 15.6572 18 15.6572C16.4467 15.6572 15.1875 16.9164 15.1875 18.4697C15.1875 20.023 16.4467 21.2822 18 21.2822Z" fill="#00D8FF"/>
<path d="M18 24.9185C14.6195 25.0002 11.2475 24.5445 8.01 23.5685C6.51445 23.0944 5.11958 22.3475 3.89588 21.3657C3.42892 21.0303 3.04006 20.5978 2.75596 20.098C2.47186 19.5982 2.29926 19.0428 2.25 18.47C2.25 16.6103 4.293 14.7878 7.71525 13.5953C11.0393 12.5387 14.5124 12.0266 18 12.0788C21.441 12.0308 24.8676 12.5336 28.1497 13.5683C29.5901 14.0275 30.9376 14.7382 32.13 15.6676C32.589 15.9873 32.972 16.4041 33.252 16.8884C33.5319 17.3727 33.7019 17.9126 33.75 18.47C33.75 20.4027 31.4663 22.3613 27.7875 23.5786C24.6127 24.5229 21.3118 24.9747 18 24.9185ZM18 13.4243C14.6634 13.3797 11.3409 13.8666 8.15737 14.8666C5.00738 15.9657 3.5955 17.4687 3.5955 18.4666C3.5955 19.5106 5.11313 21.152 8.44537 22.2916C11.5426 23.2207 14.7674 23.6532 18 23.573C21.1685 23.6296 24.3269 23.2009 27.3656 22.3017C30.825 21.1553 32.4 19.5117 32.4 18.47C32.3432 18.1125 32.213 17.7706 32.0174 17.466C31.8218 17.1614 31.5652 16.9007 31.2638 16.7003C30.197 15.8759 28.9932 15.246 27.7076 14.8396C24.5678 13.8538 21.2906 13.376 18 13.4243Z" fill="#00D8FF"/>
<path d="M11.6096 32.4976C11.0847 32.5096 10.5661 32.3823 10.1066 32.1286C8.49556 31.1993 7.93756 28.5196 8.61369 24.9589C9.35916 21.5514 10.6508 18.2869 12.4387 15.2918C14.1158 12.287 16.2628 9.56995 18.7983 7.24355C19.9156 6.22509 21.2045 5.41266 22.6053 4.84393C23.112 4.60648 23.6647 4.4834 24.2242 4.4834C24.7837 4.4834 25.3364 4.60648 25.8431 4.84393C27.5182 5.80918 28.0728 8.76568 27.2909 12.5603C26.5224 15.7829 25.2643 18.8687 23.5604 21.7099C21.9424 24.6792 19.863 27.3726 17.3999 29.6896C16.2421 30.7479 14.8983 31.5829 13.4366 32.1522C12.8514 32.3694 12.2337 32.4861 11.6096 32.4976ZM13.6042 15.9601C11.8988 18.828 10.6608 21.9492 9.93669 25.2064C9.31456 28.4858 9.91194 30.4579 10.7804 30.9597C11.6804 31.4806 13.8652 30.9867 16.5179 28.6692C18.8692 26.4495 20.8539 23.8713 22.3983 21.0304C24.0306 18.3141 25.2375 15.364 25.9769 12.2824C26.7127 8.71055 26.0771 6.52355 25.1748 6.0038C24.8367 5.87423 24.4753 5.81623 24.1136 5.83346C23.7518 5.8507 23.3976 5.94279 23.0733 6.10393C21.8265 6.61844 20.6801 7.34889 19.6871 8.26168C17.2646 10.4901 15.2137 13.0912 13.6121 15.9668L13.6042 15.9601Z" fill="#00D8FF"/>
<path d="M24.3875 32.5122C22.8632 32.5122 20.927 31.5897 18.911 29.8561C16.3311 27.5086 14.1478 24.7592 12.4457 21.7145C10.6802 18.7606 9.39878 15.5434 8.64991 12.1846C8.32513 10.7069 8.26495 9.18333 8.47216 7.68462C8.52006 7.12865 8.68935 6.58996 8.96809 6.10654C9.24683 5.62312 9.62824 5.20673 10.0854 4.88674C11.7583 3.91812 14.5967 4.91374 17.4935 7.48549C19.9017 9.76045 21.9467 12.3913 23.5573 15.2862C25.3216 18.1711 26.6165 21.318 27.3935 24.6091C27.7323 26.141 27.7845 27.7224 27.5477 29.2734C27.4913 29.8453 27.3119 30.3983 27.0218 30.8945C26.7317 31.3906 26.3377 31.8181 25.8669 32.1477C25.4148 32.3983 24.9043 32.5241 24.3875 32.5122ZM13.61 21.0372C15.2429 23.947 17.3285 26.5783 19.7885 28.8324C22.3187 31.0092 24.3257 31.4772 25.1885 30.9699C26.0885 30.4467 26.7523 28.3115 26.0683 24.8566C25.3189 21.7144 24.0769 18.7106 22.3884 15.9567C20.8515 13.186 18.8995 10.6668 16.6003 8.48674C13.8733 6.06574 11.6615 5.52462 10.7604 6.04662C10.4795 6.27486 10.2491 6.55886 10.0835 6.88068C9.91794 7.2025 9.82091 7.55515 9.79853 7.91637C9.61966 9.25297 9.67793 10.6106 9.97066 11.927C10.691 15.139 11.92 18.2153 13.6112 21.0395L13.61 21.0372Z" fill="#00D8FF"/>
</svg>
