<svg width="36" height="37" viewBox="0 0 36 37" fill="none" xmlns="http://www.w3.org/2000/svg">
<g clip-path="url(#clip0_5253_4010)">
<path fill-rule="evenodd" clip-rule="evenodd" d="M7.85383 3.42115L17.9986 2.3584L28.1433 3.42115L35.9978 13.869L17.9993 34.6384L0 13.869L7.85383 3.42115Z" fill="#FDB300"/>
<path fill-rule="evenodd" clip-rule="evenodd" d="M7.29087 13.9951L17.9993 34.6396L0 13.9951H7.29087Z" fill="#EA6C00"/>
<path fill-rule="evenodd" clip-rule="evenodd" d="M28.7091 13.9951L18 34.6396L36 13.9951H28.7091Z" fill="#EA6C00"/>
<path fill-rule="evenodd" clip-rule="evenodd" d="M7.12891 13.9951H28.5031L17.816 34.6396L7.12891 13.9951Z" fill="#FDAD00"/>
<path fill-rule="evenodd" clip-rule="evenodd" d="M17.6357 2.3584L7.68122 3.43251L7.12891 13.994L17.6357 2.3584Z" fill="#FDD231"/>
<path fill-rule="evenodd" clip-rule="evenodd" d="M17.9893 2.3584L27.9438 3.43251L28.4961 13.994L17.9893 2.3584Z" fill="#FDD231"/>
<path fill-rule="evenodd" clip-rule="evenodd" d="M36 13.9947L28.1249 3.48438L28.69 13.9947H36Z" fill="#FDAD00"/>
<path fill-rule="evenodd" clip-rule="evenodd" d="M0 13.9947L7.87442 3.48438L7.30932 13.9947H0Z" fill="#FDAD00"/>
<path fill-rule="evenodd" clip-rule="evenodd" d="M17.816 2.3584L7.12891 13.994H28.5031L17.816 2.3584Z" fill="#FEEEB7"/>
</g>
<defs>
<clipPath id="clip0_5253_4010">
<rect width="36" height="36" fill="white" transform="translate(0 0.499023)"/>
</clipPath>
</defs>
</svg>
