<svg width="36" height="37" viewBox="0 0 36 37" fill="none" xmlns="http://www.w3.org/2000/svg">
<path d="M23.4522 32.2734C20.11 31.3731 17.3492 30.6112 17.3173 30.5798C17.2854 30.549 16.8831 29.8503 16.4235 29.028L15.5879 27.5327L13.7215 27.507L11.8551 27.4812L7.44318 23.0615C5.01662 20.6304 3.03125 18.5882 3.03125 18.5229C3.03125 18.4586 5.03586 16.3953 7.48592 13.9396L11.9406 9.47456L13.7642 9.44884L15.5879 9.42313L16.4235 7.9281C16.8831 7.10576 17.2851 6.40762 17.3169 6.3765C17.3881 6.30707 29.6919 3.03082 29.732 3.07067C29.7474 3.09639 30.4818 5.86556 31.363 9.24673L32.9651 15.3942L32.0498 16.9556L31.1345 18.517L32.0499 20.0784L32.9653 21.64L31.353 27.6276C29.4992 34.5115 29.6647 33.9222 29.5885 33.9101C29.5559 33.9101 26.7945 33.1644 23.4522 32.2641V32.2734ZM25.1024 29.1208C25.0348 29.0128 23.8541 26.9474 22.4789 24.5305C21.1037 22.1136 19.9668 20.1226 19.9523 20.1061C19.8662 20.0084 9.29677 19.8747 9.29677 19.9698C9.29677 20.0084 9.7578 20.5109 10.3213 21.0876C11.4806 22.2738 14.7927 25.728 15.4398 26.4252L15.8668 26.8854L17.9553 27.436C20.6776 28.1537 23.6392 28.9446 24.3514 29.1442C24.6625 29.2316 24.9864 29.3062 25.0713 29.3088C25.2099 29.3088 25.213 29.3111 25.1024 29.1208ZM29.1748 23.073L30.4478 18.526L29.1748 13.9792C28.4746 11.4785 27.8742 9.40282 27.8405 9.36682C27.8068 9.33082 26.5959 11.3766 25.1495 13.9136L22.5197 18.526L25.1495 23.1386C26.5959 25.6753 27.8068 27.7214 27.8405 27.6854C27.8742 27.6494 28.4746 25.5738 29.1748 23.073ZM19.8825 16.9278C20.0078 16.8044 25.2194 7.7913 25.1854 7.75736C25.1726 7.75736 24.2834 7.96307 23.2113 8.24644C21.3114 8.74736 16.7849 9.93227 16.1674 10.0904C15.9485 10.147 15.6575 10.3782 15.1661 10.8886C14.7852 11.2843 13.2891 12.8272 11.8416 14.3173C10.3941 15.8075 9.20972 17.0479 9.20972 17.0739C9.20972 17.0996 11.5887 17.0996 14.4962 17.0736C18.2599 17.0402 19.8115 16.9998 19.8825 16.9278Z" fill="black"/>
</svg>
