<svg width="75" height="47" viewBox="0 0 75 47" fill="none" xmlns="http://www.w3.org/2000/svg">
<path d="M4.77905 46.4798C2.78174 46.4798 1.29876 45.1411 0.561021 42.5936C-2.33492 32.5945 6.51462 3.06909 14.8557 0.388226C17.4582 -0.62877 21.4136 0.566616 25.9934 1.9504C29.6888 3.06743 33.8776 4.332 37.4996 4.332C40.744 4.21113 44.5553 3.0966 48.2406 2.01875C53.1739 0.57662 57.4336 -0.67045 60.192 0.405732C68.4855 3.06909 77.3342 32.5945 74.4391 42.5936C73.5463 45.6796 71.5573 46.9925 68.8465 46.2898C65.0336 45.5237 60.9964 43.6656 56.7225 41.6974C50.5756 38.8674 44.2185 35.9414 37.4972 35.7347C31.0167 35.8872 24.6196 38.8165 18.4335 41.6499C14.0862 43.6414 9.97907 45.522 6.10948 46.3006C5.64517 46.4206 5.20002 46.4798 4.77905 46.4798ZM17.1547 1.68365C16.492 1.68365 15.9052 1.76701 15.4133 1.95873C8.57111 4.15945 -0.683548 32.3044 2.16237 42.1292C3.00014 45.0227 4.60316 44.966 5.73686 44.6759C9.46057 43.9248 13.4819 42.0834 17.7391 40.1336C24.0861 37.2268 30.6491 34.2208 37.4813 34.0675H37.5247C44.5936 34.2784 51.1141 37.2802 57.4203 40.1836C61.6033 42.1092 65.5537 43.9282 69.2191 44.6659C70.3953 44.9677 71.9983 45.0235 72.8378 42.1309C75.6828 32.3052 66.429 4.16028 59.6343 1.97707C57.3552 1.09012 53.1564 2.31968 48.7091 3.62011C44.9254 4.7263 41.0133 5.87083 37.5313 6.00004C37.5305 6.00004 37.5297 6.00004 37.5288 6.00004C33.6301 6.00004 29.3178 4.69712 25.5124 3.54758C22.3606 2.59477 19.3429 1.68365 17.1547 1.68365Z" fill="white"/>
<path d="M26.38 17.5255H24.7111V15.8566C24.7111 13.9102 23.1181 12.3171 21.1717 12.3171C19.2252 12.3171 17.6322 13.9102 17.6322 15.8566V17.5255H15.9633C14.0168 17.5255 12.4238 19.1185 12.4238 21.065C12.4238 23.0114 14.0168 24.6045 15.9633 24.6045H17.6322V26.2733C17.6322 28.2198 19.2252 29.8128 21.1717 29.8128C23.1181 29.8128 24.7111 28.2198 24.7111 26.2733V24.6053H26.38C28.3265 24.6053 29.9195 23.0123 29.9195 21.0658C29.9195 19.1185 28.3273 17.5255 26.38 17.5255Z" fill="white"/>
<path d="M54.463 17.668C55.8621 17.668 56.9963 16.5338 56.9963 15.1346C56.9963 13.7355 55.8621 12.6013 54.463 12.6013C53.0639 12.6013 51.9297 13.7355 51.9297 15.1346C51.9297 16.5338 53.0639 17.668 54.463 17.668Z" fill="white"/>
<path d="M54.463 29.8302C55.8621 29.8302 56.9963 28.696 56.9963 27.2969C56.9963 25.8978 55.8621 24.7635 54.463 24.7635C53.0639 24.7635 51.9297 25.8978 51.9297 27.2969C51.9297 28.696 53.0639 29.8302 54.463 29.8302Z" fill="white"/>
<path d="M48.3849 23.7533C49.784 23.7533 50.9182 22.6191 50.9182 21.22C50.9182 19.8208 49.784 18.6866 48.3849 18.6866C46.9858 18.6866 45.8516 19.8208 45.8516 21.22C45.8516 22.6191 46.9858 23.7533 48.3849 23.7533Z" fill="white"/>
<path d="M60.5392 23.7533C61.9383 23.7533 63.0725 22.6191 63.0725 21.22C63.0725 19.8208 61.9383 18.6866 60.5392 18.6866C59.1401 18.6866 58.0059 19.8208 58.0059 21.22C58.0059 22.6191 59.1401 23.7533 60.5392 23.7533Z" fill="white"/>
</svg>
