<svg width="75" height="75" viewBox="0 0 75 75" fill="none" xmlns="http://www.w3.org/2000/svg">
<path d="M25.05 59.375V59.325H25H7.81256C5.75456 59.3225 3.78155 58.5039 2.32632 57.0487C0.871096 55.5934 0.0524651 53.6204 0.05 51.5624L0.05 7.81253C0.0524734 5.75454 0.871103 3.78154 2.32632 2.32632C3.78155 0.871096 5.75456 0.0524651 7.81256 0.05H67.1874C69.2454 0.0524651 71.2184 0.871096 72.6737 2.32632C74.1289 3.78155 74.9475 5.75456 74.95 7.8125V35.9375C74.95 36.3386 74.7906 36.7234 74.507 37.007C74.2234 37.2906 73.8386 37.45 73.4375 37.45C73.0364 37.45 72.6516 37.2906 72.368 37.007C72.0844 36.7234 71.925 36.3386 71.925 35.9375V7.8125C71.925 6.55604 71.4259 5.35104 70.5374 4.46258C69.649 3.57413 68.444 3.075 67.1875 3.075H7.8125C6.55604 3.075 5.35104 3.57413 4.46258 4.46258C3.57413 5.35104 3.075 6.55604 3.075 7.8125V51.5625C3.075 52.819 3.57413 54.024 4.46258 54.9124C5.35104 55.8009 6.55604 56.3 7.8125 56.3H67.1875C68.444 56.3 69.649 55.8009 70.5374 54.9124C71.4259 54.024 71.925 52.819 71.925 51.5625V45.3125V45.2625H71.875H9.375C8.97386 45.2625 8.58915 45.1031 8.3055 44.8195C8.02185 44.5359 7.8625 44.1511 7.8625 43.75C7.8625 43.3489 8.02185 42.9641 8.3055 42.6805C8.58915 42.3969 8.97386 42.2375 9.375 42.2375H73.4375C73.8386 42.2375 74.2234 42.3969 74.507 42.6805C74.7906 42.9641 74.95 43.3489 74.95 43.75V51.5624C74.9475 53.6204 74.1289 55.5934 72.6737 57.0487C71.2184 58.5039 69.2454 59.3225 67.1875 59.325H28.125H28.075V59.375L28.075 67.1875L28.075 67.1877C28.0758 67.4374 28.0147 67.6834 27.8973 67.9038C27.7798 68.1241 27.6097 68.312 27.4019 68.4506L23.4098 71.1068L23.3875 71.1217V71.1484V71.875V71.925H23.4375H51.5625H51.6125V71.875V71.1484V71.1217L51.5902 71.1068L47.5981 68.4459C47.391 68.3077 47.2212 68.1206 47.1038 67.9011C46.9864 67.6816 46.925 67.4365 46.925 67.1875V64.0625C46.925 63.6614 47.0844 63.2766 47.368 62.993C47.6516 62.7094 48.0364 62.55 48.4375 62.55C48.8386 62.55 49.2234 62.7094 49.507 62.993C49.7906 63.2766 49.95 63.6614 49.95 64.0625V66.3516V66.3783L49.9723 66.3932L53.9644 69.0541C54.1715 69.1923 54.3413 69.3794 54.4587 69.5989C54.5761 69.8184 54.6375 70.0635 54.6375 70.3125V71.875C54.6375 72.6905 54.3135 73.4727 53.7369 74.0494C53.1602 74.626 52.378 74.95 51.5625 74.95H23.4375C22.622 74.95 21.8398 74.626 21.2631 74.0494C20.6865 73.4727 20.3625 72.6905 20.3625 71.875L20.3625 70.3125L20.3625 70.3123C20.3617 70.0626 20.4228 69.8166 20.5402 69.5962C20.6577 69.3759 20.8278 69.188 21.0356 69.0494L25.0277 66.3932L25.05 66.3783V66.3516V59.375Z" fill="white" stroke="#F5F5F5" stroke-width="0.1"/>
<path d="M22.4508 21.875L22.4862 21.8397L30.7565 13.5694C31.04 13.2857 31.1993 12.9011 31.1993 12.5C31.1993 12.099 31.04 11.7143 30.7565 11.4307C30.4729 11.1472 30.0882 10.9879 29.6872 10.9879C29.2861 10.9879 28.9015 11.1472 28.6178 11.4307L22.4508 21.875ZM22.4508 21.875L22.4862 21.9104L30.7559 30.1801C30.756 30.1802 30.7561 30.1803 30.7562 30.1804C31.0315 30.4656 31.1839 30.8476 31.1804 31.244C31.177 31.6405 31.0179 32.0199 30.7375 32.3003C30.457 32.5808 30.0777 32.7398 29.6811 32.7433C29.2847 32.7467 28.9027 32.5944 28.6175 32.319C28.6174 32.3189 28.6173 32.3188 28.6172 32.3188L19.2428 22.9444C19.2428 22.9444 19.2428 22.9444 19.2428 22.9444C18.9593 22.6607 18.8 22.2761 18.8 21.875C18.8 21.474 18.9593 21.0893 19.2428 20.8057C19.2428 20.8057 19.2428 20.8057 19.2428 20.8057L28.6178 11.4307L22.4508 21.875Z" fill="white" stroke="#F5F5F5" stroke-width="0.1"/>
<path d="M46.3809 11.4302L46.3809 11.4302L46.3815 11.4308L55.7565 20.8058C55.7565 20.8058 55.7565 20.8058 55.7565 20.8058C56.0401 21.0895 56.1993 21.4741 56.1993 21.8752C56.1993 22.2762 56.0401 22.6609 55.7565 22.9445C55.7565 22.9445 55.7565 22.9445 55.7565 22.9445L46.3815 32.3195C46.0979 32.603 45.7132 32.7623 45.3122 32.7623C44.9111 32.7623 44.5265 32.603 44.2428 32.3195C43.9593 32.0359 43.8 31.6512 43.8 31.2502C43.8 30.8491 43.9593 30.4645 44.2428 30.1808L52.5131 21.9105L52.5485 21.8752L52.5131 21.8398L44.2428 13.5695L44.2428 13.5695L44.2422 13.5689C44.0978 13.4294 43.9825 13.2625 43.9033 13.0779C43.824 12.8934 43.7823 12.6949 43.7805 12.4941C43.7788 12.2933 43.817 12.0941 43.8931 11.9082C43.9691 11.7223 44.0815 11.5535 44.2235 11.4115C44.3655 11.2694 44.5344 11.1571 44.7202 11.0811C44.9061 11.005 45.1053 10.9668 45.3061 10.9685C45.5069 10.9703 45.7054 11.012 45.8899 11.0913C46.0745 11.1705 46.2414 11.2857 46.3809 11.4302Z" fill="white" stroke="#F5F5F5" stroke-width="0.1"/>
</svg>
